<?xml version="1.0" encoding="UTF-8"?>
<!-- Generator: Adobe Illustrator 23.0.2, SVG Export Plug-In . SVG Version: 6.00 Build 0)  -->
<svg xmlns="http://www.w3.org/2000/svg" xmlns:xlink="http://www.w3.org/1999/xlink" id="Layer_1" x="0px" y="0px" viewBox="0 0 490 239" style="enable-background:new 0 0 490 239;" xml:space="preserve">
<style type="text/css">
	.st0{fill:#D5E0E0;}
	.st1{fill:#FFFFFF;}
	.st2{fill:#565E66;}
	.st3{fill:#4DBDEB;}
	.st4{fill:none;stroke:#B1B8B9;stroke-width:6;stroke-linecap:round;stroke-linejoin:round;}
	.st5{fill:none;stroke:#565E66;stroke-width:6;stroke-linecap:round;stroke-linejoin:round;}
	.st6{fill:#4DBCEA;}
	.st7{enable-background:new    ;}
	.st8{fill:#272733;}
	.st9{fill:#FC4949;}
	.st10{fill:#009CEB;}
</style>
<path class="st0" d="M161.7,146.7H6.9c-3.1,0-5.6-2.5-5.6-5.6c0,0,0,0,0,0V6.7C1.3,3.5,3.8,1,6.9,1c0,0,0,0,0,0h154.8  c3.1,0,5.6,2.5,5.6,5.7v134.5C167.4,144.2,164.8,146.7,161.7,146.7C161.7,146.7,161.7,146.7,161.7,146.7z"></path>
<path class="st1" d="M147.6,137.1H20.5c-4.1-0.3-7.4-3.8-7.3-7.9V45.1c0-4.4,3.5-7.9,7.9-7.9l0,0h126.5c4.4,0,7.9,3.5,7.9,7.9l0,0  v84.2C155.2,133.5,151.8,136.9,147.6,137.1z"></path>
<circle class="st2" cx="17.2" cy="18" r="3.5"></circle>
<circle class="st2" cx="29" cy="18" r="3.5"></circle>
<circle class="st2" cx="41.3" cy="18" r="3.5"></circle>
<rect x="24.4" y="46.2" class="st3" width="119.2" height="31.9"></rect>
<rect x="24.4" y="89.7" class="st3" width="37.3" height="37.3"></rect>
<line class="st4" x1="73.6" y1="91.9" x2="139.7" y2="91.9"></line>
<line class="st4" x1="73.6" y1="108.9" x2="139.7" y2="108.9"></line>
<line class="st4" x1="73.6" y1="123.6" x2="139.7" y2="123.6"></line>
<line class="st5" x1="69.1" y1="18" x2="140.2" y2="18"></line>
<g id="Final-Iteration">
	<g id="Iteration-4_Link-Intersect">
		<g id="process-icon-arrow">
			<g id="Shape">
				<path class="st6" d="M188.6,80.8c-1,0-1.8-0.8-1.8-1.8c0-0.6,0.3-1.2,0.8-1.6c4.2-2.7,8.5-5.2,13.1-7.3c0.9-0.5,2-0.2,2.5,0.7      c0.5,0.9,0.2,2-0.7,2.5c-0.1,0-0.1,0.1-0.2,0.1c-4.4,2-8.6,4.4-12.6,7C189.3,80.7,188.9,80.8,188.6,80.8z M286.7,74.1      c-0.3,0-0.5-0.1-0.8-0.2c-4.3-2.1-8.8-3.8-13.4-5.2c-1-0.2-1.6-1.2-1.4-2.2c0.2-1,1.2-1.6,2.2-1.4c0.1,0,0.2,0,0.2,0.1      c4.8,1.5,9.4,3.3,13.9,5.4c0.9,0.4,1.3,1.6,0.8,2.5C288,73.7,287.4,74.1,286.7,74.1L286.7,74.1z M215.1,68.4      c-1,0-1.8-0.8-1.8-1.8c0-0.8,0.5-1.5,1.3-1.8c4.8-1.4,9.7-2.5,14.6-3.2c1-0.1,1.9,0.6,2.1,1.6c0.1,1-0.6,1.9-1.6,2.1l0,0      c-4.8,0.7-9.5,1.7-14.1,3.1C215.5,68.4,215.3,68.4,215.1,68.4z M258.7,65.4h-0.3c-4.8-0.7-9.6-1.1-14.4-1.1c-1-0.1-1.8-1-1.7-2      c0.1-0.9,0.8-1.6,1.7-1.7l0,0c5,0,10,0.4,14.9,1.2c1,0.2,1.7,1.1,1.5,2.1C260.3,64.8,259.6,65.4,258.7,65.4L258.7,65.4z"></path>
			</g>
			<g id="Shape-2">
				<path class="st6" d="M305.8,84.3h-14.9c-1-0.1-1.8-1-1.7-2c0.1-0.9,0.8-1.6,1.7-1.7h10l-2.8-9.6c-0.2-1,0.4-2,1.4-2.2      c0.9-0.2,1.8,0.3,2.1,1.2L305.8,84.3z"></path>
			</g>
		</g>
	</g>
</g>
<path class="st0" d="M483.4,146.7H328.6c-3.1,0-5.6-2.5-5.6-5.6c0,0,0,0,0,0V6.7c0-3.1,2.5-5.6,5.6-5.7h154.8c3.1,0,5.6,2.5,5.6,5.7  v134.5C489,144.2,486.5,146.7,483.4,146.7C483.4,146.7,483.4,146.7,483.4,146.7z"></path>
<path class="st1" d="M469.2,137.1H342.1c-4.1-0.3-7.4-3.8-7.4-7.9V45.1c0-4.4,3.5-7.9,7.9-7.9l0,0h126.5c4.4,0,7.9,3.5,7.9,7.9v0  l0,0v84.2C476.9,133.5,473.5,136.9,469.2,137.1z"></path>
<circle class="st2" cx="338.9" cy="18" r="3.5"></circle>
<circle class="st2" cx="350.6" cy="18" r="3.5"></circle>
<circle class="st2" cx="362.9" cy="18" r="3.5"></circle>
<rect x="346.1" y="46.2" class="st3" width="119.2" height="31.9"></rect>
<rect x="346" y="89.7" class="st3" width="37.3" height="37.3"></rect>
<line class="st4" x1="395.2" y1="91.9" x2="461.3" y2="91.9"></line>
<line class="st4" x1="395.2" y1="108.9" x2="461.3" y2="108.9"></line>
<line class="st4" x1="395.2" y1="123.6" x2="461.3" y2="123.6"></line>
<line class="st5" x1="390.7" y1="18" x2="461.9" y2="18"></line>
<g class="st7">
	<path class="st8" d="M58.9,170.5c0,1.1-0.2,2.2-0.5,3.1s-0.9,1.8-1.5,2.4c-0.7,0.7-1.4,1.2-2.3,1.6c-0.9,0.4-1.9,0.6-3,0.6   s-2.1-0.2-3-0.6c-0.9-0.4-1.7-0.9-2.3-1.6c-0.7-0.7-1.2-1.5-1.5-2.4s-0.5-2-0.5-3.1s0.2-2.2,0.5-3.1c0.4-0.9,0.9-1.8,1.5-2.4   c0.7-0.7,1.4-1.2,2.3-1.6c0.9-0.4,1.9-0.6,3-0.6s2.1,0.2,3,0.6c0.9,0.4,1.7,0.9,2.3,1.6c0.7,0.7,1.2,1.5,1.5,2.4   C58.7,168.3,58.9,169.4,58.9,170.5z M56.8,170.5c0-0.9-0.1-1.8-0.4-2.5s-0.6-1.4-1.1-1.9s-1-0.9-1.7-1.2c-0.7-0.3-1.4-0.4-2.2-0.4   c-0.8,0-1.5,0.1-2.2,0.4c-0.7,0.3-1.2,0.7-1.7,1.2c-0.5,0.5-0.8,1.1-1.1,1.9s-0.4,1.6-0.4,2.5s0.1,1.8,0.4,2.5   c0.3,0.7,0.6,1.4,1.1,1.9c0.5,0.5,1,0.9,1.7,1.2c0.7,0.3,1.4,0.4,2.2,0.4c0.8,0,1.5-0.1,2.2-0.4c0.7-0.3,1.2-0.7,1.7-1.2   s0.8-1.1,1.1-1.9C56.7,172.3,56.8,171.4,56.8,170.5z"></path>
	<path class="st8" d="M63.1,162.6V178h-1.9v-15.5H63.1z"></path>
	<path class="st8" d="M74.9,162.6V178h-1.1c-0.3,0-0.4-0.1-0.5-0.4l-0.2-1.3c-0.5,0.5-1,1-1.6,1.3s-1.3,0.5-2,0.5   c-0.6,0-1.2-0.1-1.7-0.4c-0.5-0.2-0.9-0.6-1.3-1c-0.4-0.5-0.6-1-0.8-1.7s-0.3-1.5-0.3-2.3c0-0.8,0.1-1.5,0.3-2.2   c0.2-0.7,0.5-1.3,0.9-1.8c0.4-0.5,0.9-0.9,1.4-1.2c0.6-0.3,1.2-0.4,1.9-0.4c0.7,0,1.2,0.1,1.7,0.3c0.5,0.2,0.9,0.5,1.2,0.9v-5.9   H74.9z M73.1,169.9c-0.4-0.5-0.7-0.8-1.1-1c-0.4-0.2-0.9-0.3-1.4-0.3c-1,0-1.7,0.4-2.3,1.1c-0.5,0.7-0.8,1.7-0.8,3   c0,0.7,0.1,1.3,0.2,1.8c0.1,0.5,0.3,0.9,0.5,1.2s0.5,0.6,0.9,0.7c0.3,0.1,0.7,0.2,1.1,0.2c0.6,0,1.2-0.1,1.6-0.4   c0.5-0.3,0.9-0.7,1.3-1.2V169.9z"></path>
	<path class="st8" d="M85.1,169c0.4-0.6,1-1,1.6-1.3c0.6-0.3,1.3-0.5,2-0.5c0.6,0,1.2,0.1,1.7,0.4s0.9,0.6,1.3,1s0.6,1,0.8,1.7   c0.2,0.7,0.3,1.5,0.3,2.3c0,0.8-0.1,1.5-0.3,2.2c-0.2,0.7-0.5,1.3-0.9,1.8s-0.9,0.9-1.4,1.2c-0.6,0.3-1.2,0.4-1.9,0.4   c-0.7,0-1.2-0.1-1.7-0.3c-0.5-0.2-0.9-0.5-1.2-0.9v4.7h-1.9v-14.2h1.1c0.3,0,0.4,0.1,0.5,0.4L85.1,169z M85.2,175.5   c0.3,0.5,0.7,0.8,1.1,1c0.4,0.2,0.9,0.3,1.4,0.3c1,0,1.8-0.4,2.3-1.1c0.5-0.7,0.8-1.7,0.8-3c0-0.7-0.1-1.3-0.2-1.8   c-0.1-0.5-0.3-0.9-0.5-1.2s-0.5-0.6-0.9-0.7c-0.3-0.1-0.7-0.2-1.1-0.2c-0.6,0-1.1,0.1-1.6,0.4c-0.5,0.3-0.9,0.7-1.3,1.2V175.5z"></path>
	<path class="st8" d="M94.8,168.9c0.6-0.6,1.2-1,1.9-1.3c0.7-0.3,1.4-0.4,2.3-0.4c0.6,0,1.1,0.1,1.6,0.3c0.5,0.2,0.9,0.5,1.2,0.8   c0.3,0.4,0.6,0.8,0.7,1.3c0.2,0.5,0.2,1,0.2,1.6v6.8h-0.8c-0.2,0-0.3,0-0.4-0.1c-0.1-0.1-0.2-0.2-0.2-0.4l-0.2-1   c-0.3,0.3-0.6,0.5-0.8,0.7c-0.3,0.2-0.5,0.4-0.8,0.5c-0.3,0.1-0.6,0.2-0.9,0.3c-0.3,0.1-0.7,0.1-1.1,0.1c-0.4,0-0.8-0.1-1.2-0.2   c-0.4-0.1-0.7-0.3-1-0.5c-0.3-0.2-0.5-0.5-0.6-0.9c-0.2-0.4-0.2-0.8-0.2-1.3c0-0.4,0.1-0.8,0.3-1.2s0.6-0.7,1.1-1s1.2-0.5,2-0.7   c0.8-0.2,1.9-0.3,3.1-0.3v-0.8c0-0.8-0.2-1.5-0.5-1.9s-0.9-0.6-1.6-0.6c-0.5,0-0.8,0.1-1.2,0.2c-0.3,0.1-0.6,0.2-0.8,0.4   c-0.2,0.1-0.4,0.3-0.6,0.4c-0.2,0.1-0.3,0.2-0.5,0.2c-0.1,0-0.2,0-0.3-0.1s-0.2-0.1-0.2-0.2L94.8,168.9z M100.8,173.2   c-0.9,0-1.6,0.1-2.2,0.2c-0.6,0.1-1.1,0.2-1.5,0.4c-0.4,0.2-0.7,0.4-0.8,0.6c-0.2,0.2-0.3,0.5-0.3,0.8c0,0.3,0,0.5,0.1,0.7   c0.1,0.2,0.2,0.4,0.4,0.5c0.2,0.1,0.3,0.2,0.6,0.3c0.2,0.1,0.4,0.1,0.7,0.1c0.3,0,0.6,0,0.9-0.1c0.3-0.1,0.5-0.2,0.8-0.3   c0.2-0.1,0.5-0.3,0.7-0.5c0.2-0.2,0.4-0.4,0.6-0.6V173.2z"></path>
	<path class="st8" d="M114.5,167.8v0.7c0,0.2-0.1,0.4-0.4,0.4l-1.2,0.2c0.2,0.5,0.4,1,0.4,1.5c0,0.5-0.1,1-0.3,1.4   c-0.2,0.4-0.5,0.8-0.8,1.1s-0.8,0.5-1.3,0.7c-0.5,0.2-1,0.2-1.6,0.2c-0.5,0-1-0.1-1.4-0.2c-0.2,0.1-0.4,0.3-0.5,0.4   c-0.1,0.2-0.2,0.3-0.2,0.5c0,0.3,0.1,0.4,0.3,0.6c0.2,0.1,0.5,0.2,0.8,0.3c0.3,0.1,0.7,0.1,1.1,0.1c0.4,0,0.9,0,1.3,0.1   c0.5,0,0.9,0.1,1.3,0.2c0.4,0.1,0.8,0.2,1.1,0.4c0.3,0.2,0.6,0.4,0.8,0.7s0.3,0.7,0.3,1.2c0,0.5-0.1,0.9-0.3,1.3   c-0.2,0.4-0.6,0.8-1,1.1c-0.4,0.3-1,0.6-1.6,0.8s-1.3,0.3-2.1,0.3s-1.5-0.1-2-0.2s-1.1-0.4-1.4-0.6c-0.4-0.3-0.7-0.6-0.9-0.9   c-0.2-0.3-0.3-0.7-0.3-1.1c0-0.5,0.2-1,0.5-1.3s0.8-0.7,1.4-0.9c-0.3-0.1-0.6-0.3-0.8-0.6s-0.3-0.6-0.3-0.9c0-0.2,0-0.3,0.1-0.5   c0.1-0.2,0.1-0.3,0.3-0.5c0.1-0.2,0.3-0.3,0.4-0.5s0.4-0.3,0.6-0.4c-0.5-0.3-0.9-0.7-1.2-1.2c-0.3-0.5-0.4-1.1-0.4-1.7   c0-0.5,0.1-1,0.3-1.4c0.2-0.4,0.5-0.8,0.8-1.1c0.4-0.3,0.8-0.5,1.3-0.7c0.5-0.2,1-0.2,1.6-0.2c0.5,0,0.9,0.1,1.3,0.2   s0.8,0.2,1.1,0.4H114.5z M112.6,178.6c0-0.3-0.1-0.5-0.2-0.6c-0.1-0.2-0.3-0.3-0.6-0.4c-0.2-0.1-0.5-0.2-0.9-0.2   c-0.3,0-0.7-0.1-1-0.1c-0.4,0-0.7,0-1.1-0.1c-0.4,0-0.7-0.1-1.1-0.1c-0.4,0.2-0.7,0.4-1,0.7c-0.2,0.3-0.4,0.6-0.4,1   c0,0.2,0.1,0.5,0.2,0.7c0.1,0.2,0.3,0.4,0.6,0.5s0.6,0.3,1,0.4c0.4,0.1,0.8,0.1,1.3,0.1c0.5,0,1,0,1.4-0.1c0.4-0.1,0.7-0.2,1-0.4   s0.5-0.4,0.6-0.6C112.5,179.1,112.6,178.9,112.6,178.6z M109.2,172.8c0.4,0,0.7-0.1,1-0.2c0.3-0.1,0.5-0.3,0.7-0.4   c0.2-0.2,0.3-0.4,0.4-0.7c0.1-0.3,0.1-0.6,0.1-0.9c0-0.7-0.2-1.2-0.6-1.6s-1-0.6-1.7-0.6c-0.8,0-1.3,0.2-1.7,0.6   c-0.4,0.4-0.6,0.9-0.6,1.6c0,0.3,0.1,0.6,0.2,0.9s0.3,0.5,0.4,0.7c0.2,0.2,0.4,0.3,0.7,0.4C108.5,172.8,108.8,172.8,109.2,172.8z"></path>
	<path class="st8" d="M124.9,176.5c-0.2,0.3-0.5,0.5-0.8,0.7c-0.3,0.2-0.7,0.4-1,0.5c-0.4,0.1-0.7,0.2-1.1,0.3s-0.8,0.1-1.2,0.1   c-0.7,0-1.4-0.1-2-0.4c-0.6-0.2-1.2-0.6-1.6-1.1c-0.5-0.5-0.8-1.1-1.1-1.8s-0.4-1.5-0.4-2.4c0-0.7,0.1-1.4,0.3-2.1   c0.2-0.6,0.6-1.2,1-1.7c0.4-0.5,0.9-0.8,1.6-1.1c0.6-0.3,1.3-0.4,2.1-0.4c0.6,0,1.2,0.1,1.8,0.3c0.5,0.2,1,0.5,1.4,0.9   c0.4,0.4,0.7,0.9,0.9,1.5s0.3,1.3,0.3,2c0,0.3,0,0.5-0.1,0.6s-0.2,0.1-0.4,0.1h-7.1c0,0.7,0.1,1.3,0.3,1.8c0.2,0.5,0.4,0.9,0.7,1.2   s0.6,0.6,1,0.7c0.4,0.2,0.9,0.2,1.4,0.2c0.5,0,0.9-0.1,1.2-0.2c0.3-0.1,0.6-0.2,0.9-0.4c0.2-0.1,0.4-0.2,0.6-0.4   c0.2-0.1,0.3-0.2,0.4-0.2c0.2,0,0.3,0.1,0.4,0.2L124.9,176.5z M123.4,171.5c0-0.4-0.1-0.8-0.2-1.2c-0.1-0.4-0.3-0.7-0.5-0.9   c-0.2-0.3-0.5-0.5-0.9-0.6c-0.3-0.1-0.7-0.2-1.1-0.2c-0.9,0-1.6,0.3-2.1,0.8c-0.5,0.5-0.8,1.2-1,2.2H123.4z"></path>
</g>
<g class="st7">
	<path class="st8" d="M374.3,163v15h-1c-0.2,0-0.3,0-0.4-0.1c-0.1-0.1-0.2-0.2-0.3-0.3l-8.7-11.3c0,0.2,0,0.3,0,0.5   c0,0.2,0,0.3,0,0.5V178h-1.8v-15h1.1c0.1,0,0.2,0,0.2,0c0.1,0,0.1,0,0.2,0.1c0,0,0.1,0.1,0.1,0.1c0,0,0.1,0.1,0.2,0.2l8.7,11.3   c0-0.2,0-0.4,0-0.5c0-0.2,0-0.3,0-0.5V163H374.3z"></path>
	<path class="st8" d="M386,176.5c-0.2,0.3-0.5,0.5-0.8,0.7c-0.3,0.2-0.7,0.4-1,0.5c-0.4,0.1-0.7,0.2-1.1,0.3   c-0.4,0.1-0.8,0.1-1.2,0.1c-0.7,0-1.4-0.1-2-0.4c-0.6-0.2-1.2-0.6-1.6-1.1c-0.5-0.5-0.8-1.1-1.1-1.8s-0.4-1.5-0.4-2.4   c0-0.7,0.1-1.4,0.3-2.1c0.2-0.6,0.6-1.2,1-1.7s0.9-0.8,1.6-1.1s1.3-0.4,2.1-0.4c0.6,0,1.2,0.1,1.8,0.3c0.5,0.2,1,0.5,1.4,0.9   c0.4,0.4,0.7,0.9,0.9,1.5c0.2,0.6,0.3,1.3,0.3,2c0,0.3,0,0.5-0.1,0.6c-0.1,0.1-0.2,0.1-0.4,0.1h-7.1c0,0.7,0.1,1.3,0.3,1.8   c0.2,0.5,0.4,0.9,0.7,1.2s0.6,0.6,1,0.7c0.4,0.2,0.9,0.2,1.4,0.2c0.5,0,0.9-0.1,1.2-0.2c0.3-0.1,0.6-0.2,0.9-0.4   c0.2-0.1,0.5-0.2,0.6-0.4c0.2-0.1,0.3-0.2,0.4-0.2c0.2,0,0.3,0.1,0.4,0.2L386,176.5z M384.5,171.5c0-0.4-0.1-0.8-0.2-1.2   c-0.1-0.4-0.3-0.7-0.5-0.9c-0.2-0.3-0.5-0.5-0.9-0.6c-0.3-0.1-0.7-0.2-1.1-0.2c-0.9,0-1.6,0.3-2.1,0.8c-0.5,0.5-0.8,1.2-1,2.2   H384.5z"></path>
	<path class="st8" d="M403,167.4l-3.4,10.6h-1.5c-0.2,0-0.3-0.1-0.4-0.4l-2.4-7.2c-0.1-0.2-0.1-0.3-0.1-0.5s-0.1-0.3-0.1-0.5   c0,0.2-0.1,0.3-0.1,0.5s-0.1,0.3-0.1,0.5l-2.4,7.2c-0.1,0.2-0.2,0.4-0.4,0.4h-1.4l-3.4-10.6h1.5c0.1,0,0.3,0,0.4,0.1   c0.1,0.1,0.2,0.2,0.2,0.3l2,6.8c0.1,0.5,0.2,1,0.3,1.4c0.1-0.2,0.1-0.5,0.2-0.7c0.1-0.2,0.1-0.5,0.2-0.7l2.2-6.9   c0-0.1,0.1-0.2,0.2-0.3c0.1-0.1,0.2-0.1,0.3-0.1h0.8c0.1,0,0.3,0,0.3,0.1c0.1,0.1,0.2,0.2,0.2,0.3l2.2,6.9c0.1,0.2,0.1,0.5,0.2,0.7   c0.1,0.2,0.1,0.5,0.2,0.7c0-0.2,0.1-0.5,0.1-0.7s0.1-0.5,0.2-0.7l2.1-6.8c0-0.1,0.1-0.2,0.2-0.3c0.1-0.1,0.2-0.1,0.3-0.1H403z"></path>
	<path class="st8" d="M411.6,169c0.4-0.6,1-1,1.6-1.3c0.6-0.3,1.3-0.5,2-0.5c0.6,0,1.2,0.1,1.7,0.4s0.9,0.6,1.3,1   c0.4,0.5,0.6,1,0.8,1.7c0.2,0.7,0.3,1.5,0.3,2.3c0,0.8-0.1,1.5-0.3,2.2s-0.5,1.3-0.9,1.8s-0.9,0.9-1.4,1.2s-1.2,0.4-1.9,0.4   c-0.7,0-1.2-0.1-1.7-0.3s-0.9-0.5-1.2-0.9v4.7h-1.9v-14.2h1.1c0.3,0,0.4,0.1,0.5,0.4L411.6,169z M411.7,175.5   c0.3,0.5,0.7,0.8,1.1,1c0.4,0.2,0.9,0.3,1.4,0.3c1,0,1.8-0.4,2.3-1.1s0.8-1.7,0.8-3c0-0.7-0.1-1.3-0.2-1.8   c-0.1-0.5-0.3-0.9-0.5-1.2c-0.2-0.3-0.5-0.6-0.9-0.7c-0.3-0.1-0.7-0.2-1.1-0.2c-0.6,0-1.1,0.1-1.6,0.4c-0.5,0.3-0.9,0.7-1.3,1.2   V175.5z"></path>
	<path class="st8" d="M421.3,168.9c0.6-0.6,1.2-1,1.9-1.3c0.7-0.3,1.4-0.4,2.3-0.4c0.6,0,1.1,0.1,1.6,0.3c0.5,0.2,0.8,0.5,1.2,0.8   c0.3,0.4,0.6,0.8,0.7,1.3s0.2,1,0.2,1.6v6.8h-0.8c-0.2,0-0.3,0-0.4-0.1c-0.1-0.1-0.2-0.2-0.2-0.4l-0.2-1c-0.3,0.3-0.6,0.5-0.8,0.7   c-0.3,0.2-0.5,0.4-0.8,0.5c-0.3,0.1-0.6,0.2-0.9,0.3c-0.3,0.1-0.7,0.1-1.1,0.1c-0.4,0-0.8-0.1-1.2-0.2c-0.4-0.1-0.7-0.3-1-0.5   c-0.3-0.2-0.5-0.5-0.6-0.9c-0.2-0.4-0.2-0.8-0.2-1.3c0-0.4,0.1-0.8,0.3-1.2c0.2-0.4,0.6-0.7,1.1-1c0.5-0.3,1.2-0.5,2-0.7   c0.8-0.2,1.9-0.3,3.1-0.3v-0.8c0-0.8-0.2-1.5-0.5-1.9c-0.4-0.4-0.9-0.6-1.6-0.6c-0.5,0-0.8,0.1-1.2,0.2c-0.3,0.1-0.6,0.2-0.8,0.4   c-0.2,0.1-0.4,0.3-0.6,0.4s-0.3,0.2-0.5,0.2c-0.1,0-0.2,0-0.3-0.1s-0.2-0.1-0.2-0.2L421.3,168.9z M427.3,173.2   c-0.9,0-1.6,0.1-2.2,0.2c-0.6,0.1-1.1,0.2-1.5,0.4c-0.4,0.2-0.7,0.4-0.8,0.6c-0.2,0.2-0.3,0.5-0.3,0.8c0,0.3,0,0.5,0.1,0.7   s0.2,0.4,0.4,0.5c0.2,0.1,0.3,0.2,0.6,0.3c0.2,0.1,0.4,0.1,0.7,0.1c0.3,0,0.6,0,0.9-0.1c0.3-0.1,0.5-0.2,0.8-0.3   c0.2-0.1,0.5-0.3,0.7-0.5c0.2-0.2,0.4-0.4,0.6-0.6V173.2z"></path>
	<path class="st8" d="M441,167.8v0.7c0,0.2-0.1,0.4-0.4,0.4l-1.2,0.2c0.2,0.5,0.4,1,0.4,1.5c0,0.5-0.1,1-0.3,1.4   c-0.2,0.4-0.5,0.8-0.8,1.1c-0.3,0.3-0.8,0.5-1.3,0.7c-0.5,0.2-1,0.2-1.6,0.2c-0.5,0-1-0.1-1.4-0.2c-0.2,0.1-0.4,0.3-0.5,0.4   c-0.1,0.2-0.2,0.3-0.2,0.5c0,0.3,0.1,0.4,0.3,0.6c0.2,0.1,0.5,0.2,0.8,0.3c0.3,0.1,0.7,0.1,1.1,0.1c0.4,0,0.9,0,1.3,0.1   s0.9,0.1,1.3,0.2c0.4,0.1,0.8,0.2,1.1,0.4c0.3,0.2,0.6,0.4,0.8,0.7c0.2,0.3,0.3,0.7,0.3,1.2c0,0.5-0.1,0.9-0.3,1.3   c-0.2,0.4-0.6,0.8-1,1.1c-0.4,0.3-1,0.6-1.6,0.8c-0.6,0.2-1.3,0.3-2.1,0.3c-0.8,0-1.5-0.1-2-0.2s-1.1-0.4-1.4-0.6   c-0.4-0.3-0.7-0.6-0.9-0.9c-0.2-0.3-0.3-0.7-0.3-1.1c0-0.5,0.2-1,0.5-1.3s0.8-0.7,1.4-0.9c-0.3-0.1-0.6-0.3-0.8-0.6   s-0.3-0.6-0.3-0.9c0-0.2,0-0.3,0.1-0.5c0.1-0.2,0.1-0.3,0.3-0.5c0.1-0.2,0.3-0.3,0.4-0.5s0.4-0.3,0.6-0.4c-0.5-0.3-0.9-0.7-1.2-1.2   c-0.3-0.5-0.4-1.1-0.4-1.7c0-0.5,0.1-1,0.3-1.4c0.2-0.4,0.5-0.8,0.8-1.1c0.4-0.3,0.8-0.5,1.3-0.7c0.5-0.2,1-0.2,1.6-0.2   c0.5,0,0.9,0.1,1.3,0.2c0.4,0.1,0.8,0.2,1.1,0.4H441z M439.1,178.6c0-0.3-0.1-0.5-0.2-0.6c-0.1-0.2-0.3-0.3-0.6-0.4   c-0.2-0.1-0.5-0.2-0.9-0.2c-0.3,0-0.7-0.1-1-0.1c-0.4,0-0.7,0-1.1-0.1c-0.4,0-0.7-0.1-1.1-0.1c-0.4,0.2-0.7,0.4-1,0.7   c-0.2,0.3-0.4,0.6-0.4,1c0,0.2,0.1,0.5,0.2,0.7c0.1,0.2,0.3,0.4,0.6,0.5s0.6,0.3,1,0.4c0.4,0.1,0.8,0.1,1.3,0.1c0.5,0,1,0,1.4-0.1   c0.4-0.1,0.7-0.2,1-0.4s0.5-0.4,0.6-0.6C439,179.1,439.1,178.9,439.1,178.6z M435.7,172.8c0.4,0,0.7-0.1,1-0.2   c0.3-0.1,0.5-0.3,0.7-0.4c0.2-0.2,0.3-0.4,0.4-0.7c0.1-0.3,0.1-0.6,0.1-0.9c0-0.7-0.2-1.2-0.6-1.6s-1-0.6-1.7-0.6   c-0.8,0-1.3,0.2-1.7,0.6s-0.6,0.9-0.6,1.6c0,0.3,0,0.6,0.2,0.9s0.3,0.5,0.4,0.7c0.2,0.2,0.4,0.3,0.7,0.4   C435,172.8,435.3,172.8,435.7,172.8z"></path>
	<path class="st8" d="M451.4,176.5c-0.2,0.3-0.5,0.5-0.8,0.7c-0.3,0.2-0.7,0.4-1,0.5s-0.7,0.2-1.1,0.3c-0.4,0.1-0.8,0.1-1.2,0.1   c-0.7,0-1.4-0.1-2-0.4c-0.6-0.2-1.2-0.6-1.6-1.1c-0.5-0.5-0.8-1.1-1.1-1.8s-0.4-1.5-0.4-2.4c0-0.7,0.1-1.4,0.3-2.1   c0.2-0.6,0.6-1.2,1-1.7c0.4-0.5,0.9-0.8,1.6-1.1c0.6-0.3,1.3-0.4,2.1-0.4c0.6,0,1.2,0.1,1.8,0.3c0.5,0.2,1,0.5,1.4,0.9   c0.4,0.4,0.7,0.9,0.9,1.5c0.2,0.6,0.3,1.3,0.3,2c0,0.3,0,0.5-0.1,0.6c-0.1,0.1-0.2,0.1-0.4,0.1H444c0,0.7,0.1,1.3,0.3,1.8   c0.2,0.5,0.4,0.9,0.7,1.2s0.6,0.6,1,0.7c0.4,0.2,0.9,0.2,1.4,0.2c0.5,0,0.9-0.1,1.2-0.2c0.3-0.1,0.6-0.2,0.9-0.4   c0.2-0.1,0.4-0.2,0.6-0.4c0.2-0.1,0.3-0.2,0.4-0.2c0.2,0,0.3,0.1,0.4,0.2L451.4,176.5z M449.9,171.5c0-0.4-0.1-0.8-0.2-1.2   c-0.1-0.4-0.3-0.7-0.5-0.9c-0.2-0.3-0.5-0.5-0.9-0.6c-0.3-0.1-0.7-0.2-1.1-0.2c-0.9,0-1.6,0.3-2.1,0.8s-0.8,1.2-1,2.2H449.9z"></path>
</g>
<polygon class="st9" points="84.3,99.7 45.8,138.2 33.2,125.7 71.8,87.2 33.2,48.7 45.8,36 84.3,74.6 122.9,36 135.4,48.7   96.9,87.2 135.4,125.7 122.9,138.2 "></polygon>
<path class="st1" d="M122.9,38.9l9.7,9.8L94,87.2l38.5,38.5l-9.7,9.7L84.3,96.9l-38.5,38.5l-9.7-9.7l38.5-38.5L36,48.7l9.7-9.8  l38.5,38.5L122.9,38.9 M122.9,33.2l-2.9,2.8L84.3,71.8L48.6,36.1l-2.8-2.8l-2.8,2.8l-9.7,9.8l-2.8,2.8l2.8,2.8l35.7,35.6l-35.7,35.7  l-2.8,2.8l2.8,2.8l9.8,9.7l2.8,2.8l2.8-2.8l35.7-35.7l35.6,35.7l2.8,2.8l2.8-2.8l9.7-9.7l2.8-2.8l-2.8-2.8L99.7,87.2l35.7-35.6  l2.8-2.8l-2.8-2.8l-9.7-9.8L122.9,33.2L122.9,33.2z"></path>
<g class="st7">
	<path class="st10" d="M229.4,88.8c0.1-0.7,0.3-1.2,0.6-1.8s0.6-0.9,1-1.3c0.4-0.3,0.9-0.6,1.4-0.7c0.5-0.2,1.1-0.2,1.7-0.2   c0.7,0,1.2,0.1,1.8,0.3c0.5,0.2,1,0.4,1.3,0.8c0.4,0.3,0.6,0.7,0.8,1.1s0.3,0.9,0.3,1.4c0,0.4,0,0.8-0.1,1.1   c-0.1,0.3-0.2,0.6-0.4,0.9c-0.2,0.2-0.4,0.5-0.7,0.6c-0.3,0.2-0.6,0.3-0.9,0.4c1.6,0.5,2.4,1.6,2.4,3.1c0,0.7-0.1,1.3-0.4,1.8   s-0.6,1-1,1.3c-0.4,0.4-0.9,0.6-1.5,0.8c-0.6,0.2-1.2,0.3-1.8,0.3c-0.7,0-1.3-0.1-1.8-0.2s-1-0.4-1.3-0.7s-0.7-0.7-1-1.1   c-0.3-0.5-0.5-1-0.7-1.6l1.1-0.5c0.3-0.1,0.6-0.2,0.8-0.1c0.3,0.1,0.4,0.2,0.6,0.4c0.1,0.2,0.3,0.5,0.4,0.7   c0.1,0.2,0.3,0.4,0.5,0.5c0.2,0.1,0.4,0.3,0.6,0.3s0.5,0.1,0.8,0.1c0.4,0,0.7-0.1,1-0.2c0.3-0.1,0.5-0.3,0.7-0.5s0.3-0.4,0.4-0.6   c0.1-0.2,0.1-0.5,0.1-0.7c0-0.3,0-0.6-0.1-0.9c-0.1-0.3-0.2-0.5-0.4-0.6c-0.2-0.2-0.5-0.3-0.9-0.4c-0.4-0.1-0.9-0.1-1.6-0.1v-1.8   c0.6,0,1,0,1.4-0.1c0.4-0.1,0.6-0.2,0.9-0.4c0.2-0.2,0.3-0.4,0.4-0.6s0.1-0.5,0.1-0.8c0-0.6-0.2-1.1-0.5-1.4s-0.8-0.5-1.3-0.5   c-0.3,0-0.5,0-0.7,0.1c-0.2,0.1-0.4,0.2-0.6,0.3c-0.2,0.1-0.3,0.3-0.4,0.4c-0.1,0.2-0.2,0.4-0.3,0.6c-0.1,0.3-0.3,0.5-0.5,0.6   c-0.2,0.1-0.5,0.1-0.8,0.1L229.4,88.8z"></path>
	<path class="st10" d="M249.9,91.7c0,1.2-0.1,2.2-0.4,3.1c-0.3,0.9-0.6,1.6-1.1,2.2s-1,1-1.6,1.3c-0.6,0.3-1.3,0.4-2,0.4   s-1.4-0.1-2-0.4c-0.6-0.3-1.1-0.7-1.6-1.3c-0.4-0.6-0.8-1.3-1-2.2c-0.3-0.9-0.4-1.9-0.4-3.1c0-1.2,0.1-2.2,0.4-3.1   c0.3-0.9,0.6-1.6,1-2.2c0.4-0.6,1-1,1.6-1.3s1.3-0.4,2-0.4s1.4,0.1,2,0.4c0.6,0.3,1.2,0.7,1.6,1.3c0.5,0.6,0.8,1.3,1.1,2.2   C249.8,89.5,249.9,90.6,249.9,91.7z M247.2,91.7c0-1-0.1-1.8-0.2-2.4s-0.3-1.1-0.5-1.5c-0.2-0.4-0.5-0.6-0.8-0.8   c-0.3-0.1-0.6-0.2-0.9-0.2s-0.6,0.1-0.9,0.2c-0.3,0.1-0.5,0.4-0.7,0.8c-0.2,0.4-0.4,0.9-0.5,1.5c-0.1,0.6-0.2,1.4-0.2,2.4   c0,1,0.1,1.8,0.2,2.4c0.1,0.6,0.3,1.1,0.5,1.5s0.5,0.6,0.7,0.8c0.3,0.1,0.6,0.2,0.9,0.2s0.6-0.1,0.9-0.2c0.3-0.1,0.5-0.4,0.8-0.8   s0.4-0.9,0.5-1.5C247.1,93.5,247.2,92.7,247.2,91.7z"></path>
	<path class="st10" d="M260.1,96.7v1.9h-7.7v-1.9h2.7v-7.5c0-0.2,0-0.3,0-0.5c0-0.2,0-0.3,0-0.5l-1.8,1.5c-0.1,0.1-0.2,0.2-0.4,0.2   s-0.2,0-0.3,0c-0.1,0-0.2-0.1-0.3-0.1c-0.1-0.1-0.1-0.1-0.2-0.2l-0.8-1.1l4.2-3.6h2.1v11.8H260.1z"></path>
</g>
</svg>
