<?xml version="1.0" encoding="UTF-8"?>
<!-- Generator: Adobe Illustrator 23.0.2, SVG Export Plug-In . SVG Version: 6.00 Build 0)  -->
<svg xmlns="http://www.w3.org/2000/svg" xmlns:xlink="http://www.w3.org/1999/xlink" id="Layer_1" x="0px" y="0px" viewBox="0 0 880 497" style="enable-background:new 0 0 880 497;" xml:space="preserve">
<style type="text/css">
	.st0{fill:#D5E0E0;}
	.st1{fill:#FFFFFF;}
	.st2{fill:#565E66;}
	.st3{fill:#4DBDEB;}
	.st4{fill:none;stroke:#B1B8B9;stroke-width:6;stroke-linecap:round;stroke-linejoin:round;}
	.st5{fill:none;stroke:#565E66;stroke-width:6;stroke-linecap:round;stroke-linejoin:round;}
	.st6{fill:#4DBCEA;}
	.st7{fill:#8772C1;}
	.st8{enable-background:new    ;}
	.st9{fill:#272733;}
	.st10{fill:#009CEB;}
	.st11{fill:none;stroke:#272733;stroke-width:3;stroke-linecap:round;stroke-linejoin:round;}
</style>
<path class="st0" d="M551.4,166.3H397c-3.1,0-5.6-2.5-5.6-5.6V26.5c0-3.1,2.5-5.6,5.6-5.6h154.4c3.1,0,5.6,2.5,5.6,5.6v134.1  C557,163.7,554.5,166.3,551.4,166.3z"></path>
<path class="st1" d="M537.3,156.7H410.5c-4.1-0.3-7.3-3.7-7.3-7.9v-84c0-4.3,3.6-7.8,7.9-7.8h126.2c4.4,0,7.9,3.5,7.9,7.9  c0,0,0,0,0,0l0,0v84C544.9,153.1,541.5,156.4,537.3,156.7z"></path>
<circle class="st2" cx="407.3" cy="37.8" r="3.5"></circle>
<circle class="st2" cx="419" cy="37.8" r="3.5"></circle>
<circle class="st2" cx="431.3" cy="37.8" r="3.5"></circle>
<rect x="414.5" y="66" class="st3" width="118.9" height="31.8"></rect>
<rect x="414.4" y="109.4" class="st3" width="37.2" height="37.2"></rect>
<line class="st4" x1="463.5" y1="111.6" x2="529.4" y2="111.6"></line>
<line class="st4" x1="463.5" y1="128.5" x2="529.4" y2="128.5"></line>
<line class="st4" x1="463.5" y1="143.2" x2="529.4" y2="143.2"></line>
<line class="st5" x1="459" y1="37.8" x2="530" y2="37.8"></line>
<g id="Final-Iteration">
	<g id="Iteration-4_Link-Intersect">
		<g id="process-icon-arrow">
			<g id="Shape">
				<path class="st6" d="M578.2,100.5c-1,0-1.8-0.8-1.8-1.8c0-0.6,0.3-1.2,0.8-1.6c4.2-2.7,8.5-5.1,13-7.2c0.9-0.4,2,0,2.4,0.9      c0.4,0.9,0,2-0.9,2.4c-4.3,2-8.5,4.4-12.5,7C578.9,100.4,578.6,100.5,578.2,100.5z M676,93.8c-0.3,0-0.5-0.1-0.8-0.2      c-4.3-2.1-8.8-3.8-13.4-5.2c-1-0.2-1.6-1.2-1.4-2.2c0.2-1,1.2-1.6,2.2-1.4c0.1,0,0.2,0,0.3,0.1c4.8,1.5,9.4,3.3,13.9,5.4      c0.9,0.4,1.3,1.5,0.9,2.4C677.3,93.4,676.7,93.8,676,93.8z M604.6,88.2c-1,0-1.8-0.8-1.9-1.8c0-0.8,0.5-1.6,1.3-1.8      c4.8-1.4,9.6-2.5,14.6-3.2c1-0.1,1.9,0.6,2.1,1.6c0.1,1-0.6,1.9-1.6,2.1l0,0c-4.7,0.7-9.4,1.7-14,3.1      C605,88.1,604.8,88.1,604.6,88.2L604.6,88.2z M648.1,85.2c-0.1,0-0.2,0-0.3,0c-4.7-0.7-9.5-1.1-14.3-1.2c-1-0.1-1.8-1-1.7-2      c0.1-0.9,0.8-1.6,1.7-1.7l0,0c5,0,9.9,0.4,14.9,1.2c1,0.1,1.7,1.1,1.5,2.1C649.8,84.5,649,85.1,648.1,85.2L648.1,85.2z"></path>
			</g>
			<g id="Shape-2">
				<path class="st6" d="M695.1,104h-14.9c-1,0-1.8-0.8-1.8-1.8s0.8-1.8,1.8-1.8h10l-2.8-9.6c-0.2-1,0.4-2,1.4-2.2      c0.9-0.2,1.8,0.3,2.1,1.2L695.1,104z"></path>
			</g>
		</g>
	</g>
</g>
<path class="st0" d="M872.2,166.3H717.8c-3.1,0-5.6-2.5-5.6-5.6c0,0,0,0,0,0V26.5c0-3.1,2.5-5.6,5.6-5.6c0,0,0,0,0,0h154.4  c3.1,0,5.6,2.5,5.6,5.6c0,0,0,0,0,0v134.1C877.9,163.8,875.3,166.3,872.2,166.3L872.2,166.3z"></path>
<path class="st1" d="M858.1,156.7H731.4c-4.1-0.3-7.3-3.7-7.3-7.9v-84c0-4.3,3.6-7.8,7.9-7.8h126.2c4.3,0,7.8,3.5,7.9,7.9l0,0v84  C865.7,153.1,862.4,156.4,858.1,156.7z"></path>
<circle class="st2" cx="728.1" cy="37.8" r="3.5"></circle>
<circle class="st2" cx="739.8" cy="37.8" r="3.5"></circle>
<circle class="st2" cx="752.1" cy="37.8" r="3.5"></circle>
<rect x="735.3" y="66" class="st7" width="118.9" height="31.8"></rect>
<rect x="735.3" y="109.4" class="st7" width="37.2" height="37.2"></rect>
<line class="st4" x1="784.3" y1="111.6" x2="850.2" y2="111.6"></line>
<line class="st4" x1="784.3" y1="128.5" x2="850.2" y2="128.5"></line>
<line class="st4" x1="784.3" y1="143.2" x2="850.2" y2="143.2"></line>
<line class="st5" x1="779.8" y1="37.8" x2="850.8" y2="37.8"></line>
<g class="st8">
	<path class="st9" d="M456.7,183.3c-0.1,0.1-0.1,0.2-0.2,0.2c-0.1,0.1-0.2,0.1-0.3,0.1c-0.1,0-0.3-0.1-0.4-0.2s-0.4-0.3-0.6-0.4   c-0.2-0.1-0.5-0.3-0.9-0.4c-0.3-0.1-0.8-0.2-1.2-0.2c-0.5,0-0.9,0.1-1.2,0.2c-0.3,0.1-0.6,0.3-0.9,0.5c-0.2,0.2-0.4,0.5-0.5,0.7   c-0.1,0.3-0.2,0.6-0.2,0.9c0,0.4,0.1,0.8,0.3,1s0.5,0.5,0.8,0.7c0.3,0.2,0.7,0.4,1.2,0.5c0.4,0.1,0.9,0.3,1.3,0.4   c0.5,0.2,0.9,0.3,1.3,0.5c0.4,0.2,0.8,0.4,1.2,0.7c0.3,0.3,0.6,0.7,0.8,1.1c0.2,0.4,0.3,1,0.3,1.6c0,0.7-0.1,1.3-0.3,1.9   c-0.2,0.6-0.6,1.1-1,1.5c-0.4,0.4-1,0.8-1.6,1c-0.6,0.2-1.3,0.4-2.1,0.4c-1,0-1.9-0.2-2.7-0.5c-0.8-0.4-1.5-0.8-2-1.4l0.6-1   c0.1-0.1,0.1-0.1,0.2-0.2c0.1-0.1,0.2-0.1,0.3-0.1c0.1,0,0.2,0,0.3,0.1c0.1,0.1,0.2,0.2,0.4,0.3c0.1,0.1,0.3,0.2,0.5,0.4   c0.2,0.1,0.4,0.3,0.6,0.4c0.2,0.1,0.5,0.2,0.8,0.3c0.3,0.1,0.7,0.1,1,0.1c0.5,0,0.9-0.1,1.3-0.2c0.4-0.1,0.7-0.3,1-0.6   c0.3-0.2,0.5-0.5,0.6-0.9c0.1-0.3,0.2-0.7,0.2-1.1c0-0.5-0.1-0.8-0.3-1.1c-0.2-0.3-0.5-0.5-0.8-0.7c-0.3-0.2-0.7-0.4-1.2-0.5   c-0.4-0.1-0.9-0.3-1.3-0.4c-0.4-0.1-0.9-0.3-1.3-0.5c-0.4-0.2-0.8-0.4-1.2-0.7c-0.3-0.3-0.6-0.7-0.8-1.1c-0.2-0.5-0.3-1-0.3-1.7   c0-0.5,0.1-1,0.3-1.5c0.2-0.5,0.5-0.9,0.9-1.3c0.4-0.4,0.9-0.7,1.5-0.9c0.6-0.2,1.2-0.3,2-0.3c0.8,0,1.6,0.1,2.3,0.4   s1.3,0.7,1.8,1.2L456.7,183.3z"></path>
	<path class="st9" d="M462.2,182c0,0.2,0,0.4-0.1,0.5c-0.1,0.2-0.2,0.3-0.3,0.4c-0.1,0.1-0.3,0.2-0.4,0.3c-0.2,0.1-0.3,0.1-0.5,0.1   c-0.2,0-0.4,0-0.5-0.1c-0.2-0.1-0.3-0.2-0.4-0.3c-0.1-0.1-0.2-0.3-0.3-0.4c-0.1-0.2-0.1-0.3-0.1-0.5c0-0.2,0-0.4,0.1-0.5   c0.1-0.2,0.2-0.3,0.3-0.4c0.1-0.1,0.3-0.2,0.4-0.3c0.2-0.1,0.3-0.1,0.5-0.1c0.2,0,0.4,0,0.5,0.1c0.2,0.1,0.3,0.2,0.4,0.3   c0.1,0.1,0.2,0.3,0.3,0.4S462.2,181.9,462.2,182z M461.8,185.4V196H460v-10.6H461.8z"></path>
	<path class="st9" d="M468.2,196.2c-0.8,0-1.5-0.2-1.9-0.7c-0.5-0.5-0.7-1.1-0.7-2v-6.5h-1.3c-0.1,0-0.2,0-0.3-0.1s-0.1-0.2-0.1-0.3   v-0.7l1.7-0.2l0.4-3.3c0-0.1,0.1-0.2,0.1-0.3c0.1-0.1,0.2-0.1,0.3-0.1h0.9v3.7h3.1v1.4h-3.1v6.4c0,0.4,0.1,0.8,0.3,1   s0.5,0.3,0.8,0.3c0.2,0,0.4,0,0.5-0.1c0.1-0.1,0.3-0.1,0.4-0.2c0.1-0.1,0.2-0.1,0.3-0.2c0.1-0.1,0.1-0.1,0.2-0.1   c0.1,0,0.2,0.1,0.3,0.2l0.5,0.9c-0.3,0.3-0.7,0.5-1.2,0.7C469.1,196.1,468.7,196.2,468.2,196.2z"></path>
	<path class="st9" d="M481,194.5c-0.2,0.3-0.5,0.5-0.8,0.7c-0.3,0.2-0.7,0.4-1,0.5c-0.4,0.1-0.7,0.2-1.1,0.3   c-0.4,0.1-0.8,0.1-1.2,0.1c-0.7,0-1.4-0.1-2-0.4c-0.6-0.2-1.2-0.6-1.6-1.1c-0.5-0.5-0.8-1.1-1.1-1.8s-0.4-1.5-0.4-2.4   c0-0.7,0.1-1.4,0.3-2.1c0.2-0.6,0.6-1.2,1-1.7s0.9-0.8,1.6-1.1s1.3-0.4,2.1-0.4c0.6,0,1.2,0.1,1.8,0.3c0.5,0.2,1,0.5,1.4,0.9   c0.4,0.4,0.7,0.9,0.9,1.5c0.2,0.6,0.3,1.3,0.3,2c0,0.3,0,0.5-0.1,0.6c-0.1,0.1-0.2,0.1-0.4,0.1h-7.1c0,0.7,0.1,1.3,0.3,1.8   c0.2,0.5,0.4,0.9,0.7,1.2c0.3,0.3,0.6,0.6,1,0.7c0.4,0.2,0.9,0.2,1.4,0.2c0.5,0,0.9-0.1,1.2-0.2c0.3-0.1,0.6-0.2,0.9-0.4   s0.5-0.2,0.6-0.4c0.2-0.1,0.3-0.2,0.4-0.2c0.2,0,0.3,0.1,0.4,0.2L481,194.5z M479.5,189.5c0-0.4-0.1-0.8-0.2-1.2   c-0.1-0.4-0.3-0.7-0.5-0.9s-0.5-0.5-0.9-0.6s-0.7-0.2-1.1-0.2c-0.9,0-1.6,0.3-2.1,0.8c-0.5,0.5-0.8,1.2-1,2.2H479.5z"></path>
	<path class="st9" d="M500.8,196h-1.6c-0.2,0-0.3,0-0.4-0.1s-0.2-0.2-0.3-0.3l-1.4-3.6h-6.8l-1.4,3.6c0,0.1-0.1,0.2-0.2,0.3   c-0.1,0.1-0.3,0.1-0.4,0.1h-1.6l6-15h2.1L500.8,196z M496.6,190.4l-2.4-6.1c-0.1-0.2-0.1-0.4-0.2-0.6c-0.1-0.2-0.2-0.5-0.2-0.8   c-0.1,0.6-0.3,1-0.5,1.4l-2.4,6.1H496.6z"></path>
</g>
<g class="st8">
	<path class="st9" d="M777.9,183.3c-0.1,0.1-0.1,0.2-0.2,0.2c-0.1,0.1-0.2,0.1-0.3,0.1c-0.1,0-0.3-0.1-0.4-0.2s-0.4-0.3-0.6-0.4   c-0.2-0.1-0.5-0.3-0.9-0.4c-0.3-0.1-0.8-0.2-1.2-0.2c-0.5,0-0.9,0.1-1.2,0.2c-0.3,0.1-0.6,0.3-0.9,0.5c-0.2,0.2-0.4,0.5-0.5,0.7   c-0.1,0.3-0.2,0.6-0.2,0.9c0,0.4,0.1,0.8,0.3,1s0.5,0.5,0.8,0.7c0.3,0.2,0.7,0.4,1.2,0.5c0.4,0.1,0.9,0.3,1.3,0.4   c0.5,0.2,0.9,0.3,1.3,0.5c0.4,0.2,0.8,0.4,1.2,0.7c0.3,0.3,0.6,0.7,0.8,1.1c0.2,0.4,0.3,1,0.3,1.6c0,0.7-0.1,1.3-0.3,1.9   c-0.2,0.6-0.6,1.1-1,1.5c-0.4,0.4-1,0.8-1.6,1c-0.6,0.2-1.3,0.4-2.1,0.4c-1,0-1.9-0.2-2.7-0.5c-0.8-0.4-1.5-0.8-2-1.4l0.6-1   c0.1-0.1,0.1-0.1,0.2-0.2c0.1-0.1,0.2-0.1,0.3-0.1c0.1,0,0.2,0,0.3,0.1c0.1,0.1,0.2,0.2,0.4,0.3c0.1,0.1,0.3,0.2,0.5,0.4   c0.2,0.1,0.4,0.3,0.6,0.4c0.2,0.1,0.5,0.2,0.8,0.3c0.3,0.1,0.7,0.1,1,0.1c0.5,0,0.9-0.1,1.3-0.2c0.4-0.1,0.7-0.3,1-0.6   c0.3-0.2,0.5-0.5,0.6-0.9c0.1-0.3,0.2-0.7,0.2-1.1c0-0.5-0.1-0.8-0.3-1.1c-0.2-0.3-0.5-0.5-0.8-0.7c-0.3-0.2-0.7-0.4-1.2-0.5   c-0.4-0.1-0.9-0.3-1.3-0.4c-0.4-0.1-0.9-0.3-1.3-0.5c-0.4-0.2-0.8-0.4-1.2-0.7c-0.3-0.3-0.6-0.7-0.8-1.1c-0.2-0.5-0.3-1-0.3-1.7   c0-0.5,0.1-1,0.3-1.5c0.2-0.5,0.5-0.9,0.9-1.3c0.4-0.4,0.9-0.7,1.5-0.9c0.6-0.2,1.2-0.3,2-0.3c0.8,0,1.6,0.1,2.3,0.4   s1.3,0.7,1.8,1.2L777.9,183.3z"></path>
	<path class="st9" d="M783.4,182c0,0.2,0,0.4-0.1,0.5c-0.1,0.2-0.2,0.3-0.3,0.4c-0.1,0.1-0.3,0.2-0.4,0.3c-0.2,0.1-0.3,0.1-0.5,0.1   c-0.2,0-0.4,0-0.5-0.1c-0.2-0.1-0.3-0.2-0.4-0.3c-0.1-0.1-0.2-0.3-0.3-0.4c-0.1-0.2-0.1-0.3-0.1-0.5c0-0.2,0-0.4,0.1-0.5   c0.1-0.2,0.2-0.3,0.3-0.4c0.1-0.1,0.3-0.2,0.4-0.3c0.2-0.1,0.3-0.1,0.5-0.1c0.2,0,0.4,0,0.5,0.1c0.2,0.1,0.3,0.2,0.4,0.3   c0.1,0.1,0.2,0.3,0.3,0.4S783.4,181.9,783.4,182z M783,185.4V196h-1.9v-10.6H783z"></path>
	<path class="st9" d="M789.3,196.2c-0.8,0-1.5-0.2-1.9-0.7c-0.5-0.5-0.7-1.1-0.7-2v-6.5h-1.3c-0.1,0-0.2,0-0.3-0.1s-0.1-0.2-0.1-0.3   v-0.7l1.7-0.2l0.4-3.3c0-0.1,0.1-0.2,0.1-0.3c0.1-0.1,0.2-0.1,0.3-0.1h0.9v3.7h3.1v1.4h-3.1v6.4c0,0.4,0.1,0.8,0.3,1   s0.5,0.3,0.8,0.3c0.2,0,0.4,0,0.5-0.1c0.1-0.1,0.3-0.1,0.4-0.2c0.1-0.1,0.2-0.1,0.3-0.2c0.1-0.1,0.1-0.1,0.2-0.1   c0.1,0,0.2,0.1,0.3,0.2l0.5,0.9c-0.3,0.3-0.7,0.5-1.2,0.7C790.3,196.1,789.8,196.2,789.3,196.2z"></path>
	<path class="st9" d="M802.2,194.5c-0.2,0.3-0.5,0.5-0.8,0.7c-0.3,0.2-0.7,0.4-1,0.5c-0.4,0.1-0.7,0.2-1.1,0.3   c-0.4,0.1-0.8,0.1-1.2,0.1c-0.7,0-1.4-0.1-2-0.4c-0.6-0.2-1.2-0.6-1.6-1.1c-0.5-0.5-0.8-1.1-1.1-1.8s-0.4-1.5-0.4-2.4   c0-0.7,0.1-1.4,0.3-2.1c0.2-0.6,0.6-1.2,1-1.7s0.9-0.8,1.6-1.1s1.3-0.4,2.1-0.4c0.6,0,1.2,0.1,1.8,0.3c0.5,0.2,1,0.5,1.4,0.9   c0.4,0.4,0.7,0.9,0.9,1.5c0.2,0.6,0.3,1.3,0.3,2c0,0.3,0,0.5-0.1,0.6c-0.1,0.1-0.2,0.1-0.4,0.1h-7.1c0,0.7,0.1,1.3,0.3,1.8   c0.2,0.5,0.4,0.9,0.7,1.2c0.3,0.3,0.6,0.6,1,0.7c0.4,0.2,0.9,0.2,1.4,0.2c0.5,0,0.9-0.1,1.2-0.2c0.3-0.1,0.6-0.2,0.9-0.4   s0.5-0.2,0.6-0.4c0.2-0.1,0.3-0.2,0.4-0.2c0.2,0,0.3,0.1,0.4,0.2L802.2,194.5z M800.7,189.5c0-0.4-0.1-0.8-0.2-1.2   c-0.1-0.4-0.3-0.7-0.5-0.9s-0.5-0.5-0.9-0.6s-0.7-0.2-1.1-0.2c-0.9,0-1.6,0.3-2.1,0.8c-0.5,0.5-0.8,1.2-1,2.2H800.7z"></path>
	<path class="st9" d="M815.3,181c0.9,0,1.7,0.1,2.4,0.3c0.7,0.2,1.2,0.4,1.6,0.8s0.7,0.7,1,1.2s0.3,1,0.3,1.6c0,0.4-0.1,0.7-0.2,1.1   c-0.1,0.3-0.3,0.7-0.5,1c-0.2,0.3-0.5,0.6-0.9,0.8c-0.4,0.2-0.8,0.4-1.2,0.6c1.1,0.2,1.9,0.6,2.5,1.2c0.6,0.6,0.8,1.3,0.8,2.3   c0,0.6-0.1,1.2-0.4,1.7c-0.2,0.5-0.6,1-1,1.4s-1,0.7-1.7,0.9c-0.7,0.2-1.4,0.3-2.2,0.3h-5.3v-15H815.3z M812.5,182.6v5.1h2.7   c0.6,0,1.1-0.1,1.5-0.2s0.8-0.3,1-0.5c0.3-0.2,0.5-0.5,0.6-0.8s0.2-0.7,0.2-1c0-0.9-0.3-1.5-0.8-1.9c-0.5-0.4-1.4-0.6-2.5-0.6   H812.5z M815.7,194.4c0.6,0,1.1-0.1,1.5-0.2s0.8-0.3,1-0.6c0.3-0.2,0.5-0.5,0.6-0.9c0.1-0.3,0.2-0.7,0.2-1.1c0-0.8-0.3-1.4-0.8-1.8   c-0.6-0.5-1.4-0.7-2.5-0.7h-3.3v5.2H815.7z"></path>
</g>
<path class="st10" d="M645.9,106.2c-3-3-7.8-3-10.7,0c0,0,0,0,0,0l-6.1,6.1l-0.8,0.8c-0.7,0.7-1.3,1.6-1.7,2.5l0,0  c-0.5,1.1-0.6,2.4-0.5,3.6l0,0c0.1,1.1,0.4,2.1,0.9,3c0.3,0.6,0.8,1.2,1.3,1.7c0.5,0.5,1.1,0.9,1.7,1.3l1-1c0.4-0.3,0.6-0.8,0.6-1.3  l0,0c-0.2-0.1-0.4-0.2-0.6-0.3c-0.3-0.2-0.5-0.4-0.8-0.6c-0.4-0.4-0.7-0.8-0.9-1.3c-0.4-0.8-0.6-1.8-0.4-2.7l0,0  c0.1-1,0.6-2,1.3-2.8l0,0l2.3-2.3l4.5-4.6c0.2-0.2,0.4-0.3,0.6-0.5l0.2-0.1c0.8-0.5,1.7-0.8,2.7-0.8c1,0,1.9,0.3,2.7,0.8  c0.1,0.1,0.3,0.2,0.4,0.3c0.1,0.1,0.2,0.2,0.3,0.3c1.9,1.9,1.9,5,0,6.9l-4.5,4.6c0.3,1,0.5,2,0.5,3.1c0,0.1,0,0.3,0,0.4l6.1-6.1  c3-2.9,3-7.8,0.1-10.7C646,106.3,645.9,106.3,645.9,106.2z"></path>
<path class="st10" d="M637.1,121.9c-0.1-1.1-0.4-2.1-0.9-3c-0.7-1.3-1.7-2.3-3-3l-1,1c-0.4,0.3-0.6,0.8-0.6,1.3  c0.2,0.1,0.4,0.2,0.6,0.3c0.1,0.1,0.3,0.2,0.4,0.3c0.1,0.1,0.2,0.2,0.3,0.3c0.4,0.4,0.7,0.8,0.9,1.3c0.4,0.8,0.6,1.8,0.5,2.7l0,0  c-0.1,1.1-0.5,2-1.3,2.8l0,0l-2.3,2.3l-4.5,4.6c-0.2,0.2-0.4,0.3-0.6,0.5c0,0.1-0.1,0.1-0.2,0.1c-1.6,1-3.7,1-5.4,0  c-0.3-0.2-0.5-0.4-0.7-0.6c-1.9-1.9-1.9-5,0-6.9l4.5-4.6c-0.3-1-0.5-2-0.5-3.1c0-0.1,0-0.3,0-0.4l-6.1,6.1c-3,3-3,7.8,0,10.7  c0,0,0,0,0,0c3,3,7.8,3,10.8,0l6.1-6.1l0.8-0.8c0.7-0.7,1.3-1.5,1.7-2.5c0,0,0,0,0-0.1C637,124.3,637.2,123.1,637.1,121.9  C637.1,121.9,637.1,121.9,637.1,121.9z"></path>
<path class="st0" d="M551.4,462.4H397c-3.1,0-5.6-2.5-5.6-5.6V322.7c0-3.1,2.5-5.6,5.6-5.7c0,0,0,0,0,0h154.4c3.1,0,5.6,2.5,5.6,5.6  l0,0v134.1C557,459.9,554.5,462.4,551.4,462.4L551.4,462.4z"></path>
<path class="st1" d="M537.3,452.8H410.5c-4.1-0.3-7.3-3.7-7.3-7.9V361c0-4.4,3.5-7.9,7.9-7.9c0,0,0,0,0,0h126.2  c4.4,0,7.9,3.5,7.9,7.9v0l0,0v84C544.9,449.2,541.5,452.6,537.3,452.8z"></path>
<circle class="st2" cx="407.3" cy="333.9" r="3.5"></circle>
<circle class="st2" cx="419" cy="333.9" r="3.5"></circle>
<circle class="st2" cx="431.3" cy="333.9" r="3.5"></circle>
<rect x="414.5" y="362.1" class="st3" width="118.9" height="31.8"></rect>
<rect x="414.4" y="405.5" class="st3" width="37.2" height="37.2"></rect>
<line class="st4" x1="463.5" y1="407.8" x2="529.4" y2="407.8"></line>
<line class="st4" x1="463.5" y1="424.6" x2="529.4" y2="424.6"></line>
<line class="st4" x1="463.5" y1="439.3" x2="529.4" y2="439.3"></line>
<line class="st5" x1="459" y1="333.9" x2="530" y2="333.9"></line>
<g id="Final-Iteration-2">
	<g id="Iteration-4_Link-Intersect-2">
		<g id="process-icon-arrow-2">
			<g id="Shape-3">
				<path class="st6" d="M578.2,396.6c-1,0-1.8-0.8-1.8-1.8c0-0.6,0.3-1.2,0.8-1.5c4.2-2.7,8.5-5.2,13-7.3c0.9-0.4,2,0,2.4,0.9      s0,2-0.9,2.4l0,0c-4.3,2-8.5,4.4-12.5,7C578.9,396.5,578.6,396.6,578.2,396.6z M676,389.9c-0.3,0-0.6-0.1-0.8-0.2      c-4.3-2.1-8.8-3.8-13.4-5.2c-1-0.2-1.6-1.2-1.4-2.2c0.2-1,1.2-1.6,2.2-1.4c0.1,0,0.2,0,0.3,0.1c4.8,1.5,9.4,3.3,13.9,5.4      c0.9,0.4,1.3,1.5,0.9,2.4C677.3,389.5,676.7,389.9,676,389.9L676,389.9z M604.6,384.3c-1,0-1.8-0.8-1.9-1.8      c0-0.8,0.5-1.6,1.3-1.8c4.8-1.4,9.6-2.5,14.6-3.2c1-0.1,1.9,0.6,2.1,1.6s-0.6,1.9-1.6,2.1c-4.7,0.7-9.4,1.7-14,3.1      C605,384.2,604.8,384.3,604.6,384.3L604.6,384.3z M648.1,381.3h-0.3c-4.7-0.7-9.5-1.1-14.3-1.1c-1,0-1.8-0.8-1.8-1.8      c0-1,0.8-1.8,1.8-1.8l0,0c5,0,9.9,0.4,14.9,1.2c1,0.2,1.7,1.1,1.5,2.1C649.7,380.6,649,381.3,648.1,381.3L648.1,381.3z"></path>
			</g>
			<g id="Shape-4">
				<path class="st6" d="M695.1,400.1h-14.9c-1,0-1.8-0.8-1.8-1.8c0-1,0.8-1.8,1.8-1.8h10l-2.8-9.5c-0.2-1,0.4-2,1.4-2.2      c0.9-0.2,1.8,0.3,2.1,1.2L695.1,400.1z"></path>
			</g>
		</g>
	</g>
</g>
<path class="st0" d="M872.2,462.4H717.8c-3.1,0-5.6-2.5-5.6-5.6c0,0,0,0,0,0V322.7c0-3.1,2.5-5.6,5.6-5.6c0,0,0,0,0,0h154.4  c3.1,0,5.6,2.5,5.6,5.6l0,0v134.1C877.9,459.9,875.3,462.4,872.2,462.4L872.2,462.4z"></path>
<path class="st1" d="M858.1,452.8H731.4c-4.1-0.3-7.3-3.7-7.3-7.9V361c0-4.4,3.5-7.9,7.9-7.9l0,0h126.2c4.3,0,7.9,3.5,7.9,7.9l0,0  v84C865.7,449.2,862.3,452.5,858.1,452.8z"></path>
<circle class="st2" cx="728.1" cy="333.9" r="3.5"></circle>
<circle class="st2" cx="739.8" cy="333.9" r="3.5"></circle>
<circle class="st2" cx="752.1" cy="333.9" r="3.5"></circle>
<rect x="735.3" y="362.1" class="st3" width="118.9" height="31.8"></rect>
<rect x="735.3" y="405.5" class="st3" width="37.2" height="37.2"></rect>
<line class="st4" x1="784.3" y1="407.8" x2="850.2" y2="407.8"></line>
<line class="st4" x1="784.3" y1="424.6" x2="850.2" y2="424.6"></line>
<line class="st4" x1="784.3" y1="439.3" x2="850.2" y2="439.3"></line>
<line class="st5" x1="779.8" y1="333.9" x2="850.8" y2="333.9"></line>
<g class="st8">
	<path class="st9" d="M457,480.3c-0.1,0.1-0.1,0.2-0.2,0.2s-0.2,0.1-0.3,0.1c-0.1,0-0.3-0.1-0.4-0.2c-0.2-0.1-0.4-0.3-0.6-0.4   c-0.2-0.1-0.5-0.3-0.9-0.4s-0.8-0.2-1.2-0.2c-0.5,0-0.9,0.1-1.2,0.2c-0.3,0.1-0.6,0.3-0.9,0.5s-0.4,0.5-0.5,0.7   c-0.1,0.3-0.2,0.6-0.2,0.9c0,0.4,0.1,0.8,0.3,1c0.2,0.3,0.5,0.5,0.8,0.7c0.3,0.2,0.7,0.4,1.2,0.5s0.9,0.3,1.3,0.4   c0.5,0.2,0.9,0.3,1.3,0.5c0.4,0.2,0.8,0.4,1.2,0.7s0.6,0.7,0.8,1.1c0.2,0.4,0.3,1,0.3,1.6c0,0.7-0.1,1.3-0.3,1.9   c-0.2,0.6-0.6,1.1-1,1.5c-0.4,0.4-1,0.8-1.6,1c-0.6,0.2-1.3,0.4-2.1,0.4c-1,0-1.9-0.2-2.7-0.5s-1.5-0.8-2-1.4l0.6-1   c0.1-0.1,0.1-0.1,0.2-0.2c0.1-0.1,0.2-0.1,0.3-0.1c0.1,0,0.2,0,0.3,0.1c0.1,0.1,0.2,0.2,0.4,0.3c0.1,0.1,0.3,0.2,0.5,0.4   c0.2,0.1,0.4,0.3,0.6,0.4c0.2,0.1,0.5,0.2,0.8,0.3s0.7,0.1,1,0.1c0.5,0,0.9-0.1,1.3-0.2s0.7-0.3,1-0.6c0.3-0.2,0.5-0.5,0.6-0.9   s0.2-0.7,0.2-1.1c0-0.5-0.1-0.8-0.3-1.1c-0.2-0.3-0.5-0.5-0.8-0.7c-0.3-0.2-0.7-0.4-1.2-0.5c-0.4-0.1-0.9-0.3-1.3-0.4   s-0.9-0.3-1.3-0.5c-0.4-0.2-0.8-0.4-1.2-0.7c-0.3-0.3-0.6-0.7-0.8-1.1c-0.2-0.5-0.3-1-0.3-1.7c0-0.5,0.1-1,0.3-1.5   c0.2-0.5,0.5-0.9,0.9-1.3c0.4-0.4,0.9-0.7,1.5-0.9c0.6-0.2,1.2-0.3,2-0.3c0.8,0,1.6,0.1,2.3,0.4s1.3,0.7,1.8,1.2L457,480.3z"></path>
	<path class="st9" d="M462.5,479c0,0.2,0,0.4-0.1,0.5c-0.1,0.2-0.2,0.3-0.3,0.4c-0.1,0.1-0.3,0.2-0.4,0.3c-0.2,0.1-0.3,0.1-0.5,0.1   c-0.2,0-0.4,0-0.5-0.1c-0.2-0.1-0.3-0.2-0.4-0.3c-0.1-0.1-0.2-0.3-0.3-0.4c-0.1-0.2-0.1-0.3-0.1-0.5c0-0.2,0-0.4,0.1-0.5   c0.1-0.2,0.2-0.3,0.3-0.4c0.1-0.1,0.3-0.2,0.4-0.3c0.2-0.1,0.3-0.1,0.5-0.1c0.2,0,0.4,0,0.5,0.1c0.2,0.1,0.3,0.2,0.4,0.3   c0.1,0.1,0.2,0.3,0.3,0.4C462.5,478.7,462.5,478.9,462.5,479z M462.1,482.4V493h-1.9v-10.6H462.1z"></path>
	<path class="st9" d="M468.5,493.2c-0.8,0-1.5-0.2-1.9-0.7s-0.7-1.1-0.7-2v-6.5h-1.3c-0.1,0-0.2,0-0.3-0.1s-0.1-0.2-0.1-0.3v-0.7   l1.7-0.2l0.4-3.3c0-0.1,0.1-0.2,0.1-0.3s0.2-0.1,0.3-0.1h0.9v3.7h3.1v1.4h-3.1v6.4c0,0.4,0.1,0.8,0.3,1c0.2,0.2,0.5,0.3,0.8,0.3   c0.2,0,0.4,0,0.5-0.1c0.1-0.1,0.3-0.1,0.4-0.2c0.1-0.1,0.2-0.1,0.3-0.2s0.1-0.1,0.2-0.1c0.1,0,0.2,0.1,0.3,0.2l0.5,0.9   c-0.3,0.3-0.7,0.5-1.2,0.7C469.4,493.1,468.9,493.2,468.5,493.2z"></path>
	<path class="st9" d="M481.3,491.5c-0.2,0.3-0.5,0.5-0.8,0.7c-0.3,0.2-0.7,0.4-1,0.5s-0.7,0.2-1.1,0.3c-0.4,0.1-0.8,0.1-1.2,0.1   c-0.7,0-1.4-0.1-2-0.4c-0.6-0.2-1.2-0.6-1.6-1.1c-0.5-0.5-0.8-1.1-1.1-1.8s-0.4-1.5-0.4-2.4c0-0.7,0.1-1.4,0.3-2.1   c0.2-0.6,0.6-1.2,1-1.7c0.4-0.5,0.9-0.8,1.6-1.1c0.6-0.3,1.3-0.4,2.1-0.4c0.6,0,1.2,0.1,1.8,0.3c0.5,0.2,1,0.5,1.4,0.9   c0.4,0.4,0.7,0.9,0.9,1.5c0.2,0.6,0.3,1.3,0.3,2c0,0.3,0,0.5-0.1,0.6c-0.1,0.1-0.2,0.1-0.4,0.1h-7.1c0,0.7,0.1,1.3,0.3,1.8   c0.2,0.5,0.4,0.9,0.7,1.2c0.3,0.3,0.6,0.6,1,0.7c0.4,0.2,0.9,0.2,1.4,0.2c0.5,0,0.9-0.1,1.2-0.2s0.6-0.2,0.9-0.4s0.4-0.2,0.6-0.4   c0.2-0.1,0.3-0.2,0.4-0.2c0.2,0,0.3,0.1,0.4,0.2L481.3,491.5z M479.8,486.5c0-0.4-0.1-0.8-0.2-1.2c-0.1-0.4-0.3-0.7-0.5-0.9   c-0.2-0.3-0.5-0.5-0.9-0.6s-0.7-0.2-1.1-0.2c-0.9,0-1.6,0.3-2.1,0.8s-0.8,1.2-1,2.2H479.8z"></path>
	<path class="st9" d="M501.1,493h-1.6c-0.2,0-0.3,0-0.4-0.1c-0.1-0.1-0.2-0.2-0.3-0.3l-1.4-3.6h-6.8l-1.4,3.6c0,0.1-0.1,0.2-0.2,0.3   c-0.1,0.1-0.3,0.1-0.4,0.1H487l6-15h2.1L501.1,493z M496.9,487.4l-2.4-6.1c-0.1-0.2-0.1-0.4-0.2-0.6s-0.2-0.5-0.2-0.8   c-0.1,0.6-0.3,1-0.5,1.4l-2.4,6.1H496.9z"></path>
</g>
<g class="st8">
	<path class="st9" d="M777.5,480.3c-0.1,0.1-0.1,0.2-0.2,0.2c-0.1,0.1-0.2,0.1-0.3,0.1c-0.1,0-0.3-0.1-0.4-0.2s-0.4-0.3-0.6-0.4   c-0.2-0.1-0.5-0.3-0.9-0.4c-0.3-0.1-0.8-0.2-1.2-0.2c-0.5,0-0.9,0.1-1.2,0.2c-0.3,0.1-0.6,0.3-0.9,0.5c-0.2,0.2-0.4,0.5-0.5,0.7   c-0.1,0.3-0.2,0.6-0.2,0.9c0,0.4,0.1,0.8,0.3,1s0.5,0.5,0.8,0.7c0.3,0.2,0.7,0.4,1.2,0.5c0.4,0.1,0.9,0.3,1.3,0.4   c0.5,0.2,0.9,0.3,1.3,0.5c0.4,0.2,0.8,0.4,1.2,0.7c0.3,0.3,0.6,0.7,0.8,1.1c0.2,0.4,0.3,1,0.3,1.6c0,0.7-0.1,1.3-0.3,1.9   c-0.2,0.6-0.6,1.1-1,1.5c-0.4,0.4-1,0.8-1.6,1c-0.6,0.2-1.3,0.4-2.1,0.4c-1,0-1.9-0.2-2.7-0.5c-0.8-0.4-1.5-0.8-2-1.4l0.6-1   c0.1-0.1,0.1-0.1,0.2-0.2c0.1-0.1,0.2-0.1,0.3-0.1c0.1,0,0.2,0,0.3,0.1c0.1,0.1,0.2,0.2,0.4,0.3c0.1,0.1,0.3,0.2,0.5,0.4   c0.2,0.1,0.4,0.3,0.6,0.4c0.2,0.1,0.5,0.2,0.8,0.3c0.3,0.1,0.7,0.1,1,0.1c0.5,0,0.9-0.1,1.3-0.2c0.4-0.1,0.7-0.3,1-0.6   c0.3-0.2,0.5-0.5,0.6-0.9c0.1-0.3,0.2-0.7,0.2-1.1c0-0.5-0.1-0.8-0.3-1.1c-0.2-0.3-0.5-0.5-0.8-0.7c-0.3-0.2-0.7-0.4-1.2-0.5   c-0.4-0.1-0.9-0.3-1.3-0.4c-0.4-0.1-0.9-0.3-1.3-0.5c-0.4-0.2-0.8-0.4-1.2-0.7c-0.3-0.3-0.6-0.7-0.8-1.1c-0.2-0.5-0.3-1-0.3-1.7   c0-0.5,0.1-1,0.3-1.5c0.2-0.5,0.5-0.9,0.9-1.3c0.4-0.4,0.9-0.7,1.5-0.9c0.6-0.2,1.2-0.3,2-0.3c0.8,0,1.6,0.1,2.3,0.4   s1.3,0.7,1.8,1.2L777.5,480.3z"></path>
	<path class="st9" d="M783.1,479c0,0.2,0,0.4-0.1,0.5c-0.1,0.2-0.2,0.3-0.3,0.4c-0.1,0.1-0.3,0.2-0.4,0.3c-0.2,0.1-0.3,0.1-0.5,0.1   c-0.2,0-0.4,0-0.5-0.1c-0.2-0.1-0.3-0.2-0.4-0.3c-0.1-0.1-0.2-0.3-0.3-0.4c-0.1-0.2-0.1-0.3-0.1-0.5c0-0.2,0-0.4,0.1-0.5   c0.1-0.2,0.2-0.3,0.3-0.4c0.1-0.1,0.3-0.2,0.4-0.3c0.2-0.1,0.3-0.1,0.5-0.1c0.2,0,0.4,0,0.5,0.1c0.2,0.1,0.3,0.2,0.4,0.3   c0.1,0.1,0.2,0.3,0.3,0.4S783.1,478.9,783.1,479z M782.7,482.4V493h-1.9v-10.6H782.7z"></path>
	<path class="st9" d="M789,493.2c-0.8,0-1.5-0.2-1.9-0.7c-0.5-0.5-0.7-1.1-0.7-2v-6.5h-1.3c-0.1,0-0.2,0-0.3-0.1s-0.1-0.2-0.1-0.3   v-0.7l1.7-0.2l0.4-3.3c0-0.1,0.1-0.2,0.1-0.3c0.1-0.1,0.2-0.1,0.3-0.1h0.9v3.7h3.1v1.4h-3.1v6.4c0,0.4,0.1,0.8,0.3,1   s0.5,0.3,0.8,0.3c0.2,0,0.4,0,0.5-0.1c0.1-0.1,0.3-0.1,0.4-0.2c0.1-0.1,0.2-0.1,0.3-0.2c0.1-0.1,0.1-0.1,0.2-0.1   c0.1,0,0.2,0.1,0.3,0.2l0.5,0.9c-0.3,0.3-0.7,0.5-1.2,0.7C790,493.1,789.5,493.2,789,493.2z"></path>
	<path class="st9" d="M801.8,491.5c-0.2,0.3-0.5,0.5-0.8,0.7c-0.3,0.2-0.7,0.4-1,0.5c-0.4,0.1-0.7,0.2-1.1,0.3   c-0.4,0.1-0.8,0.1-1.2,0.1c-0.7,0-1.4-0.1-2-0.4c-0.6-0.2-1.2-0.6-1.6-1.1c-0.5-0.5-0.8-1.1-1.1-1.8s-0.4-1.5-0.4-2.4   c0-0.7,0.1-1.4,0.3-2.1c0.2-0.6,0.6-1.2,1-1.7s0.9-0.8,1.6-1.1s1.3-0.4,2.1-0.4c0.6,0,1.2,0.1,1.8,0.3c0.5,0.2,1,0.5,1.4,0.9   c0.4,0.4,0.7,0.9,0.9,1.5c0.2,0.6,0.3,1.3,0.3,2c0,0.3,0,0.5-0.1,0.6c-0.1,0.1-0.2,0.1-0.4,0.1h-7.1c0,0.7,0.1,1.3,0.3,1.8   c0.2,0.5,0.4,0.9,0.7,1.2c0.3,0.3,0.6,0.6,1,0.7c0.4,0.2,0.9,0.2,1.4,0.2c0.5,0,0.9-0.1,1.2-0.2c0.3-0.1,0.6-0.2,0.9-0.4   s0.5-0.2,0.6-0.4c0.2-0.1,0.3-0.2,0.4-0.2c0.2,0,0.3,0.1,0.4,0.2L801.8,491.5z M800.3,486.5c0-0.4-0.1-0.8-0.2-1.2   c-0.1-0.4-0.3-0.7-0.5-0.9s-0.5-0.5-0.9-0.6s-0.7-0.2-1.1-0.2c-0.9,0-1.6,0.3-2.1,0.8c-0.5,0.5-0.8,1.2-1,2.2H800.3z"></path>
	<path class="st9" d="M821.6,493h-1.6c-0.2,0-0.3,0-0.4-0.1s-0.2-0.2-0.3-0.3l-1.4-3.6h-6.8l-1.4,3.6c0,0.1-0.1,0.2-0.2,0.3   c-0.1,0.1-0.3,0.1-0.4,0.1h-1.6l6-15h2.1L821.6,493z M817.4,487.4l-2.4-6.1c-0.1-0.2-0.1-0.4-0.2-0.6c-0.1-0.2-0.2-0.5-0.2-0.8   c-0.1,0.6-0.3,1-0.5,1.4l-2.4,6.1H817.4z"></path>
</g>
<path class="st10" d="M645.9,402.4c-3-3-7.8-3-10.7,0c0,0,0,0,0,0l-6.1,6.1l-0.8,0.8c-0.7,0.7-1.3,1.5-1.7,2.5c0,0,0,0,0,0  c-0.5,1.1-0.6,2.4-0.5,3.6l0,0c0.1,1.1,0.4,2.1,0.9,3c0.3,0.6,0.8,1.2,1.3,1.7c0.5,0.5,1.1,0.9,1.7,1.3l1-1c0.4-0.3,0.6-0.8,0.6-1.3  l0,0c-0.2-0.1-0.4-0.2-0.6-0.3c-0.3-0.2-0.5-0.4-0.8-0.6c-0.4-0.4-0.7-0.8-0.9-1.3c-0.4-0.8-0.6-1.8-0.4-2.7l0,0  c0.1-1,0.6-2,1.3-2.8l0,0l2.3-2.3l4.5-4.5c0.2-0.2,0.4-0.3,0.6-0.5l0.2-0.1c0.8-0.5,1.7-0.8,2.7-0.8c1,0,1.9,0.3,2.7,0.8  c0.1,0.1,0.3,0.2,0.4,0.3c0.1,0.1,0.2,0.2,0.3,0.3c1.9,1.9,1.9,5,0,6.9l-4.5,4.5c0.3,1,0.5,2,0.5,3.1c0,0.1,0,0.3,0,0.4l6.1-6.1  c3-2.9,3.1-7.7,0.1-10.7C646,402.5,646,402.4,645.9,402.4z"></path>
<path class="st10" d="M637.1,418c-0.1-1.1-0.4-2.1-0.9-3c-0.7-1.3-1.7-2.3-3-3l-1,1c-0.4,0.3-0.6,0.8-0.6,1.3  c0.2,0.1,0.4,0.2,0.6,0.3l0.4,0.3c0.1,0.1,0.2,0.2,0.3,0.3c0.4,0.4,0.7,0.8,0.9,1.3c0.4,0.8,0.6,1.8,0.5,2.7l0,0  c-0.1,1-0.6,2-1.3,2.8l0,0l-2.3,2.3l-4.5,4.5c-0.2,0.2-0.4,0.3-0.6,0.5c0,0.1-0.1,0.1-0.2,0.1c-1.6,1-3.7,1-5.4,0  c-0.3-0.2-0.5-0.4-0.7-0.6c-1.9-1.9-1.9-5,0-6.9l4.5-4.6c-0.3-1-0.5-2-0.5-3.1c0-0.1,0-0.3,0-0.4l-6.1,6.1c-3,3-3,7.8,0,10.7  c0,0,0,0,0,0c2.9,3,7.8,3.1,10.8,0.2c0,0,0,0,0,0l6.1-6.1l0.8-0.8c0.7-0.7,1.3-1.5,1.7-2.5c0,0,0,0,0-0.1  C637,420.5,637.1,419.3,637.1,418C637,418.1,637.1,418.1,637.1,418z"></path>
<g class="st8">
	<path class="st9" d="M11.1,24.6c2.4,0,4.2,0.5,5.6,1.5c1.3,1,2,2.6,2,4.6c0,1-0.3,1.9-1,2.7s-1.5,1.4-2.5,1.8c1.4,0.3,2.4,1,3.2,2   c0.8,1.1,1.2,2.3,1.2,3.7c0,2.1-0.7,3.7-2,4.8c-1.4,1.1-3.2,1.6-5.5,1.6H1.1v-2L3.7,45V27l-2.5-0.4v-2h2.5H11.1z M6.7,34.3h5.1   c1.1,0,2-0.4,2.7-1c0.7-0.6,1-1.5,1-2.6c0-1.2-0.4-2.1-1.2-2.8c-0.8-0.6-1.9-0.9-3.3-0.9H6.7V34.3z M6.7,36.7V45H12   c1.4,0,2.5-0.3,3.3-1c0.8-0.7,1.2-1.7,1.2-2.9c0-1.3-0.3-2.4-1-3.1c-0.7-0.8-1.6-1.1-3-1.1H6.7z"></path>
	<path class="st9" d="M33.4,47.4c-0.1-0.5-0.2-0.9-0.2-1.2c-0.1-0.4-0.1-0.7-0.1-1.1c-0.6,0.8-1.3,1.4-2.2,1.9S29,47.7,28,47.7   c-1.8,0-3.1-0.4-4-1.3c-0.9-0.9-1.4-2.1-1.4-3.6c0-1.6,0.6-2.8,1.9-3.7c1.3-0.9,3.1-1.3,5.3-1.3h3.2v-2c0-1-0.3-1.8-0.9-2.4   s-1.5-0.9-2.6-0.9c-0.8,0-1.5,0.1-2,0.3c-0.6,0.2-1.1,0.5-1.4,0.8l-0.3,1.8h-2.4v-3.3c0.8-0.6,1.7-1.1,2.8-1.5   c1.1-0.4,2.3-0.6,3.6-0.6c1.9,0,3.5,0.5,4.7,1.5c1.2,1,1.8,2.4,1.8,4.2V44c0,0.2,0,0.4,0,0.6c0,0.2,0,0.4,0,0.6l1.2,0.2v2H33.4z    M28.5,45.1c1,0,2-0.2,2.8-0.7c0.8-0.5,1.4-1.1,1.8-1.8v-2.8h-3.3c-1.3,0-2.3,0.3-3,0.9c-0.7,0.6-1.1,1.3-1.1,2.1   c0,0.7,0.2,1.3,0.7,1.7C26.9,44.9,27.6,45.1,28.5,45.1z"></path>
	<path class="st9" d="M47.6,45.3c1,0,1.9-0.3,2.7-0.9c0.8-0.6,1.2-1.4,1.2-2.3h2.8l0,0.1c0.1,1.5-0.6,2.8-1.9,3.9   c-1.3,1.1-2.9,1.7-4.7,1.7c-2.5,0-4.3-0.8-5.6-2.4c-1.3-1.6-1.9-3.6-1.9-6v-0.7c0-2.4,0.7-4.4,2-6c1.3-1.6,3.2-2.4,5.6-2.4   c1.4,0,2.6,0.2,3.6,0.7c1.1,0.4,2,1.1,2.7,1.8l0.1,3.8h-2.5L51,33.8c-0.4-0.4-0.8-0.6-1.4-0.9c-0.6-0.2-1.2-0.3-1.9-0.3   c-1.6,0-2.8,0.6-3.5,1.7c-0.7,1.2-1,2.6-1,4.3v0.7c0,1.7,0.3,3.2,1,4.3C44.8,44.7,46,45.3,47.6,45.3z"></path>
	<path class="st9" d="M56.9,25v-2h5.6v14.1h2l3.6-4.5l-1.5-0.2v-2h7.1v2l-2.1,0.4l-4.5,5.3l5.4,6.9l1.9,0.4v2h-7v-2l1.6-0.2   l-4.5-5.6h-2V45l2.5,0.4v2h-8.2v-2l2.5-0.4V25.4L56.9,25z"></path>
	<path class="st9" d="M76.3,25v-2h5.6v22l2.5,0.4v2h-8.2v-2l2.5-0.4V25.4L76.3,25z"></path>
	<path class="st9" d="M86.8,45.4l2.5-0.4V32.9l-2.5-0.4v-2h5.6V45l2.5,0.4v2h-8.2V45.4z M92.4,26.1h-3.1V23h3.1V26.1z"></path>
	<path class="st9" d="M96.9,45.4l2.5-0.4V32.9l-2.5-0.4v-2h5.3l0.2,2.5c0.6-0.9,1.3-1.6,2.1-2.1c0.8-0.5,1.8-0.7,2.9-0.7   c1.8,0,3.2,0.5,4.2,1.6c1,1.1,1.5,2.7,1.5,4.9V45l2.5,0.4v2h-8.2v-2l2.5-0.4v-8.2c0-1.5-0.3-2.5-0.9-3.2c-0.6-0.6-1.5-0.9-2.7-0.9   c-0.9,0-1.7,0.2-2.4,0.6c-0.7,0.4-1.2,1-1.6,1.8V45l2.5,0.4v2h-8.2V45.4z"></path>
	<path class="st9" d="M117.5,25v-2h5.6v14.1h2l3.6-4.5l-1.5-0.2v-2h7.1v2l-2.1,0.4l-4.5,5.3l5.4,6.9l1.9,0.4v2h-7v-2l1.6-0.2   l-4.5-5.6h-2V45l2.5,0.4v2h-8.2v-2L120,45V25.4L117.5,25z"></path>
	<path class="st9" d="M146.5,49.3h-2.6l9.5-24.7h2.6L146.5,49.3z"></path>
	<path class="st9" d="M165.9,26.6v-2h8.2v2l-2.5,0.4V45l2.5,0.4v2h-8.2v-2l2.5-0.4V27L165.9,26.6z"></path>
	<path class="st9" d="M176,45.4l2.5-0.4V32.9l-2.5-0.4v-2h5.3l0.2,2.5c0.6-0.9,1.3-1.6,2.1-2.1c0.8-0.5,1.8-0.7,2.9-0.7   c1.8,0,3.2,0.5,4.2,1.6c1,1.1,1.5,2.7,1.5,4.9V45l2.5,0.4v2h-8.2v-2l2.5-0.4v-8.2c0-1.5-0.3-2.5-0.9-3.2c-0.6-0.6-1.5-0.9-2.7-0.9   c-0.9,0-1.7,0.2-2.4,0.6c-0.7,0.4-1.2,1-1.6,1.8V45l2.5,0.4v2H176V45.4z"></path>
	<path class="st9" d="M212.6,39.6c0,2.4-0.6,4.4-1.8,5.9c-1.2,1.5-2.8,2.2-4.8,2.2c-1.1,0-2.1-0.2-2.9-0.6s-1.5-1-2-1.9l-0.3,2.2   h-2.7v-22l-2.5-0.4v-2h5.6v9.5c0.5-0.8,1.2-1.3,2-1.7c0.8-0.4,1.7-0.6,2.8-0.6c2.1,0,3.7,0.8,4.9,2.5c1.2,1.7,1.8,3.9,1.8,6.6V39.6   z M209.5,39.2c0-1.9-0.4-3.5-1.1-4.8c-0.7-1.2-1.8-1.8-3.2-1.8c-0.9,0-1.7,0.2-2.4,0.7c-0.7,0.5-1.2,1.1-1.6,1.8v7.5   c0.4,0.8,0.9,1.4,1.6,1.9c0.7,0.5,1.5,0.7,2.4,0.7c1.4,0,2.5-0.5,3.2-1.5s1.1-2.4,1.1-4.1V39.2z"></path>
	<path class="st9" d="M215.6,38.8c0-2.5,0.7-4.6,2-6.2c1.4-1.6,3.2-2.4,5.5-2.4c2.3,0,4.2,0.8,5.5,2.4c1.4,1.6,2,3.7,2,6.2v0.3   c0,2.5-0.7,4.6-2,6.2c-1.4,1.6-3.2,2.4-5.5,2.4c-2.3,0-4.2-0.8-5.5-2.4c-1.4-1.6-2-3.7-2-6.2V38.8z M218.7,39.1   c0,1.8,0.4,3.3,1.1,4.4c0.8,1.2,1.9,1.8,3.4,1.8c1.5,0,2.6-0.6,3.3-1.8c0.8-1.2,1.1-2.6,1.1-4.4v-0.3c0-1.8-0.4-3.2-1.1-4.4   c-0.8-1.2-1.9-1.8-3.4-1.8c-1.5,0-2.6,0.6-3.3,1.8c-0.8,1.2-1.1,2.7-1.1,4.4V39.1z"></path>
	<path class="st9" d="M245.7,44.9c-0.5,0.9-1.2,1.6-2.1,2.1c-0.8,0.5-1.8,0.7-2.9,0.7c-1.8,0-3.3-0.6-4.3-1.8c-1-1.2-1.5-3-1.5-5.5   v-7.5l-1.9-0.4v-2h1.9h3.1v10c0,1.8,0.3,3,0.8,3.7c0.5,0.7,1.4,1,2.5,1c1.1,0,2-0.2,2.7-0.7c0.7-0.4,1.3-1.1,1.6-1.9v-9.8l-2.3-0.4   v-2h2.3h3.1V45l1.9,0.4v2h-4.7L245.7,44.9z"></path>
</g>
<g class="st8">
	<path class="st9" d="M252.6,45.4l2.5-0.4V32.9l-2.5-0.4v-2h5.3l0.2,2.5c0.6-0.9,1.3-1.6,2.1-2.1c0.8-0.5,1.8-0.7,2.9-0.7   c1.8,0,3.2,0.5,4.2,1.6c1,1.1,1.5,2.7,1.5,4.9V45l2.5,0.4v2h-8.2v-2l2.5-0.4v-8.2c0-1.5-0.3-2.5-0.9-3.2c-0.6-0.6-1.5-0.9-2.7-0.9   c-0.9,0-1.7,0.2-2.4,0.6c-0.7,0.4-1.2,1-1.6,1.8V45l2.5,0.4v2h-8.2V45.4z"></path>
</g>
<g class="st8">
	<path class="st9" d="M284.8,45.4c-0.6,0.8-1.2,1.4-2,1.8s-1.7,0.6-2.8,0.6c-2.1,0-3.7-0.7-4.8-2.2c-1.2-1.5-1.7-3.5-1.7-5.9v-0.3   c0-2.7,0.6-4.9,1.7-6.6c1.2-1.7,2.8-2.5,4.9-2.5c1,0,1.9,0.2,2.6,0.6c0.8,0.4,1.4,0.9,2,1.6v-6.9l-2.5-0.4v-2h2.5h3.1v22l2.5,0.4v2   h-5.2L284.8,45.4z M276.5,39.6c0,1.7,0.3,3.1,1,4.1c0.7,1,1.8,1.5,3.2,1.5c0.9,0,1.7-0.2,2.3-0.6c0.6-0.4,1.1-1,1.5-1.8V35   c-0.4-0.7-0.9-1.3-1.5-1.7c-0.6-0.4-1.4-0.6-2.3-0.6c-1.5,0-2.6,0.6-3.3,1.8s-1.1,2.8-1.1,4.8V39.6z"></path>
</g>
<g class="st8">
	<path class="st9" d="M1.1,322.4v-2h8.2v2l-2.5,0.4v17.9l2.5,0.4v2H1.1v-2l2.5-0.4v-17.9L1.1,322.4z"></path>
	<path class="st9" d="M11.3,341.2l2.5-0.4v-12.1l-2.5-0.4v-2h5.3l0.2,2.5c0.6-0.9,1.3-1.6,2.1-2.1c0.8-0.5,1.8-0.7,2.9-0.7   c1.8,0,3.2,0.5,4.2,1.6c1,1.1,1.5,2.7,1.5,4.9v8.3l2.5,0.4v2h-8.2v-2l2.5-0.4v-8.2c0-1.5-0.3-2.5-0.9-3.2c-0.6-0.6-1.5-0.9-2.7-0.9   c-0.9,0-1.7,0.2-2.4,0.6c-0.7,0.4-1.2,1-1.6,1.8v9.9l2.5,0.4v2h-8.2V341.2z"></path>
	<path class="st9" d="M37.7,322.2v4.1h3.2v2.3h-3.2v10.3c0,0.8,0.2,1.3,0.5,1.7c0.3,0.3,0.8,0.5,1.3,0.5c0.3,0,0.6,0,0.9-0.1   c0.3,0,0.6-0.1,0.9-0.1l0.4,2.1c-0.3,0.2-0.7,0.3-1.3,0.5c-0.6,0.1-1.1,0.2-1.7,0.2c-1.2,0-2.2-0.4-3-1.1c-0.7-0.8-1.1-1.9-1.1-3.6   v-10.3H32v-2.3h2.7v-4.1H37.7z"></path>
	<path class="st9" d="M51.8,343.5c-2.4,0-4.2-0.8-5.6-2.4c-1.4-1.6-2.1-3.6-2.1-6.1v-0.7c0-2.4,0.7-4.4,2.1-6   c1.4-1.6,3.1-2.4,5.1-2.4c2.3,0,4,0.7,5.2,2.1s1.8,3.2,1.8,5.5v1.9h-11l0,0.1c0,1.6,0.4,3,1.2,4c0.8,1,1.9,1.6,3.3,1.6   c1,0,2-0.1,2.7-0.4c0.8-0.3,1.5-0.7,2-1.2l1.2,2c-0.6,0.6-1.4,1.1-2.4,1.5C54.4,343.3,53.2,343.5,51.8,343.5z M51.3,328.4   c-1,0-1.9,0.4-2.6,1.3c-0.7,0.9-1.2,2-1.3,3.3l0,0.1h7.8v-0.4c0-1.2-0.3-2.2-1-3C53.5,328.8,52.6,328.4,51.3,328.4z"></path>
	<path class="st9" d="M61.2,328.3v-2h5.3l0.3,2.5c0.5-0.9,1.1-1.5,1.8-2c0.7-0.5,1.5-0.7,2.4-0.7c0.2,0,0.5,0,0.7,0.1   c0.3,0,0.5,0.1,0.6,0.1L72,329l-1.8-0.1c-0.8,0-1.5,0.2-2,0.6c-0.6,0.4-1,0.9-1.3,1.6v9.7l2.5,0.4v2h-8.2v-2l2.5-0.4v-12.1   L61.2,328.3z"></path>
	<path class="st9" d="M74,341.2l2.5-0.4v-12.1l-2.5-0.4v-2h5.3l0.2,2.5c0.6-0.9,1.3-1.6,2.1-2.1c0.8-0.5,1.8-0.7,2.9-0.7   c1.8,0,3.2,0.5,4.2,1.6c1,1.1,1.5,2.7,1.5,4.9v8.3l2.5,0.4v2h-8.2v-2l2.5-0.4v-8.2c0-1.5-0.3-2.5-0.9-3.2c-0.6-0.6-1.5-0.9-2.7-0.9   c-0.9,0-1.7,0.2-2.4,0.6c-0.7,0.4-1.2,1-1.6,1.8v9.9l2.5,0.4v2H74V341.2z"></path>
	<path class="st9" d="M106.1,343.2c-0.1-0.5-0.2-0.9-0.2-1.2c-0.1-0.4-0.1-0.7-0.1-1.1c-0.6,0.8-1.3,1.4-2.2,1.9s-1.8,0.8-2.9,0.8   c-1.8,0-3.1-0.4-4-1.3c-0.9-0.9-1.4-2.1-1.4-3.6c0-1.6,0.6-2.8,1.9-3.7c1.3-0.9,3.1-1.3,5.3-1.3h3.2v-2c0-1-0.3-1.8-0.9-2.4   s-1.5-0.9-2.6-0.9c-0.8,0-1.5,0.1-2,0.3c-0.6,0.2-1.1,0.5-1.4,0.8l-0.3,1.8H96V328c0.8-0.6,1.7-1.1,2.8-1.5   c1.1-0.4,2.3-0.6,3.6-0.6c1.9,0,3.5,0.5,4.7,1.5c1.2,1,1.8,2.4,1.8,4.2v8.1c0,0.2,0,0.4,0,0.6c0,0.2,0,0.4,0,0.6l1.2,0.2v2H106.1z    M101.2,341c1,0,2-0.2,2.8-0.7c0.8-0.5,1.4-1.1,1.8-1.8v-2.8h-3.3c-1.3,0-2.3,0.3-3,0.9c-0.7,0.6-1.1,1.3-1.1,2.1   c0,0.7,0.2,1.3,0.7,1.7C99.5,340.8,100.2,341,101.2,341z"></path>
	<path class="st9" d="M112.3,320.8v-2h5.6v22l2.5,0.4v2h-8.2v-2l2.5-0.4v-19.5L112.3,320.8z"></path>
	<path class="st9" d="M130.5,343.2v-2l2.5-0.4v-17.9l-2.5-0.4v-2h2.5h3.1h2.5v2l-2.5,0.4v17.9h7.9l0.2-2.6h2.6v5H130.5z"></path>
	<path class="st9" d="M149.5,341.2l2.5-0.4v-12.1l-2.5-0.4v-2h5.6v14.5l2.5,0.4v2h-8.2V341.2z M155.1,322H152v-3.1h3.1V322z"></path>
	<path class="st9" d="M159.5,341.2l2.5-0.4v-12.1l-2.5-0.4v-2h5.3l0.2,2.5c0.6-0.9,1.3-1.6,2.1-2.1c0.8-0.5,1.8-0.7,2.9-0.7   c1.8,0,3.2,0.5,4.2,1.6c1,1.1,1.5,2.7,1.5,4.9v8.3l2.5,0.4v2h-8.2v-2l2.5-0.4v-8.2c0-1.5-0.3-2.5-0.9-3.2c-0.6-0.6-1.5-0.9-2.7-0.9   c-0.9,0-1.7,0.2-2.4,0.6c-0.7,0.4-1.2,1-1.6,1.8v9.9l2.5,0.4v2h-8.2V341.2z"></path>
	<path class="st9" d="M180.2,320.8v-2h5.6V333h2l3.6-4.5l-1.5-0.2v-2h7.1v2l-2.1,0.4l-4.5,5.3l5.4,6.9l1.9,0.4v2h-7v-2l1.6-0.2   l-4.5-5.6h-2v5.4l2.5,0.4v2h-8.2v-2l2.5-0.4v-19.5L180.2,320.8z"></path>
</g>
<line class="st11" x1="2.2" y1="298" x2="878" y2="298"></line>
<line class="st11" x1="2.2" y1="2" x2="878" y2="2"></line>
</svg>
