<?xml version="1.0" encoding="UTF-8"?>
<!-- Generator: Adobe Illustrator 23.0.2, SVG Export Plug-In . SVG Version: 6.00 Build 0)  -->
<svg xmlns="http://www.w3.org/2000/svg" xmlns:xlink="http://www.w3.org/1999/xlink" id="Layer_1" x="0px" y="0px" viewBox="0 0 880 445" style="enable-background:new 0 0 880 445;" xml:space="preserve">
<style type="text/css">
	.st0{fill:#D5E0E0;}
	.st1{fill:#FFFFFF;}
	.st2{fill:#565E66;}
	.st3{fill:none;stroke:#565E66;stroke-width:6;stroke-linecap:round;stroke-linejoin:round;}
	.st4{fill:#009CEB;}
	.st5{fill:#4DBDEB;}
	.st6{fill:none;stroke:#B1B8B9;stroke-width:6;stroke-linecap:round;stroke-linejoin:round;}
	.st7{fill:none;stroke:#53BCE7;stroke-width:4;stroke-linecap:round;stroke-dasharray:8.86;}
	.st8{fill:none;stroke:#4DBDEB;stroke-width:4;stroke-linecap:round;stroke-miterlimit:10;}
	.st9{enable-background:new    ;}
	.st10{fill:#272733;}
</style>
<path class="st0" d="M161.4,443.8H6.7c-3.1,0-5.6-2.5-5.6-5.6c0,0,0,0,0,0V303.7c0-3.1,2.5-5.6,5.7-5.6h154.8c3.1,0,5.6,2.5,5.6,5.6  v134.5C167.1,441.3,164.6,443.8,161.4,443.8C161.4,443.8,161.4,443.8,161.4,443.8z"></path>
<path class="st1" d="M147.3,434.2H20.2c-4.1-0.3-7.4-3.8-7.4-7.9v-84.2c0-4.4,3.5-7.9,7.9-7.9h126.5c4.4,0,7.9,3.5,7.9,7.9l0,0v84.2  C154.9,430.5,151.6,433.9,147.3,434.2z"></path>
<circle class="st2" cx="16.9" cy="315" r="3.5"></circle>
<circle class="st2" cx="28.7" cy="315" r="3.5"></circle>
<circle class="st2" cx="41" cy="315" r="3.5"></circle>
<line class="st3" x1="68.8" y1="315" x2="140" y2="315"></line>
<path class="st4" d="M109.2,359c-5.2-5.2-13.7-5.2-18.9,0c0,0,0,0,0,0l-10.7,10.7l-1.4,1.4c-1.2,1.2-2.2,2.7-2.9,4.3c0,0,0,0,0,0.1  c-0.8,2-1.1,4.1-0.9,6.3l0,0c0.3,3.1,1.6,6,3.8,8.2c0.9,0.9,1.9,1.6,3,2.3l1.7-1.8c0.6-0.6,1-1.4,1-2.3l0,0c-0.3-0.1-0.7-0.3-1-0.5  c-0.5-0.3-0.9-0.7-1.3-1.1c-0.7-0.7-1.3-1.5-1.7-2.4c-0.7-1.5-1-3.1-0.8-4.7v-0.1c0.2-1.8,1.1-3.5,2.3-4.9l0.1-0.1l4-4l8-8  c0.3-0.3,0.6-0.6,1-0.9l0.3-0.2c2.9-1.9,6.6-1.9,9.4,0c0.2,0.2,0.5,0.3,0.7,0.5c0.2,0.2,0.4,0.4,0.6,0.6c3.3,3.3,3.3,8.7,0,12  c0,0,0,0,0,0l-8,8c0.5,1.7,0.8,3.6,0.8,5.4c0,0.2,0,0.5,0,0.7l10.7-10.6c5.2-5.2,5.3-13.6,0.1-18.9C109.3,359.1,109.3,359,109.2,359  z"></path>
<path class="st4" d="M93.7,386.6c-0.2-1.8-0.7-3.6-1.6-5.2c-0.6-1.1-1.4-2.1-2.2-3c-0.9-0.9-1.9-1.6-3-2.2l-1.7,1.7  c-0.6,0.6-1,1.4-1,2.3c0.4,0.2,0.7,0.4,1,0.6c0.2,0.2,0.5,0.3,0.7,0.5c0.2,0.2,0.4,0.4,0.6,0.6c0.7,0.7,1.2,1.4,1.6,2.3  c0.7,1.5,1,3.1,0.8,4.8v0.1c-0.2,1.8-1.1,3.5-2.3,4.9l-0.1,0.1l-4,4.1l-8,8c-0.3,0.3-0.6,0.6-1,0.9c-0.1,0.1-0.2,0.2-0.3,0.2  c-2.9,1.8-6.5,1.8-9.4,0c-0.5-0.3-0.9-0.7-1.4-1.1c-3.3-3.3-3.3-8.7,0-12.1l8-8c-0.5-1.7-0.8-3.6-0.8-5.4c0-0.2,0-0.5,0-0.7  l-10.6,10.7c-5.2,5.2-5.3,13.6-0.1,18.9c0,0,0,0,0.1,0.1c5.2,5.2,13.7,5.2,18.9,0c0,0,0,0,0,0l10.7-10.7l1.4-1.4  c1.3-1.2,2.2-2.7,2.9-4.4c0,0,0,0,0-0.1C93.5,390.9,93.8,388.8,93.7,386.6C93.6,386.6,93.7,386.6,93.7,386.6z"></path>
<path class="st0" d="M351.3,443.8H196.5c-3.1,0-5.6-2.5-5.6-5.6c0,0,0,0,0,0V303.7c0-3.1,2.5-5.6,5.6-5.6h154.8  c3.1,0,5.6,2.5,5.6,5.6v134.5C357,441.3,354.4,443.8,351.3,443.8C351.3,443.8,351.3,443.8,351.3,443.8z"></path>
<path class="st1" d="M337.2,434.2H210.1c-4.1-0.3-7.4-3.8-7.3-7.9v-84.2c0-4.4,3.5-7.9,7.9-7.9h126.5c4.4,0,7.9,3.5,7.9,7.9l0,0  v84.2C344.8,430.5,341.4,433.9,337.2,434.2z"></path>
<circle class="st2" cx="206.8" cy="315" r="3.5"></circle>
<circle class="st2" cx="218.6" cy="315" r="3.5"></circle>
<circle class="st2" cx="230.9" cy="315" r="3.5"></circle>
<line class="st3" x1="258.7" y1="315" x2="329.9" y2="315"></line>
<path class="st4" d="M299.1,359c-5.2-5.2-13.7-5.2-18.9,0c0,0,0,0,0,0l-10.7,10.7l-1.4,1.4c-1.3,1.2-2.2,2.7-2.9,4.3c0,0,0,0,0,0.1  c-0.8,2-1.1,4.1-0.9,6.3l0,0c0.2,1.8,0.7,3.6,1.6,5.2c0.6,1.1,1.3,2.1,2.2,3c0.9,0.9,1.9,1.6,3,2.3l1.7-1.8c0.6-0.6,1-1.4,1-2.3l0,0  c-0.3-0.1-0.7-0.3-1-0.5c-0.5-0.3-0.9-0.7-1.3-1.1c-0.7-0.7-1.2-1.5-1.6-2.3c-0.7-1.5-1-3.1-0.8-4.7v-0.1c0.2-1.8,1.1-3.5,2.4-4.9  l0.1-0.1l4-4l8-8c0.3-0.3,0.6-0.6,1-0.9c0.1-0.1,0.2-0.2,0.3-0.2c2.9-1.9,6.6-1.9,9.4,0c0.2,0.2,0.5,0.3,0.7,0.5  c0.2,0.2,0.4,0.4,0.6,0.6c3.3,3.3,3.3,8.7,0,12c0,0,0,0,0,0l-8,8c0.5,1.7,0.8,3.6,0.8,5.4c0,0.2,0,0.5,0,0.7l10.7-10.7  c5.2-5.2,5.3-13.6,0.1-18.9C299.2,359.1,299.1,359,299.1,359z"></path>
<path class="st4" d="M283.5,386.6c-0.2-1.8-0.7-3.6-1.6-5.2c-0.6-1.1-1.3-2.1-2.2-3c-0.9-0.9-1.9-1.6-3-2.2l-1.7,1.8  c-0.6,0.6-1,1.4-1,2.3c0.3,0.2,0.7,0.4,1,0.6l0.7,0.5c0.2,0.2,0.4,0.4,0.6,0.6c0.7,0.7,1.2,1.4,1.6,2.3c0.7,1.5,1,3.1,0.8,4.8v0.1  c-0.2,1.8-1.1,3.5-2.4,4.9l-0.1,0.1l-4.1,4.1l-8,8c-0.3,0.3-0.6,0.6-1,0.9c-0.1,0.1-0.2,0.2-0.3,0.2c-2.9,1.8-6.5,1.8-9.4,0  c-0.5-0.3-0.9-0.7-1.3-1.1c-3.3-3.3-3.3-8.7,0-12.1l8-8c-0.5-1.7-0.8-3.6-0.8-5.4c0-0.2,0-0.5,0-0.7l-10.7,10.7  c-5.2,5.2-5.2,13.7,0,18.9c0,0,0,0,0,0c5.2,5.2,13.7,5.2,18.9,0c0,0,0,0,0,0l10.7-10.7l1.4-1.4c1.2-1.2,2.2-2.7,2.9-4.3  c0,0,0,0,0-0.1C283.5,391,283.8,388.8,283.5,386.6C283.6,386.7,283.6,386.6,283.5,386.6z"></path>
<path class="st0" d="M541.2,443.8H386.4c-3.1,0-5.6-2.5-5.6-5.6c0,0,0,0,0,0V303.7c0-3.1,2.5-5.6,5.6-5.6c0,0,0,0,0,0h154.8  c3.1,0,5.7,2.5,5.7,5.6c0,0,0,0,0,0v134.5C546.8,441.3,544.3,443.8,541.2,443.8C541.2,443.8,541.2,443.8,541.2,443.8z"></path>
<path class="st1" d="M527.1,434.2H400c-4.1-0.3-7.4-3.8-7.3-7.9v-84.2c0-4.4,3.5-7.9,7.9-7.9h126.5c4.4,0,7.9,3.5,7.9,7.9l0,0v84.2  C534.7,430.5,531.3,433.9,527.1,434.2z"></path>
<circle class="st2" cx="396.7" cy="315" r="3.5"></circle>
<circle class="st2" cx="408" cy="315" r="3.5"></circle>
<circle class="st2" cx="420.8" cy="315" r="3.5"></circle>
<line class="st3" x1="448.5" y1="315" x2="519.7" y2="315"></line>
<path class="st4" d="M489,359c-5.2-5.2-13.7-5.2-18.9,0c0,0,0,0,0,0l-10.7,10.7l-1.4,1.4c-1.3,1.2-2.2,2.7-2.9,4.3c0,0,0,0,0,0.1  c-0.8,2-1.1,4.1-0.9,6.3l0,0c0.2,1.8,0.7,3.6,1.7,5.2c0.6,1.1,1.3,2.1,2.2,3c0.9,0.9,1.9,1.6,3,2.3l1.8-1.8c0.6-0.6,1-1.4,1-2.3l0,0  c-0.3-0.1-0.7-0.3-1-0.5c-0.5-0.3-0.9-0.7-1.3-1.1c-0.7-0.7-1.2-1.5-1.6-2.3c-0.7-1.5-1-3.1-0.8-4.7v-0.1c0.2-1.8,1.1-3.5,2.4-4.9  l0.1-0.1l4-4l8-8c0.3-0.3,0.6-0.6,1-0.9l0.3-0.2c1.4-0.9,3-1.4,4.7-1.4c1.7,0,3.3,0.5,4.7,1.4l0.7,0.5c0.2,0.2,0.4,0.4,0.6,0.6  c3.3,3.3,3.3,8.7,0,12l-8,8c0.5,1.7,0.8,3.6,0.8,5.4c0,0.2,0,0.5,0,0.7L489,378c5.2-5.2,5.3-13.6,0.1-18.9  C489.1,359.1,489,359,489,359z"></path>
<path class="st4" d="M473.4,386.6c-0.3-3.1-1.7-6-3.9-8.2c-0.9-0.9-1.9-1.6-3-2.2l-1.8,1.7c-0.6,0.6-1,1.4-1,2.3  c0.3,0.2,0.7,0.4,1,0.6l0.7,0.5c0.2,0.2,0.4,0.4,0.6,0.6c0.7,0.7,1.2,1.4,1.6,2.3c0.7,1.5,1,3.1,0.8,4.8v0.1  c-0.2,1.8-1.1,3.5-2.4,4.9l-0.1,0.1l-4,4.1l-8,8c-0.3,0.3-0.6,0.6-1,0.9c-0.1,0.1-0.2,0.2-0.3,0.2c-2.9,1.8-6.5,1.8-9.4,0  c-0.5-0.3-1-0.7-1.4-1.1c-3.3-3.3-3.3-8.7,0-12.1l8-8c-0.5-1.7-0.8-3.6-0.8-5.4c0-0.2,0-0.5,0-0.7l-10.7,10.7  c-5.2,5.2-5.2,13.7,0,18.9c0,0,0,0,0,0c5.2,5.2,13.7,5.2,18.9,0c0,0,0,0,0,0l10.7-10.7l1.4-1.4c1.2-1.2,2.2-2.7,2.9-4.3  c0,0,0,0,0-0.1C473.3,391,473.6,388.8,473.4,386.6C473.4,386.7,473.5,386.6,473.4,386.6z"></path>
<path class="st0" d="M351.3,146.9H196.5c-3.1,0-5.6-2.5-5.6-5.6V6.8c0-3.1,2.5-5.6,5.6-5.6c0,0,0,0,0,0h154.8c3.1,0,5.7,2.5,5.7,5.6  c0,0,0,0,0,0.1v134.4C357,144.4,354.5,146.9,351.3,146.9C351.3,146.9,351.3,146.9,351.3,146.9z"></path>
<path class="st1" d="M337.2,137.3H210.1c-4.1-0.3-7.4-3.7-7.3-7.9V45.3c0-4.4,3.5-7.9,7.9-7.9h126.5c4.4,0,7.9,3.5,7.9,7.9v0l0,0  v84.2C344.8,133.7,341.4,137.1,337.2,137.3z"></path>
<circle class="st2" cx="206.8" cy="18.1" r="3.5"></circle>
<circle class="st2" cx="218.6" cy="18.1" r="3.5"></circle>
<circle class="st2" cx="230.9" cy="18.1" r="3.5"></circle>
<rect x="214" y="46.4" class="st5" width="119.2" height="31.9"></rect>
<rect x="214" y="89.9" class="st5" width="37.3" height="37.3"></rect>
<line class="st6" x1="263.2" y1="92.1" x2="329.3" y2="92.1"></line>
<line class="st6" x1="263.2" y1="109.1" x2="329.3" y2="109.1"></line>
<line class="st6" x1="263.2" y1="123.8" x2="329.3" y2="123.8"></line>
<line class="st3" x1="258.7" y1="18.1" x2="329.9" y2="18.1"></line>
<path class="st0" d="M873.3,443.8H718.6c-3.1,0-5.6-2.5-5.7-5.6c0,0,0,0,0,0V303.7c0-3.1,2.5-5.6,5.7-5.6l0,0h154.8  c3.1,0,5.7,2.5,5.7,5.6c0,0,0,0,0,0v134.5C879,441.3,876.5,443.8,873.3,443.8C873.4,443.8,873.4,443.8,873.3,443.8z"></path>
<path class="st1" d="M859.2,434.2H732.1c-4.1-0.3-7.4-3.8-7.3-7.9v-84.2c0-4.4,3.5-7.9,7.9-7.9h126.5c4.4,0,7.9,3.5,7.9,7.9l0,0  v84.2C866.9,430.5,863.5,433.9,859.2,434.2z"></path>
<circle class="st2" cx="728.8" cy="315" r="3.5"></circle>
<circle class="st2" cx="740.6" cy="315" r="3.5"></circle>
<circle class="st2" cx="752.9" cy="315" r="3.5"></circle>
<line class="st3" x1="780.7" y1="315" x2="851.9" y2="315"></line>
<path class="st4" d="M821.1,359c-5.2-5.2-13.7-5.2-18.9,0c0,0,0,0,0,0l-10.7,10.7l-1.4,1.4c-1.3,1.2-2.2,2.7-2.9,4.3c0,0,0,0,0,0.1  c-0.8,2-1.1,4.1-0.9,6.3l0,0c0.3,3.1,1.7,6,3.9,8.2c0.9,0.9,1.9,1.6,3,2.3l1.7-1.8c0.6-0.6,1-1.4,1-2.3l0,0c-0.3-0.1-0.7-0.3-1-0.5  c-0.5-0.3-0.9-0.7-1.3-1.1c-0.7-0.7-1.2-1.5-1.7-2.3c-0.7-1.5-1-3.1-0.8-4.7v-0.1c0.2-1.8,1.1-3.5,2.3-4.9l0.1-0.1l4-4l8-8  c0.3-0.3,0.6-0.6,1-0.9l0.3-0.2c1.4-0.9,3-1.4,4.7-1.4c1.7,0,3.3,0.5,4.7,1.4c0.2,0.2,0.5,0.3,0.7,0.5c0.2,0.2,0.4,0.4,0.6,0.6  c3.3,3.3,3.3,8.7,0,12c0,0,0,0,0,0l-8,8c0.5,1.7,0.8,3.6,0.8,5.4c0,0.2,0,0.5,0,0.7l10.6-10.6c5.2-5.2,5.3-13.6,0.1-18.9  C821.2,359.1,821.2,359,821.1,359z"></path>
<path class="st4" d="M805.6,386.6c-0.2-1.8-0.7-3.6-1.6-5.2c-0.6-1.1-1.3-2.1-2.2-3c-0.9-0.9-1.9-1.6-3-2.2l-1.7,1.8  c-0.6,0.6-1,1.4-1,2.3c0.3,0.2,0.7,0.4,1,0.6c0.2,0.2,0.5,0.3,0.7,0.5c0.2,0.2,0.4,0.4,0.6,0.6c0.7,0.7,1.2,1.4,1.6,2.3  c0.7,1.5,1,3.1,0.8,4.8v0.1c-0.2,1.8-1.1,3.5-2.3,4.9l-0.1,0.1l-4,4.1l-8,8c-0.3,0.3-0.6,0.6-1,0.9c-0.1,0.1-0.2,0.2-0.3,0.2  c-2.9,1.8-6.5,1.8-9.4,0c-0.5-0.3-1-0.7-1.4-1.1c-3.3-3.3-3.3-8.7,0-12.1l8-8c-0.5-1.7-0.8-3.6-0.8-5.4c0-0.2,0-0.5,0-0.7  l-10.7,10.7c-5.2,5.2-5.2,13.7,0,18.9c0,0,0,0,0,0c5.2,5.2,13.7,5.2,18.9,0c0,0,0,0,0,0l10.7-10.7l1.4-1.4c1.2-1.2,2.2-2.7,2.9-4.3  c0,0,0,0,0-0.1C805.5,391,805.8,388.8,805.6,386.6C805.6,386.7,805.6,386.6,805.6,386.6z"></path>
<line class="st7" x1="274" y1="265.8" x2="274" y2="167.8"></line>
<polyline id="Shape" class="st8" points="282.1,272.7 273.9,283.6 265.7,272.5 "></polyline>
<line class="st7" x1="97.9" y1="264.4" x2="191.9" y2="160.3"></line>
<polyline id="Shape-2" class="st8" points="97.7,277.3 84.1,279.2 86.2,265.6 "></polyline>
<line class="st7" x1="449.9" y1="264.4" x2="356" y2="160.3"></line>
<polyline id="Shape-3" class="st8" points="450.1,277.3 463.7,279.2 461.6,265.6 "></polyline>
<g class="st9">
	<path class="st10" d="M730.2,267.9l-6.1,15h-1.8l-6.1-15h1.6c0.2,0,0.3,0,0.4,0.1c0.1,0.1,0.2,0.2,0.3,0.3l4.2,10.6   c0.1,0.2,0.2,0.5,0.3,0.8c0.1,0.3,0.2,0.6,0.2,0.9c0.1-0.3,0.1-0.6,0.2-0.9s0.2-0.5,0.3-0.8l4.2-10.6c0-0.1,0.1-0.2,0.2-0.3   c0.1-0.1,0.3-0.2,0.4-0.2H730.2z"></path>
	<path class="st10" d="M734.1,268.9c0,0.2,0,0.4-0.1,0.5c-0.1,0.2-0.2,0.3-0.3,0.4c-0.1,0.1-0.3,0.2-0.4,0.3   c-0.2,0.1-0.3,0.1-0.5,0.1c-0.2,0-0.4,0-0.5-0.1c-0.2-0.1-0.3-0.2-0.4-0.3c-0.1-0.1-0.2-0.3-0.3-0.4c-0.1-0.2-0.1-0.3-0.1-0.5   c0-0.2,0-0.4,0.1-0.5c0.1-0.2,0.2-0.3,0.3-0.4c0.1-0.1,0.3-0.2,0.4-0.3c0.2-0.1,0.3-0.1,0.5-0.1c0.2,0,0.4,0,0.5,0.1   c0.2,0.1,0.3,0.2,0.4,0.3c0.1,0.1,0.2,0.3,0.3,0.4S734.1,268.7,734.1,268.9z M733.7,272.3v10.6h-1.9v-10.6H733.7z"></path>
	<path class="st10" d="M738.6,274.4c0.3-0.7,0.7-1.3,1.2-1.7c0.5-0.4,1.1-0.6,1.8-0.6c0.2,0,0.4,0,0.6,0.1c0.2,0,0.4,0.1,0.6,0.2   l-0.1,1.4c0,0.2-0.1,0.3-0.3,0.3c-0.1,0-0.2,0-0.4-0.1c-0.2,0-0.4-0.1-0.6-0.1c-0.3,0-0.6,0-0.9,0.1s-0.5,0.2-0.7,0.4   c-0.2,0.2-0.4,0.4-0.6,0.7c-0.2,0.3-0.3,0.6-0.4,1v6.7h-1.9v-10.6h1.1c0.2,0,0.3,0,0.4,0.1c0.1,0.1,0.1,0.2,0.2,0.4L738.6,274.4z"></path>
	<path class="st10" d="M747.7,283.1c-0.8,0-1.5-0.2-1.9-0.7s-0.7-1.1-0.7-2v-6.5h-1.3c-0.1,0-0.2,0-0.3-0.1s-0.1-0.2-0.1-0.3v-0.7   l1.7-0.2l0.4-3.3c0-0.1,0.1-0.2,0.1-0.3s0.2-0.1,0.3-0.1h0.9v3.7h3.1v1.4h-3.1v6.4c0,0.4,0.1,0.8,0.3,1c0.2,0.2,0.5,0.3,0.8,0.3   c0.2,0,0.4,0,0.5-0.1c0.1-0.1,0.3-0.1,0.4-0.2c0.1-0.1,0.2-0.1,0.3-0.2s0.1-0.1,0.2-0.1c0.1,0,0.2,0.1,0.3,0.2l0.5,0.9   c-0.3,0.3-0.7,0.5-1.2,0.7C748.6,283,748.2,283.1,747.7,283.1z"></path>
	<path class="st10" d="M760.7,272.3v10.6h-1.1c-0.3,0-0.4-0.1-0.5-0.4l-0.1-1.1c-0.5,0.5-1,0.9-1.6,1.2c-0.6,0.3-1.2,0.5-2,0.5   c-0.6,0-1.1-0.1-1.5-0.3s-0.8-0.5-1.1-0.8c-0.3-0.3-0.5-0.8-0.7-1.3s-0.2-1-0.2-1.6v-6.8h1.9v6.8c0,0.8,0.2,1.4,0.6,1.9   c0.4,0.4,0.9,0.7,1.7,0.7c0.6,0,1.1-0.1,1.5-0.4s0.9-0.6,1.3-1.1v-7.8H760.7z"></path>
	<path class="st10" d="M763.4,273.8c0.6-0.6,1.2-1,1.9-1.3c0.7-0.3,1.4-0.4,2.3-0.4c0.6,0,1.1,0.1,1.6,0.3s0.9,0.5,1.2,0.8   c0.3,0.4,0.6,0.8,0.7,1.3c0.2,0.5,0.2,1,0.2,1.6v6.8h-0.8c-0.2,0-0.3,0-0.4-0.1c-0.1-0.1-0.2-0.2-0.2-0.4l-0.2-1   c-0.3,0.3-0.6,0.5-0.8,0.7c-0.3,0.2-0.5,0.4-0.8,0.5c-0.3,0.1-0.6,0.2-0.9,0.3c-0.3,0.1-0.7,0.1-1.1,0.1c-0.4,0-0.8-0.1-1.2-0.2   c-0.4-0.1-0.7-0.3-1-0.5c-0.3-0.2-0.5-0.5-0.6-0.9s-0.2-0.8-0.2-1.3c0-0.4,0.1-0.8,0.3-1.2c0.2-0.4,0.6-0.7,1.1-1   c0.5-0.3,1.2-0.5,2-0.7c0.8-0.2,1.9-0.3,3.1-0.3v-0.8c0-0.8-0.2-1.5-0.5-1.9c-0.4-0.4-0.9-0.6-1.6-0.6c-0.5,0-0.8,0.1-1.2,0.2   c-0.3,0.1-0.6,0.2-0.8,0.4s-0.4,0.3-0.6,0.4c-0.2,0.1-0.3,0.2-0.5,0.2c-0.1,0-0.2,0-0.3-0.1c-0.1-0.1-0.2-0.1-0.2-0.2L763.4,273.8z    M769.4,278.1c-0.9,0-1.6,0.1-2.2,0.2c-0.6,0.1-1.1,0.2-1.5,0.4c-0.4,0.2-0.7,0.4-0.8,0.6c-0.2,0.2-0.3,0.5-0.3,0.8   c0,0.3,0,0.5,0.1,0.7c0.1,0.2,0.2,0.4,0.4,0.5c0.2,0.1,0.3,0.2,0.6,0.3s0.4,0.1,0.7,0.1c0.3,0,0.6,0,0.9-0.1s0.5-0.2,0.8-0.3   c0.2-0.1,0.5-0.3,0.7-0.5s0.4-0.4,0.6-0.6V278.1z"></path>
	<path class="st10" d="M776,267.4v15.5h-1.9v-15.5H776z"></path>
	<path class="st10" d="M781,267.4v15.5h-1.9v-15.5H781z"></path>
	<path class="st10" d="M793.2,272.3l-5.9,13.8c-0.1,0.1-0.1,0.3-0.2,0.3c-0.1,0.1-0.2,0.1-0.4,0.1h-1.4l1.9-4.2l-4.4-10h1.6   c0.2,0,0.3,0,0.4,0.1c0.1,0.1,0.2,0.2,0.2,0.3l2.8,6.7c0.1,0.3,0.2,0.6,0.3,0.9c0.1-0.3,0.2-0.6,0.3-0.9l2.8-6.7   c0-0.1,0.1-0.2,0.2-0.3s0.2-0.1,0.3-0.1H793.2z"></path>
	<path class="st10" d="M802.1,268.9c0,0.2,0,0.4-0.1,0.5c-0.1,0.2-0.2,0.3-0.3,0.4c-0.1,0.1-0.3,0.2-0.4,0.3   c-0.2,0.1-0.3,0.1-0.5,0.1c-0.2,0-0.4,0-0.5-0.1c-0.2-0.1-0.3-0.2-0.4-0.3c-0.1-0.1-0.2-0.3-0.3-0.4c-0.1-0.2-0.1-0.3-0.1-0.5   c0-0.2,0-0.4,0.1-0.5c0.1-0.2,0.2-0.3,0.3-0.4c0.1-0.1,0.3-0.2,0.4-0.3c0.2-0.1,0.3-0.1,0.5-0.1c0.2,0,0.4,0,0.5,0.1   c0.2,0.1,0.3,0.2,0.4,0.3c0.1,0.1,0.2,0.3,0.3,0.4C802,268.6,802.1,268.7,802.1,268.9z M801.7,272.3v10.6h-1.9v-10.6H801.7z"></path>
</g>
<g class="st9">
	<path class="st10" d="M808.5,273.8c0.2-0.3,0.5-0.5,0.7-0.7s0.5-0.4,0.8-0.5s0.6-0.3,0.9-0.3s0.7-0.1,1.1-0.1   c0.6,0,1.1,0.1,1.5,0.3s0.8,0.5,1.1,0.8c0.3,0.4,0.5,0.8,0.7,1.3s0.2,1,0.2,1.6v6.8h-1.9v-6.8c0-0.8-0.2-1.4-0.6-1.9   s-0.9-0.7-1.7-0.7c-0.6,0-1.1,0.1-1.5,0.4c-0.5,0.3-0.9,0.6-1.3,1.1v7.8h-1.9v-10.6h1.1c0.3,0,0.4,0.1,0.5,0.4L808.5,273.8z"></path>
</g>
<g class="st9">
	<path class="st10" d="M827.2,272.3l-4.3,10.6h-1.7l-4.3-10.6h1.5c0.2,0,0.3,0,0.4,0.1c0.1,0.1,0.2,0.2,0.2,0.3l2.7,6.8   c0.1,0.3,0.2,0.5,0.2,0.8c0.1,0.2,0.1,0.5,0.2,0.7c0.1-0.2,0.1-0.5,0.2-0.7c0.1-0.2,0.1-0.5,0.2-0.8l2.7-6.8c0-0.1,0.1-0.2,0.2-0.3   c0.1-0.1,0.2-0.1,0.3-0.1H827.2z"></path>
	<path class="st10" d="M831.3,268.9c0,0.2,0,0.4-0.1,0.5c-0.1,0.2-0.2,0.3-0.3,0.4c-0.1,0.1-0.3,0.2-0.4,0.3   c-0.2,0.1-0.3,0.1-0.5,0.1c-0.2,0-0.4,0-0.5-0.1c-0.2-0.1-0.3-0.2-0.4-0.3c-0.1-0.1-0.2-0.3-0.3-0.4c-0.1-0.2-0.1-0.3-0.1-0.5   c0-0.2,0-0.4,0.1-0.5c0.1-0.2,0.2-0.3,0.3-0.4c0.1-0.1,0.3-0.2,0.4-0.3c0.2-0.1,0.3-0.1,0.5-0.1c0.2,0,0.4,0,0.5,0.1   c0.2,0.1,0.3,0.2,0.4,0.3c0.1,0.1,0.2,0.3,0.3,0.4C831.2,268.6,831.3,268.7,831.3,268.9z M830.9,272.3v10.6H829v-10.6H830.9z"></path>
	<path class="st10" d="M840.1,274c-0.1,0.2-0.2,0.2-0.4,0.2c-0.1,0-0.2,0-0.4-0.1s-0.3-0.2-0.5-0.3c-0.2-0.1-0.4-0.2-0.7-0.3   c-0.3-0.1-0.6-0.1-0.9-0.1c-0.3,0-0.6,0-0.9,0.1s-0.5,0.2-0.6,0.3c-0.2,0.1-0.3,0.3-0.4,0.5c-0.1,0.2-0.1,0.4-0.1,0.6   c0,0.3,0.1,0.5,0.2,0.7c0.2,0.2,0.4,0.3,0.6,0.5c0.3,0.1,0.6,0.3,0.9,0.4s0.7,0.2,1,0.3s0.7,0.2,1,0.4c0.3,0.1,0.6,0.3,0.9,0.5   c0.3,0.2,0.5,0.5,0.6,0.8c0.2,0.3,0.2,0.7,0.2,1.1c0,0.5-0.1,0.9-0.3,1.4c-0.2,0.4-0.4,0.8-0.8,1.1s-0.8,0.5-1.3,0.7   s-1.1,0.3-1.7,0.3c-0.7,0-1.4-0.1-2-0.4c-0.6-0.2-1.1-0.6-1.5-0.9l0.4-0.7c0.1-0.1,0.1-0.2,0.2-0.2c0.1,0,0.2-0.1,0.3-0.1   c0.1,0,0.3,0,0.4,0.1c0.1,0.1,0.3,0.2,0.5,0.3s0.4,0.2,0.7,0.3c0.3,0.1,0.6,0.1,1.1,0.1c0.4,0,0.7,0,1-0.1c0.3-0.1,0.5-0.2,0.7-0.4   c0.2-0.2,0.3-0.3,0.4-0.6c0.1-0.2,0.1-0.4,0.1-0.7c0-0.3-0.1-0.5-0.2-0.7s-0.4-0.4-0.6-0.5c-0.3-0.1-0.6-0.3-0.9-0.4   c-0.3-0.1-0.7-0.2-1-0.3c-0.3-0.1-0.7-0.2-1-0.4c-0.3-0.1-0.6-0.3-0.9-0.5s-0.5-0.5-0.6-0.8c-0.2-0.3-0.2-0.7-0.2-1.2   c0-0.4,0.1-0.8,0.3-1.2c0.2-0.4,0.4-0.7,0.7-1c0.3-0.3,0.7-0.5,1.2-0.7s1-0.3,1.6-0.3c0.7,0,1.3,0.1,1.9,0.3s1,0.5,1.4,0.9   L840.1,274z"></path>
	<path class="st10" d="M845.4,268.9c0,0.2,0,0.4-0.1,0.5c-0.1,0.2-0.2,0.3-0.3,0.4c-0.1,0.1-0.3,0.2-0.4,0.3   c-0.2,0.1-0.3,0.1-0.5,0.1c-0.2,0-0.4,0-0.5-0.1c-0.2-0.1-0.3-0.2-0.4-0.3c-0.1-0.1-0.2-0.3-0.3-0.4c-0.1-0.2-0.1-0.3-0.1-0.5   c0-0.2,0-0.4,0.1-0.5c0.1-0.2,0.2-0.3,0.3-0.4c0.1-0.1,0.3-0.2,0.4-0.3c0.2-0.1,0.3-0.1,0.5-0.1c0.2,0,0.4,0,0.5,0.1   c0.2,0.1,0.3,0.2,0.4,0.3c0.1,0.1,0.2,0.3,0.3,0.4C845.4,268.6,845.4,268.7,845.4,268.9z M845,272.3v10.6h-1.9v-10.6H845z"></path>
	<path class="st10" d="M850,273.8c0.4-0.5,1-0.9,1.5-1.2c0.6-0.3,1.2-0.5,1.9-0.5c0.6,0,1.2,0.1,1.7,0.4c0.5,0.2,0.9,0.6,1.3,1   c0.3,0.5,0.6,1,0.8,1.6c0.2,0.6,0.3,1.4,0.3,2.2c0,0.9-0.1,1.6-0.3,2.4c-0.2,0.7-0.5,1.3-0.9,1.8c-0.4,0.5-0.9,0.9-1.4,1.2   s-1.2,0.4-1.9,0.4c-0.7,0-1.3-0.1-1.8-0.4c-0.5-0.3-0.9-0.6-1.3-1.1l-0.1,1c-0.1,0.3-0.2,0.4-0.5,0.4h-1.2v-15.5h1.9V273.8z    M850,280.3c0.3,0.5,0.7,0.8,1.1,1c0.4,0.2,0.9,0.3,1.3,0.3c1,0,1.8-0.4,2.3-1.1c0.5-0.7,0.8-1.8,0.8-3.2c0-1.3-0.2-2.3-0.7-2.9   s-1.1-0.9-2-0.9c-0.6,0-1.1,0.1-1.6,0.4c-0.5,0.3-0.9,0.7-1.3,1.2V280.3z"></path>
	<path class="st10" d="M861.8,267.4v15.5h-1.9v-15.5H861.8z"></path>
	<path class="st10" d="M873.4,281.4c-0.2,0.3-0.5,0.5-0.8,0.7c-0.3,0.2-0.7,0.4-1,0.5c-0.4,0.1-0.7,0.2-1.1,0.3   c-0.4,0.1-0.8,0.1-1.2,0.1c-0.7,0-1.4-0.1-2-0.4c-0.6-0.2-1.2-0.6-1.6-1.1c-0.5-0.5-0.8-1.1-1.1-1.8s-0.4-1.5-0.4-2.4   c0-0.7,0.1-1.4,0.3-2.1c0.2-0.6,0.6-1.2,1-1.7s0.9-0.8,1.6-1.1s1.3-0.4,2.1-0.4c0.6,0,1.2,0.1,1.8,0.3c0.5,0.2,1,0.5,1.4,0.9   c0.4,0.4,0.7,0.9,0.9,1.5c0.2,0.6,0.3,1.3,0.3,2c0,0.3,0,0.5-0.1,0.6c-0.1,0.1-0.2,0.1-0.4,0.1H866c0,0.7,0.1,1.3,0.3,1.8   c0.2,0.5,0.4,0.9,0.7,1.2c0.3,0.3,0.6,0.6,1,0.7c0.4,0.2,0.9,0.2,1.4,0.2c0.5,0,0.9-0.1,1.2-0.2c0.3-0.1,0.6-0.2,0.9-0.4   s0.5-0.2,0.6-0.4c0.2-0.1,0.3-0.2,0.4-0.2c0.2,0,0.3,0.1,0.4,0.2L873.4,281.4z M871.9,276.4c0-0.4-0.1-0.8-0.2-1.2   c-0.1-0.4-0.3-0.7-0.5-0.9s-0.5-0.5-0.9-0.6s-0.7-0.2-1.1-0.2c-0.9,0-1.6,0.3-2.1,0.8c-0.5,0.5-0.8,1.2-1,2.2H871.9z"></path>
</g>
</svg>
