<?xml version="1.0" encoding="UTF-8"?>
<svg xmlns="http://www.w3.org/2000/svg" xmlns:xlink="http://www.w3.org/1999/xlink" id="Layer_1" data-name="Layer 1" viewBox="0 0 880 493">
  <defs>
    <style>.cls-1{fill:#272733;}.cls-2{fill:#8d400e;}.cls-3{fill:#bb6535;}.cls-4{fill:#672f08;}.cls-20,.cls-32,.cls-33,.cls-5{fill:none;}.cls-5{stroke:#565e66;stroke-width:3px;}.cls-32,.cls-33,.cls-5{stroke-linecap:round;}.cls-20,.cls-30,.cls-32,.cls-33,.cls-5{stroke-miterlimit:10;}.cls-6{fill:#259983;}.cls-7{fill:#07525a;}.cls-8{fill:#00c9ac;}.cls-9{fill:#39ae98;}.cls-10{fill:#0075a8;}.cls-11{fill:#8ad6f2;}.cls-12{fill:#ff9f2c;}.cls-13,.cls-19{fill:#fff;}.cls-14{opacity:0.3;fill:url(#linear-gradient);}.cls-15,.cls-16,.cls-28,.cls-29,.cls-36,.cls-37{opacity:0.15;}.cls-15{fill:url(#linear-gradient-2);}.cls-16{fill:url(#linear-gradient-3);}.cls-17{fill:#a81e1e;}.cls-18,.cls-30{fill:#fc4949;}.cls-19{opacity:0.45;}.cls-20{stroke:#8ad6f2;}.cls-20,.cls-30,.cls-32,.cls-33{stroke-width:1.83px;}.cls-21{fill:#c3a14b;}.cls-22{fill:#ffd262;}.cls-23{fill:#c1974a;}.cls-24{fill:#4dbdeb;}.cls-25{opacity:0.25;fill:url(#linear-gradient-4);}.cls-26{fill:#05415b;}.cls-27{fill:#0a597c;}.cls-28{fill:url(#linear-gradient-5);}.cls-29{fill:url(#linear-gradient-6);}.cls-30,.cls-32{stroke:#fff;}.cls-31,.cls-34,.cls-35{opacity:0.2;}.cls-31{fill:url(#linear-gradient-7);}.cls-33{stroke:#ffd262;}.cls-34{fill:url(#radial-gradient);}.cls-35{fill:url(#radial-gradient-2);}.cls-36{fill:url(#linear-gradient-8);}.cls-37{fill:url(#linear-gradient-9);}</style>
    <linearGradient id="linear-gradient" x1="285.79" y1="319.44" x2="342.77" y2="319.44" gradientTransform="translate(549.19 -62.18) rotate(76.15)" gradientUnits="userSpaceOnUse">
      <stop offset="0" stop-color="#bd5500"></stop>
      <stop offset="1" stop-color="#ffd262"></stop>
    </linearGradient>
    <linearGradient id="linear-gradient-2" x1="174.1" y1="259.59" x2="224.38" y2="259.59" gradientUnits="userSpaceOnUse">
      <stop offset="0" stop-color="#259983"></stop>
      <stop offset="1" stop-color="#574981"></stop>
    </linearGradient>
    <linearGradient id="linear-gradient-3" x1="225.35" y1="298.74" x2="261.92" y2="298.74" xlink:href="#linear-gradient-2"></linearGradient>
    <linearGradient id="linear-gradient-4" x1="144.35" y1="458.43" x2="144.35" y2="154.91" gradientUnits="userSpaceOnUse">
      <stop offset="0" stop-color="#574981"></stop>
      <stop offset="1" stop-color="#259983"></stop>
    </linearGradient>
    <linearGradient id="linear-gradient-5" x1="216" y1="470.84" x2="197.85" y2="439.39" xlink:href="#linear-gradient-2"></linearGradient>
    <linearGradient id="linear-gradient-6" x1="112.84" y1="496.14" x2="85.61" y2="448.97" xlink:href="#linear-gradient-2"></linearGradient>
    <linearGradient id="linear-gradient-7" x1="137.99" y1="300.27" x2="137.99" y2="277.19" gradientUnits="userSpaceOnUse">
      <stop offset="0" stop-color="#302946"></stop>
      <stop offset="0.65" stop-color="#bd5500"></stop>
    </linearGradient>
    <radialGradient id="radial-gradient" cx="115.36" cy="189.2" r="7.77" gradientUnits="userSpaceOnUse">
      <stop offset="0.35" stop-color="#bd5500"></stop>
      <stop offset="1" stop-color="#302946"></stop>
    </radialGradient>
    <radialGradient id="radial-gradient-2" cx="155.13" cy="189.2" r="7.77" xlink:href="#radial-gradient"></radialGradient>
    <linearGradient id="linear-gradient-8" x1="40.67" y1="277.37" x2="76.23" y2="241.81" xlink:href="#linear-gradient-2"></linearGradient>
    <linearGradient id="linear-gradient-9" x1="45.06" y1="328.74" x2="70.92" y2="302.89" xlink:href="#linear-gradient-2"></linearGradient>
  </defs>
  <title>BGSEO_Combined_File</title>
  <rect class="cls-1" x="281.46" y="49.27" width="530.96" height="425.27"></rect>
  <rect class="cls-2" x="288.12" y="126.53" width="517.65" height="4.99"></rect>
  <rect class="cls-2" x="288.12" y="194.63" width="517.65" height="4.99"></rect>
  <rect class="cls-2" x="288.12" y="262.74" width="517.65" height="4.99"></rect>
  <rect class="cls-2" x="288.12" y="330.84" width="517.65" height="4.99"></rect>
  <rect class="cls-2" x="288.12" y="398.94" width="517.65" height="4.99"></rect>
  <path class="cls-3" d="M274,1V491.18H819.91V1ZM456.23,469.54H288.12V60.92H456.23Zm174.77,0H462.89V60.92H631Zm174.76,0H637.65V60.92H805.76Z"></path>
  <polygon class="cls-2" points="819.91 21.81 273.97 21.81 255.66 1 838.22 1 819.91 21.81"></polygon>
  <rect class="cls-4" x="255.66" y="1" width="582.56" height="9.99"></rect>
  <polygon class="cls-4" points="819.91 49.27 273.97 49.27 268.98 44.28 824.9 44.28 819.91 49.27"></polygon>
  <polygon class="cls-2" points="819.91 474.54 273.97 474.54 268.98 469.54 824.9 469.54 819.91 474.54"></polygon>
  <line class="cls-5" x1="20.97" y1="491.18" x2="879" y2="491.18"></line>
  <rect class="cls-6" x="288.12" y="73.4" width="12.01" height="53.26"></rect>
  <rect class="cls-7" x="300.13" y="65.08" width="12.01" height="61.58"></rect>
  <rect class="cls-6" x="312.13" y="73.4" width="12.01" height="53.26"></rect>
  <rect class="cls-8" x="324.14" y="73.4" width="12.01" height="53.26"></rect>
  <rect class="cls-9" x="336.15" y="69.24" width="12.01" height="57.42"></rect>
  <rect class="cls-6" x="348.16" y="73.4" width="12.01" height="53.26"></rect>
  <rect class="cls-8" x="360.17" y="73.4" width="12.01" height="53.26"></rect>
  <rect class="cls-7" x="384.18" y="65.08" width="12.01" height="61.58"></rect>
  <rect class="cls-9" x="396.19" y="65.08" width="12.01" height="61.58"></rect>
  <rect class="cls-6" x="372.17" y="73.4" width="12.01" height="53.26"></rect>
  <rect class="cls-7" x="408.2" y="69.24" width="12.01" height="57.42"></rect>
  <rect class="cls-6" x="420.2" y="73.4" width="12.01" height="53.26"></rect>
  <rect class="cls-7" x="432.21" y="69.24" width="12.01" height="57.42"></rect>
  <rect class="cls-8" x="444.22" y="73.4" width="12.01" height="53.26"></rect>
  <rect class="cls-6" x="462.89" y="65.08" width="12.01" height="61.58"></rect>
  <rect class="cls-7" x="474.89" y="73.4" width="12.01" height="53.26"></rect>
  <rect class="cls-6" x="486.9" y="65.08" width="12.01" height="61.58"></rect>
  <rect class="cls-8" x="498.91" y="73.4" width="12.01" height="53.26"></rect>
  <rect class="cls-9" x="510.92" y="69.24" width="12.01" height="57.42"></rect>
  <rect class="cls-6" x="522.93" y="73.4" width="12.01" height="53.26"></rect>
  <rect class="cls-8" x="534.93" y="69.24" width="12.01" height="57.42"></rect>
  <rect class="cls-7" x="558.95" y="65.08" width="12.01" height="61.58"></rect>
  <rect class="cls-9" x="570.96" y="73.4" width="12.01" height="53.26"></rect>
  <rect class="cls-6" x="546.94" y="69.24" width="12.01" height="57.42"></rect>
  <rect class="cls-7" x="582.96" y="69.24" width="12.01" height="57.42"></rect>
  <rect class="cls-6" x="594.97" y="73.4" width="12.01" height="53.26"></rect>
  <rect class="cls-7" x="606.98" y="65.08" width="12.01" height="61.58"></rect>
  <rect class="cls-8" x="618.99" y="69.24" width="12.01" height="57.42"></rect>
  <rect class="cls-6" x="637.65" y="73.4" width="12.01" height="53.26"></rect>
  <rect class="cls-7" x="649.66" y="73.4" width="12.01" height="53.26"></rect>
  <rect class="cls-6" x="661.67" y="65.08" width="12.01" height="61.58"></rect>
  <rect class="cls-8" x="673.68" y="69.24" width="12.01" height="57.42"></rect>
  <rect class="cls-9" x="685.69" y="69.24" width="12.01" height="57.42"></rect>
  <rect class="cls-6" x="697.69" y="73.4" width="12.01" height="53.26"></rect>
  <rect class="cls-8" x="709.7" y="69.24" width="12.01" height="57.42"></rect>
  <rect class="cls-7" x="733.72" y="65.08" width="12.01" height="61.58"></rect>
  <rect class="cls-9" x="745.72" y="73.4" width="12.01" height="53.26"></rect>
  <rect class="cls-6" x="721.71" y="73.4" width="12.01" height="53.26"></rect>
  <rect class="cls-7" x="757.73" y="73.4" width="12.01" height="53.26"></rect>
  <rect class="cls-6" x="769.74" y="69.24" width="12.01" height="57.42"></rect>
  <rect class="cls-7" x="781.75" y="73.4" width="12.01" height="53.26"></rect>
  <rect class="cls-8" x="793.76" y="65.08" width="12.01" height="61.58"></rect>
  <rect class="cls-6" x="618.99" y="141.23" width="12.01" height="53.26" transform="translate(1249.98 335.72) rotate(-180)"></rect>
  <rect class="cls-7" x="606.98" y="132.91" width="12.01" height="61.58" transform="translate(1225.97 327.4) rotate(-180)"></rect>
  <rect class="cls-6" x="594.97" y="141.23" width="12.01" height="53.26" transform="translate(1201.95 335.72) rotate(-180)"></rect>
  <rect class="cls-8" x="582.96" y="141.23" width="12.01" height="53.26" transform="translate(1177.94 335.72) rotate(-180)"></rect>
  <rect class="cls-9" x="570.96" y="137.07" width="12.01" height="57.42" transform="translate(1153.92 331.56) rotate(-180)"></rect>
  <rect class="cls-6" x="558.95" y="141.23" width="12.01" height="53.26" transform="translate(1129.91 335.72) rotate(-180)"></rect>
  <rect class="cls-8" x="546.94" y="141.23" width="12.01" height="53.26" transform="translate(1105.89 335.72) rotate(-180)"></rect>
  <rect class="cls-7" x="522.93" y="132.91" width="12.01" height="61.58" transform="translate(1057.86 327.4) rotate(-180)"></rect>
  <rect class="cls-9" x="510.92" y="132.91" width="12.01" height="61.58" transform="translate(1033.84 327.4) rotate(-180)"></rect>
  <rect class="cls-6" x="534.93" y="141.23" width="12.01" height="53.26" transform="translate(1081.87 335.72) rotate(-180)"></rect>
  <rect class="cls-7" x="498.91" y="137.07" width="12.01" height="57.42" transform="translate(1009.83 331.56) rotate(-180)"></rect>
  <rect class="cls-6" x="486.9" y="141.23" width="12.01" height="53.26" transform="translate(985.81 335.72) rotate(-180)"></rect>
  <rect class="cls-7" x="474.89" y="137.07" width="12.01" height="57.42" transform="translate(961.8 331.56) rotate(-180)"></rect>
  <rect class="cls-8" x="462.89" y="141.23" width="12.01" height="53.26" transform="translate(937.78 335.72) rotate(-180)"></rect>
  <rect class="cls-6" x="793.76" y="141.23" width="12.01" height="53.26" transform="translate(1599.52 335.72) rotate(-180)"></rect>
  <rect class="cls-7" x="781.75" y="141.23" width="12.01" height="53.26" transform="translate(1575.5 335.72) rotate(-180)"></rect>
  <rect class="cls-6" x="769.74" y="132.91" width="12.01" height="61.58" transform="translate(1551.49 327.4) rotate(-180)"></rect>
  <rect class="cls-8" x="757.73" y="137.07" width="12.01" height="57.42" transform="translate(1527.47 331.56) rotate(-180)"></rect>
  <rect class="cls-9" x="745.72" y="137.07" width="12.01" height="57.42" transform="translate(1503.46 331.56) rotate(-180)"></rect>
  <rect class="cls-6" x="733.72" y="141.23" width="12.01" height="53.26" transform="translate(1479.44 335.72) rotate(-180)"></rect>
  <rect class="cls-8" x="721.71" y="137.07" width="12.01" height="57.42" transform="translate(1455.43 331.56) rotate(-180)"></rect>
  <rect class="cls-7" x="697.69" y="132.91" width="12.01" height="61.58" transform="translate(1407.39 327.4) rotate(-180)"></rect>
  <rect class="cls-9" x="685.69" y="141.23" width="12.01" height="53.26" transform="translate(1383.38 335.72) rotate(-180)"></rect>
  <rect class="cls-6" x="709.7" y="141.23" width="12.01" height="53.26" transform="translate(1431.41 335.72) rotate(-180)"></rect>
  <rect class="cls-7" x="673.68" y="141.23" width="12.01" height="53.26" transform="translate(1359.36 335.72) rotate(-180)"></rect>
  <rect class="cls-6" x="661.67" y="137.07" width="12.01" height="57.42" transform="translate(1335.35 331.56) rotate(-180)"></rect>
  <rect class="cls-7" x="649.66" y="141.23" width="12.01" height="53.26" transform="translate(1311.33 335.72) rotate(-180)"></rect>
  <rect class="cls-8" x="637.65" y="132.91" width="12.01" height="61.58" transform="translate(1287.32 327.4) rotate(-180)"></rect>
  <rect class="cls-6" x="444.22" y="132.91" width="12.01" height="61.58" transform="translate(900.45 327.4) rotate(-180)"></rect>
  <rect class="cls-7" x="432.21" y="141.23" width="12.01" height="53.26" transform="translate(876.43 335.72) rotate(-180)"></rect>
  <rect class="cls-6" x="420.2" y="132.91" width="12.01" height="61.58" transform="translate(852.42 327.4) rotate(-180)"></rect>
  <rect class="cls-8" x="408.2" y="141.23" width="12.01" height="53.26" transform="translate(828.4 335.72) rotate(-180)"></rect>
  <rect class="cls-9" x="396.19" y="137.07" width="12.01" height="57.42" transform="translate(804.39 331.56) rotate(-180)"></rect>
  <rect class="cls-6" x="384.18" y="141.23" width="12.01" height="53.26" transform="translate(780.37 335.72) rotate(-180)"></rect>
  <rect class="cls-8" x="372.17" y="137.07" width="12.01" height="57.42" transform="translate(756.35 331.56) rotate(-180)"></rect>
  <rect class="cls-7" x="348.16" y="132.91" width="12.01" height="61.58" transform="translate(708.32 327.4) rotate(-180)"></rect>
  <rect class="cls-9" x="336.15" y="141.23" width="12.01" height="53.26" transform="translate(684.31 335.72) rotate(-180)"></rect>
  <rect class="cls-6" x="360.17" y="137.07" width="12.01" height="57.42" transform="translate(732.34 331.56) rotate(-180)"></rect>
  <rect class="cls-7" x="324.14" y="137.07" width="12.01" height="57.42" transform="translate(660.29 331.56) rotate(-180)"></rect>
  <rect class="cls-6" x="312.13" y="141.23" width="12.01" height="53.26" transform="translate(636.28 335.72) rotate(-180)"></rect>
  <rect class="cls-7" x="300.13" y="132.91" width="12.01" height="61.58" transform="translate(612.26 327.4) rotate(-180)"></rect>
  <rect class="cls-8" x="288.12" y="137.07" width="12.01" height="57.42" transform="translate(588.24 331.56) rotate(-180)"></rect>
  <rect class="cls-6" x="637.65" y="209.47" width="12.01" height="53.26"></rect>
  <rect class="cls-7" x="649.66" y="201.15" width="12.01" height="61.58"></rect>
  <rect class="cls-6" x="661.67" y="209.47" width="12.01" height="53.26"></rect>
  <rect class="cls-8" x="673.68" y="209.47" width="12.01" height="53.26"></rect>
  <rect class="cls-9" x="685.69" y="205.31" width="12.01" height="57.42"></rect>
  <rect class="cls-6" x="697.69" y="209.47" width="12.01" height="53.26"></rect>
  <rect class="cls-8" x="709.7" y="209.47" width="12.01" height="53.26"></rect>
  <rect class="cls-7" x="733.72" y="201.15" width="12.01" height="61.58"></rect>
  <rect class="cls-9" x="745.72" y="201.15" width="12.01" height="61.58"></rect>
  <rect class="cls-6" x="721.71" y="209.47" width="12.01" height="53.26"></rect>
  <rect class="cls-7" x="757.73" y="205.31" width="12.01" height="57.42"></rect>
  <rect class="cls-6" x="769.74" y="209.47" width="12.01" height="53.26"></rect>
  <rect class="cls-7" x="781.75" y="205.31" width="12.01" height="57.42"></rect>
  <rect class="cls-8" x="793.76" y="209.47" width="12.01" height="53.26"></rect>
  <rect class="cls-6" x="288.12" y="201.15" width="12.01" height="61.58"></rect>
  <rect class="cls-7" x="300.13" y="209.47" width="12.01" height="53.26"></rect>
  <rect class="cls-6" x="312.13" y="201.15" width="12.01" height="61.58"></rect>
  <rect class="cls-8" x="324.14" y="209.47" width="12.01" height="53.26"></rect>
  <rect class="cls-9" x="336.15" y="205.31" width="12.01" height="57.42"></rect>
  <rect class="cls-6" x="348.16" y="209.47" width="12.01" height="53.26"></rect>
  <rect class="cls-8" x="360.17" y="205.31" width="12.01" height="57.42"></rect>
  <rect class="cls-7" x="384.18" y="201.15" width="12.01" height="61.58"></rect>
  <rect class="cls-9" x="396.19" y="209.47" width="12.01" height="53.26"></rect>
  <rect class="cls-6" x="372.17" y="205.31" width="12.01" height="57.42"></rect>
  <rect class="cls-7" x="408.2" y="205.31" width="12.01" height="57.42"></rect>
  <rect class="cls-6" x="420.2" y="209.47" width="12.01" height="53.26"></rect>
  <rect class="cls-7" x="432.21" y="201.15" width="12.01" height="61.58"></rect>
  <rect class="cls-8" x="444.22" y="205.31" width="12.01" height="57.42"></rect>
  <rect class="cls-6" x="462.89" y="209.47" width="12.01" height="53.26"></rect>
  <rect class="cls-7" x="474.89" y="209.47" width="12.01" height="53.26"></rect>
  <rect class="cls-6" x="486.9" y="201.15" width="12.01" height="61.58"></rect>
  <rect class="cls-8" x="498.91" y="205.31" width="12.01" height="57.42"></rect>
  <rect class="cls-9" x="510.92" y="205.31" width="12.01" height="57.42"></rect>
  <rect class="cls-6" x="522.93" y="209.47" width="12.01" height="53.26"></rect>
  <rect class="cls-8" x="534.93" y="205.31" width="12.01" height="57.42"></rect>
  <rect class="cls-7" x="558.95" y="201.15" width="12.01" height="61.58"></rect>
  <rect class="cls-9" x="570.96" y="209.47" width="12.01" height="53.26"></rect>
  <rect class="cls-6" x="546.94" y="209.47" width="12.01" height="53.26"></rect>
  <rect class="cls-7" x="582.96" y="209.47" width="12.01" height="53.26"></rect>
  <rect class="cls-6" x="594.97" y="205.31" width="12.01" height="57.42"></rect>
  <rect class="cls-7" x="606.98" y="209.47" width="12.01" height="53.26"></rect>
  <rect class="cls-8" x="618.99" y="201.15" width="12.01" height="61.58"></rect>
  <rect class="cls-6" x="793.76" y="277.72" width="12.01" height="53.26" transform="translate(1599.52 608.69) rotate(-180)"></rect>
  <rect class="cls-7" x="781.75" y="269.39" width="12.01" height="61.58" transform="translate(1575.5 600.37) rotate(-180)"></rect>
  <rect class="cls-6" x="769.74" y="277.72" width="12.01" height="53.26" transform="translate(1551.49 608.69) rotate(-180)"></rect>
  <rect class="cls-8" x="757.73" y="277.72" width="12.01" height="53.26" transform="translate(1527.47 608.69) rotate(-180)"></rect>
  <rect class="cls-9" x="745.72" y="273.55" width="12.01" height="57.42" transform="translate(1503.46 604.53) rotate(-180)"></rect>
  <rect class="cls-6" x="733.72" y="277.72" width="12.01" height="53.26" transform="translate(1479.44 608.69) rotate(-180)"></rect>
  <rect class="cls-8" x="721.71" y="277.72" width="12.01" height="53.26" transform="translate(1455.43 608.69) rotate(-180)"></rect>
  <rect class="cls-7" x="697.69" y="269.39" width="12.01" height="61.58" transform="translate(1407.39 600.37) rotate(-180)"></rect>
  <rect class="cls-9" x="685.69" y="269.39" width="12.01" height="61.58" transform="translate(1383.38 600.37) rotate(-180)"></rect>
  <rect class="cls-6" x="709.7" y="277.72" width="12.01" height="53.26" transform="translate(1431.41 608.69) rotate(-180)"></rect>
  <rect class="cls-7" x="673.68" y="273.55" width="12.01" height="57.42" transform="translate(1359.36 604.53) rotate(-180)"></rect>
  <rect class="cls-6" x="661.67" y="277.72" width="12.01" height="53.26" transform="translate(1335.35 608.69) rotate(-180)"></rect>
  <rect class="cls-7" x="649.66" y="273.55" width="12.01" height="57.42" transform="translate(1311.33 604.53) rotate(-180)"></rect>
  <rect class="cls-8" x="637.65" y="277.72" width="12.01" height="53.26" transform="translate(1287.32 608.69) rotate(-180)"></rect>
  <rect class="cls-6" x="618.99" y="269.39" width="12.01" height="61.58" transform="translate(1249.98 600.37) rotate(-180)"></rect>
  <rect class="cls-7" x="606.98" y="277.72" width="12.01" height="53.26" transform="translate(1225.97 608.69) rotate(-180)"></rect>
  <rect class="cls-6" x="594.97" y="269.39" width="12.01" height="61.58" transform="translate(1201.95 600.37) rotate(-180)"></rect>
  <rect class="cls-8" x="582.96" y="277.72" width="12.01" height="53.26" transform="translate(1177.94 608.69) rotate(-180)"></rect>
  <rect class="cls-9" x="570.96" y="273.55" width="12.01" height="57.42" transform="translate(1153.92 604.53) rotate(-180)"></rect>
  <rect class="cls-6" x="558.95" y="277.72" width="12.01" height="53.26" transform="translate(1129.91 608.69) rotate(-180)"></rect>
  <rect class="cls-8" x="546.94" y="273.55" width="12.01" height="57.42" transform="translate(1105.89 604.53) rotate(-180)"></rect>
  <rect class="cls-7" x="522.93" y="269.39" width="12.01" height="61.58" transform="translate(1057.86 600.37) rotate(-180)"></rect>
  <rect class="cls-9" x="510.92" y="277.72" width="12.01" height="53.26" transform="translate(1033.84 608.69) rotate(-180)"></rect>
  <rect class="cls-6" x="534.93" y="273.55" width="12.01" height="57.42" transform="translate(1081.87 604.53) rotate(-180)"></rect>
  <rect class="cls-7" x="498.91" y="273.55" width="12.01" height="57.42" transform="translate(1009.83 604.53) rotate(-180)"></rect>
  <rect class="cls-6" x="486.9" y="277.72" width="12.01" height="53.26" transform="translate(985.81 608.69) rotate(-180)"></rect>
  <rect class="cls-7" x="474.89" y="269.39" width="12.01" height="61.58" transform="translate(961.8 600.37) rotate(-180)"></rect>
  <rect class="cls-8" x="462.89" y="273.55" width="12.01" height="57.42" transform="translate(937.78 604.53) rotate(-180)"></rect>
  <rect class="cls-6" x="444.22" y="277.72" width="12.01" height="53.26" transform="translate(900.45 608.69) rotate(-180)"></rect>
  <rect class="cls-7" x="432.21" y="277.72" width="12.01" height="53.26" transform="translate(876.43 608.69) rotate(-180)"></rect>
  <rect class="cls-6" x="420.2" y="269.39" width="12.01" height="61.58" transform="translate(852.42 600.37) rotate(-180)"></rect>
  <rect class="cls-8" x="408.2" y="273.55" width="12.01" height="57.42" transform="translate(828.4 604.53) rotate(-180)"></rect>
  <rect class="cls-9" x="396.19" y="273.55" width="12.01" height="57.42" transform="translate(804.39 604.53) rotate(-180)"></rect>
  <rect class="cls-6" x="384.18" y="277.72" width="12.01" height="53.26" transform="translate(780.37 608.69) rotate(-180)"></rect>
  <rect class="cls-8" x="372.17" y="273.55" width="12.01" height="57.42" transform="translate(756.35 604.53) rotate(-180)"></rect>
  <rect class="cls-9" x="336.15" y="277.72" width="12.01" height="53.26" transform="translate(684.31 608.69) rotate(-180)"></rect>
  <rect class="cls-7" x="324.14" y="277.72" width="12.01" height="53.26" transform="translate(660.29 608.69) rotate(-180)"></rect>
  <rect class="cls-6" x="312.13" y="273.55" width="12.01" height="57.42" transform="translate(636.28 604.53) rotate(-180)"></rect>
  <rect class="cls-7" x="300.13" y="277.72" width="12.01" height="53.26" transform="translate(612.26 608.69) rotate(-180)"></rect>
  <rect class="cls-8" x="288.12" y="269.39" width="12.01" height="61.58" transform="translate(588.24 600.37) rotate(-180)"></rect>
  <rect class="cls-6" x="462.89" y="345.75" width="12.01" height="53.26"></rect>
  <rect class="cls-7" x="474.89" y="337.43" width="12.01" height="61.58"></rect>
  <rect class="cls-6" x="486.9" y="345.75" width="12.01" height="53.26"></rect>
  <rect class="cls-8" x="498.91" y="345.75" width="12.01" height="53.26"></rect>
  <rect class="cls-9" x="510.92" y="341.59" width="12.01" height="57.42"></rect>
  <rect class="cls-6" x="522.93" y="345.75" width="12.01" height="53.26"></rect>
  <rect class="cls-8" x="534.93" y="345.75" width="12.01" height="53.26"></rect>
  <rect class="cls-7" x="558.95" y="337.43" width="12.01" height="61.58"></rect>
  <rect class="cls-9" x="570.96" y="337.43" width="12.01" height="61.58"></rect>
  <rect class="cls-6" x="546.94" y="345.75" width="12.01" height="53.26"></rect>
  <rect class="cls-7" x="582.96" y="341.59" width="12.01" height="57.42"></rect>
  <rect class="cls-6" x="594.97" y="345.75" width="12.01" height="53.26"></rect>
  <rect class="cls-7" x="606.98" y="341.59" width="12.01" height="57.42"></rect>
  <rect class="cls-8" x="618.99" y="345.75" width="12.01" height="53.26"></rect>
  <rect class="cls-6" x="288.12" y="345.75" width="12.01" height="53.26"></rect>
  <rect class="cls-7" x="300.13" y="345.75" width="12.01" height="53.26"></rect>
  <rect class="cls-6" x="312.13" y="337.43" width="12.01" height="61.58"></rect>
  <rect class="cls-8" x="324.14" y="341.59" width="12.01" height="57.42"></rect>
  <rect class="cls-9" x="336.15" y="341.59" width="12.01" height="57.42"></rect>
  <rect class="cls-6" x="348.16" y="345.75" width="12.01" height="53.26"></rect>
  <rect class="cls-8" x="360.17" y="341.59" width="12.01" height="57.42"></rect>
  <rect class="cls-7" x="384.18" y="337.43" width="12.01" height="61.58"></rect>
  <rect class="cls-9" x="396.19" y="345.75" width="12.01" height="53.26"></rect>
  <rect class="cls-6" x="372.17" y="345.75" width="12.01" height="53.26"></rect>
  <rect class="cls-7" x="408.2" y="345.75" width="12.01" height="53.26"></rect>
  <rect class="cls-6" x="420.2" y="341.59" width="12.01" height="57.42"></rect>
  <rect class="cls-7" x="432.21" y="345.75" width="12.01" height="53.26"></rect>
  <rect class="cls-8" x="444.22" y="337.43" width="12.01" height="61.58"></rect>
  <rect class="cls-6" x="637.65" y="337.43" width="12.01" height="61.58"></rect>
  <rect class="cls-7" x="649.66" y="345.75" width="12.01" height="53.26"></rect>
  <rect class="cls-6" x="661.67" y="337.43" width="12.01" height="61.58"></rect>
  <rect class="cls-8" x="673.68" y="345.75" width="12.01" height="53.26"></rect>
  <rect class="cls-9" x="685.69" y="341.59" width="12.01" height="57.42"></rect>
  <rect class="cls-6" x="697.69" y="345.75" width="12.01" height="53.26"></rect>
  <rect class="cls-8" x="709.7" y="341.59" width="12.01" height="57.42"></rect>
  <rect class="cls-7" x="733.72" y="337.43" width="12.01" height="61.58"></rect>
  <rect class="cls-9" x="745.72" y="345.75" width="12.01" height="53.26"></rect>
  <rect class="cls-6" x="721.71" y="341.59" width="12.01" height="57.42"></rect>
  <rect class="cls-7" x="757.73" y="341.59" width="12.01" height="57.42"></rect>
  <rect class="cls-6" x="769.74" y="345.75" width="12.01" height="53.26"></rect>
  <rect class="cls-7" x="781.75" y="337.43" width="12.01" height="61.58"></rect>
  <rect class="cls-8" x="793.76" y="341.59" width="12.01" height="57.42"></rect>
  <rect class="cls-6" x="444.22" y="416.28" width="12.01" height="53.26" transform="translate(900.45 885.83) rotate(-180)"></rect>
  <rect class="cls-7" x="432.21" y="407.96" width="12.01" height="61.58" transform="translate(876.43 877.5) rotate(-180)"></rect>
  <rect class="cls-6" x="420.2" y="416.28" width="12.01" height="53.26" transform="translate(852.42 885.83) rotate(-180)"></rect>
  <rect class="cls-8" x="408.2" y="416.28" width="12.01" height="53.26" transform="translate(828.4 885.83) rotate(-180)"></rect>
  <rect class="cls-9" x="396.19" y="412.12" width="12.01" height="57.42" transform="translate(804.39 881.66) rotate(-180)"></rect>
  <rect class="cls-6" x="384.18" y="416.28" width="12.01" height="53.26" transform="translate(780.37 885.83) rotate(-180)"></rect>
  <rect class="cls-8" x="372.17" y="416.28" width="12.01" height="53.26" transform="translate(756.35 885.83) rotate(-180)"></rect>
  <rect class="cls-7" x="348.16" y="407.96" width="12.01" height="61.58" transform="translate(708.32 877.5) rotate(-180)"></rect>
  <rect class="cls-9" x="336.15" y="407.96" width="12.01" height="61.58" transform="translate(684.31 877.5) rotate(-180)"></rect>
  <rect class="cls-6" x="360.17" y="416.28" width="12.01" height="53.26" transform="translate(732.34 885.83) rotate(-180)"></rect>
  <rect class="cls-7" x="324.14" y="412.12" width="12.01" height="57.42" transform="translate(660.29 881.66) rotate(-180)"></rect>
  <rect class="cls-6" x="312.13" y="416.28" width="12.01" height="53.26" transform="translate(636.28 885.83) rotate(-180)"></rect>
  <rect class="cls-7" x="300.13" y="412.12" width="12.01" height="57.42" transform="translate(612.26 881.66) rotate(-180)"></rect>
  <rect class="cls-8" x="288.12" y="416.28" width="12.01" height="53.26" transform="translate(588.24 885.83) rotate(-180)"></rect>
  <rect class="cls-6" x="793.76" y="407.96" width="12.01" height="61.58" transform="translate(1599.52 877.5) rotate(-180)"></rect>
  <rect class="cls-7" x="781.75" y="416.28" width="12.01" height="53.26" transform="translate(1575.5 885.83) rotate(-180)"></rect>
  <rect class="cls-6" x="769.74" y="407.96" width="12.01" height="61.58" transform="translate(1551.49 877.5) rotate(-180)"></rect>
  <rect class="cls-8" x="757.73" y="416.28" width="12.01" height="53.26" transform="translate(1527.47 885.83) rotate(-180)"></rect>
  <rect class="cls-9" x="745.72" y="412.12" width="12.01" height="57.42" transform="translate(1503.46 881.66) rotate(-180)"></rect>
  <rect class="cls-6" x="733.72" y="416.28" width="12.01" height="53.26" transform="translate(1479.44 885.83) rotate(-180)"></rect>
  <rect class="cls-8" x="721.71" y="412.12" width="12.01" height="57.42" transform="translate(1455.43 881.66) rotate(-180)"></rect>
  <rect class="cls-7" x="697.69" y="407.96" width="12.01" height="61.58" transform="translate(1407.39 877.5) rotate(-180)"></rect>
  <rect class="cls-9" x="685.69" y="416.28" width="12.01" height="53.26" transform="translate(1383.38 885.83) rotate(-180)"></rect>
  <rect class="cls-6" x="709.7" y="412.12" width="12.01" height="57.42" transform="translate(1431.41 881.66) rotate(-180)"></rect>
  <rect class="cls-7" x="673.68" y="412.12" width="12.01" height="57.42" transform="translate(1359.36 881.66) rotate(-180)"></rect>
  <rect class="cls-6" x="661.67" y="416.28" width="12.01" height="53.26" transform="translate(1335.35 885.83) rotate(-180)"></rect>
  <rect class="cls-7" x="649.66" y="407.96" width="12.01" height="61.58" transform="translate(1311.33 877.5) rotate(-180)"></rect>
  <rect class="cls-8" x="637.65" y="412.12" width="12.01" height="57.42" transform="translate(1287.32 881.66) rotate(-180)"></rect>
  <rect class="cls-6" x="618.99" y="416.28" width="12.01" height="53.26" transform="translate(1249.98 885.83) rotate(-180)"></rect>
  <rect class="cls-7" x="606.98" y="416.28" width="12.01" height="53.26" transform="translate(1225.97 885.83) rotate(-180)"></rect>
  <rect class="cls-6" x="594.97" y="407.96" width="12.01" height="61.58" transform="translate(1201.95 877.5) rotate(-180)"></rect>
  <rect class="cls-8" x="582.96" y="412.12" width="12.01" height="57.42" transform="translate(1177.94 881.66) rotate(-180)"></rect>
  <rect class="cls-9" x="570.96" y="412.12" width="12.01" height="57.42" transform="translate(1153.92 881.66) rotate(-180)"></rect>
  <rect class="cls-6" x="558.95" y="416.28" width="12.01" height="53.26" transform="translate(1129.91 885.83) rotate(-180)"></rect>
  <rect class="cls-8" x="546.94" y="412.12" width="12.01" height="57.42" transform="translate(1105.89 881.66) rotate(-180)"></rect>
  <rect class="cls-7" x="522.93" y="407.96" width="12.01" height="61.58" transform="translate(1057.86 877.5) rotate(-180)"></rect>
  <rect class="cls-9" x="510.92" y="416.28" width="12.01" height="53.26" transform="translate(1033.84 885.83) rotate(-180)"></rect>
  <rect class="cls-6" x="534.93" y="416.28" width="12.01" height="53.26" transform="translate(1081.87 885.83) rotate(-180)"></rect>
  <rect class="cls-7" x="498.91" y="416.28" width="12.01" height="53.26" transform="translate(1009.83 885.83) rotate(-180)"></rect>
  <rect class="cls-6" x="486.9" y="412.12" width="12.01" height="57.42" transform="translate(985.81 881.66) rotate(-180)"></rect>
  <rect class="cls-7" x="474.89" y="416.28" width="12.01" height="53.26" transform="translate(961.8 885.83) rotate(-180)"></rect>
  <rect class="cls-8" x="462.89" y="407.96" width="12.01" height="61.58" transform="translate(937.78 877.5) rotate(-180)"></rect>
  <path class="cls-10" d="M302.34,302.71a11,11,0,0,0-13.06,6.44,12.58,12.58,0,0,0-.43,1.22,10.6,10.6,0,0,0-.3,1.65,10.81,10.81,0,0,1,1.66-2.33,11,11,0,0,1,10.92-3.08c3.16.88,5.85,2.17,7.19,5.32l1.2-4.34C308.18,304.87,305.5,303.58,302.34,302.71Z"></path>
  <path class="cls-11" d="M288.55,312a10.6,10.6,0,0,1,.3-1.65,12.58,12.58,0,0,1,.43-1.22,11,11,0,0,1,13.06-6.44c3.16.87,5.84,2.16,7.18,4.88v0l3.5-12.69a22.85,22.85,0,0,0-34.1,8.26,23.24,23.24,0,0,0-1.53,4c-.12.42-.22.84-.31,1.27a23.2,23.2,0,0,0-.49,3.76h11.93C288.54,312.18,288.54,312.1,288.55,312Z"></path>
  <path class="cls-12" d="M344.84,292.77,305.13,283a1.64,1.64,0,0,0-.54,0l.44.82L303,284.88l-13.78,55.88a1.67,1.67,0,0,0,1.21,2l39.71,9.79a1.67,1.67,0,0,0,2-1.22l13.94-56.56A1.68,1.68,0,0,0,344.84,292.77Z"></path>
  <path class="cls-13" d="M330.44,352.18a1.66,1.66,0,0,1-2,1.22l-39.71-9.79a1.67,1.67,0,0,1-1.22-2L301.45,285c.22-.89,2-1.22,2-1.22l39.71,9.8a1.66,1.66,0,0,1,1.22,2Z"></path>
  <path class="cls-12" d="M303.83,283.21l-3.52,1.87.5.94,2.14-1.14.16-.68A1.63,1.63,0,0,1,303.83,283.21Z"></path>
  <path class="cls-12" d="M304.59,283a1.49,1.49,0,0,0-.55.14l-.21.12a1.63,1.63,0,0,0-.72,1l-.16.68,2.08-1.11Z"></path>
  <rect class="cls-12" x="283.49" y="297.33" width="61.58" height="44.23" rx="1.66" transform="translate(-71.11 548.1) rotate(-76.15)"></rect>
  <rect class="cls-14" x="283.49" y="297.33" width="61.58" height="44.23" rx="1.66" transform="translate(-71.11 548.1) rotate(-76.15)"></rect>
  <rect class="cls-11" x="204.61" y="252.45" width="29.26" height="45.71" transform="translate(-131.18 242.68) rotate(-46.15)"></rect>
  <circle class="cls-10" cx="199.24" cy="259.59" r="25.14"></circle>
  <circle class="cls-15" cx="199.24" cy="259.59" r="25.14"></circle>
  <path class="cls-10" d="M293.36,335.32a22.84,22.84,0,0,1-16.27-26.83,22.84,22.84,0,0,0,23.4,31.44l1.07-3.89A22.77,22.77,0,0,1,293.36,335.32Z"></path>
  <path class="cls-11" d="M276.6,312.25a22.85,22.85,0,0,0,25,23.79h.14l3.5-12.7c-2.55,1.67-5.52,1.41-8.68.53a10.94,10.94,0,0,1-8-11.61Z"></path>
  <rect class="cls-11" x="250.1" y="282.7" width="29.26" height="43.64" transform="translate(-94.31 488.65) rotate(-76.15)"></rect>
  <circle class="cls-10" cx="243.63" cy="298.74" r="18.28"></circle>
  <circle class="cls-16" cx="243.63" cy="298.74" r="18.28"></circle>
  <rect class="cls-17" x="117.87" y="128.4" width="21.94" height="38.4" rx="10.97"></rect>
  <rect class="cls-18" x="117.87" y="139.37" width="21.94" height="15.54"></rect>
  <path class="cls-19" d="M147.78,118.34h-39.7c-5.93,0-10.78,3.91-10.78,8.69v28.8h61.26V127C158.56,122.25,153.71,118.34,147.78,118.34Z"></path>
  <path class="cls-20" d="M138,118.34H106A8.71,8.71,0,0,0,97.3,127v28.8H138"></path>
  <path class="cls-20" d="M149.87,118.34h-32a8.71,8.71,0,0,0-8.68,8.69v28.8h49.37V127A8.71,8.71,0,0,0,149.87,118.34Z"></path>
  <rect class="cls-21" x="164.04" y="175.94" width="20.11" height="35.65" rx="9" transform="translate(348.19 387.53) rotate(-180)"></rect>
  <rect class="cls-22" x="167.7" y="175.94" width="16.46" height="35.65" rx="8.23" transform="translate(351.85 387.53) rotate(180)"></rect>
  <path class="cls-23" d="M31.15,250a20.66,20.66,0,1,1-20.66,20.66A20.67,20.67,0,0,1,31.15,250m0-9.5a30.16,30.16,0,1,0,30.16,30.16,30.15,30.15,0,0,0-30.16-30.16Z"></path>
  <path class="cls-23" d="M31.15,300.86a20.66,20.66,0,1,1-20.66,20.66,20.68,20.68,0,0,1,20.66-20.66m0-9.49a30.15,30.15,0,1,0,30.16,30.15,30.15,30.15,0,0,0-30.16-30.15Z"></path>
  <path class="cls-10" d="M177.22,444.94l-33.94-91.27-7.71,2.87,33.94,91.27a11.53,11.53,0,0,0,4.26,5.48l7.71-2.87A11.54,11.54,0,0,1,177.22,444.94Z"></path>
  <rect class="cls-10" x="82.68" y="154.91" width="79.54" height="79.54" rx="12"></rect>
  <rect class="cls-10" x="49.76" y="234.45" width="145.36" height="123.42" rx="12"></rect>
  <path class="cls-10" d="M75.36,452V357.87H67.13V452a10.84,10.84,0,0,0,2.09,6.4h8.23A10.84,10.84,0,0,1,75.36,452Z"></path>
  <path class="cls-24" d="M222.71,428.26l-26.17-70.39h3.16a11,11,0,0,0,11-11V245.42a11,11,0,0,0-11-11H164a11,11,0,0,0,11-11v-57.6a11,11,0,0,0-11-11h-57.6a11,11,0,0,0-11,11v57.6a11,11,0,0,0,11,11H76.28a11,11,0,0,0-11,11V346.9a11,11,0,0,0,11,11h-.92V452a10.84,10.84,0,0,0,2.09,6.4h44.28a10.91,10.91,0,0,0,2.09-6.4V357.87h21l32.46,87.28a10.93,10.93,0,0,0,4.18,5.27l33.79-12.57L223,435A10.87,10.87,0,0,0,222.71,428.26Z"></path>
  <path class="cls-25" d="M222.71,428.26l-26.17-70.39h3.16a11,11,0,0,0,11-11V245.42a11,11,0,0,0-11-11H164a11,11,0,0,0,11-11v-57.6a11,11,0,0,0-11-11h-57.6a11,11,0,0,0-11,11v57.6a11,11,0,0,0,11,11H76.28a11,11,0,0,0-11,11V346.9a11,11,0,0,0,11,11h-.92V452a10.84,10.84,0,0,0,2.09,6.4h44.28a10.91,10.91,0,0,0,2.09-6.4V357.87h21l32.46,87.28a10.93,10.93,0,0,0,4.18,5.27l33.79-12.57L223,435A10.87,10.87,0,0,0,222.71,428.26Z"></path>
  <rect class="cls-11" x="43.36" y="259.13" width="29.26" height="45.71"></rect>
  <circle class="cls-10" cx="58.45" cy="259.59" r="25.14"></circle>
  <path class="cls-10" d="M79.25,379.08c-3-.68-4.83-3-6.39-5.9a11,11,0,0,1,19.29-10.45c1.56,2.89,2.49,5.72,1.15,8.87l11.58-6.28a17.8,17.8,0,0,0-2.28-8.25,22.86,22.86,0,1,0-34.93,28.28Z"></path>
  <path class="cls-11" d="M82.91,377.25c-3-.68-4.83-3-6.4-5.89a11,11,0,0,1,19.3-10.46c1.56,2.89,2.49,5.72,1.44,8.58l11.58-6.28A22.86,22.86,0,1,0,66.06,377a22.91,22.91,0,0,0,5.27,6.5Z"></path>
  <rect class="cls-11" x="54.33" y="313.07" width="29.26" height="45.71" transform="translate(-158.73 79.49) rotate(-30)"></rect>
  <circle class="cls-10" cx="57.99" cy="315.82" r="18.28"></circle>
  <path class="cls-26" d="M247.38,447.37l-1.6-4.28a11,11,0,0,0-14.1-6.46l-8.57,3.19h0L176.83,457a11,11,0,0,0-6.45,14.11l1.59,4.28a10.89,10.89,0,0,0,4.78,5.66,11.11,11.11,0,0,0,1.92.88,11.28,11.28,0,0,0,3.11.6c.36,0,.71,0,1.07,0a10.76,10.76,0,0,0,2.16-.33,11,11,0,0,0,1.07-.34l54.84-20.39A11,11,0,0,0,247.38,447.37Z"></path>
  <path class="cls-27" d="M245.78,443.09h0a11,11,0,0,0-14.1-6.46l-15.43,5.74A11,11,0,0,0,223,435l-49.21,18.3a10.94,10.94,0,0,0,9.92,1.18L176.83,457a10.92,10.92,0,0,0-5.65,4.79,11,11,0,0,0-1.48,5c0,.35,0,.71,0,1.07a9.91,9.91,0,0,0,.33,2.15,8.3,8.3,0,0,0,.34,1.07,11,11,0,0,0,8.75,7,10.79,10.79,0,0,0,2.13.1,11.3,11.3,0,0,0,2.15-.33c.36-.1.72-.21,1.07-.34l54.84-20.39A11,11,0,0,0,245.78,443.09Z"></path>
  <path class="cls-26" d="M129.3,463H70.79a11,11,0,0,0-11,11v4.57a10.18,10.18,0,0,0,.06,1.11,10.74,10.74,0,0,0,.81,3.15,10.14,10.14,0,0,0,1,1.86,11,11,0,0,0,9.09,4.85H129.3a11,11,0,0,0,11-11V474A11,11,0,0,0,129.3,463Z"></path>
  <path class="cls-27" d="M129.3,463H112.84a11,11,0,0,0,8.89-4.58H69.22A11,11,0,0,0,78.1,463H70.79a11,11,0,0,0,0,21.94H129.3a11,11,0,1,0,0-21.94Z"></path>
  <path class="cls-28" d="M245.78,443.09h0a11,11,0,0,0-14.1-6.46l-15.43,5.74A11,11,0,0,0,223,435l-49.21,18.3a10.94,10.94,0,0,0,9.92,1.18L176.83,457a10.92,10.92,0,0,0-5.65,4.79,11,11,0,0,0-1.48,5c0,.35,0,.71,0,1.07a9.91,9.91,0,0,0,.33,2.15,8.3,8.3,0,0,0,.34,1.07,11,11,0,0,0,8.75,7,10.79,10.79,0,0,0,2.13.1,11.3,11.3,0,0,0,2.15-.33c.36-.1.72-.21,1.07-.34l54.84-20.39A11,11,0,0,0,245.78,443.09Z"></path>
  <path class="cls-29" d="M129.3,463H112.84a11,11,0,0,0,8.89-4.58H69.22A11,11,0,0,0,78.1,463H70.79a11,11,0,0,0,0,21.94H129.3a11,11,0,1,0,0-21.94Z"></path>
  <rect class="cls-23" x="102.33" y="171.37" width="65.82" height="3.66"></rect>
  <rect class="cls-22" x="102.33" y="164.06" width="65.82" height="9.14"></rect>
  <circle class="cls-30" cx="115.36" cy="189.2" r="8.69"></circle>
  <circle class="cls-30" cx="155.13" cy="189.2" r="8.69"></circle>
  <rect class="cls-23" x="133.41" y="196.05" width="3.66" height="9.14" transform="translate(335.87 65.38) rotate(90)"></rect>
  <rect class="cls-22" x="116.96" y="177.77" width="36.57" height="9.14" transform="translate(-47.1 317.58) rotate(-90)"></rect>
  <rect class="cls-22" x="102.79" y="207.02" width="65.82" height="21.94"></rect>
  <rect class="cls-23" x="106.44" y="210.68" width="9.14" height="14.63"></rect>
  <rect class="cls-23" x="155.81" y="210.68" width="9.14" height="14.63"></rect>
  <rect class="cls-23" x="118.79" y="210.68" width="9.14" height="14.63"></rect>
  <rect class="cls-23" x="131.13" y="210.68" width="9.14" height="14.63"></rect>
  <rect class="cls-23" x="143.47" y="210.68" width="9.14" height="14.63"></rect>
  <rect class="cls-23" x="70.79" y="175.94" width="20.11" height="35.65" rx="9"></rect>
  <rect class="cls-22" x="70.79" y="175.94" width="16.46" height="35.65" rx="8.23"></rect>
  <circle class="cls-23" cx="135.24" cy="168.63" r="2.74"></circle>
  <circle class="cls-23" cx="108.73" cy="168.63" r="2.74"></circle>
  <circle class="cls-23" cx="161.76" cy="168.63" r="2.74"></circle>
  <circle class="cls-23" cx="121.99" cy="168.63" r="2.74"></circle>
  <circle class="cls-23" cx="148.5" cy="168.63" r="2.74"></circle>
  <circle class="cls-23" cx="135.24" cy="181.88" r="2.74"></circle>
  <circle class="cls-23" cx="135.24" cy="195.14" r="2.74"></circle>
  <path class="cls-10" d="M166.78,300.27v-.22a28.8,28.8,0,1,0-57.59,0v.22H91.82V335h92.33V300.27Z"></path>
  <path class="cls-18" d="M138,277.19a22.85,22.85,0,0,0-22.86,22.86c0,.07,0,.15,0,.22h45.7v-.22A22.85,22.85,0,0,0,138,277.19Z"></path>
  <path class="cls-31" d="M138,277.19a22.85,22.85,0,0,0-22.86,22.86c0,.07,0,.15,0,.22h45.7v-.22A22.85,22.85,0,0,0,138,277.19Z"></path>
  <line class="cls-32" x1="149.37" y1="285.65" x2="138.25" y2="300.02"></line>
  <circle class="cls-10" cx="137.99" cy="300.27" r="8.23"></circle>
  <circle class="cls-22" cx="104.05" cy="254.33" r="9.17"></circle>
  <circle class="cls-23" cx="104.05" cy="254.33" r="6.51"></circle>
  <circle class="cls-22" cx="171.92" cy="254.33" r="9.17"></circle>
  <circle class="cls-23" cx="171.92" cy="254.33" r="6.51"></circle>
  <path class="cls-23" d="M171.33,254.14s-15.19,9.07-33.94,9.07-33.93-9.07-33.93-9.07,15.19-9.08,33.93-9.08S171.33,254.14,171.33,254.14Z"></path>
  <line class="cls-33" x1="137.99" y1="244.51" x2="137.99" y2="263.71"></line>
  <line class="cls-33" x1="131.01" y1="245.42" x2="131.01" y2="262.79"></line>
  <line class="cls-33" x1="109.19" y1="250.91" x2="109.19" y2="257.31"></line>
  <line class="cls-33" x1="124.04" y1="246.33" x2="124.04" y2="261.88"></line>
  <line class="cls-33" x1="117.07" y1="248.16" x2="117.07" y2="260.05"></line>
  <line class="cls-33" x1="144.96" y1="245.42" x2="144.96" y2="262.79"></line>
  <line class="cls-33" x1="166.78" y1="250.91" x2="166.78" y2="257.31"></line>
  <line class="cls-33" x1="151.93" y1="246.33" x2="151.93" y2="261.88"></line>
  <line class="cls-33" x1="158.9" y1="248.16" x2="158.9" y2="260.05"></line>
  <circle class="cls-34" cx="115.36" cy="189.2" r="7.77"></circle>
  <circle class="cls-35" cx="155.13" cy="189.2" r="7.77"></circle>
  <circle class="cls-36" cx="58.45" cy="259.59" r="25.14"></circle>
  <circle class="cls-37" cx="57.99" cy="315.82" r="18.28"></circle>
  <rect class="cls-27" x="115.13" y="308.5" width="45.71" height="18.28" rx="9.14"></rect>
</svg>
