<?xml version="1.0" encoding="UTF-8"?>
<svg xmlns="http://www.w3.org/2000/svg" xmlns:xlink="http://www.w3.org/1999/xlink" viewBox="0 0 880 425">
  <defs>
    <style>.cls-1{isolation:isolate;}.cls-2{fill:#d4e2e2;}.cls-3{fill:#bd5500;}.cls-4{fill:#05415b;}.cls-5{fill:#b1b8b9;}.cls-6{fill:#e4b34f;}.cls-14,.cls-35,.cls-36,.cls-37,.cls-7,.cls-8{opacity:0.45;}.cls-7{fill:url(#linear-gradient);}.cls-8{fill:url(#linear-gradient-2);}.cls-9{fill:#574981;}.cls-20,.cls-21,.cls-27,.cls-31,.cls-32,.cls-41,.cls-42,.cls-9{opacity:0.5;}.cls-27,.cls-9{mix-blend-mode:multiply;}.cls-10{fill:#fb4949;}.cls-11,.cls-34{fill:none;stroke-linecap:round;}.cls-11{stroke:#a71e1e;stroke-linejoin:round;stroke-width:1.61px;}.cls-12{fill:#259983;}.cls-13{fill:#302946;}.cls-15{fill:url(#linear-gradient-3);}.cls-16{fill:url(#linear-gradient-4);}.cls-17{fill:#4dbdeb;}.cls-18{fill:#0075a8;}.cls-19{fill:#ff9f2c;}.cls-20{fill:url(#linear-gradient-5);}.cls-21{fill:url(#linear-gradient-6);}.cls-22{fill:#fff;}.cls-23,.cls-27{fill:#8d400e;}.cls-24{fill:url(#linear-gradient-7);}.cls-25{fill:url(#linear-gradient-8);}.cls-26{fill:url(#linear-gradient-9);}.cls-28{fill:#272733;}.cls-29{fill:url(#linear-gradient-10);}.cls-30{fill:url(#linear-gradient-11);}.cls-31{fill:url(#linear-gradient-12);}.cls-32{fill:url(#linear-gradient-13);}.cls-33{fill:#ffd262;}.cls-34{stroke:#565e66;stroke-miterlimit:10;stroke-width:3px;}.cls-35{fill:url(#linear-gradient-14);}.cls-36{fill:url(#linear-gradient-15);}.cls-37{fill:url(#linear-gradient-16);}.cls-38{fill:#5b1113;}.cls-39{fill:url(#linear-gradient-17);}.cls-40{fill:url(#linear-gradient-18);}.cls-41{fill:url(#linear-gradient-19);}.cls-42{fill:url(#linear-gradient-20);}.cls-43{fill:#dbe3e3;}</style>
    <linearGradient id="linear-gradient" x1="719.06" y1="362.58" x2="719.06" y2="242.18" gradientUnits="userSpaceOnUse">
      <stop offset="0" stop-color="#302946" stop-opacity="0.8"></stop>
      <stop offset="1" stop-color="#b1b8b9" stop-opacity="0"></stop>
    </linearGradient>
    <linearGradient id="linear-gradient-2" x1="719.04" y1="258.5" x2="719.04" y2="200.11" gradientUnits="userSpaceOnUse">
      <stop offset="0.4" stop-color="#b1b8b9" stop-opacity="0"></stop>
      <stop offset="1" stop-color="#302946"></stop>
    </linearGradient>
    <linearGradient id="linear-gradient-3" x1="673.88" y1="195.51" x2="673.88" y2="132.03" gradientUnits="userSpaceOnUse">
      <stop offset="0" stop-color="#302946"></stop>
      <stop offset="0.71" stop-color="#b1b8b9" stop-opacity="0"></stop>
    </linearGradient>
    <linearGradient id="linear-gradient-4" x1="767.02" y1="198.08" x2="767.02" y2="133.96" xlink:href="#linear-gradient-3"></linearGradient>
    <linearGradient id="linear-gradient-5" x1="739.2" y1="177.16" x2="739.2" y2="163.84" gradientTransform="translate(889.93 -572.99) rotate(88.47)" gradientUnits="userSpaceOnUse">
      <stop offset="0.1" stop-color="#4dbdeb" stop-opacity="0"></stop>
      <stop offset="1" stop-color="#043d43"></stop>
    </linearGradient>
    <linearGradient id="linear-gradient-6" x1="701.31" y1="176.15" x2="701.31" y2="162.83" gradientTransform="translate(852.04 -536.09) rotate(88.47)" xlink:href="#linear-gradient-5"></linearGradient>
    <linearGradient id="linear-gradient-7" x1="485.02" y1="156.15" x2="614.51" y2="156.15" gradientUnits="userSpaceOnUse">
      <stop offset="0" stop-color="#5b1113"></stop>
      <stop offset="0.71" stop-color="#8d400e" stop-opacity="0"></stop>
    </linearGradient>
    <linearGradient id="linear-gradient-8" x1="441.35" y1="233.92" x2="441.35" y2="113.51" gradientUnits="userSpaceOnUse">
      <stop offset="0" stop-color="#5b1113" stop-opacity="0.7"></stop>
      <stop offset="0.8" stop-color="#8d400e" stop-opacity="0"></stop>
    </linearGradient>
    <linearGradient id="linear-gradient-9" x1="441.34" y1="129.83" x2="441.34" y2="71.44" gradientUnits="userSpaceOnUse">
      <stop offset="0.29" stop-color="#8d400e" stop-opacity="0"></stop>
      <stop offset="1" stop-color="#5b1113" stop-opacity="0.8"></stop>
    </linearGradient>
    <linearGradient id="linear-gradient-10" x1="396.17" y1="66.84" x2="396.17" y2="3.36" xlink:href="#linear-gradient-7"></linearGradient>
    <linearGradient id="linear-gradient-11" x1="489.31" y1="69.41" x2="489.31" y2="5.3" xlink:href="#linear-gradient-7"></linearGradient>
    <linearGradient id="linear-gradient-12" x1="461.5" y1="48.49" x2="461.5" y2="35.18" gradientTransform="translate(491.01 -420.61) rotate(88.47)" gradientUnits="userSpaceOnUse">
      <stop offset="0" stop-color="#05415b"></stop>
      <stop offset="0.7" stop-color="#272733" stop-opacity="0"></stop>
    </linearGradient>
    <linearGradient id="linear-gradient-13" x1="423.61" y1="47.48" x2="423.61" y2="34.16" gradientTransform="translate(453.12 -383.72) rotate(88.47)" xlink:href="#linear-gradient-12"></linearGradient>
    <linearGradient id="linear-gradient-14" x1="177.29" y1="261.13" x2="270.4" y2="261.13" gradientUnits="userSpaceOnUse">
      <stop offset="0.5" stop-color="#8d400e"></stop>
      <stop offset="1" stop-color="#ffd262" stop-opacity="0"></stop>
    </linearGradient>
    <linearGradient id="linear-gradient-15" x1="163.12" y1="298.25" x2="163.12" y2="177.84" gradientUnits="userSpaceOnUse">
      <stop offset="0" stop-color="#8d400e" stop-opacity="0.7"></stop>
      <stop offset="1" stop-color="#ffd262" stop-opacity="0"></stop>
    </linearGradient>
    <linearGradient id="linear-gradient-16" x1="163.1" y1="194.16" x2="163.1" y2="135.77" gradientUnits="userSpaceOnUse">
      <stop offset="0.4" stop-color="#ffd262" stop-opacity="0"></stop>
      <stop offset="1" stop-color="#8d400e"></stop>
    </linearGradient>
    <linearGradient id="linear-gradient-17" x1="117.93" y1="131.17" x2="117.93" y2="67.7" gradientUnits="userSpaceOnUse">
      <stop offset="0" stop-color="#8d400e"></stop>
      <stop offset="0.71" stop-color="#ffd262" stop-opacity="0"></stop>
    </linearGradient>
    <linearGradient id="linear-gradient-18" x1="211.07" y1="133.74" x2="211.07" y2="69.63" xlink:href="#linear-gradient-17"></linearGradient>
    <linearGradient id="linear-gradient-19" x1="183.26" y1="112.83" x2="183.26" y2="99.51" gradientTransform="translate(284.5 -79.86) rotate(88.47)" gradientUnits="userSpaceOnUse">
      <stop offset="0.3" stop-color="#5b1113" stop-opacity="0"></stop>
      <stop offset="1" stop-color="#272733"></stop>
    </linearGradient>
    <linearGradient id="linear-gradient-20" x1="145.37" y1="111.81" x2="145.37" y2="98.5" gradientTransform="translate(246.61 -42.97) rotate(88.47)" xlink:href="#linear-gradient-19"></linearGradient>
  </defs>
  <title>BGSEO_Combined_File</title>
  <g class="cls-1">
    <g id="Layer_1" data-name="Layer 1">
      <rect class="cls-2" x="632.73" y="356.65" width="170.48" height="64.33"></rect>
      <rect class="cls-3" x="632.73" y="356.65" width="170.48" height="10"></rect>
      <rect class="cls-2" x="76.79" y="292.32" width="170.48" height="128.67"></rect>
      <path class="cls-4" d="M162.41,313.6a10.57,10.57,0,0,1,3.42.54,7.82,7.82,0,0,1,2.74,1.58,7.35,7.35,0,0,1,1.82,2.52,8.29,8.29,0,0,1,.66,3.38,9,9,0,0,1-.48,3,12.54,12.54,0,0,1-1.3,2.62,19.49,19.49,0,0,1-1.9,2.43c-.72.79-1.48,1.59-2.29,2.41l-7.58,7.76a15.3,15.3,0,0,1,1.63-.36,11.1,11.1,0,0,1,1.59-.13h9.65a1.29,1.29,0,0,1,.93.34,1.25,1.25,0,0,1,.34.89v2.17H152.42V341.5a2.24,2.24,0,0,1,.15-.78,2,2,0,0,1,.49-.74l9.23-9.27c.76-.78,1.46-1.53,2.09-2.24a16.89,16.89,0,0,0,1.62-2.16,10,10,0,0,0,1-2.21,7.37,7.37,0,0,0,.37-2.38,5.67,5.67,0,0,0-.41-2.22,4.2,4.2,0,0,0-1.1-1.58,4.78,4.78,0,0,0-1.65-.93,6.39,6.39,0,0,0-2-.31,5.93,5.93,0,0,0-2,.32,5.33,5.33,0,0,0-3.54,4,1.61,1.61,0,0,1-.48.84,1.29,1.29,0,0,1-.85.26h-.21l-.25,0-1.87-.32a10.66,10.66,0,0,1,1.09-3.49,8.11,8.11,0,0,1,2-2.54,8.86,8.86,0,0,1,2.83-1.56A11,11,0,0,1,162.41,313.6Z"></path>
      <rect class="cls-5" x="76.79" y="292.32" width="170.48" height="10"></rect>
      <rect class="cls-2" x="355.02" y="227.98" width="170.48" height="193"></rect>
      <path class="cls-4" d="M433.4,276.55h6.19V256.91c0-.59,0-1.19.06-1.79l-5.15,4.4a1.29,1.29,0,0,1-.4.24,1.33,1.33,0,0,1-.38.07,1.2,1.2,0,0,1-.54-.13,1,1,0,0,1-.36-.32l-1.13-1.54,8.56-7.42h2.92v26.13h5.67v2.74H433.4Z"></path>
      <rect class="cls-6" x="355.02" y="227.98" width="170.48" height="10"></rect>
      <path class="cls-5" d="M786.6,360.59a3.48,3.48,0,0,0-1.08-2.19c-1.57-1.61-4-2.41-6.06-3.1-5.37-1.77-11.18-2.47-16.35-4.81l.13-.27c10.51-5.75,18-20.65,18-38.13,0-21.73-11.56-39.47-26.11-40.62a40.22,40.22,0,0,0,2.44-29.29h.08L743.7,200.11H695.46l-15,42.07h.09A40.22,40.22,0,0,0,683,271.47c-14.56,1.15-26.11,18.89-26.11,40.62,0,17.5,7.5,32.42,18,38.16l.12.24c-5.17,2.34-11,3-16.35,4.81-2.08.69-4.49,1.49-6.06,3.1a3.48,3.48,0,0,0-1.08,2.19c0,.62,0,.73.48,1a6.68,6.68,0,0,0,1.85.28c10.81,1.39,22.07.58,32.91-.23,1.78-.13,3.43-.29,4.82-1.61a5.2,5.2,0,0,0,1.55-2.8H745a5.2,5.2,0,0,0,1.55,2.8c1.39,1.32,3,1.48,4.82,1.61,10.84.81,22.1,1.62,32.91.23a6.68,6.68,0,0,0,1.85-.28C786.6,361.32,786.63,361.21,786.6,360.59Z"></path>
      <path class="cls-7" d="M786.6,360.59a3.48,3.48,0,0,0-1.08-2.19c-1.57-1.61-4-2.41-6.06-3.1-5.37-1.77-11.18-2.47-16.35-4.81l.13-.27c10.51-5.75,18-20.65,18-38.13,0-21.73-11.56-39.47-26.11-40.62a40.22,40.22,0,0,0,2.44-29.29h-77A40.22,40.22,0,0,0,683,271.47c-14.56,1.15-26.11,18.89-26.11,40.62,0,17.5,7.5,32.42,18,38.16l.12.24c-5.17,2.34-11,3-16.35,4.81-2.08.69-4.49,1.49-6.06,3.1a3.48,3.48,0,0,0-1.08,2.19c0,.62,0,.73.48,1a6.68,6.68,0,0,0,1.85.28c10.81,1.39,22.07.58,32.91-.23,1.78-.13,3.43-.29,4.82-1.61a5.2,5.2,0,0,0,1.55-2.8H745a5.2,5.2,0,0,0,1.55,2.8c1.39,1.32,3,1.48,4.82,1.61,10.84.81,22.1,1.62,32.91.23a6.68,6.68,0,0,0,1.85-.28C786.6,361.32,786.63,361.21,786.6,360.59Z"></path>
      <path class="cls-8" d="M759.25,253.72a40,40,0,0,0-1.69-11.54h.08L743.7,200.11H695.46l-15,42.07h.09a40,40,0,0,0-1.69,11.54C678.84,260.09,759.25,260.09,759.25,253.72Z"></path>
      <path class="cls-5" d="M734.85,198.07l-30.66-.82-.28,8.5c.75,2.53,5,5.39,8.69,6.64l13,.35c3.72-1.06,8.15-3.69,9-6.17Z"></path>
      <path class="cls-9" d="M732.63,207.61c-5.35-.15-10.93-3.33-13.17-7.85-2.47,4.39-8.21,7.28-13.56,7.13a10.46,10.46,0,0,1-1.52-.14,7.63,7.63,0,0,0,1.15,1.42h.34c5.35.15,11.08-2.74,13.56-7.13,2.24,4.52,7.81,7.7,13.16,7.85h.34a8.41,8.41,0,0,0,1.23-1.35A12.71,12.71,0,0,1,732.63,207.61Z"></path>
      <path class="cls-10" d="M712.74,204.79l-.17,6.26a6.59,6.59,0,1,0,13.18.35l.16-6.26-6.44-5.61Z"></path>
      <line class="cls-11" x1="719.42" y1="201.24" x2="719.2" y2="209.56"></line>
      <path class="cls-5" d="M748,162.32s10.14,35.08,19.57,35.75h.07c4-21.17,20.32-29.92,18.48-41.15-1.49-9.12-19.66-21.41-28.68-23-3.09-.53-11.76,4.59-11.76,4.59a40.83,40.83,0,0,0-49.41-1.12s-8.35-5.77-11.46-5.41c-9.09,1.07-27.89,12.38-29.87,21.4-2.43,11.12,13.44,20.72,16.26,42.08h.08c9.45-.16,21.45-34.65,21.45-34.65q-4.23,16.54-9.06,25.78A58.07,58.07,0,0,0,695.26,200s3.18,6.65,10.64,6.85c5.35.15,11.09-2.74,13.56-7.13,2.24,4.52,7.82,7.7,13.17,7.85,7.46.19,11-6.28,11-6.28a58.24,58.24,0,0,0,12.15-12.58Q751.4,179.26,748,162.32Z"></path>
      <ellipse class="cls-12" cx="739.2" cy="170.5" rx="6.66" ry="6.59" transform="translate(549.05 904.89) rotate(-88.47)"></ellipse>
      <ellipse class="cls-12" cx="701.31" cy="169.49" rx="6.66" ry="6.59" transform="translate(513.18 866.03) rotate(-88.47)"></ellipse>
      <path class="cls-13" d="M729.49,194.58c-.09,3.67-10.06,6.39-10.06,6.39s-9.8-3.25-9.7-6.92,6.28-1.5,9.92-1.4S729.59,190.9,729.49,194.58Z"></path>
      <path class="cls-5" d="M742.62,355.77l15.83-94h-29v98c-.27,2,.7,2.67.7,2.67,10.3,11.28,22,3.13,22,3.13l-2.58-1.42a31.66,31.66,0,0,0,3.82-2.37Z"></path>
      <path class="cls-5" d="M708.59,359.73v-98h-29l15.82,94-10.85,6a31.66,31.66,0,0,0,3.82,2.37l-2.58,1.42s11.73,8.15,22-3.13C707.89,362.4,708.86,361.7,708.59,359.73Z"></path>
      <g class="cls-14">
        <path class="cls-15" d="M684.82,132c-9.09,1.07-27.89,12.38-29.87,21.4-2.43,11.12,13.44,20.72,16.26,42.08h.08c10.23-.75,21.77-35.9,21.77-35.9S687.93,131.67,684.82,132Z"></path>
        <path class="cls-16" d="M786.13,156.93c-1.49-9.12-19.66-21.41-28.68-23-3.09-.53-9.69,27.09-9.69,27.09s9.88,36.37,19.82,37h.07C771.61,176.91,788,168.16,786.13,156.93Z"></path>
      </g>
      <path class="cls-17" d="M715.32,246.16c.78-.55,1.79-1.27,2.85-2-1.79-1.3-3.73-2.76-5-3.84a52,52,0,0,1-11.39-13.45c-4.48-7.91-9.87-17.59-9.87-17.59l-3.58,10.07a97.9,97.9,0,0,0,4.81,8.69C699.68,239.88,708.94,244.43,715.32,246.16Z"></path>
      <path class="cls-18" d="M734.54,226.83a52,52,0,0,1-11.39,13.45c-1.25,1.08-3.19,2.54-5,3.84-1.06.77-2.07,1.49-2.85,2,1,.28,2,.49,2.85.65.86-.16,1.82-.37,2.85-.65,6.38-1.73,15.64-6.28,22.16-18.16a116.66,116.66,0,0,0,6.15-11.62l-2.94-8.88A183.72,183.72,0,0,0,734.54,226.83Z"></path>
      <path class="cls-19" d="M727.19,263.14a10.45,10.45,0,0,0-17.87-10.84,26.47,26.47,0,0,1,8.8,2.94A25.21,25.21,0,0,1,727.19,263.14Z"></path>
      <path class="cls-19" d="M717.58,256.25a25.37,25.37,0,0,0-8.83-2.89,10,10,0,0,0-.57,1.53,26.58,26.58,0,0,1,7.77,2.75,24.29,24.29,0,0,1,9.07,8.05,10.64,10.64,0,0,0,1.47-1.53A23.71,23.71,0,0,0,717.58,256.25Z"></path>
      <path class="cls-3" d="M718.24,268.19a10.38,10.38,0,0,0,6.78-2.5,24.29,24.29,0,0,0-9.07-8.05,26.58,26.58,0,0,0-7.77-2.75,10.66,10.66,0,0,0-.39,2.85A10.45,10.45,0,0,0,718.24,268.19Z"></path>
      <path class="cls-3" d="M717.58,256.25a23.71,23.71,0,0,1,8.91,7.91,12.24,12.24,0,0,0,.7-1,25.21,25.21,0,0,0-9.07-7.9,26.47,26.47,0,0,0-8.8-2.94,9.78,9.78,0,0,0-.57,1.06A25.37,25.37,0,0,1,717.58,256.25Z"></path>
      <path class="cls-3" d="M718.24,247.28a10.46,10.46,0,0,1,9,15.86,12.24,12.24,0,0,1-.7,1,10.64,10.64,0,0,1-1.47,1.53,10.45,10.45,0,0,1-17.23-7.95,10.66,10.66,0,0,1,.39-2.85,10,10,0,0,1,.57-1.53,9.78,9.78,0,0,1,.57-1.06,10.46,10.46,0,0,1,8.92-5m0-1.07a11.45,11.45,0,0,0-9.83,5.53,10.47,10.47,0,0,0-.63,1.17,11.06,11.06,0,0,0-.63,1.68,11.52,11.52,0,0,0,18.57,11.91,11.14,11.14,0,0,0,1.61-1.68,11.73,11.73,0,0,0,.77-1.12,11.52,11.52,0,0,0-9.86-17.49Z"></path>
      <ellipse class="cls-20" cx="739.2" cy="170.5" rx="6.66" ry="6.59" transform="translate(549.05 904.89) rotate(-88.47)"></ellipse>
      <ellipse class="cls-21" cx="701.31" cy="169.49" rx="6.66" ry="6.59" transform="translate(513.18 866.03) rotate(-88.47)"></ellipse>
      <ellipse class="cls-22" cx="742.54" cy="168.92" rx="1.66" ry="1.65" transform="translate(553.88 906.7) rotate(-88.47)"></ellipse>
      <ellipse class="cls-22" cx="704.65" cy="167.91" rx="1.66" ry="1.65" transform="translate(518.01 867.84) rotate(-88.47)"></ellipse>
      <path class="cls-23" d="M485.3,200.64c8.8-9,18.41-19.78,31.09-22.52,17.39-3.75,36,5.25,52.18-4.48,22.78-13.69,4.71-26.81-.91-44.13C563,115.12,573.73,109,585,102c-10.63,22.62,2.59,27.92,17.73,43.1,16.87,16.93,14.8,36.81-1.11,51-17.71,15.82-48.83,6.15-69.64,2.35-19.26-3.52-30.46,1.47-46.69,11.82C485.3,207.27,484.67,203.59,485.3,200.64Z"></path>
      <path class="cls-24" d="M485.3,200.64c8.8-9,18.41-19.78,31.09-22.52,17.39-3.75,36,5.25,52.18-4.48,22.78-13.69,4.71-26.81-.91-44.13C563,115.12,573.73,109,585,102c-10.63,22.62,2.59,27.92,17.73,43.1,16.87,16.93,14.8,36.81-1.11,51-17.71,15.82-48.83,6.15-69.64,2.35-19.26-3.52-30.46,1.47-46.69,11.82C485.3,207.27,484.67,203.59,485.3,200.64Z"></path>
      <path class="cls-23" d="M508.89,231.93a3.47,3.47,0,0,0-1.07-2.19c-1.57-1.62-4-2.42-6.07-3.11-5.37-1.76-11.18-2.47-16.34-4.81l.12-.27c10.51-5.75,18-20.65,18-38.13,0-21.72-11.56-39.47-26.11-40.62a40.36,40.36,0,0,0,2.44-29.29h.08L466,71.44H417.75l-15,42.07h.08a40.22,40.22,0,0,0,2.44,29.29c-14.55,1.15-26.11,18.9-26.11,40.62,0,17.5,7.5,32.42,18,38.16l.12.24c-5.17,2.34-11,3.05-16.35,4.81-2.08.69-4.49,1.49-6.06,3.11a3.42,3.42,0,0,0-1.07,2.19c0,.61,0,.72.47.95a6.74,6.74,0,0,0,1.85.28c10.82,1.39,22.08.58,32.91-.22,1.78-.13,3.44-.3,4.83-1.61a5.39,5.39,0,0,0,1.55-2.81h51.85a5.33,5.33,0,0,0,1.55,2.81c1.39,1.31,3.05,1.48,4.82,1.61,10.84.8,22.1,1.61,32.91.22a6.62,6.62,0,0,0,1.85-.28C508.89,232.65,508.92,232.54,508.89,231.93Z"></path>
      <path class="cls-25" d="M508.89,231.93a3.47,3.47,0,0,0-1.07-2.19c-1.57-1.62-4-2.42-6.07-3.11-5.37-1.76-11.18-2.47-16.34-4.81l.12-.27c10.51-5.75,18-20.65,18-38.13,0-21.72-11.56-39.47-26.11-40.62a40.36,40.36,0,0,0,2.44-29.29h-77a40.22,40.22,0,0,0,2.44,29.29c-14.55,1.15-26.11,18.9-26.11,40.62,0,17.5,7.5,32.42,18,38.16l.12.24c-5.17,2.34-11,3.05-16.35,4.81-2.08.69-4.49,1.49-6.06,3.11a3.42,3.42,0,0,0-1.07,2.19c0,.61,0,.72.47.95a6.74,6.74,0,0,0,1.85.28c10.82,1.39,22.08.58,32.91-.22,1.78-.13,3.44-.3,4.83-1.61a5.39,5.39,0,0,0,1.55-2.81h51.85a5.33,5.33,0,0,0,1.55,2.81c1.39,1.31,3.05,1.48,4.82,1.61,10.84.8,22.1,1.61,32.91.22a6.62,6.62,0,0,0,1.85-.28C508.89,232.65,508.92,232.54,508.89,231.93Z"></path>
      <path class="cls-26" d="M481.54,125.05a40.36,40.36,0,0,0-1.68-11.54h.08L466,71.44H417.75l-15,42.07h.08a40,40,0,0,0-1.69,11.54C401.13,131.43,481.54,131.43,481.54,125.05Z"></path>
      <path class="cls-23" d="M457.14,69.4l-30.65-.81-.29,8.49c.75,2.53,5,5.39,8.7,6.65l13,.34c3.72-1,8.16-3.68,9-6.17Z"></path>
      <path class="cls-27" d="M454.92,78.94c-5.35-.14-10.93-3.33-13.16-7.85-2.48,4.4-8.22,7.28-13.57,7.14a14.53,14.53,0,0,1-1.52-.14,7.92,7.92,0,0,0,1.15,1.41l.34,0c5.35.14,11.09-2.74,13.56-7.14,2.24,4.52,7.82,7.71,13.17,7.85h.33a8,8,0,0,0,1.23-1.35A12.71,12.71,0,0,1,454.92,78.94Z"></path>
      <path class="cls-10" d="M435,76.13l-.17,6.25a6.59,6.59,0,1,0,13.18.35l.17-6.25-6.45-5.62Z"></path>
      <line class="cls-11" x1="441.72" y1="72.57" x2="441.5" y2="80.89"></line>
      <path class="cls-23" d="M470.3,33.66s10.14,35.07,19.57,35.74H490c3.95-21.17,20.32-29.92,18.48-41.14-1.5-9.12-19.67-21.41-28.69-23C476.66,4.77,468,9.9,468,9.9a40.81,40.81,0,0,0-49.41-1.13S410.22,3,407.12,3.37c-9.1,1.07-27.89,12.37-29.87,21.4-2.44,11.11,13.43,20.72,16.26,42.07h.07C403,66.67,415,32.18,415,32.18Q410.8,48.74,406,58a58,58,0,0,0,11.58,13.41s3.17,6.65,10.63,6.85c5.35.14,11.09-2.74,13.57-7.14,2.23,4.52,7.81,7.71,13.16,7.85,7.47.2,11-6.27,11-6.27a58.53,58.53,0,0,0,12.15-12.59Q473.68,50.6,470.3,33.66Z"></path>
      <ellipse class="cls-28" cx="461.5" cy="41.83" rx="6.66" ry="6.59" transform="translate(407.37 502.05) rotate(-88.47)"></ellipse>
      <ellipse class="cls-28" cx="423.61" cy="40.82" rx="6.66" ry="6.59" transform="translate(371.5 463.19) rotate(-88.47)"></ellipse>
      <path class="cls-28" d="M451.79,65.91c-.1,3.68-10.07,6.39-10.07,6.39s-9.8-3.24-9.7-6.92,6.29-1.5,9.93-1.4S451.88,62.23,451.79,65.91Z"></path>
      <path class="cls-23" d="M464.92,227.11l15.82-94H451.79v98c-.27,2,.7,2.68.7,2.68,10.31,11.28,22,3.13,22,3.13L472,235.44a31,31,0,0,0,3.82-2.36Z"></path>
      <path class="cls-23" d="M430.88,231.06v-98H401.93l15.83,94-10.86,6a31,31,0,0,0,3.82,2.36l-2.58,1.43s11.74,8.15,22-3.13C430.18,233.74,431.15,233,430.88,231.06Z"></path>
      <g class="cls-14">
        <path class="cls-29" d="M407.12,3.37c-9.1,1.07-27.89,12.37-29.87,21.4-2.44,11.11,13.43,20.72,16.26,42.07h.07c10.23-.21,21.77-35.9,21.77-35.9S410.22,3,407.12,3.37Z"></path>
        <path class="cls-30" d="M508.43,28.27c-1.5-9.12-19.67-21.41-28.69-23-3.08-.53-9.69,27.09-9.69,27.09s10.42,36.91,19.82,37H490C493.9,48.24,510.27,39.49,508.43,28.27Z"></path>
      </g>
      <ellipse class="cls-31" cx="461.5" cy="41.83" rx="6.66" ry="6.59" transform="translate(407.37 502.05) rotate(-88.47)"></ellipse>
      <ellipse class="cls-32" cx="423.61" cy="40.82" rx="6.66" ry="6.59" transform="translate(371.5 463.19) rotate(-88.47)"></ellipse>
      <ellipse class="cls-22" cx="464.83" cy="40.26" rx="1.66" ry="1.65" transform="translate(412.2 503.85) rotate(-88.47)"></ellipse>
      <ellipse class="cls-22" cx="426.95" cy="39.25" rx="1.66" ry="1.65" transform="translate(376.33 464.99) rotate(-88.47)"></ellipse>
      <path class="cls-17" d="M437.61,117.5c.78-.56,1.79-1.27,2.85-2-1.79-1.3-3.73-2.76-5-3.83a52,52,0,0,1-11.39-13.46c-4.48-7.9-9.87-17.59-9.87-17.59l-3.58,10.08c1.9,3.95,4.1,7.51,4.82,8.69C422,111.22,431.23,115.76,437.61,117.5Z"></path>
      <path class="cls-18" d="M456.83,98.16a52,52,0,0,1-11.38,13.46c-1.26,1.07-3.2,2.53-5,3.83-1.06.78-2.07,1.49-2.85,2,1,.28,2,.49,2.85.64.86-.15,1.82-.36,2.86-.64,6.37-1.74,15.63-6.28,22.15-18.16a113.37,113.37,0,0,0,6.16-11.63l-2.95-8.88A185,185,0,0,0,456.83,98.16Z"></path>
      <path class="cls-33" d="M449.48,134.48a10.45,10.45,0,0,0-17.87-10.84,26.6,26.6,0,0,1,8.8,2.93A25.15,25.15,0,0,1,449.48,134.48Z"></path>
      <path class="cls-33" d="M439.87,127.58a25.45,25.45,0,0,0-8.83-2.89,10,10,0,0,0-.56,1.53,26.56,26.56,0,0,1,7.76,2.76,24.47,24.47,0,0,1,9.08,8,11.14,11.14,0,0,0,1.46-1.53A23.64,23.64,0,0,0,439.87,127.58Z"></path>
      <path class="cls-6" d="M440.53,139.53a10.44,10.44,0,0,0,6.79-2.51,24.47,24.47,0,0,0-9.08-8,26.56,26.56,0,0,0-7.76-2.76,10.33,10.33,0,0,0-.4,2.85A10.45,10.45,0,0,0,440.53,139.53Z"></path>
      <path class="cls-6" d="M439.87,127.58a23.64,23.64,0,0,1,8.91,7.91,10.08,10.08,0,0,0,.7-1,25.15,25.15,0,0,0-9.07-7.91,26.6,26.6,0,0,0-8.8-2.93c-.2.34-.4.69-.57,1A25.45,25.45,0,0,1,439.87,127.58Z"></path>
      <path class="cls-6" d="M440.53,118.62a10.45,10.45,0,0,1,9,15.86,10.08,10.08,0,0,1-.7,1,11.14,11.14,0,0,1-1.46,1.53,10.45,10.45,0,0,1-17.24-8,10.33,10.33,0,0,1,.4-2.85,10,10,0,0,1,.56-1.53c.17-.36.37-.71.57-1a10.44,10.44,0,0,1,8.92-5m0-1.07a11.42,11.42,0,0,0-9.83,5.53,9.56,9.56,0,0,0-.63,1.16,11.89,11.89,0,0,0-.63,1.69A11.52,11.52,0,0,0,448,137.84a11.21,11.21,0,0,0,1.61-1.69,10.25,10.25,0,0,0,.78-1.12,11.52,11.52,0,0,0-9.87-17.48Z"></path>
      <line class="cls-34" x1="2" y1="422.59" x2="878" y2="422.59"></line>
      <path class="cls-4" d="M718.54,377.84a10.46,10.46,0,0,1,3.38.52,7.75,7.75,0,0,1,2.66,1.49,6.58,6.58,0,0,1,1.74,2.33,7.14,7.14,0,0,1,.63,3,7.7,7.7,0,0,1-.36,2.45,6.1,6.1,0,0,1-1,1.89,6,6,0,0,1-1.58,1.37,8.83,8.83,0,0,1-2.07.91,7.84,7.84,0,0,1,4.23,2.49,6.72,6.72,0,0,1,1.42,4.38,8.28,8.28,0,0,1-.75,3.58,8.13,8.13,0,0,1-2.07,2.71,9.33,9.33,0,0,1-3,1.71,11.62,11.62,0,0,1-3.73.59,11.88,11.88,0,0,1-3.92-.57,8.35,8.35,0,0,1-2.76-1.58,8.66,8.66,0,0,1-1.85-2.38,17.81,17.81,0,0,1-1.22-3l1.53-.64a2.12,2.12,0,0,1,.84-.18,1.36,1.36,0,0,1,.71.17,1.09,1.09,0,0,1,.48.53l.08.17c0,.06.05.12.08.19.19.39.41.83.68,1.32a5.56,5.56,0,0,0,1.09,1.38,5.83,5.83,0,0,0,1.7,1.08,6.19,6.19,0,0,0,2.52.44,6.58,6.58,0,0,0,2.64-.49,5.63,5.63,0,0,0,1.89-1.28A5.33,5.33,0,0,0,724,398.8a6.9,6.9,0,0,0-.31-2.13,3.67,3.67,0,0,0-1.13-1.67,5.91,5.91,0,0,0-2.25-1.1,14,14,0,0,0-3.69-.4v-2.62a11,11,0,0,0,3.13-.38,6.09,6.09,0,0,0,2.12-1,3.93,3.93,0,0,0,1.2-1.59,5.62,5.62,0,0,0,.37-2.05,5.35,5.35,0,0,0-.4-2.17,4.17,4.17,0,0,0-1.07-1.53,4.6,4.6,0,0,0-1.62-.91,6.58,6.58,0,0,0-2-.3,6.23,6.23,0,0,0-2,.32,5.66,5.66,0,0,0-1.64.9,5.18,5.18,0,0,0-1.19,1.36,6.11,6.11,0,0,0-.73,1.72,1.61,1.61,0,0,1-.48.84,1.24,1.24,0,0,1-.83.27h-.21l-.25,0-1.87-.31a10.59,10.59,0,0,1,1.09-3.49,8.25,8.25,0,0,1,2-2.54,8.49,8.49,0,0,1,2.83-1.56A10.75,10.75,0,0,1,718.54,377.84Z"></path>
      <path class="cls-33" d="M177.33,266.4c31.65,6.11,70.76,1,93.07-24.23.07,27.85-17.51,39.56-43.6,37.72-12.51-.88-46.19-6.69-47.31-8.17S177.05,268.54,177.33,266.4Z"></path>
      <path class="cls-35" d="M177.33,266.4c31.65,6.11,70.76,1,93.07-24.23.07,27.85-17.51,39.56-43.6,37.72-12.51-.88-46.19-6.69-47.31-8.17S177.05,268.54,177.33,266.4Z"></path>
      <path class="cls-33" d="M230.65,296.26a3.42,3.42,0,0,0-1.07-2.19c-1.57-1.61-4-2.42-6.07-3.1-5.36-1.77-11.17-2.47-16.34-4.81l.13-.27c10.5-5.76,18-20.66,18-38.14,0-21.72-11.56-39.46-26.11-40.61a40.25,40.25,0,0,0,2.44-29.3h.08l-13.94-42.07H139.51l-15,42.07h.08a40.25,40.25,0,0,0,2.44,29.3c-14.55,1.15-26.11,18.89-26.11,40.61,0,17.51,7.51,32.43,18,38.16l.11.25c-5.17,2.34-11,3-16.34,4.81-2.08.68-4.5,1.49-6.07,3.1a3.47,3.47,0,0,0-1.07,2.19c0,.61,0,.72.48,1a7,7,0,0,0,1.85.28c10.81,1.38,22.07.57,32.91-.23,1.77-.13,3.43-.3,4.82-1.61a5.29,5.29,0,0,0,1.55-2.81H189a5.36,5.36,0,0,0,1.55,2.81c1.39,1.31,3,1.48,4.83,1.61,10.83.8,22.09,1.61,32.91.23a7.14,7.14,0,0,0,1.85-.28C230.65,297,230.69,296.87,230.65,296.26Z"></path>
      <path class="cls-36" d="M230.65,296.26a3.42,3.42,0,0,0-1.07-2.19c-1.57-1.61-4-2.42-6.07-3.1-5.36-1.77-11.17-2.47-16.34-4.81l.13-.27c10.5-5.76,18-20.66,18-38.14,0-21.72-11.56-39.46-26.11-40.61a40.25,40.25,0,0,0,2.44-29.3h-77a40.25,40.25,0,0,0,2.44,29.3c-14.55,1.15-26.11,18.89-26.11,40.61,0,17.51,7.51,32.43,18,38.16l.11.25c-5.17,2.34-11,3-16.34,4.81-2.08.68-4.5,1.49-6.07,3.1a3.47,3.47,0,0,0-1.07,2.19c0,.61,0,.72.48,1a7,7,0,0,0,1.85.28c10.81,1.38,22.07.57,32.91-.23,1.77-.13,3.43-.3,4.82-1.61a5.29,5.29,0,0,0,1.55-2.81H189a5.36,5.36,0,0,0,1.55,2.81c1.39,1.31,3,1.48,4.83,1.61,10.83.8,22.09,1.61,32.91.23a7.14,7.14,0,0,0,1.85-.28C230.65,297,230.69,296.87,230.65,296.26Z"></path>
      <path class="cls-37" d="M203.31,189.38a40.36,40.36,0,0,0-1.69-11.54h.08l-13.94-42.07H139.51l-15,42.07h.08a40.36,40.36,0,0,0-1.69,11.54C122.89,195.76,203.31,195.76,203.31,189.38Z"></path>
      <path class="cls-33" d="M178.9,133.74l-30.65-.82-.29,8.5c.76,2.52,5,5.38,8.7,6.64l13,.35c3.71-1.06,8.15-3.69,9-6.17Z"></path>
      <path class="cls-27" d="M176.68,143.27c-5.35-.14-10.92-3.33-13.16-7.85-2.48,4.4-8.21,7.28-13.56,7.14a10.74,10.74,0,0,1-1.53-.14,8.09,8.09,0,0,0,1.16,1.41l.33,0c5.35.14,11.09-2.74,13.57-7.14,2.23,4.52,7.81,7.71,13.16,7.85H177a8.27,8.27,0,0,0,1.22-1.34A12.76,12.76,0,0,1,176.68,143.27Z"></path>
      <path class="cls-10" d="M156.79,140.46l-.16,6.25a6.59,6.59,0,1,0,13.17.35l.17-6.25-6.45-5.62Z"></path>
      <line class="cls-11" x1="163.48" y1="136.9" x2="163.26" y2="145.22"></line>
      <path class="cls-33" d="M192.06,98s10.15,35.08,19.58,35.75h.07c4-21.17,20.32-29.91,18.48-41.14-1.5-9.12-19.67-21.41-28.69-23-3.08-.53-11.76,4.59-11.76,4.59a40.82,40.82,0,0,0-49.4-1.12S132,67.33,128.88,67.7C119.79,68.77,101,80.07,99,89.1c-2.44,11.11,13.44,20.72,16.26,42.07h.07c9.46-.17,21.45-34.66,21.45-34.66q-4.22,16.56-9,25.79a58,58,0,0,0,11.58,13.41s3.17,6.65,10.64,6.85c5.35.14,11.08-2.74,13.56-7.14,2.24,4.52,7.81,7.71,13.16,7.85,7.47.2,11-6.27,11-6.27a58.53,58.53,0,0,0,12.15-12.59Q195.44,114.93,192.06,98Z"></path>
      <ellipse class="cls-38" cx="183.26" cy="106.17" rx="6.66" ry="6.59" transform="translate(72.24 286.53) rotate(-88.47)"></ellipse>
      <ellipse class="cls-38" cx="145.37" cy="105.16" rx="6.66" ry="6.59" transform="translate(36.38 247.67) rotate(-88.47)"></ellipse>
      <path class="cls-13" d="M173.55,130.24c-.1,3.68-10.06,6.39-10.06,6.39s-9.81-3.24-9.71-6.92,6.29-1.49,9.93-1.4S173.65,126.57,173.55,130.24Z"></path>
      <path class="cls-33" d="M186.68,291.44l15.82-94H173.55v98c-.26,2,.7,2.67.7,2.67,10.31,11.28,22.05,3.13,22.05,3.13l-2.59-1.42a31.36,31.36,0,0,0,3.83-2.37Z"></path>
      <path class="cls-33" d="M152.65,295.4v-98H123.7l15.82,94-10.85,6a30.68,30.68,0,0,0,3.82,2.37l-2.59,1.42s11.74,8.15,22-3.13C152,298.07,152.91,297.37,152.65,295.4Z"></path>
      <g class="cls-14">
        <path class="cls-39" d="M128.88,67.7C119.79,68.77,101,80.07,99,89.1c-2.44,11.11,13.44,20.72,16.26,42.07h.07c10.23-.76,21.77-35.91,21.77-35.91S132,67.33,128.88,67.7Z"></path>
        <path class="cls-40" d="M230.19,92.6c-1.5-9.12-19.67-21.41-28.69-23-3.08-.53-9.69,27.08-9.69,27.08s9.89,36.37,19.83,37h.07C215.67,112.57,232,103.83,230.19,92.6Z"></path>
      </g>
      <ellipse class="cls-41" cx="183.26" cy="106.17" rx="6.66" ry="6.59" transform="translate(72.24 286.53) rotate(-88.47)"></ellipse>
      <ellipse class="cls-42" cx="145.37" cy="105.16" rx="6.66" ry="6.59" transform="translate(36.38 247.67) rotate(-88.47)"></ellipse>
      <path class="cls-17" d="M159.37,181.83l2.86-2c-1.79-1.31-3.73-2.76-5-3.84a51.78,51.78,0,0,1-11.38-13.46c-4.49-7.9-9.87-17.59-9.87-17.59L132.41,155c1.89,4,4.1,7.52,4.81,8.69C143.74,175.55,153,180.09,159.37,181.83Z"></path>
      <path class="cls-18" d="M178.6,162.49A52,52,0,0,1,167.21,176c-1.25,1.08-3.19,2.53-5,3.84l-2.86,2c1,.28,2,.49,2.86.64.86-.15,1.81-.36,2.85-.64,6.38-1.74,15.64-6.28,22.15-18.16A113.37,113.37,0,0,0,193.39,152l-2.95-8.87A183.18,183.18,0,0,0,178.6,162.49Z"></path>
      <path class="cls-43" d="M171.24,198.81A10.45,10.45,0,0,0,153.38,188a26.42,26.42,0,0,1,8.79,2.94A25,25,0,0,1,171.24,198.81Z"></path>
      <path class="cls-43" d="M161.64,191.91a25.58,25.58,0,0,0-8.83-2.89,10,10,0,0,0-.57,1.53,26.75,26.75,0,0,1,7.76,2.76,24.31,24.31,0,0,1,9.08,8,10,10,0,0,0,1.46-1.52A23.71,23.71,0,0,0,161.64,191.91Z"></path>
      <path class="cls-5" d="M162.3,203.86a10.41,10.41,0,0,0,6.78-2.51,24.31,24.31,0,0,0-9.08-8,26.75,26.75,0,0,0-7.76-2.76,10.45,10.45,0,0,0,10.06,13.31Z"></path>
      <path class="cls-5" d="M161.64,191.91a23.71,23.71,0,0,1,8.9,7.92,11.52,11.52,0,0,0,.7-1,25,25,0,0,0-9.07-7.9,26.42,26.42,0,0,0-8.79-2.94,10.65,10.65,0,0,0-.57,1.05A25.58,25.58,0,0,1,161.64,191.91Z"></path>
      <path class="cls-5" d="M162.3,183a10.45,10.45,0,0,1,8.94,15.86,11.52,11.52,0,0,1-.7,1,10,10,0,0,1-1.46,1.52,10.45,10.45,0,0,1-16.84-10.8,10,10,0,0,1,.57-1.53,10.65,10.65,0,0,1,.57-1.05,10.43,10.43,0,0,1,8.92-5m0-1.07a11.46,11.46,0,0,0-9.84,5.53c-.25.41-.45.79-.63,1.16a12.3,12.3,0,0,0-.62,1.69,11.52,11.52,0,0,0,18.57,11.91,12.82,12.82,0,0,0,1.61-1.68,13.15,13.15,0,0,0,.77-1.12,11.53,11.53,0,0,0-9.86-17.49Z"></path>
      <ellipse class="cls-22" cx="186.6" cy="104.59" rx="1.66" ry="1.65" transform="translate(77.07 288.33) rotate(-88.47)"></ellipse>
      <ellipse class="cls-22" cx="148.71" cy="103.58" rx="1.66" ry="1.65" transform="translate(41.2 249.47) rotate(-88.47)"></ellipse>
    </g>
  </g>
</svg>
