<?xml version="1.0" encoding="UTF-8"?>
<svg xmlns="http://www.w3.org/2000/svg" id="Layer_1" data-name="Layer 1" viewBox="0 0 880 460">
  <defs>
    <style>.cls-1{fill:#272733;}.cls-10,.cls-2,.cls-7,.cls-8,.cls-9{fill:none;}.cls-2,.cls-9{stroke:#009ceb;stroke-miterlimit:10;}.cls-2{stroke-width:2px;}.cls-3{fill:#d5e0e0;}.cls-4{fill:#fff;}.cls-5{fill:#565e66;}.cls-6{fill:#4dbdeb;}.cls-7{stroke:#b1b8b9;stroke-width:3.86px;}.cls-10,.cls-7,.cls-8{stroke-linecap:round;stroke-linejoin:round;}.cls-8{stroke:#565e66;stroke-width:3.85px;}.cls-10,.cls-9{stroke-width:2.07px;}.cls-10{stroke:#272733;}</style>
  </defs>
  <title>BGSEO_Combined_File</title>
  <path class="cls-1" d="M802.2,248.11a15,15,0,0,0,0-30.07,1.16,1.16,0,0,0,0,2.32,12.72,12.72,0,0,1,0,25.44,1.16,1.16,0,1,0,0,2.31Z"></path>
  <path id="Shape" class="cls-2" d="M410.76,419.32c-212.56-25-315-243.14-339.61-348.62"></path>
  <path class="cls-1" d="M217.82,333.16a1.16,1.16,0,0,0,0-2.32,16.77,16.77,0,0,1,0-33.54,1.16,1.16,0,0,0,0-2.31,19.09,19.09,0,0,0,0,38.17Z"></path>
  <path class="cls-1" d="M51,420a1.76,1.76,0,1,1,0-3.51,25.45,25.45,0,0,0,0-50.9A1.76,1.76,0,1,1,51,362,29,29,0,0,1,51,420Z"></path>
  <path id="Shape-2" data-name="Shape" class="cls-2" d="M606.31,186.49C600.94,241.85,584,375.09,469.77,404"></path>
  <path class="cls-3" d="M484.91,457H395.22a3.27,3.27,0,0,1-3.27-3.28v-77.9a3.26,3.26,0,0,1,3.27-3.27h89.69a3.26,3.26,0,0,1,3.27,3.27v77.9A3.27,3.27,0,0,1,484.91,457Z"></path>
  <path class="cls-4" d="M476.73,451.39H403.08a4.57,4.57,0,0,1-4.26-4.58V398a4.58,4.58,0,0,1,4.58-4.58h73.33a4.58,4.58,0,0,1,4.58,4.58h0v48.77A4.91,4.91,0,0,1,476.73,451.39Z"></path>
  <circle class="cls-5" cx="401.44" cy="382.33" r="2.29"></circle>
  <circle class="cls-5" cx="407.99" cy="382.33" r="2.29"></circle>
  <circle class="cls-5" cx="414.86" cy="382.33" r="2.29"></circle>
  <rect class="cls-6" x="405.37" y="398.69" width="69.07" height="18.46"></rect>
  <rect class="cls-6" x="405.35" y="423.9" width="21.62" height="21.64"></rect>
  <line class="cls-7" x1="433.85" y1="425.21" x2="472.14" y2="425.21"></line>
  <line class="cls-7" x1="433.85" y1="435.03" x2="472.14" y2="435.03"></line>
  <line class="cls-7" x1="433.85" y1="443.54" x2="472.14" y2="443.54"></line>
  <line class="cls-8" x1="431.23" y1="382.33" x2="472.47" y2="382.33"></line>
  <path id="Shape-3" data-name="Shape" class="cls-2" d="M801.65,38.75C755.77,60.89,704,72.32,649.36,72.32c-65.6,0-127.82-17.32-180.51-48.5"></path>
  <path id="Shape-4" data-name="Shape" class="cls-2" d="M801.5,420.56C580.39,402.81,466.55,199.41,468.61,63"></path>
  <path id="Shape-5" data-name="Shape" class="cls-2" d="M410.76,55.82a354.7,354.7,0,0,1-152,34.07A353.58,353.58,0,0,1,78,40.21"></path>
  <path id="Shape-6" data-name="Shape" class="cls-2" d="M448,84.45c-5.16,53.2-72,140.4-174.61,148.25"></path>
  <path class="cls-3" d="M484.59,85.45H394.9a3.27,3.27,0,0,1-3.28-3.27V4.27A3.28,3.28,0,0,1,394.9,1h89.69a3.28,3.28,0,0,1,3.27,3.27V82.18A3.27,3.27,0,0,1,484.59,85.45Z"></path>
  <path class="cls-4" d="M476.4,79.89H402.75a4.59,4.59,0,0,1-4.25-4.59V26.53A4.58,4.58,0,0,1,403.08,22H476.4A4.59,4.59,0,0,1,481,26.53h0V75.3A4.92,4.92,0,0,1,476.4,79.89Z"></path>
  <circle class="cls-5" cx="401.12" cy="10.82" r="2.29"></circle>
  <circle class="cls-5" cx="407.66" cy="10.82" r="2.29"></circle>
  <circle class="cls-5" cx="414.54" cy="10.82" r="2.29"></circle>
  <rect class="cls-6" x="405.04" y="27.19" width="69.07" height="18.46"></rect>
  <rect class="cls-6" x="405.03" y="52.39" width="21.62" height="21.64"></rect>
  <line class="cls-7" x1="433.52" y1="53.7" x2="471.82" y2="53.7"></line>
  <line class="cls-7" x1="433.52" y1="63.52" x2="471.82" y2="63.52"></line>
  <line class="cls-7" x1="433.52" y1="72.03" x2="471.82" y2="72.03"></line>
  <line class="cls-8" x1="430.9" y1="10.82" x2="472.15" y2="10.82"></line>
  <line class="cls-9" x1="215.17" y1="340.22" x2="215.17" y2="270.22"></line>
  <line class="cls-2" x1="57.13" y1="430.66" x2="57.13" y2="80.57"></line>
  <line class="cls-2" x1="801.62" y1="258.06" x2="801.62" y2="80.57"></line>
  <path id="Shape-7" data-name="Shape" class="cls-2" d="M801.5,373.54s-123.5-14-137.19-126.07"></path>
  <path id="Shape-8" data-name="Shape" class="cls-2" d="M801.5,40.27c-5.38,55.35-64.59,146.22-137.45,146.22"></path>
  <path class="cls-3" d="M94,85.45H4.27A3.27,3.27,0,0,1,1,82.18V4.27A3.28,3.28,0,0,1,4.27,1H94a3.28,3.28,0,0,1,3.28,3.27V82.18A3.27,3.27,0,0,1,94,85.45Z"></path>
  <path class="cls-4" d="M85.78,79.89H12.13A4.6,4.6,0,0,1,7.87,75.3V26.53A4.59,4.59,0,0,1,12.46,22H85.78a4.58,4.58,0,0,1,4.58,4.58h0V75.3A4.91,4.91,0,0,1,85.78,79.89Z"></path>
  <circle class="cls-5" cx="10.49" cy="10.82" r="2.29"></circle>
  <circle class="cls-5" cx="17.04" cy="10.82" r="2.29"></circle>
  <circle class="cls-5" cx="23.91" cy="10.82" r="2.29"></circle>
  <rect class="cls-6" x="14.42" y="27.19" width="69.07" height="18.46"></rect>
  <rect class="cls-6" x="14.4" y="52.39" width="21.62" height="21.64"></rect>
  <line class="cls-7" x1="42.9" y1="53.7" x2="81.2" y2="53.7"></line>
  <line class="cls-7" x1="42.9" y1="63.52" x2="81.2" y2="63.52"></line>
  <line class="cls-7" x1="42.9" y1="72.03" x2="81.2" y2="72.03"></line>
  <line class="cls-8" x1="40.28" y1="10.82" x2="81.52" y2="10.82"></line>
  <path class="cls-3" d="M875.73,85.45H786a3.27,3.27,0,0,1-3.28-3.27V4.27A3.28,3.28,0,0,1,786,1h89.69A3.28,3.28,0,0,1,879,4.27V82.18A3.27,3.27,0,0,1,875.73,85.45Z"></path>
  <path class="cls-4" d="M867.54,79.89H793.89a4.59,4.59,0,0,1-4.25-4.59V26.53A4.58,4.58,0,0,1,794.22,22h73.32a4.59,4.59,0,0,1,4.59,4.58h0V75.3A4.91,4.91,0,0,1,867.54,79.89Z"></path>
  <circle class="cls-5" cx="792.26" cy="10.82" r="2.29"></circle>
  <circle class="cls-5" cx="798.8" cy="10.82" r="2.29"></circle>
  <circle class="cls-5" cx="805.68" cy="10.82" r="2.29"></circle>
  <rect class="cls-6" x="796.19" y="27.19" width="69.07" height="18.46"></rect>
  <rect class="cls-6" x="796.17" y="52.39" width="21.62" height="21.64"></rect>
  <line class="cls-7" x1="824.66" y1="53.7" x2="862.96" y2="53.7"></line>
  <line class="cls-7" x1="824.66" y1="63.52" x2="862.96" y2="63.52"></line>
  <line class="cls-7" x1="824.66" y1="72.03" x2="862.96" y2="72.03"></line>
  <line class="cls-8" x1="822.04" y1="10.82" x2="863.29" y2="10.82"></line>
  <path class="cls-3" d="M289.08,269.91H199.39a3.26,3.26,0,0,1-3.27-3.27V188.73a3.27,3.27,0,0,1,3.27-3.27h89.69a3.27,3.27,0,0,1,3.27,3.27v77.91A3.26,3.26,0,0,1,289.08,269.91Z"></path>
  <path class="cls-4" d="M280.9,264.35H207.25a4.6,4.6,0,0,1-4.26-4.58V211a4.58,4.58,0,0,1,4.58-4.58H280.9a4.58,4.58,0,0,1,4.58,4.58h0v48.78A4.91,4.91,0,0,1,280.9,264.35Z"></path>
  <circle class="cls-5" cx="205.61" cy="195.28" r="2.29"></circle>
  <circle class="cls-5" cx="212.16" cy="195.28" r="2.29"></circle>
  <circle class="cls-5" cx="219.03" cy="195.28" r="2.29"></circle>
  <rect class="cls-6" x="209.54" y="211.65" width="69.07" height="18.46"></rect>
  <rect class="cls-6" x="209.52" y="236.85" width="21.62" height="21.64"></rect>
  <line class="cls-7" x1="238.02" y1="238.16" x2="276.31" y2="238.16"></line>
  <line class="cls-7" x1="238.02" y1="247.98" x2="276.31" y2="247.98"></line>
  <line class="cls-7" x1="238.02" y1="256.49" x2="276.31" y2="256.49"></line>
  <line class="cls-8" x1="235.4" y1="195.28" x2="276.64" y2="195.28"></line>
  <path class="cls-3" d="M680.22,269.91H590.53a3.26,3.26,0,0,1-3.27-3.27V188.73a3.27,3.27,0,0,1,3.27-3.27h89.69a3.27,3.27,0,0,1,3.27,3.27v77.91A3.26,3.26,0,0,1,680.22,269.91Z"></path>
  <path class="cls-4" d="M672,264.35H598.39a4.6,4.6,0,0,1-4.26-4.58V211a4.58,4.58,0,0,1,4.59-4.58H672a4.58,4.58,0,0,1,4.58,4.58h0v48.78A4.91,4.91,0,0,1,672,264.35Z"></path>
  <circle class="cls-5" cx="596.75" cy="195.28" r="2.29"></circle>
  <circle class="cls-5" cx="603.3" cy="195.28" r="2.29"></circle>
  <circle class="cls-5" cx="610.17" cy="195.28" r="2.29"></circle>
  <rect class="cls-6" x="600.68" y="211.65" width="69.07" height="18.46"></rect>
  <rect class="cls-6" x="600.66" y="236.85" width="21.62" height="21.64"></rect>
  <line class="cls-7" x1="629.16" y1="238.16" x2="667.46" y2="238.16"></line>
  <line class="cls-7" x1="629.16" y1="247.98" x2="667.46" y2="247.98"></line>
  <line class="cls-7" x1="629.16" y1="256.49" x2="667.46" y2="256.49"></line>
  <line class="cls-8" x1="626.54" y1="195.28" x2="667.78" y2="195.28"></line>
  <path class="cls-3" d="M875.53,457H785.84a3.28,3.28,0,0,1-3.27-3.28v-77.9a3.27,3.27,0,0,1,3.27-3.27h89.69a3.27,3.27,0,0,1,3.28,3.27v77.9A3.28,3.28,0,0,1,875.53,457Z"></path>
  <path class="cls-4" d="M867.35,451.39H793.7a4.57,4.57,0,0,1-4.25-4.58V398a4.58,4.58,0,0,1,4.58-4.58h73.32a4.58,4.58,0,0,1,4.58,4.58h0v48.77A4.91,4.91,0,0,1,867.35,451.39Z"></path>
  <circle class="cls-5" cx="792.06" cy="382.33" r="2.29"></circle>
  <circle class="cls-5" cx="798.61" cy="382.33" r="2.29"></circle>
  <circle class="cls-5" cx="805.48" cy="382.33" r="2.29"></circle>
  <rect class="cls-6" x="795.99" y="398.69" width="69.07" height="18.46"></rect>
  <rect class="cls-6" x="795.97" y="423.9" width="21.62" height="21.64"></rect>
  <line class="cls-7" x1="824.47" y1="425.21" x2="862.77" y2="425.21"></line>
  <line class="cls-7" x1="824.47" y1="435.03" x2="862.77" y2="435.03"></line>
  <line class="cls-7" x1="824.47" y1="443.54" x2="862.77" y2="443.54"></line>
  <line class="cls-8" x1="821.85" y1="382.33" x2="863.09" y2="382.33"></line>
  <circle class="cls-1" cx="56.95" cy="426.97" r="8.77"></circle>
  <path class="cls-1" d="M57,459.31a21.81,21.81,0,1,1,0-43.62,1.76,1.76,0,0,1,0,3.51,18.3,18.3,0,1,0,0,36.6,1.76,1.76,0,0,1,0,3.51Z"></path>
  <path class="cls-1" d="M60.46,450.66a1.76,1.76,0,1,1,0-3.51,13.17,13.17,0,0,0,0-26.33,1.76,1.76,0,1,1,0-3.51,16.68,16.68,0,0,1,0,33.35Z"></path>
  <path class="cls-1" d="M25.36,441a1.76,1.76,0,0,1-1.76-1.76,25.35,25.35,0,0,1,25.33-25.32,1.76,1.76,0,0,1,0,3.51,21.84,21.84,0,0,0-21.82,21.81A1.75,1.75,0,0,1,25.36,441Z"></path>
  <path class="cls-1" d="M89.29,442.76A1.75,1.75,0,0,1,87.53,441,21.83,21.83,0,0,0,65.72,419.2a1.76,1.76,0,0,1,0-3.51A25.34,25.34,0,0,1,91,441,1.75,1.75,0,0,1,89.29,442.76Z"></path>
  <path class="cls-1" d="M56,415.56a22.82,22.82,0,1,1,0-45.63,1.76,1.76,0,0,1,0,3.51,19.31,19.31,0,1,0,0,38.61,1.76,1.76,0,0,1,0,3.51Z"></path>
  <circle class="cls-1" cx="56.95" cy="408.54" r="14.92"></circle>
  <path class="cls-1" d="M17.13,424.69a1.75,1.75,0,0,1-.67-2.39A25.36,25.36,0,0,1,51,412.68a1.76,1.76,0,0,1-1.73,3.06A21.83,21.83,0,0,0,19.52,424,1.76,1.76,0,0,1,17.13,424.69Z"></path>
  <path class="cls-1" d="M97.87,424.33a1.75,1.75,0,0,1-2.43-.52,21.84,21.84,0,0,0-30.18-6.38,1.76,1.76,0,0,1-1.92-2.94,25.35,25.35,0,0,1,35,7.41A1.76,1.76,0,0,1,97.87,424.33Z"></path>
  <circle class="cls-1" cx="215.21" cy="338.82" r="5.78"></circle>
  <circle class="cls-1" cx="215.21" cy="326.67" r="9.83"></circle>
  <path class="cls-1" d="M215.71,331.3a15,15,0,0,0,0-30.07,1.16,1.16,0,1,0,0,2.31,12.73,12.73,0,0,1,0,25.45,1.16,1.16,0,1,0,0,2.31Z"></path>
  <path class="cls-10" d="M207.45,330.52s-8.43-5.09-11.81-4.84c-2.5.19-8.66,4.59-8.66,4.59"></path>
  <path class="cls-10" d="M222.64,330.48s15.14-6.54,20.45-2.3"></path>
  <path class="cls-10" d="M219.18,332.72c3.59,2.49,7.33,5.79,8.82,10,1.18,3.39-.07,6.73-2.19,9.48A17.46,17.46,0,0,1,215,358.56"></path>
  <path class="cls-10" d="M209.88,333.75c-5.58,2.39-13.12,7.1-9.13,12.62a13.7,13.7,0,0,0,8.61,4.95"></path>
  <path class="cls-10" d="M208.19,332.09s-11.47.4-18.76,4.87"></path>
  <path class="cls-10" d="M222,332.64c4.56-1.81,18.07-1.55,17,5.18a11.52,11.52,0,0,1-2,4.72"></path>
  <circle class="cls-1" cx="801.7" cy="255.63" r="5.78"></circle>
  <path class="cls-1" d="M775.79,250.76a1.17,1.17,0,0,1,.05-1.64,16.7,16.7,0,0,1,23.59.67,1.16,1.16,0,0,1,0,1.64,1.14,1.14,0,0,1-1.63-.05,14.39,14.39,0,0,0-20.32-.58A1.17,1.17,0,0,1,775.79,250.76Z"></path>
  <path class="cls-1" d="M824.6,265a1.15,1.15,0,0,1-1.23-1.08A14.39,14.39,0,0,0,808.1,250.5a1.15,1.15,0,0,1-.14-2.3,16.69,16.69,0,0,1,17.72,15.57A1.15,1.15,0,0,1,824.6,265Z"></path>
  <circle class="cls-1" cx="801.7" cy="243.49" r="9.83"></circle>
  <path class="cls-1" d="M804.31,250a1.16,1.16,0,0,0,0-2.31,16.77,16.77,0,1,1,0-33.54,1.16,1.16,0,0,0,0-2.32,19.09,19.09,0,0,0,0,38.17Z"></path>
  <path class="cls-10" d="M795.33,248.5s-9.61,2.13-11.88,4.65c-1.68,1.86-3.1,9.3-3.1,9.3"></path>
  <path class="cls-10" d="M808.87,247.58s7.38-3.18,10-3.26,9.67,2.5,9.67,2.5"></path>
  <path class="cls-10" d="M796.37,250.57c-5.58,2.38-12.09,7.09-8.09,12.62a13.64,13.64,0,0,0,8.6,4.94"></path>
  <path class="cls-10" d="M806.16,250.57c5.57,2.38,13.12,7.09,9.12,12.62a13.64,13.64,0,0,1-8.6,4.94"></path>
  <path class="cls-1" d="M398.93,420.11a.7.7,0,0,1,1-1,10.09,10.09,0,0,0,14.26-14.27.69.69,0,0,1,0-1,.71.71,0,0,1,1,0,11.48,11.48,0,0,1-16.24,16.24Z"></path>
  <circle class="cls-1" cx="398.64" cy="423.75" r="3.48"></circle>
  <path class="cls-1" d="M389.58,432.82a8.65,8.65,0,0,1,12.23-12.23.7.7,0,0,1-1,1,7.25,7.25,0,0,0-10.26,10.26.69.69,0,0,1-1,1Z"></path>
  <path class="cls-1" d="M393,431.38a.69.69,0,0,1,1-1,5.22,5.22,0,0,0,7.38-7.38.7.7,0,0,1,1-1,6.61,6.61,0,0,1-9.35,9.35Z"></path>
  <path class="cls-1" d="M385.85,418.83a.69.69,0,0,1,0-1,10.06,10.06,0,0,1,14.2,0,.69.69,0,0,1,0,1,.68.68,0,0,1-1,0,8.66,8.66,0,0,0-12.23,0A.69.69,0,0,1,385.85,418.83Z"></path>
  <path class="cls-1" d="M403.28,437.25a.71.71,0,0,1,0-1,8.66,8.66,0,0,0,0-12.23.69.69,0,0,1,0-1,.71.71,0,0,1,1,0,10.06,10.06,0,0,1,0,14.2A.71.71,0,0,1,403.28,437.25Z"></path>
  <path class="cls-1" d="M401.58,420.3a9,9,0,0,1,12.79-12.79.68.68,0,0,1,0,1,.69.69,0,0,1-1,0,7.65,7.65,0,0,0-10.82,10.82.7.7,0,0,1-1,1Z"></path>
  <circle class="cls-1" cx="403.81" cy="418.59" r="5.91"></circle>
  <path class="cls-1" d="M388.12,412a.7.7,0,0,1,.48-.86,10.06,10.06,0,0,1,12.37,7,.7.7,0,1,1-1.34.37,8.66,8.66,0,0,0-10.65-6A.69.69,0,0,1,388.12,412Z"></path>
  <path class="cls-1" d="M410.86,434.48a.69.69,0,0,1-.54-.82,8.66,8.66,0,0,0-6.67-10.25.7.7,0,1,1,.29-1.36,10,10,0,0,1,7.74,11.9A.69.69,0,0,1,410.86,434.48Z"></path>
  <path class="cls-1" d="M475.39,64.87a.69.69,0,0,1-1,0,.71.71,0,0,1,0-1,10.09,10.09,0,0,0-14.27-14.27.68.68,0,0,1-1,0,.69.69,0,0,1,0-1,11.48,11.48,0,0,1,16.23,16.24Z"></path>
  <circle class="cls-1" cx="479.04" cy="65.16" r="3.48"></circle>
  <path class="cls-1" d="M488.11,74.22A8.65,8.65,0,0,1,475.88,62a.69.69,0,0,1,1,0,.71.71,0,0,1,0,1,7.25,7.25,0,1,0,10.26,10.26.71.71,0,0,1,1,0A.69.69,0,0,1,488.11,74.22Z"></path>
  <path class="cls-1" d="M486.67,70.81a.71.71,0,0,1-1,0,.69.69,0,0,1,0-1,5.22,5.22,0,0,0-7.38-7.38.69.69,0,0,1-1,0,.71.71,0,0,1,0-1,6.61,6.61,0,0,1,9.35,9.35Z"></path>
  <path class="cls-1" d="M474.12,78a.69.69,0,0,1-1,0,10,10,0,0,1,0-14.2.69.69,0,0,1,1,1,8.66,8.66,0,0,0,0,12.23A.71.71,0,0,1,474.12,78Z"></path>
  <path class="cls-1" d="M492.53,60.52a.69.69,0,0,1-1,0,8.64,8.64,0,0,0-12.23,0,.69.69,0,0,1-1,0,.71.71,0,0,1,0-1,10,10,0,0,1,14.19,0A.69.69,0,0,1,492.53,60.52Z"></path>
  <path class="cls-1" d="M475.58,62.22a9,9,0,0,1-12.79-12.8.7.7,0,0,1,1,1A7.65,7.65,0,0,0,474.6,61.23a.7.7,0,1,1,1,1Z"></path>
  <circle class="cls-1" cx="473.87" cy="59.99" r="5.91"></circle>
  <path class="cls-1" d="M467.24,75.68a.7.7,0,0,1-.86-.48,10,10,0,0,1,7-12.37.7.7,0,0,1,.37,1.34,8.66,8.66,0,0,0-6,10.65A.7.7,0,0,1,467.24,75.68Z"></path>
  <path class="cls-1" d="M489.77,52.94a.69.69,0,0,1-.82.54,8.65,8.65,0,0,0-10.25,6.67.7.7,0,1,1-1.36-.29,10,10,0,0,1,11.89-7.74A.69.69,0,0,1,489.77,52.94Z"></path>
</svg>
