<?xml version="1.0" encoding="UTF-8"?>
<!-- Generator: Adobe Illustrator 23.0.2, SVG Export Plug-In . SVG Version: 6.00 Build 0)  -->
<svg xmlns="http://www.w3.org/2000/svg" xmlns:xlink="http://www.w3.org/1999/xlink" id="Layer_1" x="0px" y="0px" viewBox="0 0 882 335" style="enable-background:new 0 0 882 335;" xml:space="preserve">
<style type="text/css">
	.st0{fill:none;stroke:#0A597C;stroke-width:6;stroke-linecap:round;stroke-miterlimit:10;}
	.st1{fill:#4DBDEB;stroke:#4DBDEB;stroke-width:6;stroke-linecap:round;stroke-miterlimit:10;}
	.st2{fill:none;stroke:#0A597C;stroke-width:6;stroke-miterlimit:10;}
	.st3{fill:#0A597C;}
	.st4{fill:none;stroke:#4DBDEB;stroke-width:7;stroke-linecap:round;stroke-miterlimit:10;}
	.st5{fill:none;stroke:#0A597C;stroke-width:6;stroke-linecap:round;stroke-miterlimit:10;stroke-dasharray:0.48,9.59;}
	.st6{fill:#FFFFFF;stroke:#0A597C;stroke-width:6;stroke-linecap:round;stroke-miterlimit:10;}
	.st7{fill:none;stroke:#0A597C;stroke-width:6;stroke-linecap:round;stroke-miterlimit:10;stroke-dasharray:0.55,11.09;}
	.st8{fill:none;stroke:#0A597C;stroke-width:6;stroke-linecap:round;stroke-miterlimit:10;stroke-dasharray:0.53,10.69;}
	.st9{fill:none;stroke:#0A597C;stroke-width:6;stroke-linecap:round;stroke-linejoin:round;}
	.st10{enable-background:new    ;}
	.st11{fill:#272733;}
</style>
<path class="st0" d="M472.9,162.6c4.8,6.9,7.8,14.9,8.7,23.3"></path>
<path class="st0" d="M368.5,259.8c-14.3,0-26-14.1-26-31.5s11.6-31.5,25.9-31.5"></path>
<path class="st0" d="M490.4,259.8c14.3,0,25.9-14.1,25.9-31.5s-11.6-31.5-26-31.5"></path>
<path class="st0" d="M478.5,147.9c0,9.2-7.4,16.7-16.7,16.7s-16.7-7.4-16.7-16.7c0-9.2,7.4-16.7,16.7-16.7l0,0  C471,131.3,478.5,138.7,478.5,147.9z"></path>
<path class="st0" d="M382.5,161.5c-7.4-5.4-9.1-15.8-3.7-23.3c5.4-7.4,15.8-9.1,23.3-3.7c2.3,1.7,4.2,4,5.4,6.6"></path>
<path class="st0" d="M379,186.1c3.2-28.4,28.8-48.8,57.2-45.6c3.1,0.4,6.2,1,9.3,1.9"></path>
<line class="st0" x1="429.8" y1="99.1" x2="429.8" y2="139.4"></line>
<path class="st0" d="M413.6,186c0,0,20.3,1.1,25.6-16.2"></path>
<path class="st1" d="M438.7,90.4c0,5-4,9-9,9s-9-4-9-9s4-9,9-9S438.7,85.5,438.7,90.4z"></path>
<path class="st0" d="M383.3,285.8c0,0-11.1,16.3-0.7,43.5h37.9c0,0-10.1-25.5-1.1-43.5"></path>
<path class="st0" d="M475.5,285.8c0,0,11.1,16.3,0.7,43.5h-37.9c0,0,10.1-25.5,1.1-43.5"></path>
<polygon class="st2" points="490.4,285.3 368.5,285.4 368.5,186.1 490.3,186.1 "></polygon>
<rect x="456.7" y="142" class="st3" width="10.3" height="10.3"></rect>
<rect x="387.4" y="142.1" class="st3" width="10.3" height="10.3"></rect>
<polygon class="st0" points="464.9,285.4 394,285.4 394,224.7 464.9,224.7 "></polygon>
<path class="st2" d="M727.3,230.6c0,0-31.8,14.8-55.9-22.5l19.7-25.4c0,0,12.2,30.2,36.2,18.4"></path>
<path class="st4" d="M663.4,194.9c-7.3,5.1-9.2,15.2-4.1,22.5l0,0"></path>
<path class="st4" d="M650.6,189.2c-7.3,5.1-10.4,21.9-5.3,29.3"></path>
<path class="st0" d="M831.8,162.6c4.8,6.9,7.8,14.9,8.7,23.3"></path>
<path class="st0" d="M849.3,259.8c14.3,0,25.9-14.1,25.9-31.5s-11.6-31.5-26-31.5"></path>
<path class="st0" d="M837.4,147.9c0,9.2-7.4,16.7-16.7,16.7c-9.2,0-16.7-7.4-16.7-16.7c0-9.2,7.4-16.7,16.7-16.7l0,0  C829.9,131.3,837.4,138.7,837.4,147.9z"></path>
<path class="st0" d="M741.4,161.5c-7.5-5.4-9.1-15.8-3.7-23.3c5.4-7.5,15.8-9.1,23.3-3.7c2.4,1.7,4.3,4,5.4,6.7"></path>
<path class="st0" d="M737.8,186.1c3.2-28.4,28.8-48.8,57.2-45.6c3.1,0.4,6.2,1,9.3,1.9"></path>
<line class="st0" x1="788.6" y1="99.1" x2="788.6" y2="139.4"></line>
<path class="st0" d="M772.5,186c0,0,20.3,1.1,25.6-16.2"></path>
<path class="st1" d="M797.6,90.4c0,5-4,9-9,9s-9-4-9-9s4-9,9-9S797.6,85.5,797.6,90.4z"></path>
<path class="st0" d="M742.2,285.8c0,0-11.1,16.3-0.7,43.5h37.9c0,0-10.1-25.5-1-43.5"></path>
<path class="st0" d="M834.4,285.8c0,0,11.1,16.3,0.7,43.5h-37.9c0,0,10.1-25.5,1-43.5"></path>
<polygon class="st2" points="849.2,285.3 727.4,285.4 727.3,186.1 849.2,186.1 "></polygon>
<rect x="815.6" y="142" class="st3" width="10.3" height="10.3"></rect>
<rect x="746.3" y="142.1" class="st3" width="10.3" height="10.3"></rect>
<polygon class="st0" points="823.8,285.4 752.9,285.4 752.8,224.7 823.7,224.7 "></polygon>
<path class="st0" d="M7.8,219.2c3.2-13,13.1-22.4,24.8-22.4"></path>
<path class="st0" d="M32.7,259.8c-13.6,0-24.8-12.7-25.9-28.8"></path>
<line class="st0" x1="94" y1="99.1" x2="94" y2="99.3"></line>
<line class="st5" x1="94" y1="108.9" x2="94" y2="134.3"></line>
<line class="st0" x1="94" y1="139.1" x2="94" y2="139.4"></line>
<path class="st0" d="M77.9,186c0,0,20.3,1.1,25.6-16.2"></path>
<path class="st6" d="M102.9,90.4c0,5-4,9-9,9s-9-4-9-9s4-9,9-9S102.9,85.5,102.9,90.4z"></path>
<line class="st0" x1="93.6" y1="226.9" x2="93.6" y2="227.2"></line>
<line class="st7" x1="93.6" y1="238.3" x2="93.6" y2="244.4"></line>
<line class="st0" x1="93.7" y1="249.9" x2="93.7" y2="250.2"></line>
<line class="st8" x1="93.6" y1="191" x2="93.6" y2="201.5"></line>
<path class="st9" d="M93.6,255.6c11.1,0,14.9-11.3,26.2-12.8c29.2-3.7,31.8,42.6,2.7,42.6c-12.9,0-21-12.9-28.9-12.9  s-15.9,12.9-28.9,12.9c-29.1,0-26.5-46.3,2.7-42.6C78.8,244.3,82.6,255.6,93.6,255.6z"></path>
<line class="st0" x1="40.2" y1="214.6" x2="147.1" y2="214.6"></line>
<polyline class="st0" points="48.7,201.5 85.1,201.5 93.6,210.6 102.2,201.5 138.5,201.5 "></polyline>
<line class="st0" x1="48.6" y1="227.7" x2="138.4" y2="227.7"></line>
<path class="st0" d="M179.2,219.2c-3.2-13-13.1-22.4-24.8-22.4"></path>
<path class="st0" d="M154.4,259.8c13.6,0,24.8-12.7,25.9-28.9"></path>
<path class="st0" d="M66.7,329.3c0,0-10.1-25.5-1.1-43.5"></path>
<path class="st0" d="M55.2,285.8c0,0-11.1,16.3-0.7,43.5"></path>
<line class="st0" x1="37.4" y1="329.3" x2="66.7" y2="329.3"></line>
<path class="st0" d="M120.6,329.3c0,0,10.1-25.5,1.1-43.5"></path>
<path class="st0" d="M132.1,285.8c0,0,11.1,16.3,0.7,43.5"></path>
<line class="st0" x1="150" y1="329.3" x2="120.6" y2="329.3"></line>
<path class="st0" d="M93.6,208.5v19.2"></path>
<path class="st9" d="M129.8,164.6c-9.2,0-16.7-7.4-16.7-16.6c0-1.8,0.3-3.6,0.9-5.4c-12.6-4.4-26.3-4.4-38.9,0  c0.6,1.7,0.9,3.5,0.9,5.3c0,9.2-7.4,16.7-16.6,16.7c-3.2,0-6.3-0.9-9-2.6c-4.6,7.2-7.1,15.5-7.2,24H146c-0.2-8.5-2.7-16.8-7.2-24  C136.1,163.7,133,164.6,129.8,164.6z"></path>
<circle class="st3" cx="64.8" cy="264.1" r="7.5"></circle>
<ellipse class="st3" cx="122.5" cy="264.1" rx="7.5" ry="7.5"></ellipse>
<g class="st10">
	<path class="st11" d="M77.1,3.3v17.4h-3.6v-7.5h-7.7v7.5h-3.6V3.3h3.6v7.4h7.7V3.3H77.1z"></path>
	<path class="st11" d="M93.1,6.2H88v14.5h-3.6V6.2h-5.1V3.3h13.8V6.2z"></path>
	<path class="st11" d="M114.5,3.3v17.4h-3.2V10c0-0.2,0-0.5,0-0.7c0-0.3,0-0.5,0.1-0.8l-5,9.4c-0.3,0.5-0.7,0.8-1.3,0.8h-0.5   c-0.3,0-0.5-0.1-0.7-0.2s-0.4-0.3-0.5-0.6l-5-9.5c0,0.3,0,0.5,0.1,0.8s0,0.5,0,0.7v10.7h-3.2V3.3H98c0.2,0,0.3,0,0.4,0   c0.1,0,0.2,0,0.3,0.1c0.1,0,0.2,0.1,0.3,0.2c0.1,0.1,0.1,0.2,0.2,0.3l4.9,9.3c0.2,0.3,0.3,0.6,0.4,0.9c0.1,0.3,0.3,0.6,0.4,0.9   c0.1-0.3,0.2-0.6,0.4-0.9c0.1-0.3,0.3-0.6,0.4-0.9l4.8-9.3c0.1-0.1,0.1-0.2,0.2-0.3c0.1-0.1,0.2-0.1,0.3-0.2c0.1,0,0.2-0.1,0.3-0.1   c0.1,0,0.3,0,0.4,0H114.5z"></path>
	<path class="st11" d="M128.4,17.8v2.9h-10.3V3.3h3.6v14.5H128.4z"></path>
</g>
<g class="st10">
	<path class="st11" d="M60.2,36.7c-0.1,0.2-0.2,0.3-0.3,0.4s-0.2,0.1-0.4,0.1c-0.2,0-0.3-0.1-0.5-0.2c-0.2-0.1-0.4-0.2-0.6-0.4   c-0.2-0.1-0.5-0.2-0.8-0.4s-0.7-0.2-1.1-0.2c-0.7,0-1.3,0.2-1.6,0.5c-0.4,0.3-0.5,0.8-0.5,1.3c0,0.3,0.1,0.6,0.3,0.8   c0.2,0.2,0.5,0.4,0.8,0.6c0.3,0.2,0.7,0.3,1.1,0.4s0.8,0.3,1.3,0.4s0.9,0.3,1.3,0.5s0.8,0.5,1.1,0.8c0.3,0.3,0.6,0.7,0.8,1.1   c0.2,0.4,0.3,1,0.3,1.6c0,0.7-0.1,1.3-0.4,1.9c-0.2,0.6-0.6,1.1-1,1.6c-0.5,0.5-1,0.8-1.7,1.1s-1.4,0.4-2.3,0.4c-0.5,0-1,0-1.4-0.1   c-0.5-0.1-0.9-0.2-1.4-0.4s-0.9-0.4-1.3-0.6c-0.4-0.2-0.7-0.5-1-0.8l0.9-1.5c0.1-0.1,0.2-0.2,0.3-0.3c0.1-0.1,0.3-0.1,0.4-0.1   c0.2,0,0.4,0.1,0.6,0.2s0.5,0.3,0.7,0.5s0.6,0.3,1,0.5c0.4,0.1,0.8,0.2,1.3,0.2c0.7,0,1.3-0.2,1.7-0.5c0.4-0.3,0.6-0.8,0.6-1.5   c0-0.4-0.1-0.7-0.3-0.9c-0.2-0.2-0.5-0.4-0.8-0.6c-0.3-0.2-0.7-0.3-1.1-0.4c-0.4-0.1-0.8-0.2-1.3-0.4c-0.4-0.1-0.9-0.3-1.3-0.5   c-0.4-0.2-0.8-0.5-1.1-0.8c-0.3-0.3-0.6-0.7-0.8-1.2c-0.2-0.5-0.3-1.1-0.3-1.8c0-0.6,0.1-1.1,0.3-1.6s0.6-1,1-1.4s1-0.7,1.6-1   c0.6-0.3,1.4-0.4,2.2-0.4c0.9,0,1.8,0.1,2.5,0.4c0.8,0.3,1.4,0.7,2,1.2L60.2,36.7z"></path>
	<path class="st11" d="M66.4,49.1c-0.5,0-0.9-0.1-1.3-0.2c-0.4-0.1-0.7-0.3-1-0.6c-0.3-0.3-0.5-0.6-0.6-1c-0.1-0.4-0.2-0.8-0.2-1.3   v-5.8h-1c-0.2,0-0.3,0-0.4-0.1c-0.1-0.1-0.2-0.2-0.2-0.4v-1.1l1.7-0.3l0.6-2.8c0.1-0.3,0.3-0.5,0.6-0.5h1.5v3.3h2.8v2h-2.8v5.6   c0,0.3,0.1,0.5,0.2,0.7c0.1,0.2,0.3,0.3,0.6,0.3c0.1,0,0.3,0,0.4,0c0.1,0,0.2-0.1,0.3-0.1c0.1,0,0.1-0.1,0.2-0.1c0.1,0,0.1,0,0.2,0   c0.1,0,0.2,0,0.2,0.1c0.1,0,0.1,0.1,0.2,0.2l0.9,1.4c-0.4,0.3-0.9,0.6-1.4,0.7S66.9,49.1,66.4,49.1z"></path>
	<path class="st11" d="M73.3,39.9c0.3-0.6,0.7-1.1,1.2-1.5c0.4-0.4,1-0.5,1.6-0.5c0.5,0,0.9,0.1,1.2,0.3l-0.2,2.1   c0,0.1-0.1,0.2-0.2,0.3c-0.1,0.1-0.2,0.1-0.3,0.1c-0.1,0-0.3,0-0.5,0c-0.2,0-0.4,0-0.6,0c-0.3,0-0.5,0-0.7,0.1s-0.4,0.2-0.6,0.3   c-0.2,0.1-0.3,0.3-0.4,0.5c-0.1,0.2-0.2,0.4-0.4,0.7V49h-2.9V38.2h1.7c0.3,0,0.5,0.1,0.6,0.2c0.1,0.1,0.2,0.3,0.2,0.5L73.3,39.9z"></path>
	<path class="st11" d="M88,38.2V49h-1.8c-0.4,0-0.6-0.2-0.7-0.5l-0.2-0.8c-0.2,0.2-0.4,0.4-0.7,0.6s-0.5,0.3-0.7,0.5   c-0.3,0.1-0.5,0.2-0.9,0.3c-0.3,0.1-0.6,0.1-1,0.1c-0.6,0-1.1-0.1-1.6-0.3s-0.8-0.5-1.1-0.9c-0.3-0.4-0.5-0.8-0.7-1.3   s-0.2-1.1-0.2-1.7v-6.9h2.9V45c0,0.6,0.1,1.1,0.4,1.4c0.3,0.3,0.7,0.5,1.2,0.5c0.4,0,0.8-0.1,1.1-0.3c0.4-0.2,0.7-0.4,1-0.7v-7.8   H88z"></path>
	<path class="st11" d="M98.3,40.6c-0.1,0.1-0.2,0.2-0.3,0.3s-0.2,0.1-0.4,0.1c-0.1,0-0.3,0-0.4-0.1c-0.1-0.1-0.3-0.2-0.4-0.3   s-0.4-0.2-0.6-0.3c-0.2-0.1-0.5-0.1-0.9-0.1c-0.4,0-0.8,0.1-1.1,0.2c-0.3,0.2-0.6,0.4-0.8,0.7s-0.4,0.7-0.5,1.1s-0.2,0.9-0.2,1.4   c0,1.1,0.2,2,0.7,2.5c0.4,0.6,1.1,0.9,1.8,0.9c0.3,0,0.5,0,0.7-0.1c0.2,0,0.4-0.1,0.5-0.2c0.1-0.1,0.3-0.1,0.4-0.2s0.2-0.2,0.3-0.2   c0.1-0.1,0.2-0.1,0.3-0.2c0.1,0,0.2-0.1,0.3-0.1c0.2,0,0.4,0.1,0.5,0.3l0.8,1c-0.3,0.4-0.6,0.7-1,0.9c-0.4,0.2-0.7,0.4-1.1,0.6   c-0.4,0.1-0.8,0.2-1.1,0.3c-0.4,0.1-0.8,0.1-1.1,0.1c-0.7,0-1.3-0.1-1.9-0.4c-0.6-0.2-1.1-0.6-1.6-1.1c-0.4-0.5-0.8-1.1-1.1-1.8   c-0.3-0.7-0.4-1.5-0.4-2.4c0-0.8,0.1-1.5,0.3-2.2c0.2-0.7,0.6-1.3,1-1.8c0.4-0.5,1-0.9,1.7-1.2s1.4-0.4,2.3-0.4   c0.8,0,1.6,0.1,2.2,0.4c0.6,0.3,1.2,0.7,1.7,1.2L98.3,40.6z"></path>
	<path class="st11" d="M104.3,49.1c-0.5,0-0.9-0.1-1.3-0.2c-0.4-0.1-0.7-0.3-1-0.6c-0.3-0.3-0.5-0.6-0.6-1c-0.1-0.4-0.2-0.8-0.2-1.3   v-5.8h-1c-0.2,0-0.3,0-0.4-0.1c-0.1-0.1-0.2-0.2-0.2-0.4v-1.1l1.7-0.3l0.6-2.8c0.1-0.3,0.3-0.5,0.6-0.5h1.5v3.3h2.8v2h-2.8v5.6   c0,0.3,0.1,0.5,0.2,0.7c0.1,0.2,0.3,0.3,0.6,0.3c0.1,0,0.3,0,0.4,0c0.1,0,0.2-0.1,0.3-0.1c0.1,0,0.1-0.1,0.2-0.1c0.1,0,0.1,0,0.2,0   c0.1,0,0.2,0,0.2,0.1c0.1,0,0.1,0.1,0.2,0.2l0.9,1.4c-0.4,0.3-0.9,0.6-1.4,0.7S104.8,49.1,104.3,49.1z"></path>
	<path class="st11" d="M118,38.2V49h-1.8c-0.4,0-0.6-0.2-0.7-0.5l-0.2-0.8c-0.2,0.2-0.4,0.4-0.7,0.6s-0.5,0.3-0.7,0.5   c-0.3,0.1-0.5,0.2-0.9,0.3c-0.3,0.1-0.6,0.1-1,0.1c-0.6,0-1.1-0.1-1.6-0.3s-0.8-0.5-1.1-0.9c-0.3-0.4-0.5-0.8-0.7-1.3   s-0.2-1.1-0.2-1.7v-6.9h2.9V45c0,0.6,0.1,1.1,0.4,1.4c0.3,0.3,0.7,0.5,1.2,0.5c0.4,0,0.8-0.1,1.1-0.3c0.4-0.2,0.7-0.4,1-0.7v-7.8   H118z"></path>
	<path class="st11" d="M123.1,39.9c0.3-0.6,0.7-1.1,1.2-1.5c0.4-0.4,1-0.5,1.6-0.5c0.5,0,0.9,0.1,1.2,0.3l-0.2,2.1   c0,0.1-0.1,0.2-0.2,0.3c-0.1,0.1-0.2,0.1-0.3,0.1c-0.1,0-0.3,0-0.5,0c-0.2,0-0.4,0-0.6,0c-0.3,0-0.5,0-0.7,0.1s-0.4,0.2-0.6,0.3   c-0.2,0.1-0.3,0.3-0.4,0.5c-0.1,0.2-0.2,0.4-0.4,0.7V49h-2.9V38.2h1.7c0.3,0,0.5,0.1,0.6,0.2c0.1,0.1,0.2,0.3,0.2,0.5L123.1,39.9z"></path>
	<path class="st11" d="M130.4,44c0.1,1,0.4,1.8,0.9,2.2c0.5,0.5,1.1,0.7,1.9,0.7c0.4,0,0.7,0,1-0.1c0.3-0.1,0.5-0.2,0.8-0.3   c0.2-0.1,0.4-0.2,0.6-0.3s0.4-0.1,0.5-0.1c0.2,0,0.4,0.1,0.5,0.3l0.8,1c-0.3,0.4-0.6,0.7-1,0.9c-0.4,0.2-0.8,0.4-1.2,0.6   c-0.4,0.1-0.8,0.2-1.2,0.3c-0.4,0.1-0.8,0.1-1.2,0.1c-0.8,0-1.5-0.1-2.1-0.4c-0.7-0.2-1.2-0.6-1.7-1.1c-0.5-0.5-0.9-1.1-1.1-1.8   c-0.3-0.7-0.4-1.6-0.4-2.5c0-0.7,0.1-1.4,0.4-2.1c0.2-0.7,0.6-1.2,1-1.7c0.5-0.5,1-0.9,1.7-1.1s1.4-0.4,2.2-0.4   c0.7,0,1.3,0.1,1.9,0.3c0.6,0.2,1.1,0.5,1.5,1c0.4,0.4,0.8,0.9,1,1.5s0.4,1.3,0.4,2.1c0,0.2,0,0.4,0,0.5c0,0.1-0.1,0.3-0.1,0.3   c0,0.1-0.1,0.1-0.2,0.2s-0.2,0-0.3,0H130.4z M134.9,42.3c0-0.3,0-0.6-0.1-0.9c-0.1-0.3-0.2-0.5-0.4-0.7c-0.2-0.2-0.4-0.4-0.7-0.5   c-0.3-0.1-0.6-0.2-1-0.2c-0.7,0-1.2,0.2-1.6,0.6c-0.4,0.4-0.6,1-0.8,1.7H134.9z"></path>
</g>
<g class="st10">
	<path class="st11" d="M422.3,16.4c0.2,0,0.4,0.1,0.5,0.2l1.4,1.5c-0.7,0.9-1.6,1.6-2.6,2c-1,0.5-2.3,0.7-3.7,0.7   c-1.3,0-2.5-0.2-3.5-0.7c-1-0.4-1.9-1.1-2.7-1.9c-0.7-0.8-1.3-1.7-1.7-2.8c-0.4-1.1-0.6-2.3-0.6-3.6c0-0.9,0.1-1.7,0.3-2.5   c0.2-0.8,0.5-1.5,0.8-2.2c0.4-0.7,0.8-1.2,1.3-1.8c0.5-0.5,1.1-1,1.7-1.3c0.6-0.4,1.3-0.7,2.1-0.9c0.8-0.2,1.6-0.3,2.4-0.3   c0.6,0,1.2,0.1,1.8,0.2c0.6,0.1,1.1,0.3,1.6,0.5c0.5,0.2,1,0.4,1.4,0.7c0.4,0.3,0.8,0.6,1.1,0.9L422.8,7c-0.1,0.1-0.2,0.2-0.3,0.3   c-0.1,0.1-0.3,0.1-0.5,0.1c-0.2,0-0.4-0.1-0.6-0.2c-0.2-0.1-0.4-0.3-0.7-0.5s-0.6-0.3-1.1-0.5c-0.4-0.1-1-0.2-1.6-0.2   c-0.7,0-1.4,0.1-2,0.4c-0.6,0.3-1.1,0.6-1.6,1.1c-0.4,0.5-0.8,1.1-1,1.8c-0.2,0.7-0.4,1.6-0.4,2.5c0,0.9,0.1,1.8,0.4,2.5   c0.3,0.7,0.6,1.3,1.1,1.9c0.5,0.5,1,0.9,1.6,1.1c0.6,0.3,1.2,0.4,1.9,0.4c0.4,0,0.8,0,1.1-0.1s0.6-0.1,0.9-0.2s0.6-0.2,0.8-0.4   c0.3-0.2,0.5-0.3,0.8-0.6c0.1-0.1,0.2-0.1,0.3-0.2C422.1,16.4,422.2,16.4,422.3,16.4z"></path>
	<path class="st11" d="M435.7,6.6c-0.1,0.2-0.2,0.3-0.3,0.4c-0.1,0.1-0.3,0.1-0.5,0.1c-0.2,0-0.4-0.1-0.6-0.2s-0.4-0.3-0.7-0.4   c-0.3-0.1-0.6-0.3-0.9-0.4C432.3,6,431.9,6,431.5,6c-0.8,0-1.5,0.2-1.9,0.6C429.2,6.9,429,7.4,429,8c0,0.4,0.1,0.7,0.3,1   s0.5,0.5,0.9,0.7c0.4,0.2,0.8,0.3,1.3,0.5c0.5,0.1,1,0.3,1.5,0.5c0.5,0.2,1,0.4,1.5,0.6c0.5,0.2,0.9,0.5,1.3,0.9   c0.4,0.4,0.7,0.8,0.9,1.3c0.2,0.5,0.3,1.1,0.3,1.9c0,0.8-0.1,1.5-0.4,2.2c-0.3,0.7-0.7,1.3-1.2,1.8c-0.5,0.5-1.2,0.9-1.9,1.2   s-1.6,0.4-2.6,0.4c-0.6,0-1.1-0.1-1.6-0.2c-0.5-0.1-1.1-0.3-1.6-0.5c-0.5-0.2-1-0.4-1.4-0.7c-0.4-0.3-0.8-0.6-1.2-0.9l1.1-1.7   c0.1-0.1,0.2-0.2,0.3-0.3s0.3-0.1,0.5-0.1c0.2,0,0.4,0.1,0.7,0.2s0.5,0.3,0.8,0.5c0.3,0.2,0.7,0.4,1.1,0.5s0.9,0.2,1.5,0.2   c0.8,0,1.5-0.2,2-0.6c0.5-0.4,0.7-1,0.7-1.7c0-0.4-0.1-0.8-0.3-1.1c-0.2-0.3-0.5-0.5-0.9-0.7c-0.4-0.2-0.8-0.3-1.3-0.5   c-0.5-0.1-1-0.3-1.5-0.4s-1-0.4-1.5-0.6c-0.5-0.2-0.9-0.5-1.3-0.9c-0.4-0.4-0.7-0.8-0.9-1.4s-0.3-1.2-0.3-2c0-0.6,0.1-1.3,0.4-1.9   c0.3-0.6,0.6-1.1,1.1-1.6c0.5-0.5,1.1-0.9,1.8-1.1s1.6-0.4,2.5-0.4c1,0,2,0.2,2.9,0.5s1.6,0.8,2.3,1.4L435.7,6.6z"></path>
	<path class="st11" d="M448.9,6.6c-0.1,0.2-0.2,0.3-0.3,0.4s-0.3,0.1-0.5,0.1c-0.2,0-0.4-0.1-0.6-0.2s-0.4-0.3-0.7-0.4   c-0.3-0.1-0.6-0.3-0.9-0.4S445.2,6,444.7,6c-0.8,0-1.5,0.2-1.9,0.6c-0.4,0.4-0.6,0.9-0.6,1.5c0,0.4,0.1,0.7,0.3,1   c0.2,0.3,0.5,0.5,0.9,0.7c0.4,0.2,0.8,0.3,1.3,0.5c0.5,0.1,1,0.3,1.5,0.5c0.5,0.2,1,0.4,1.5,0.6c0.5,0.2,0.9,0.5,1.3,0.9   c0.4,0.4,0.7,0.8,0.9,1.3c0.2,0.5,0.3,1.1,0.3,1.9c0,0.8-0.1,1.5-0.4,2.2c-0.3,0.7-0.7,1.3-1.2,1.8c-0.5,0.5-1.2,0.9-1.9,1.2   c-0.8,0.3-1.6,0.4-2.6,0.4c-0.6,0-1.1-0.1-1.6-0.2c-0.5-0.1-1.1-0.3-1.6-0.5c-0.5-0.2-1-0.4-1.4-0.7c-0.4-0.3-0.8-0.6-1.2-0.9   l1.1-1.7c0.1-0.1,0.2-0.2,0.3-0.3s0.3-0.1,0.5-0.1c0.2,0,0.4,0.1,0.7,0.2s0.5,0.3,0.8,0.5c0.3,0.2,0.7,0.4,1.1,0.5s0.9,0.2,1.5,0.2   c0.8,0,1.5-0.2,2-0.6c0.5-0.4,0.7-1,0.7-1.7c0-0.4-0.1-0.8-0.3-1.1c-0.2-0.3-0.5-0.5-0.9-0.7c-0.4-0.2-0.8-0.3-1.3-0.5   c-0.5-0.1-1-0.3-1.5-0.4s-1-0.4-1.5-0.6c-0.5-0.2-0.9-0.5-1.3-0.9c-0.4-0.4-0.7-0.8-0.9-1.4s-0.3-1.2-0.3-2c0-0.6,0.1-1.3,0.4-1.9   c0.3-0.6,0.6-1.1,1.1-1.6c0.5-0.5,1.1-0.9,1.8-1.1c0.7-0.3,1.6-0.4,2.5-0.4c1,0,2,0.2,2.9,0.5c0.9,0.3,1.6,0.8,2.3,1.4L448.9,6.6z"></path>
</g>
<g class="st10">
	<path class="st11" d="M390.1,49h-2.4c-0.3,0-0.5-0.1-0.7-0.2c-0.2-0.1-0.3-0.3-0.4-0.5l-1-2.9h-6.1l-1,2.9   c-0.1,0.2-0.2,0.3-0.4,0.5s-0.4,0.2-0.7,0.2H375l6-15.2h3.2L390.1,49z M384.8,43.2l-1.6-4.7c-0.1-0.2-0.2-0.5-0.3-0.9   s-0.2-0.7-0.3-1.1c-0.1,0.4-0.2,0.8-0.3,1.1c-0.1,0.3-0.2,0.6-0.3,0.9l-1.6,4.6H384.8z"></path>
	<path class="st11" d="M393.8,39.6c0.2-0.2,0.4-0.5,0.7-0.7c0.2-0.2,0.5-0.4,0.8-0.5c0.3-0.1,0.6-0.3,0.9-0.3c0.3-0.1,0.7-0.1,1-0.1   c0.6,0,1.1,0.1,1.6,0.4c0.5,0.2,0.9,0.6,1.3,1.1s0.6,1.1,0.8,1.7c0.2,0.7,0.3,1.5,0.3,2.4c0,0.8-0.1,1.6-0.3,2.3   c-0.2,0.7-0.5,1.3-0.9,1.8c-0.4,0.5-0.9,0.9-1.5,1.2c-0.6,0.3-1.2,0.4-1.9,0.4c-0.6,0-1.1-0.1-1.5-0.3c-0.4-0.2-0.8-0.4-1.1-0.7   v4.3h-2.9V38.2h1.8c0.4,0,0.6,0.2,0.7,0.5L393.8,39.6z M394,46.1c0.3,0.3,0.6,0.5,0.9,0.7c0.3,0.1,0.7,0.2,1,0.2   c0.4,0,0.7-0.1,1-0.2s0.5-0.3,0.7-0.6c0.2-0.3,0.4-0.6,0.5-1.1c0.1-0.4,0.2-1,0.2-1.6c0-0.6,0-1.1-0.1-1.5c-0.1-0.4-0.2-0.8-0.4-1   s-0.4-0.4-0.6-0.6c-0.2-0.1-0.5-0.2-0.8-0.2c-0.5,0-0.9,0.1-1.3,0.3c-0.3,0.2-0.7,0.5-1,0.9V46.1z"></path>
	<path class="st11" d="M405.8,39.6c0.2-0.2,0.4-0.5,0.7-0.7c0.2-0.2,0.5-0.4,0.8-0.5c0.3-0.1,0.6-0.3,0.9-0.3c0.3-0.1,0.7-0.1,1-0.1   c0.6,0,1.1,0.1,1.6,0.4c0.5,0.2,0.9,0.6,1.3,1.1s0.6,1.1,0.8,1.7c0.2,0.7,0.3,1.5,0.3,2.4c0,0.8-0.1,1.6-0.3,2.3   c-0.2,0.7-0.5,1.3-0.9,1.8c-0.4,0.5-0.9,0.9-1.5,1.2c-0.6,0.3-1.2,0.4-1.9,0.4c-0.6,0-1.1-0.1-1.5-0.3c-0.4-0.2-0.8-0.4-1.1-0.7   v4.3h-2.9V38.2h1.8c0.4,0,0.6,0.2,0.7,0.5L405.8,39.6z M406,46.1c0.3,0.3,0.6,0.5,0.9,0.7c0.3,0.1,0.7,0.2,1,0.2   c0.4,0,0.7-0.1,1-0.2s0.5-0.3,0.7-0.6c0.2-0.3,0.4-0.6,0.5-1.1c0.1-0.4,0.2-1,0.2-1.6c0-0.6,0-1.1-0.1-1.5c-0.1-0.4-0.2-0.8-0.4-1   s-0.4-0.4-0.6-0.6c-0.2-0.1-0.5-0.2-0.8-0.2c-0.5,0-0.9,0.1-1.3,0.3c-0.3,0.2-0.7,0.5-1,0.9V46.1z"></path>
	<path class="st11" d="M417.4,44c0.1,1,0.4,1.8,0.9,2.2c0.5,0.5,1.1,0.7,1.9,0.7c0.4,0,0.7,0,1-0.1c0.3-0.1,0.5-0.2,0.8-0.3   c0.2-0.1,0.4-0.2,0.6-0.3s0.4-0.1,0.5-0.1c0.2,0,0.4,0.1,0.5,0.3l0.8,1c-0.3,0.4-0.6,0.7-1,0.9c-0.4,0.2-0.8,0.4-1.2,0.6   c-0.4,0.1-0.8,0.2-1.2,0.3c-0.4,0.1-0.8,0.1-1.2,0.1c-0.8,0-1.5-0.1-2.1-0.4c-0.7-0.2-1.2-0.6-1.7-1.1c-0.5-0.5-0.9-1.1-1.1-1.8   c-0.3-0.7-0.4-1.6-0.4-2.5c0-0.7,0.1-1.4,0.4-2.1c0.2-0.7,0.6-1.2,1-1.7c0.5-0.5,1-0.9,1.7-1.1s1.4-0.4,2.2-0.4   c0.7,0,1.3,0.1,1.9,0.3c0.6,0.2,1.1,0.5,1.5,1c0.4,0.4,0.8,0.9,1,1.5s0.4,1.3,0.4,2.1c0,0.2,0,0.4,0,0.5c0,0.1-0.1,0.3-0.1,0.3   c0,0.1-0.1,0.1-0.2,0.2s-0.2,0-0.3,0H417.4z M422,42.3c0-0.3,0-0.6-0.1-0.9c-0.1-0.3-0.2-0.5-0.4-0.7c-0.2-0.2-0.4-0.4-0.7-0.5   c-0.3-0.1-0.6-0.2-1-0.2c-0.7,0-1.2,0.2-1.6,0.6c-0.4,0.4-0.6,1-0.8,1.7H422z"></path>
	<path class="st11" d="M426.1,39.7c0.6-0.6,1.3-1,2.1-1.3s1.6-0.4,2.5-0.4c0.6,0,1.2,0.1,1.7,0.3c0.5,0.2,0.9,0.5,1.3,0.9   c0.4,0.4,0.6,0.8,0.8,1.3s0.3,1.1,0.3,1.7V49h-1.3c-0.3,0-0.5,0-0.6-0.1c-0.1-0.1-0.3-0.2-0.4-0.5l-0.2-0.7   c-0.3,0.2-0.5,0.4-0.8,0.6c-0.3,0.2-0.5,0.3-0.8,0.5c-0.3,0.1-0.6,0.2-0.9,0.3c-0.3,0.1-0.7,0.1-1,0.1c-0.5,0-0.9-0.1-1.3-0.2   c-0.4-0.1-0.7-0.3-1-0.6c-0.3-0.2-0.5-0.6-0.7-0.9s-0.2-0.8-0.2-1.3c0-0.4,0.1-0.8,0.3-1.2c0.2-0.4,0.6-0.8,1-1.1   c0.5-0.3,1.2-0.6,2-0.8c0.8-0.2,1.9-0.3,3.1-0.4v-0.6c0-0.7-0.1-1.2-0.4-1.5c-0.3-0.3-0.7-0.5-1.2-0.5c-0.4,0-0.7,0-1,0.1   c-0.3,0.1-0.5,0.2-0.7,0.3c-0.2,0.1-0.4,0.2-0.6,0.3c-0.2,0.1-0.4,0.1-0.6,0.1c-0.2,0-0.4-0.1-0.5-0.2c-0.1-0.1-0.2-0.2-0.3-0.4   L426.1,39.7z M432,44.5c-0.7,0-1.3,0.1-1.8,0.2c-0.5,0.1-0.8,0.2-1.1,0.3c-0.3,0.1-0.5,0.3-0.6,0.5c-0.1,0.2-0.2,0.4-0.2,0.6   c0,0.4,0.1,0.7,0.4,0.9c0.2,0.2,0.6,0.3,1,0.3c0.5,0,0.9-0.1,1.3-0.3c0.4-0.2,0.7-0.4,1.1-0.8V44.5z"></path>
</g>
<g class="st10">
	<path class="st11" d="M439.6,39.9c0.3-0.6,0.7-1.1,1.2-1.5c0.4-0.4,1-0.5,1.6-0.5c0.5,0,0.9,0.1,1.2,0.3l-0.2,2.1   c0,0.1-0.1,0.2-0.2,0.3c-0.1,0.1-0.2,0.1-0.3,0.1c-0.1,0-0.3,0-0.5,0c-0.2,0-0.4,0-0.6,0c-0.3,0-0.5,0-0.7,0.1   c-0.2,0.1-0.4,0.2-0.6,0.3c-0.2,0.1-0.3,0.3-0.4,0.5c-0.1,0.2-0.2,0.4-0.4,0.7V49h-2.9V38.2h1.7c0.3,0,0.5,0.1,0.6,0.2   c0.1,0.1,0.2,0.3,0.2,0.5L439.6,39.9z"></path>
</g>
<g class="st10">
	<path class="st11" d="M444.7,39.7c0.6-0.6,1.3-1,2.1-1.3c0.8-0.3,1.6-0.4,2.5-0.4c0.6,0,1.2,0.1,1.7,0.3c0.5,0.2,0.9,0.5,1.3,0.9   c0.4,0.4,0.6,0.8,0.8,1.3c0.2,0.5,0.3,1.1,0.3,1.7V49h-1.3c-0.3,0-0.5,0-0.6-0.1s-0.3-0.2-0.4-0.5l-0.2-0.7   c-0.3,0.2-0.5,0.4-0.8,0.6c-0.3,0.2-0.5,0.3-0.8,0.5c-0.3,0.1-0.6,0.2-0.9,0.3c-0.3,0.1-0.7,0.1-1,0.1c-0.5,0-0.9-0.1-1.3-0.2   c-0.4-0.1-0.7-0.3-1-0.6c-0.3-0.2-0.5-0.6-0.7-0.9c-0.2-0.4-0.2-0.8-0.2-1.3c0-0.4,0.1-0.8,0.3-1.2c0.2-0.4,0.6-0.8,1-1.1   c0.5-0.3,1.2-0.6,2-0.8c0.8-0.2,1.9-0.3,3.1-0.4v-0.6c0-0.7-0.1-1.2-0.4-1.5c-0.3-0.3-0.7-0.5-1.2-0.5c-0.4,0-0.7,0-1,0.1   c-0.3,0.1-0.5,0.2-0.7,0.3c-0.2,0.1-0.4,0.2-0.6,0.3s-0.4,0.1-0.6,0.1c-0.2,0-0.4-0.1-0.5-0.2c-0.1-0.1-0.2-0.2-0.3-0.4L444.7,39.7   z M450.6,44.5c-0.7,0-1.3,0.1-1.8,0.2c-0.5,0.1-0.8,0.2-1.1,0.3c-0.3,0.1-0.5,0.3-0.6,0.5c-0.1,0.2-0.2,0.4-0.2,0.6   c0,0.4,0.1,0.7,0.4,0.9c0.2,0.2,0.6,0.3,1,0.3c0.5,0,0.9-0.1,1.3-0.3c0.4-0.2,0.7-0.4,1.1-0.8V44.5z"></path>
	<path class="st11" d="M458.4,39.4c0.2-0.2,0.4-0.4,0.7-0.6c0.2-0.2,0.5-0.3,0.7-0.5c0.3-0.1,0.5-0.2,0.9-0.3c0.3-0.1,0.6-0.1,1-0.1   c0.6,0,1.1,0.1,1.6,0.3c0.5,0.2,0.8,0.5,1.2,0.9c0.3,0.4,0.5,0.8,0.7,1.3s0.2,1.1,0.2,1.7V49h-2.9v-6.9c0-0.6-0.1-1.1-0.4-1.4   c-0.3-0.3-0.7-0.5-1.2-0.5c-0.4,0-0.8,0.1-1.1,0.3c-0.4,0.2-0.7,0.4-1,0.7V49h-2.9V38.2h1.8c0.4,0,0.6,0.2,0.7,0.5L458.4,39.4z"></path>
	<path class="st11" d="M475.4,40.6c-0.1,0.1-0.2,0.2-0.3,0.3s-0.2,0.1-0.4,0.1c-0.1,0-0.3,0-0.4-0.1c-0.1-0.1-0.3-0.2-0.4-0.3   s-0.4-0.2-0.6-0.3c-0.2-0.1-0.5-0.1-0.9-0.1c-0.4,0-0.8,0.1-1.1,0.2c-0.3,0.2-0.6,0.4-0.8,0.7s-0.4,0.7-0.5,1.1S470,43,470,43.6   c0,1.1,0.2,2,0.7,2.5c0.4,0.6,1.1,0.9,1.8,0.9c0.3,0,0.5,0,0.7-0.1c0.2,0,0.4-0.1,0.5-0.2c0.1-0.1,0.3-0.1,0.4-0.2   c0.1-0.1,0.2-0.2,0.3-0.2c0.1-0.1,0.2-0.1,0.3-0.2c0.1,0,0.2-0.1,0.3-0.1c0.2,0,0.4,0.1,0.5,0.3l0.8,1c-0.3,0.4-0.6,0.7-1,0.9   c-0.3,0.2-0.7,0.4-1.1,0.6c-0.4,0.1-0.8,0.2-1.1,0.3c-0.4,0.1-0.8,0.1-1.1,0.1c-0.7,0-1.3-0.1-1.9-0.4c-0.6-0.2-1.1-0.6-1.6-1.1   c-0.4-0.5-0.8-1.1-1.1-1.8c-0.3-0.7-0.4-1.5-0.4-2.4c0-0.8,0.1-1.5,0.3-2.2c0.2-0.7,0.6-1.3,1-1.8c0.4-0.5,1-0.9,1.7-1.2   c0.7-0.3,1.4-0.4,2.3-0.4c0.8,0,1.6,0.1,2.2,0.4c0.6,0.3,1.2,0.7,1.7,1.2L475.4,40.6z"></path>
	<path class="st11" d="M479.9,44c0.1,1,0.4,1.8,0.9,2.2c0.5,0.5,1.1,0.7,1.9,0.7c0.4,0,0.7,0,1-0.1c0.3-0.1,0.5-0.2,0.8-0.3   c0.2-0.1,0.4-0.2,0.6-0.3s0.4-0.1,0.5-0.1c0.2,0,0.4,0.1,0.5,0.3l0.8,1c-0.3,0.4-0.6,0.7-1,0.9c-0.4,0.2-0.8,0.4-1.2,0.6   c-0.4,0.1-0.8,0.2-1.2,0.3c-0.4,0.1-0.8,0.1-1.2,0.1c-0.8,0-1.5-0.1-2.1-0.4c-0.7-0.2-1.2-0.6-1.7-1.1s-0.9-1.1-1.1-1.8   c-0.3-0.7-0.4-1.6-0.4-2.5c0-0.7,0.1-1.4,0.4-2.1c0.2-0.7,0.6-1.2,1-1.7c0.5-0.5,1-0.9,1.7-1.1c0.7-0.3,1.4-0.4,2.2-0.4   c0.7,0,1.3,0.1,1.9,0.3c0.6,0.2,1.1,0.5,1.5,1c0.4,0.4,0.8,0.9,1,1.5s0.4,1.3,0.4,2.1c0,0.2,0,0.4,0,0.5c0,0.1-0.1,0.3-0.1,0.3   c0,0.1-0.1,0.1-0.2,0.2s-0.2,0-0.3,0H479.9z M484.4,42.3c0-0.3,0-0.6-0.1-0.9c-0.1-0.3-0.2-0.5-0.4-0.7c-0.2-0.2-0.4-0.4-0.7-0.5   c-0.3-0.1-0.6-0.2-1-0.2c-0.7,0-1.2,0.2-1.6,0.6c-0.4,0.4-0.6,1-0.8,1.7H484.4z"></path>
</g>
<g class="st10">
	<path class="st11" d="M740.7,14.4c0,1-0.1,1.9-0.4,2.6s-0.6,1.5-1.1,2c-0.5,0.6-1.1,1-1.8,1.3c-0.7,0.3-1.6,0.5-2.5,0.5   c-0.4,0-0.9,0-1.3-0.1c-0.4-0.1-0.9-0.1-1.3-0.2c0-0.4,0.1-0.7,0.1-1.1c0-0.4,0.1-0.7,0.1-1.1c0-0.2,0.1-0.3,0.2-0.5   c0.1-0.1,0.3-0.2,0.6-0.2c0.1,0,0.3,0,0.5,0.1c0.2,0,0.5,0.1,0.8,0.1c0.4,0,0.8-0.1,1.1-0.2c0.3-0.1,0.6-0.3,0.8-0.6   c0.2-0.3,0.4-0.6,0.5-1.1c0.1-0.4,0.2-1,0.2-1.6V3.3h3.6V14.4z"></path>
</g>
<g class="st10">
	<path class="st11" d="M743.8,10c0.7-0.7,1.5-1.1,2.4-1.5s1.8-0.5,2.9-0.5c0.7,0,1.4,0.1,2,0.4s1.1,0.6,1.5,1   c0.4,0.4,0.7,0.9,0.9,1.5s0.3,1.2,0.3,1.9v7.8h-1.5c-0.3,0-0.5,0-0.7-0.1s-0.3-0.3-0.4-0.6l-0.3-0.8c-0.3,0.3-0.6,0.5-0.9,0.7   c-0.3,0.2-0.6,0.4-0.9,0.5c-0.3,0.1-0.6,0.2-1,0.3c-0.4,0.1-0.8,0.1-1.2,0.1c-0.5,0-1-0.1-1.5-0.2c-0.4-0.1-0.8-0.4-1.2-0.6   c-0.3-0.3-0.6-0.6-0.8-1.1c-0.2-0.4-0.3-0.9-0.3-1.5c0-0.5,0.1-0.9,0.3-1.4c0.2-0.5,0.6-0.9,1.2-1.2c0.6-0.4,1.3-0.7,2.3-0.9   c0.9-0.2,2.1-0.4,3.5-0.4v-0.6c0-0.8-0.2-1.3-0.5-1.7c-0.3-0.4-0.8-0.5-1.4-0.5c-0.5,0-0.8,0.1-1.1,0.2c-0.3,0.1-0.6,0.2-0.8,0.3   c-0.2,0.1-0.4,0.2-0.6,0.3c-0.2,0.1-0.4,0.2-0.7,0.2c-0.2,0-0.4-0.1-0.6-0.2c-0.2-0.1-0.3-0.3-0.4-0.4L743.8,10z M750.5,15.5   c-0.8,0-1.5,0.1-2,0.2s-1,0.2-1.3,0.4c-0.3,0.2-0.5,0.3-0.7,0.5s-0.2,0.4-0.2,0.7c0,0.5,0.1,0.8,0.4,1c0.3,0.2,0.6,0.3,1.1,0.3   c0.6,0,1-0.1,1.4-0.3c0.4-0.2,0.8-0.5,1.2-0.9V15.5z"></path>
</g>
<g class="st10">
	<path class="st11" d="M767.8,8.3L763,20.7h-3l-4.9-12.4h2.7c0.2,0,0.4,0.1,0.6,0.2s0.3,0.3,0.3,0.4l2.1,6.1   c0.1,0.4,0.3,0.8,0.4,1.2c0.1,0.4,0.2,0.8,0.3,1.2c0.1-0.4,0.2-0.8,0.3-1.2c0.1-0.4,0.2-0.8,0.4-1.2l2.1-6.1   c0.1-0.2,0.2-0.3,0.3-0.4c0.2-0.1,0.3-0.2,0.6-0.2H767.8z"></path>
	<path class="st11" d="M768.7,10c0.7-0.7,1.5-1.1,2.4-1.5s1.8-0.5,2.9-0.5c0.7,0,1.4,0.1,2,0.4s1.1,0.6,1.5,1   c0.4,0.4,0.7,0.9,0.9,1.5s0.3,1.2,0.3,1.9v7.8h-1.5c-0.3,0-0.5,0-0.7-0.1s-0.3-0.3-0.4-0.6l-0.3-0.8c-0.3,0.3-0.6,0.5-0.9,0.7   c-0.3,0.2-0.6,0.4-0.9,0.5c-0.3,0.1-0.6,0.2-1,0.3c-0.4,0.1-0.8,0.1-1.2,0.1c-0.5,0-1-0.1-1.5-0.2c-0.4-0.1-0.8-0.4-1.2-0.6   c-0.3-0.3-0.6-0.6-0.8-1.1c-0.2-0.4-0.3-0.9-0.3-1.5c0-0.5,0.1-0.9,0.3-1.4c0.2-0.5,0.6-0.9,1.2-1.2c0.6-0.4,1.3-0.7,2.3-0.9   c0.9-0.2,2.1-0.4,3.5-0.4v-0.6c0-0.8-0.2-1.3-0.5-1.7c-0.3-0.4-0.8-0.5-1.4-0.5c-0.5,0-0.8,0.1-1.1,0.2c-0.3,0.1-0.6,0.2-0.8,0.3   c-0.2,0.1-0.4,0.2-0.6,0.3c-0.2,0.1-0.4,0.2-0.7,0.2c-0.2,0-0.4-0.1-0.6-0.2c-0.2-0.1-0.3-0.3-0.4-0.4L768.7,10z M775.4,15.5   c-0.8,0-1.5,0.1-2,0.2s-1,0.2-1.3,0.4c-0.3,0.2-0.5,0.3-0.7,0.5s-0.2,0.4-0.2,0.7c0,0.5,0.1,0.8,0.4,1c0.3,0.2,0.6,0.3,1.1,0.3   c0.6,0,1-0.1,1.4-0.3c0.4-0.2,0.8-0.5,1.2-0.9V15.5z"></path>
	<path class="st11" d="M791.1,6.6c-0.1,0.2-0.2,0.3-0.3,0.4s-0.3,0.1-0.5,0.1c-0.2,0-0.4-0.1-0.6-0.2s-0.4-0.3-0.7-0.4   c-0.3-0.1-0.6-0.3-0.9-0.4S787.3,6,786.9,6c-0.8,0-1.5,0.2-1.9,0.6c-0.4,0.4-0.6,0.9-0.6,1.5c0,0.4,0.1,0.7,0.3,1   c0.2,0.3,0.5,0.5,0.9,0.7c0.4,0.2,0.8,0.3,1.3,0.5c0.5,0.1,1,0.3,1.5,0.5c0.5,0.2,1,0.4,1.5,0.6c0.5,0.2,0.9,0.5,1.3,0.9   c0.4,0.4,0.7,0.8,0.9,1.3c0.2,0.5,0.3,1.1,0.3,1.9c0,0.8-0.1,1.5-0.4,2.2c-0.3,0.7-0.7,1.3-1.2,1.8c-0.5,0.5-1.2,0.9-1.9,1.2   c-0.8,0.3-1.6,0.4-2.6,0.4c-0.6,0-1.1-0.1-1.6-0.2c-0.5-0.1-1.1-0.3-1.6-0.5c-0.5-0.2-1-0.4-1.4-0.7c-0.4-0.3-0.8-0.6-1.2-0.9   l1.1-1.7c0.1-0.1,0.2-0.2,0.3-0.3c0.1-0.1,0.3-0.1,0.5-0.1c0.2,0,0.4,0.1,0.7,0.2s0.5,0.3,0.8,0.5c0.3,0.2,0.7,0.4,1.1,0.5   s0.9,0.2,1.5,0.2c0.8,0,1.5-0.2,2-0.6c0.5-0.4,0.7-1,0.7-1.7c0-0.4-0.1-0.8-0.3-1.1c-0.2-0.3-0.5-0.5-0.9-0.7   c-0.4-0.2-0.8-0.3-1.3-0.5c-0.5-0.1-1-0.3-1.5-0.4s-1-0.4-1.5-0.6c-0.5-0.2-0.9-0.5-1.3-0.9s-0.7-0.8-0.9-1.4   c-0.2-0.5-0.3-1.2-0.3-2c0-0.6,0.1-1.3,0.4-1.9c0.3-0.6,0.6-1.1,1.1-1.6c0.5-0.5,1.1-0.9,1.8-1.1c0.7-0.3,1.6-0.4,2.5-0.4   c1,0,2,0.2,2.9,0.5c0.9,0.3,1.6,0.8,2.3,1.4L791.1,6.6z"></path>
	<path class="st11" d="M803.4,11.1c-0.1,0.1-0.2,0.2-0.3,0.3c-0.1,0.1-0.2,0.1-0.4,0.1c-0.2,0-0.3,0-0.5-0.1   c-0.1-0.1-0.3-0.2-0.5-0.3c-0.2-0.1-0.4-0.2-0.7-0.3c-0.3-0.1-0.6-0.1-1-0.1c-0.5,0-0.9,0.1-1.3,0.3c-0.4,0.2-0.7,0.4-0.9,0.8   s-0.4,0.7-0.5,1.2c-0.1,0.5-0.2,1-0.2,1.6c0,1.3,0.3,2.2,0.8,2.9c0.5,0.7,1.2,1,2.1,1c0.3,0,0.6,0,0.8-0.1c0.2-0.1,0.4-0.1,0.6-0.2   c0.2-0.1,0.3-0.2,0.4-0.3c0.1-0.1,0.2-0.2,0.3-0.3c0.1-0.1,0.2-0.1,0.3-0.2c0.1-0.1,0.2-0.1,0.4-0.1c0.3,0,0.5,0.1,0.6,0.3l0.9,1.2   c-0.4,0.4-0.7,0.7-1.1,1c-0.4,0.3-0.8,0.5-1.2,0.6c-0.4,0.2-0.9,0.3-1.3,0.3c-0.4,0.1-0.9,0.1-1.3,0.1c-0.8,0-1.5-0.1-2.2-0.4   s-1.3-0.7-1.8-1.2s-0.9-1.2-1.2-2s-0.5-1.7-0.5-2.7c0-0.9,0.1-1.7,0.4-2.5c0.3-0.8,0.7-1.4,1.2-2c0.5-0.6,1.1-1,1.9-1.3   s1.6-0.5,2.6-0.5c0.9,0,1.8,0.2,2.5,0.5c0.7,0.3,1.4,0.7,1.9,1.3L803.4,11.1z"></path>
	<path class="st11" d="M809.1,10.3c0.4-0.7,0.8-1.3,1.4-1.7c0.5-0.4,1.1-0.6,1.8-0.6c0.6,0,1,0.1,1.4,0.4l-0.2,2.4   c0,0.2-0.1,0.3-0.2,0.3c-0.1,0.1-0.2,0.1-0.3,0.1c-0.1,0-0.3,0-0.6-0.1c-0.2,0-0.5-0.1-0.7-0.1c-0.3,0-0.6,0-0.8,0.1   s-0.4,0.2-0.6,0.4c-0.2,0.2-0.4,0.4-0.5,0.6c-0.1,0.2-0.3,0.5-0.4,0.8v7.6H806V8.3h2c0.3,0,0.6,0.1,0.7,0.2   c0.1,0.1,0.2,0.3,0.3,0.6L809.1,10.3z"></path>
	<path class="st11" d="M818.9,4.8c0,0.3-0.1,0.5-0.2,0.8c-0.1,0.2-0.3,0.5-0.5,0.6c-0.2,0.2-0.4,0.3-0.7,0.4   c-0.3,0.1-0.5,0.2-0.8,0.2c-0.3,0-0.5-0.1-0.8-0.2c-0.2-0.1-0.5-0.2-0.6-0.4c-0.2-0.2-0.3-0.4-0.4-0.6c-0.1-0.2-0.2-0.5-0.2-0.8   s0.1-0.5,0.2-0.8c0.1-0.2,0.3-0.5,0.4-0.6c0.2-0.2,0.4-0.3,0.6-0.4c0.2-0.1,0.5-0.2,0.8-0.2c0.3,0,0.6,0.1,0.8,0.2   c0.3,0.1,0.5,0.2,0.7,0.4c0.2,0.2,0.3,0.4,0.5,0.6C818.8,4.3,818.9,4.5,818.9,4.8z M818.5,8.3v12.4h-3.3V8.3H818.5z"></path>
	<path class="st11" d="M824.4,9.9c0.2-0.3,0.5-0.5,0.8-0.8c0.3-0.2,0.6-0.4,0.9-0.6c0.3-0.2,0.7-0.3,1-0.4s0.8-0.1,1.2-0.1   c0.7,0,1.3,0.1,1.8,0.4c0.6,0.3,1,0.7,1.4,1.2c0.4,0.5,0.7,1.2,0.9,2c0.2,0.8,0.3,1.7,0.3,2.7c0,0.9-0.1,1.8-0.4,2.6   s-0.6,1.5-1.1,2s-1,1-1.7,1.4c-0.7,0.3-1.4,0.5-2.2,0.5c-0.7,0-1.2-0.1-1.7-0.3c-0.5-0.2-0.9-0.5-1.3-0.8v4.9h-3.3V8.3h2   c0.4,0,0.7,0.2,0.8,0.6L824.4,9.9z M824.6,17.4c0.3,0.4,0.6,0.6,1,0.8c0.4,0.1,0.8,0.2,1.2,0.2c0.4,0,0.8-0.1,1.1-0.2   c0.3-0.2,0.6-0.4,0.8-0.7c0.2-0.3,0.4-0.7,0.5-1.2c0.1-0.5,0.2-1.1,0.2-1.8c0-0.7-0.1-1.3-0.2-1.8c-0.1-0.5-0.3-0.9-0.5-1.2   c-0.2-0.3-0.4-0.5-0.7-0.6s-0.6-0.2-0.9-0.2c-0.6,0-1.1,0.1-1.5,0.3c-0.4,0.2-0.8,0.6-1.1,1V17.4z"></path>
	<path class="st11" d="M839.1,20.9c-0.6,0-1.1-0.1-1.5-0.2s-0.8-0.4-1.1-0.7s-0.5-0.7-0.7-1.1c-0.2-0.4-0.2-0.9-0.2-1.5v-6.7h-1.2   c-0.2,0-0.3-0.1-0.5-0.2s-0.2-0.3-0.2-0.5V8.7l2-0.4l0.7-3.2c0.1-0.4,0.3-0.5,0.7-0.5h1.7v3.8h3.2v2.3h-3.2v6.5   c0,0.3,0.1,0.6,0.2,0.8c0.2,0.2,0.4,0.3,0.7,0.3c0.2,0,0.3,0,0.4-0.1c0.1,0,0.2-0.1,0.3-0.1s0.2-0.1,0.2-0.1c0.1,0,0.1-0.1,0.2-0.1   c0.1,0,0.2,0,0.2,0.1s0.1,0.1,0.2,0.2l1,1.6c-0.5,0.4-1,0.6-1.5,0.8C840.3,20.8,839.7,20.9,839.1,20.9z"></path>
</g>
<g class="st10">
	<path class="st11" d="M773.1,49h-2.4c-0.3,0-0.5-0.1-0.7-0.2c-0.2-0.1-0.3-0.3-0.4-0.5l-1-2.9h-6.1l-1,2.9   c-0.1,0.2-0.2,0.3-0.4,0.5s-0.4,0.2-0.7,0.2H758l6-15.2h3.2L773.1,49z M767.8,43.2l-1.6-4.7c-0.1-0.2-0.2-0.5-0.3-0.9   s-0.2-0.7-0.3-1.1c-0.1,0.4-0.2,0.8-0.3,1.1c-0.1,0.3-0.2,0.6-0.3,0.9l-1.6,4.6H767.8z"></path>
	<path class="st11" d="M782,40.6c-0.1,0.1-0.2,0.2-0.3,0.3s-0.2,0.1-0.4,0.1c-0.1,0-0.3,0-0.4-0.1c-0.1-0.1-0.3-0.2-0.4-0.3   s-0.4-0.2-0.6-0.3c-0.2-0.1-0.5-0.1-0.9-0.1c-0.4,0-0.8,0.1-1.1,0.2c-0.3,0.2-0.6,0.4-0.8,0.7s-0.4,0.7-0.5,1.1s-0.2,0.9-0.2,1.4   c0,1.1,0.2,2,0.7,2.5c0.4,0.6,1.1,0.9,1.8,0.9c0.3,0,0.5,0,0.7-0.1c0.2,0,0.4-0.1,0.5-0.2c0.1-0.1,0.3-0.1,0.4-0.2   c0.1-0.1,0.2-0.2,0.3-0.2c0.1-0.1,0.2-0.1,0.3-0.2c0.1,0,0.2-0.1,0.3-0.1c0.2,0,0.4,0.1,0.5,0.3l0.8,1c-0.3,0.4-0.6,0.7-1,0.9   c-0.3,0.2-0.7,0.4-1.1,0.6c-0.4,0.1-0.8,0.2-1.1,0.3c-0.4,0.1-0.8,0.1-1.1,0.1c-0.7,0-1.3-0.1-1.9-0.4c-0.6-0.2-1.1-0.6-1.6-1.1   c-0.4-0.5-0.8-1.1-1.1-1.8c-0.3-0.7-0.4-1.5-0.4-2.4c0-0.8,0.1-1.5,0.3-2.2c0.2-0.7,0.6-1.3,1-1.8c0.4-0.5,1-0.9,1.7-1.2   c0.7-0.3,1.4-0.4,2.3-0.4c0.8,0,1.6,0.1,2.2,0.4c0.6,0.3,1.2,0.7,1.7,1.2L782,40.6z"></path>
	<path class="st11" d="M795.6,49h-2.9v-8.7h-4.8v5.6c0,0.3,0.1,0.5,0.2,0.7c0.1,0.2,0.3,0.3,0.6,0.3c0.1,0,0.3,0,0.4,0   c0.1,0,0.2-0.1,0.3-0.1c0.1,0,0.1-0.1,0.2-0.1c0.1,0,0.1,0,0.2,0c0.1,0,0.2,0,0.2,0.1c0.1,0,0.1,0.1,0.2,0.2l0.9,1.4   c-0.4,0.3-0.9,0.6-1.4,0.7s-1,0.2-1.6,0.2c-0.5,0-0.9-0.1-1.3-0.2c-0.4-0.1-0.7-0.3-1-0.6c-0.3-0.3-0.5-0.6-0.6-1   c-0.1-0.4-0.2-0.8-0.2-1.3v-5.8h-1c-0.2,0-0.3,0-0.4-0.1c-0.1-0.1-0.2-0.2-0.2-0.4v-1.1l1.7-0.3l0.6-2.8c0.1-0.3,0.3-0.5,0.6-0.5   h1.5v3.3h7.7V49z M796,35.1c0,0.2,0,0.5-0.1,0.7c-0.1,0.2-0.2,0.4-0.4,0.6c-0.2,0.2-0.4,0.3-0.6,0.4c-0.2,0.1-0.5,0.1-0.7,0.1   c-0.2,0-0.5,0-0.7-0.1c-0.2-0.1-0.4-0.2-0.6-0.4s-0.3-0.3-0.4-0.6c-0.1-0.2-0.1-0.4-0.1-0.7c0-0.2,0-0.5,0.1-0.7   c0.1-0.2,0.2-0.4,0.4-0.6c0.2-0.2,0.3-0.3,0.6-0.4s0.4-0.1,0.7-0.1c0.3,0,0.5,0,0.7,0.1c0.2,0.1,0.4,0.2,0.6,0.4   c0.2,0.2,0.3,0.3,0.4,0.6C796,34.6,796,34.8,796,35.1z"></path>
	<path class="st11" d="M802.9,38c0.8,0,1.6,0.1,2.2,0.4c0.7,0.3,1.2,0.6,1.7,1.1c0.5,0.5,0.8,1.1,1.1,1.7c0.3,0.7,0.4,1.5,0.4,2.3   c0,0.9-0.1,1.6-0.4,2.3s-0.6,1.3-1.1,1.8c-0.5,0.5-1,0.9-1.7,1.1c-0.7,0.3-1.4,0.4-2.2,0.4c-0.8,0-1.6-0.1-2.2-0.4   c-0.7-0.3-1.2-0.6-1.7-1.1c-0.5-0.5-0.8-1.1-1.1-1.8s-0.4-1.5-0.4-2.3c0-0.9,0.1-1.6,0.4-2.3c0.3-0.7,0.6-1.3,1.1-1.7   c0.5-0.5,1-0.8,1.7-1.1C801.4,38.1,802.1,38,802.9,38z M802.9,47c0.8,0,1.4-0.3,1.8-0.9c0.4-0.6,0.6-1.4,0.6-2.5   c0-1.1-0.2-2-0.6-2.5c-0.4-0.6-1-0.9-1.8-0.9c-0.8,0-1.5,0.3-1.9,0.9c-0.4,0.6-0.6,1.4-0.6,2.5c0,1.1,0.2,2,0.6,2.5   C801.4,46.7,802.1,47,802.9,47z"></path>
	<path class="st11" d="M812.8,39.4c0.2-0.2,0.4-0.4,0.7-0.6c0.2-0.2,0.5-0.3,0.7-0.5c0.3-0.1,0.5-0.2,0.9-0.3c0.3-0.1,0.6-0.1,1-0.1   c0.6,0,1.1,0.1,1.6,0.3c0.5,0.2,0.8,0.5,1.2,0.9c0.3,0.4,0.5,0.8,0.7,1.3s0.2,1.1,0.2,1.7V49h-2.9v-6.9c0-0.6-0.1-1.1-0.4-1.4   c-0.3-0.3-0.7-0.5-1.2-0.5c-0.4,0-0.8,0.1-1.1,0.3c-0.4,0.2-0.7,0.4-1,0.7V49h-2.9V38.2h1.8c0.4,0,0.6,0.2,0.7,0.5L812.8,39.4z"></path>
</g>
</svg>
