<?xml version="1.0" encoding="UTF-8"?>
<!-- Generator: Adobe Illustrator 23.0.2, SVG Export Plug-In . SVG Version: 6.00 Build 0)  -->
<svg xmlns="http://www.w3.org/2000/svg" xmlns:xlink="http://www.w3.org/1999/xlink" id="Layer_1" x="0px" y="0px" viewBox="0 0 536 304" style="enable-background:new 0 0 536 304;" xml:space="preserve">
<style type="text/css">
	.st0{fill:#FFFFFF;}
	.st1{fill:#B1B8B9;}
	.st2{fill:#D5E0E0;}
	.st3{fill:none;stroke:#565E66;stroke-width:1.5;stroke-linecap:round;stroke-miterlimit:10;}
	.st4{enable-background:new    ;}
	.st5{fill:#272733;}
	.st6{fill:#FC4949;}
	.st7{fill:#5EC93A;}
</style>
<polygon class="st0" points="3.5,141.2 3.5,3.5 100.3,3.5 100.3,105.8 64.9,141.2 "></polygon>
<path class="st1" d="M98.8,5v100.1l-34.5,34.5H5V5H98.8 M101.8,2H2v140.7h63.5l36.3-36.3V2z"></path>
<polygon class="st2" points="65.5,142.7 65.5,106.4 101.8,106.4 "></polygon>
<polygon class="st0" points="295.5,300.2 295.5,3.5 505.2,3.5 505.2,223.8 428.7,300.2 "></polygon>
<path class="st1" d="M503.7,5v218.1l-75.6,75.6H297V5H503.7 M506.7,2H294v299.7h135.4l77.4-77.4V2z"></path>
<polygon class="st2" points="429.4,301.7 429.4,224.4 506.7,224.4 "></polygon>
<line class="st3" x1="337.9" y1="62.9" x2="463.6" y2="62.9"></line>
<g class="st4">
	<path class="st5" d="M35.5,46.7c0.3-0.4,0.7-0.6,1.1-0.9s0.8-0.3,1.4-0.3c0.4,0,0.8,0.1,1.2,0.2c0.3,0.2,0.6,0.4,0.9,0.7   c0.2,0.3,0.4,0.7,0.6,1.1c0.1,0.4,0.2,1,0.2,1.5c0,0.6-0.1,1.1-0.2,1.6c-0.1,0.5-0.4,0.9-0.6,1.3s-0.6,0.6-1,0.8   c-0.4,0.2-0.8,0.3-1.3,0.3c-0.5,0-0.9-0.1-1.2-0.3c-0.3-0.2-0.6-0.4-0.9-0.8l-0.1,0.7c0,0.2-0.2,0.3-0.3,0.3h-0.8V42.3h1.3V46.7z    M35.5,51.3c0.2,0.3,0.5,0.5,0.8,0.7c0.3,0.1,0.6,0.2,0.9,0.2c0.7,0,1.2-0.2,1.6-0.7c0.4-0.5,0.6-1.2,0.6-2.2c0-0.9-0.2-1.6-0.5-2   c-0.3-0.4-0.8-0.6-1.4-0.6c-0.4,0-0.8,0.1-1.1,0.3s-0.6,0.5-0.9,0.8V51.3z"></path>
	<path class="st5" d="M43.6,47.2c0.2-0.5,0.5-0.9,0.9-1.2s0.8-0.4,1.2-0.4c0.2,0,0.3,0,0.4,0.1c0.1,0,0.3,0.1,0.4,0.2l-0.1,1   c0,0.1-0.1,0.2-0.2,0.2c-0.1,0-0.2,0-0.3,0s-0.3,0-0.4,0c-0.2,0-0.4,0-0.6,0.1c-0.2,0.1-0.3,0.2-0.5,0.3c-0.1,0.1-0.3,0.3-0.4,0.5   c-0.1,0.2-0.2,0.4-0.3,0.7v4.7h-1.3v-7.4h0.7c0.1,0,0.2,0,0.3,0.1c0.1,0.1,0.1,0.1,0.1,0.3L43.6,47.2z"></path>
	<path class="st5" d="M49.3,43.4c0,0.1,0,0.2-0.1,0.4c-0.1,0.1-0.1,0.2-0.2,0.3c-0.1,0.1-0.2,0.2-0.3,0.2s-0.2,0.1-0.4,0.1   s-0.2,0-0.4-0.1s-0.2-0.1-0.3-0.2c-0.1-0.1-0.1-0.2-0.2-0.3c0-0.1-0.1-0.2-0.1-0.4c0-0.1,0-0.2,0.1-0.4c0-0.1,0.1-0.2,0.2-0.3   c0.1-0.1,0.2-0.2,0.3-0.2c0.1,0,0.2-0.1,0.4-0.1s0.2,0,0.4,0.1c0.1,0,0.2,0.1,0.3,0.2c0.1,0.1,0.2,0.2,0.2,0.3   C49.3,43.1,49.3,43.2,49.3,43.4z M49.1,45.7v7.4h-1.3v-7.4H49.1z"></path>
	<path class="st5" d="M57.3,42.3v10.7h-0.8c-0.2,0-0.3-0.1-0.4-0.3l-0.1-0.9c-0.3,0.4-0.7,0.7-1.1,0.9c-0.4,0.2-0.9,0.4-1.4,0.4   c-0.4,0-0.8-0.1-1.2-0.2c-0.3-0.2-0.6-0.4-0.9-0.7c-0.2-0.3-0.4-0.7-0.6-1.2s-0.2-1-0.2-1.6c0-0.5,0.1-1.1,0.2-1.5   c0.1-0.5,0.4-0.9,0.6-1.2c0.3-0.3,0.6-0.6,1-0.8c0.4-0.2,0.8-0.3,1.3-0.3c0.5,0,0.8,0.1,1.2,0.2c0.3,0.2,0.6,0.4,0.9,0.6v-4.1H57.3   z M56,47.4c-0.2-0.3-0.5-0.6-0.8-0.7c-0.3-0.1-0.6-0.2-0.9-0.2c-0.7,0-1.2,0.2-1.6,0.7c-0.4,0.5-0.6,1.2-0.6,2.1   c0,0.5,0,0.9,0.1,1.2c0.1,0.3,0.2,0.6,0.4,0.8c0.2,0.2,0.4,0.4,0.6,0.5c0.2,0.1,0.5,0.2,0.8,0.2c0.4,0,0.8-0.1,1.1-0.3   s0.6-0.5,0.9-0.8V47.4z"></path>
	<path class="st5" d="M59.2,46.7c0.4-0.4,0.8-0.7,1.3-0.9c0.5-0.2,1-0.3,1.6-0.3c0.4,0,0.8,0.1,1.1,0.2c0.3,0.1,0.6,0.3,0.8,0.6   s0.4,0.5,0.5,0.9c0.1,0.3,0.2,0.7,0.2,1.1v4.7H64c-0.1,0-0.2,0-0.3-0.1c-0.1,0-0.1-0.1-0.2-0.2l-0.1-0.7c-0.2,0.2-0.4,0.3-0.6,0.5   s-0.4,0.3-0.6,0.3s-0.4,0.2-0.7,0.2c-0.2,0.1-0.5,0.1-0.8,0.1c-0.3,0-0.6,0-0.8-0.1c-0.3-0.1-0.5-0.2-0.7-0.4s-0.3-0.4-0.4-0.6   c-0.1-0.2-0.2-0.5-0.2-0.9c0-0.3,0.1-0.6,0.2-0.8c0.2-0.3,0.4-0.5,0.8-0.7c0.4-0.2,0.8-0.4,1.4-0.5s1.3-0.2,2.1-0.2v-0.6   c0-0.6-0.1-1-0.4-1.3c-0.2-0.3-0.6-0.4-1.1-0.4c-0.3,0-0.6,0-0.8,0.1s-0.4,0.2-0.6,0.3c-0.2,0.1-0.3,0.2-0.4,0.3s-0.2,0.1-0.3,0.1   c-0.1,0-0.2,0-0.2-0.1c-0.1,0-0.1-0.1-0.2-0.2L59.2,46.7z M63.4,49.7c-0.6,0-1.1,0.1-1.5,0.1c-0.4,0.1-0.8,0.2-1,0.3   c-0.3,0.1-0.5,0.3-0.6,0.4C60.1,50.8,60,51,60,51.2c0,0.2,0,0.4,0.1,0.5c0.1,0.1,0.1,0.3,0.3,0.3s0.2,0.2,0.4,0.2   c0.1,0,0.3,0.1,0.5,0.1c0.2,0,0.4,0,0.6-0.1c0.2,0,0.4-0.1,0.5-0.2c0.2-0.1,0.3-0.2,0.5-0.3c0.2-0.1,0.3-0.3,0.4-0.4V49.7z"></path>
	<path class="st5" d="M67.9,42.3v10.7h-1.3V42.3H67.9z"></path>
</g>
<g class="st4">
	<path class="st5" d="M38.4,63.5v0.5c0,0.2-0.1,0.3-0.3,0.3l-0.8,0.1c0.2,0.3,0.2,0.7,0.2,1.1c0,0.4-0.1,0.7-0.2,1   c-0.1,0.3-0.3,0.5-0.6,0.8s-0.5,0.4-0.9,0.5c-0.3,0.1-0.7,0.2-1.1,0.2c-0.3,0-0.7,0-1-0.1c-0.2,0.1-0.3,0.2-0.4,0.3   s-0.1,0.2-0.1,0.3c0,0.2,0.1,0.3,0.2,0.4c0.1,0.1,0.3,0.2,0.6,0.2c0.2,0,0.5,0.1,0.8,0.1s0.6,0,0.9,0c0.3,0,0.6,0.1,0.9,0.1   c0.3,0.1,0.6,0.1,0.8,0.3s0.4,0.3,0.6,0.5c0.1,0.2,0.2,0.5,0.2,0.8c0,0.3-0.1,0.6-0.2,0.9c-0.2,0.3-0.4,0.6-0.7,0.8   c-0.3,0.2-0.7,0.4-1.1,0.6s-0.9,0.2-1.5,0.2c-0.5,0-1-0.1-1.4-0.2c-0.4-0.1-0.7-0.2-1-0.4c-0.3-0.2-0.5-0.4-0.6-0.6   c-0.1-0.2-0.2-0.5-0.2-0.7c0-0.4,0.1-0.7,0.3-0.9s0.5-0.5,0.9-0.6c-0.2-0.1-0.4-0.2-0.5-0.4c-0.1-0.2-0.2-0.4-0.2-0.7   c0-0.1,0-0.2,0.1-0.3c0-0.1,0.1-0.2,0.2-0.3c0.1-0.1,0.2-0.2,0.3-0.3c0.1-0.1,0.3-0.2,0.4-0.3c-0.4-0.2-0.6-0.5-0.9-0.8   s-0.3-0.7-0.3-1.2c0-0.4,0.1-0.7,0.2-1c0.1-0.3,0.3-0.5,0.6-0.8c0.2-0.2,0.5-0.4,0.9-0.5c0.3-0.1,0.7-0.2,1.1-0.2   c0.3,0,0.6,0,0.9,0.1c0.3,0.1,0.5,0.2,0.8,0.3H38.4z M37.1,71c0-0.2-0.1-0.3-0.2-0.4c-0.1-0.1-0.2-0.2-0.4-0.3   c-0.2-0.1-0.4-0.1-0.6-0.1s-0.5,0-0.7-0.1c-0.3,0-0.5,0-0.8,0c-0.3,0-0.5,0-0.8-0.1c-0.3,0.1-0.5,0.3-0.7,0.5   c-0.2,0.2-0.3,0.4-0.3,0.7c0,0.2,0,0.3,0.1,0.5c0.1,0.1,0.2,0.3,0.4,0.4c0.2,0.1,0.4,0.2,0.7,0.2c0.3,0.1,0.6,0.1,0.9,0.1   c0.4,0,0.7,0,0.9-0.1c0.3-0.1,0.5-0.2,0.7-0.3s0.3-0.3,0.4-0.4C37,71.3,37.1,71.2,37.1,71z M34.7,67c0.3,0,0.5,0,0.7-0.1   c0.2-0.1,0.4-0.2,0.5-0.3c0.1-0.1,0.2-0.3,0.3-0.5c0.1-0.2,0.1-0.4,0.1-0.6c0-0.5-0.1-0.8-0.4-1.1c-0.3-0.3-0.7-0.4-1.2-0.4   c-0.5,0-0.9,0.1-1.2,0.4c-0.3,0.3-0.4,0.6-0.4,1.1c0,0.2,0,0.4,0.1,0.6c0.1,0.2,0.2,0.3,0.3,0.5c0.1,0.1,0.3,0.2,0.5,0.3   S34.5,67,34.7,67z"></path>
	<path class="st5" d="M42.7,63.1c0.5,0,1,0.1,1.5,0.3s0.8,0.4,1.1,0.8c0.3,0.3,0.5,0.7,0.7,1.2c0.2,0.5,0.2,1,0.2,1.6   c0,0.6-0.1,1.1-0.2,1.6c-0.2,0.5-0.4,0.9-0.7,1.2c-0.3,0.3-0.7,0.6-1.1,0.8s-0.9,0.3-1.5,0.3c-0.5,0-1-0.1-1.5-0.3   c-0.4-0.2-0.8-0.4-1.1-0.8s-0.5-0.7-0.7-1.2c-0.2-0.5-0.2-1-0.2-1.6c0-0.6,0.1-1.1,0.2-1.6c0.2-0.5,0.4-0.9,0.7-1.2   c0.3-0.3,0.7-0.6,1.1-0.8C41.7,63.1,42.2,63.1,42.7,63.1z M42.7,69.6c0.7,0,1.3-0.2,1.6-0.7c0.4-0.5,0.5-1.2,0.5-2   c0-0.9-0.2-1.6-0.5-2.1c-0.4-0.5-0.9-0.7-1.6-0.7c-0.4,0-0.7,0.1-1,0.2c-0.3,0.1-0.5,0.3-0.7,0.5c-0.2,0.2-0.3,0.5-0.4,0.9   c-0.1,0.3-0.1,0.7-0.1,1.2c0,0.9,0.2,1.6,0.5,2C41.4,69.4,42,69.6,42.7,69.6z"></path>
	<path class="st5" d="M58,63.2l-2.4,7.4h-1c-0.1,0-0.2-0.1-0.3-0.2l-1.6-5c0-0.1-0.1-0.2-0.1-0.3s0-0.2-0.1-0.3c0,0.1,0,0.2-0.1,0.3   c0,0.1-0.1,0.2-0.1,0.3l-1.7,5c0,0.2-0.1,0.2-0.3,0.2h-1L47,63.2h1c0.1,0,0.2,0,0.3,0.1c0.1,0.1,0.1,0.1,0.1,0.2l1.4,4.8   c0.1,0.4,0.1,0.7,0.2,1c0-0.2,0.1-0.3,0.1-0.5c0-0.2,0.1-0.3,0.1-0.5l1.6-4.8c0-0.1,0.1-0.1,0.1-0.2s0.1-0.1,0.2-0.1h0.6   c0.1,0,0.2,0,0.2,0.1c0.1,0,0.1,0.1,0.1,0.2l1.5,4.8c0.1,0.2,0.1,0.3,0.1,0.5c0,0.2,0.1,0.3,0.1,0.5c0-0.2,0.1-0.3,0.1-0.5   c0-0.2,0.1-0.3,0.1-0.5l1.4-4.8c0-0.1,0.1-0.1,0.1-0.2c0.1-0.1,0.1-0.1,0.2-0.1H58z"></path>
	<path class="st5" d="M60.5,64.2c0.2-0.2,0.3-0.3,0.5-0.5c0.2-0.1,0.4-0.3,0.6-0.4s0.4-0.2,0.6-0.2c0.2-0.1,0.5-0.1,0.7-0.1   c0.4,0,0.8,0.1,1.1,0.2s0.6,0.3,0.8,0.6c0.2,0.2,0.4,0.5,0.5,0.9c0.1,0.3,0.2,0.7,0.2,1.1v4.7h-1.3v-4.7c0-0.6-0.1-1-0.4-1.3   c-0.3-0.3-0.6-0.5-1.2-0.5c-0.4,0-0.7,0.1-1.1,0.3s-0.6,0.4-0.9,0.8v5.4h-1.3v-7.4H60c0.2,0,0.3,0.1,0.3,0.3L60.5,64.2z"></path>
	<path class="st5" d="M71.7,64.4c-0.1,0.1-0.1,0.2-0.3,0.2c-0.1,0-0.2,0-0.2-0.1s-0.2-0.1-0.3-0.2c-0.1-0.1-0.3-0.1-0.5-0.2   c-0.2-0.1-0.4-0.1-0.7-0.1c-0.2,0-0.4,0-0.6,0.1c-0.2,0.1-0.3,0.1-0.4,0.2c-0.1,0.1-0.2,0.2-0.3,0.3c-0.1,0.1-0.1,0.3-0.1,0.4   c0,0.2,0.1,0.3,0.2,0.5c0.1,0.1,0.3,0.2,0.4,0.3c0.2,0.1,0.4,0.2,0.6,0.2s0.5,0.1,0.7,0.2c0.2,0.1,0.5,0.2,0.7,0.3   c0.2,0.1,0.4,0.2,0.6,0.4c0.2,0.1,0.3,0.3,0.4,0.5c0.1,0.2,0.2,0.5,0.2,0.8c0,0.3-0.1,0.7-0.2,0.9c-0.1,0.3-0.3,0.5-0.5,0.8   c-0.2,0.2-0.5,0.4-0.9,0.5c-0.3,0.1-0.7,0.2-1.2,0.2c-0.5,0-1-0.1-1.4-0.3s-0.8-0.4-1.1-0.6l0.3-0.5c0-0.1,0.1-0.1,0.1-0.1   c0.1,0,0.1-0.1,0.2-0.1c0.1,0,0.2,0,0.3,0.1c0.1,0.1,0.2,0.1,0.4,0.2c0.1,0.1,0.3,0.2,0.5,0.2c0.2,0.1,0.4,0.1,0.7,0.1   c0.3,0,0.5,0,0.7-0.1c0.2-0.1,0.3-0.2,0.5-0.3c0.1-0.1,0.2-0.2,0.3-0.4c0.1-0.1,0.1-0.3,0.1-0.5c0-0.2-0.1-0.4-0.2-0.5   c-0.1-0.1-0.3-0.2-0.4-0.3s-0.4-0.2-0.6-0.2c-0.2-0.1-0.5-0.1-0.7-0.2c-0.2-0.1-0.5-0.2-0.7-0.3s-0.4-0.2-0.6-0.4   c-0.2-0.2-0.3-0.3-0.4-0.6c-0.1-0.2-0.2-0.5-0.2-0.8c0-0.3,0.1-0.6,0.2-0.8s0.3-0.5,0.5-0.7c0.2-0.2,0.5-0.4,0.8-0.5   c0.3-0.1,0.7-0.2,1.1-0.2c0.5,0,0.9,0.1,1.3,0.2c0.4,0.2,0.7,0.4,1,0.6L71.7,64.4z"></path>
</g>
<polygon class="st0" points="121.8,141.2 121.8,3.5 218.7,3.5 218.7,105.8 183.2,141.2 "></polygon>
<path class="st1" d="M217.2,5v100.1l-34.6,34.5h-59.3V5H217.2 M220.2,2h-99.8v140.7h63.5l36.3-36.3V2z"></path>
<polygon class="st2" points="183.9,142.7 183.9,106.4 220.2,106.4 "></polygon>
<g class="st4">
	<path class="st5" d="M153.9,46.7c0.3-0.4,0.7-0.6,1.1-0.9s0.8-0.3,1.4-0.3c0.4,0,0.8,0.1,1.2,0.2c0.3,0.2,0.6,0.4,0.9,0.7   c0.2,0.3,0.4,0.7,0.6,1.1c0.1,0.4,0.2,1,0.2,1.5c0,0.6-0.1,1.1-0.2,1.6c-0.1,0.5-0.4,0.9-0.6,1.3s-0.6,0.6-1,0.8   c-0.4,0.2-0.8,0.3-1.3,0.3c-0.5,0-0.9-0.1-1.2-0.3c-0.3-0.2-0.6-0.4-0.9-0.8l-0.1,0.7c0,0.2-0.2,0.3-0.3,0.3h-0.8V42.3h1.3V46.7z    M153.9,51.3c0.2,0.3,0.5,0.5,0.8,0.7c0.3,0.1,0.6,0.2,0.9,0.2c0.7,0,1.2-0.2,1.6-0.7c0.4-0.5,0.6-1.2,0.6-2.2c0-0.9-0.2-1.6-0.5-2   c-0.3-0.4-0.8-0.6-1.4-0.6c-0.4,0-0.8,0.1-1.1,0.3s-0.6,0.5-0.9,0.8V51.3z"></path>
	<path class="st5" d="M162,47.2c0.2-0.5,0.5-0.9,0.9-1.2s0.8-0.4,1.2-0.4c0.2,0,0.3,0,0.4,0.1c0.1,0,0.3,0.1,0.4,0.2l-0.1,1   c0,0.1-0.1,0.2-0.2,0.2c-0.1,0-0.2,0-0.3,0s-0.3,0-0.4,0c-0.2,0-0.4,0-0.6,0.1c-0.2,0.1-0.3,0.2-0.5,0.3c-0.1,0.1-0.3,0.3-0.4,0.5   c-0.1,0.2-0.2,0.4-0.3,0.7v4.7h-1.3v-7.4h0.7c0.1,0,0.2,0,0.3,0.1c0.1,0.1,0.1,0.1,0.1,0.3L162,47.2z"></path>
	<path class="st5" d="M167.7,43.4c0,0.1,0,0.2-0.1,0.4c-0.1,0.1-0.1,0.2-0.2,0.3c-0.1,0.1-0.2,0.2-0.3,0.2s-0.2,0.1-0.4,0.1   s-0.2,0-0.4-0.1s-0.2-0.1-0.3-0.2c-0.1-0.1-0.1-0.2-0.2-0.3c0-0.1-0.1-0.2-0.1-0.4c0-0.1,0-0.2,0.1-0.4c0-0.1,0.1-0.2,0.2-0.3   c0.1-0.1,0.2-0.2,0.3-0.2c0.1,0,0.2-0.1,0.4-0.1s0.2,0,0.4,0.1c0.1,0,0.2,0.1,0.3,0.2c0.1,0.1,0.2,0.2,0.2,0.3   C167.7,43.1,167.7,43.2,167.7,43.4z M167.4,45.7v7.4h-1.3v-7.4H167.4z"></path>
	<path class="st5" d="M175.6,42.3v10.7h-0.8c-0.2,0-0.3-0.1-0.4-0.3l-0.1-0.9c-0.3,0.4-0.7,0.7-1.1,0.9c-0.4,0.2-0.9,0.4-1.4,0.4   c-0.4,0-0.8-0.1-1.2-0.2c-0.3-0.2-0.6-0.4-0.9-0.7c-0.2-0.3-0.4-0.7-0.6-1.2s-0.2-1-0.2-1.6c0-0.5,0.1-1.1,0.2-1.5   c0.1-0.5,0.4-0.9,0.6-1.2c0.3-0.3,0.6-0.6,1-0.8c0.4-0.2,0.8-0.3,1.3-0.3c0.5,0,0.8,0.1,1.2,0.2c0.3,0.2,0.6,0.4,0.9,0.6v-4.1   H175.6z M174.3,47.4c-0.2-0.3-0.5-0.6-0.8-0.7c-0.3-0.1-0.6-0.2-0.9-0.2c-0.7,0-1.2,0.2-1.6,0.7c-0.4,0.5-0.6,1.2-0.6,2.1   c0,0.5,0,0.9,0.1,1.2c0.1,0.3,0.2,0.6,0.4,0.8c0.2,0.2,0.4,0.4,0.6,0.5c0.2,0.1,0.5,0.2,0.8,0.2c0.4,0,0.8-0.1,1.1-0.3   s0.6-0.5,0.9-0.8V47.4z"></path>
	<path class="st5" d="M177.5,46.7c0.4-0.4,0.8-0.7,1.3-0.9c0.5-0.2,1-0.3,1.6-0.3c0.4,0,0.8,0.1,1.1,0.2c0.3,0.1,0.6,0.3,0.8,0.6   s0.4,0.5,0.5,0.9c0.1,0.3,0.2,0.7,0.2,1.1v4.7h-0.6c-0.1,0-0.2,0-0.3-0.1c-0.1,0-0.1-0.1-0.2-0.2l-0.1-0.7   c-0.2,0.2-0.4,0.3-0.6,0.5s-0.4,0.3-0.6,0.3s-0.4,0.2-0.7,0.2c-0.2,0.1-0.5,0.1-0.8,0.1c-0.3,0-0.6,0-0.8-0.1   c-0.3-0.1-0.5-0.2-0.7-0.4s-0.3-0.4-0.4-0.6c-0.1-0.2-0.2-0.5-0.2-0.9c0-0.3,0.1-0.6,0.2-0.8c0.2-0.3,0.4-0.5,0.8-0.7   c0.4-0.2,0.8-0.4,1.4-0.5s1.3-0.2,2.1-0.2v-0.6c0-0.6-0.1-1-0.4-1.3c-0.2-0.3-0.6-0.4-1.1-0.4c-0.3,0-0.6,0-0.8,0.1   s-0.4,0.2-0.6,0.3c-0.2,0.1-0.3,0.2-0.4,0.3s-0.2,0.1-0.3,0.1c-0.1,0-0.2,0-0.2-0.1c-0.1,0-0.1-0.1-0.2-0.2L177.5,46.7z    M181.7,49.7c-0.6,0-1.1,0.1-1.5,0.1c-0.4,0.1-0.8,0.2-1,0.3c-0.3,0.1-0.5,0.3-0.6,0.4c-0.1,0.2-0.2,0.4-0.2,0.6   c0,0.2,0,0.4,0.1,0.5c0.1,0.1,0.1,0.3,0.3,0.3s0.2,0.2,0.4,0.2c0.1,0,0.3,0.1,0.5,0.1c0.2,0,0.4,0,0.6-0.1c0.2,0,0.4-0.1,0.5-0.2   c0.2-0.1,0.3-0.2,0.5-0.3c0.2-0.1,0.3-0.3,0.4-0.4V49.7z"></path>
	<path class="st5" d="M186.3,42.3v10.7H185V42.3H186.3z"></path>
</g>
<g class="st4">
	<path class="st5" d="M153,59.8v10.7h-0.8c-0.2,0-0.3-0.1-0.4-0.3l-0.1-0.9c-0.3,0.4-0.7,0.7-1.1,0.9c-0.4,0.2-0.9,0.4-1.4,0.4   c-0.4,0-0.8-0.1-1.2-0.2c-0.3-0.2-0.6-0.4-0.9-0.7c-0.2-0.3-0.4-0.7-0.6-1.2s-0.2-1-0.2-1.6c0-0.5,0.1-1.1,0.2-1.5   c0.1-0.5,0.4-0.9,0.6-1.2c0.3-0.3,0.6-0.6,1-0.8c0.4-0.2,0.8-0.3,1.3-0.3c0.5,0,0.8,0.1,1.2,0.2c0.3,0.2,0.6,0.4,0.9,0.6v-4.1H153z    M151.7,64.9c-0.2-0.3-0.5-0.6-0.8-0.7c-0.3-0.1-0.6-0.2-0.9-0.2c-0.7,0-1.2,0.2-1.6,0.7c-0.4,0.5-0.6,1.2-0.6,2.1   c0,0.5,0,0.9,0.1,1.2c0.1,0.3,0.2,0.6,0.4,0.8c0.2,0.2,0.4,0.4,0.6,0.5c0.2,0.1,0.5,0.2,0.8,0.2c0.4,0,0.8-0.1,1.1-0.3   s0.6-0.5,0.9-0.8V64.9z"></path>
	<path class="st5" d="M156.3,64.7c0.2-0.5,0.5-0.9,0.9-1.2s0.8-0.4,1.2-0.4c0.2,0,0.3,0,0.4,0.1c0.1,0,0.3,0.1,0.4,0.2l-0.1,1   c0,0.1-0.1,0.2-0.2,0.2c-0.1,0-0.2,0-0.3,0s-0.3,0-0.4,0c-0.2,0-0.4,0-0.6,0.1c-0.2,0.1-0.3,0.2-0.5,0.3c-0.1,0.1-0.3,0.3-0.4,0.5   c-0.1,0.2-0.2,0.4-0.3,0.7v4.7h-1.3v-7.4h0.7c0.1,0,0.2,0,0.3,0.1c0.1,0.1,0.1,0.1,0.1,0.3L156.3,64.7z"></path>
	<path class="st5" d="M166.1,69.5c-0.2,0.2-0.4,0.4-0.6,0.5s-0.5,0.3-0.7,0.4c-0.3,0.1-0.5,0.2-0.8,0.2c-0.3,0-0.5,0.1-0.8,0.1   c-0.5,0-1-0.1-1.4-0.3c-0.4-0.2-0.8-0.4-1.1-0.8s-0.6-0.7-0.7-1.2c-0.2-0.5-0.3-1.1-0.3-1.7c0-0.5,0.1-1,0.2-1.4   c0.2-0.4,0.4-0.8,0.7-1.2s0.7-0.6,1.1-0.8s0.9-0.3,1.4-0.3c0.4,0,0.9,0.1,1.2,0.2c0.4,0.1,0.7,0.4,1,0.6c0.3,0.3,0.5,0.6,0.6,1   c0.2,0.4,0.2,0.9,0.2,1.4c0,0.2,0,0.3-0.1,0.4c0,0.1-0.1,0.1-0.2,0.1H161c0,0.5,0.1,0.9,0.2,1.2c0.1,0.3,0.3,0.6,0.5,0.9   s0.4,0.4,0.7,0.5c0.3,0.1,0.6,0.2,0.9,0.2c0.3,0,0.6,0,0.8-0.1c0.2-0.1,0.4-0.2,0.6-0.2c0.2-0.1,0.3-0.2,0.4-0.2   c0.1-0.1,0.2-0.1,0.3-0.1c0.1,0,0.2,0,0.2,0.1L166.1,69.5z M165,66.1c0-0.3,0-0.6-0.1-0.8s-0.2-0.5-0.4-0.6   c-0.2-0.2-0.4-0.3-0.6-0.4c-0.2-0.1-0.5-0.1-0.8-0.1c-0.6,0-1.1,0.2-1.5,0.5c-0.4,0.4-0.6,0.9-0.7,1.5H165z"></path>
	<path class="st5" d="M172.1,64.4c-0.1,0.1-0.1,0.2-0.3,0.2c-0.1,0-0.2,0-0.2-0.1s-0.2-0.1-0.3-0.2c-0.1-0.1-0.3-0.1-0.5-0.2   c-0.2-0.1-0.4-0.1-0.7-0.1c-0.2,0-0.4,0-0.6,0.1c-0.2,0.1-0.3,0.1-0.4,0.2c-0.1,0.1-0.2,0.2-0.3,0.3c-0.1,0.1-0.1,0.3-0.1,0.4   c0,0.2,0.1,0.3,0.2,0.5c0.1,0.1,0.3,0.2,0.4,0.3c0.2,0.1,0.4,0.2,0.6,0.2s0.5,0.1,0.7,0.2c0.2,0.1,0.5,0.2,0.7,0.3   c0.2,0.1,0.4,0.2,0.6,0.4c0.2,0.1,0.3,0.3,0.4,0.5c0.1,0.2,0.2,0.5,0.2,0.8c0,0.3-0.1,0.7-0.2,0.9c-0.1,0.3-0.3,0.5-0.5,0.8   c-0.2,0.2-0.5,0.4-0.9,0.5c-0.3,0.1-0.7,0.2-1.2,0.2c-0.5,0-1-0.1-1.4-0.3s-0.8-0.4-1.1-0.6l0.3-0.5c0-0.1,0.1-0.1,0.1-0.1   c0.1,0,0.1-0.1,0.2-0.1c0.1,0,0.2,0,0.3,0.1c0.1,0.1,0.2,0.1,0.4,0.2c0.1,0.1,0.3,0.2,0.5,0.2c0.2,0.1,0.4,0.1,0.7,0.1   c0.3,0,0.5,0,0.7-0.1c0.2-0.1,0.3-0.2,0.5-0.3c0.1-0.1,0.2-0.2,0.3-0.4c0.1-0.1,0.1-0.3,0.1-0.5c0-0.2-0.1-0.4-0.2-0.5   c-0.1-0.1-0.3-0.2-0.4-0.3s-0.4-0.2-0.6-0.2c-0.2-0.1-0.5-0.1-0.7-0.2c-0.2-0.1-0.5-0.2-0.7-0.3s-0.4-0.2-0.6-0.4   c-0.2-0.2-0.3-0.3-0.4-0.6c-0.1-0.2-0.2-0.5-0.2-0.8c0-0.3,0.1-0.6,0.2-0.8s0.3-0.5,0.5-0.7c0.2-0.2,0.5-0.4,0.8-0.5   c0.3-0.1,0.7-0.2,1.1-0.2c0.5,0,0.9,0.1,1.3,0.2c0.4,0.2,0.7,0.4,1,0.6L172.1,64.4z"></path>
	<path class="st5" d="M178.4,64.4c-0.1,0.1-0.1,0.2-0.3,0.2c-0.1,0-0.2,0-0.2-0.1s-0.2-0.1-0.3-0.2c-0.1-0.1-0.3-0.1-0.5-0.2   c-0.2-0.1-0.4-0.1-0.7-0.1c-0.2,0-0.4,0-0.6,0.1c-0.2,0.1-0.3,0.1-0.4,0.2c-0.1,0.1-0.2,0.2-0.3,0.3c-0.1,0.1-0.1,0.3-0.1,0.4   c0,0.2,0.1,0.3,0.2,0.5c0.1,0.1,0.3,0.2,0.4,0.3c0.2,0.1,0.4,0.2,0.6,0.2s0.5,0.1,0.7,0.2c0.2,0.1,0.5,0.2,0.7,0.3   c0.2,0.1,0.4,0.2,0.6,0.4c0.2,0.1,0.3,0.3,0.4,0.5c0.1,0.2,0.2,0.5,0.2,0.8c0,0.3-0.1,0.7-0.2,0.9c-0.1,0.3-0.3,0.5-0.5,0.8   c-0.2,0.2-0.5,0.4-0.9,0.5c-0.3,0.1-0.7,0.2-1.2,0.2c-0.5,0-1-0.1-1.4-0.3s-0.8-0.4-1.1-0.6l0.3-0.5c0-0.1,0.1-0.1,0.1-0.1   c0.1,0,0.1-0.1,0.2-0.1c0.1,0,0.2,0,0.3,0.1c0.1,0.1,0.2,0.1,0.4,0.2c0.1,0.1,0.3,0.2,0.5,0.2c0.2,0.1,0.4,0.1,0.7,0.1   c0.3,0,0.5,0,0.7-0.1c0.2-0.1,0.3-0.2,0.5-0.3c0.1-0.1,0.2-0.2,0.3-0.4c0.1-0.1,0.1-0.3,0.1-0.5c0-0.2-0.1-0.4-0.2-0.5   c-0.1-0.1-0.3-0.2-0.4-0.3s-0.4-0.2-0.6-0.2c-0.2-0.1-0.5-0.1-0.7-0.2c-0.2-0.1-0.5-0.2-0.7-0.3s-0.4-0.2-0.6-0.4   c-0.2-0.2-0.3-0.3-0.4-0.6c-0.1-0.2-0.2-0.5-0.2-0.8c0-0.3,0.1-0.6,0.2-0.8s0.3-0.5,0.5-0.7c0.2-0.2,0.5-0.4,0.8-0.5   c0.3-0.1,0.7-0.2,1.1-0.2c0.5,0,0.9,0.1,1.3,0.2c0.4,0.2,0.7,0.4,1,0.6L178.4,64.4z"></path>
	<path class="st5" d="M186.4,69.5c-0.2,0.2-0.4,0.4-0.6,0.5s-0.5,0.3-0.7,0.4c-0.3,0.1-0.5,0.2-0.8,0.2c-0.3,0-0.5,0.1-0.8,0.1   c-0.5,0-1-0.1-1.4-0.3c-0.4-0.2-0.8-0.4-1.1-0.8s-0.6-0.7-0.7-1.2c-0.2-0.5-0.3-1.1-0.3-1.7c0-0.5,0.1-1,0.2-1.4   c0.2-0.4,0.4-0.8,0.7-1.2s0.7-0.6,1.1-0.8s0.9-0.3,1.4-0.3c0.4,0,0.9,0.1,1.2,0.2c0.4,0.1,0.7,0.4,1,0.6c0.3,0.3,0.5,0.6,0.6,1   c0.2,0.4,0.2,0.9,0.2,1.4c0,0.2,0,0.3-0.1,0.4c0,0.1-0.1,0.1-0.2,0.1h-4.9c0,0.5,0.1,0.9,0.2,1.2c0.1,0.3,0.3,0.6,0.5,0.9   s0.4,0.4,0.7,0.5c0.3,0.1,0.6,0.2,0.9,0.2c0.3,0,0.6,0,0.8-0.1c0.2-0.1,0.4-0.2,0.6-0.2c0.2-0.1,0.3-0.2,0.4-0.2   c0.1-0.1,0.2-0.1,0.3-0.1c0.1,0,0.2,0,0.2,0.1L186.4,69.5z M185.4,66.1c0-0.3,0-0.6-0.1-0.8s-0.2-0.5-0.4-0.6   c-0.2-0.2-0.4-0.3-0.6-0.4c-0.2-0.1-0.5-0.1-0.8-0.1c-0.6,0-1.1,0.2-1.5,0.5c-0.4,0.4-0.6,0.9-0.7,1.5H185.4z"></path>
	<path class="st5" d="M192.4,64.4c-0.1,0.1-0.1,0.2-0.3,0.2c-0.1,0-0.2,0-0.2-0.1s-0.2-0.1-0.3-0.2c-0.1-0.1-0.3-0.1-0.5-0.2   c-0.2-0.1-0.4-0.1-0.7-0.1c-0.2,0-0.4,0-0.6,0.1c-0.2,0.1-0.3,0.1-0.4,0.2c-0.1,0.1-0.2,0.2-0.3,0.3c-0.1,0.1-0.1,0.3-0.1,0.4   c0,0.2,0.1,0.3,0.2,0.5c0.1,0.1,0.3,0.2,0.4,0.3c0.2,0.1,0.4,0.2,0.6,0.2s0.5,0.1,0.7,0.2c0.2,0.1,0.5,0.2,0.7,0.3   c0.2,0.1,0.4,0.2,0.6,0.4c0.2,0.1,0.3,0.3,0.4,0.5c0.1,0.2,0.2,0.5,0.2,0.8c0,0.3-0.1,0.7-0.2,0.9c-0.1,0.3-0.3,0.5-0.5,0.8   c-0.2,0.2-0.5,0.4-0.9,0.5c-0.3,0.1-0.7,0.2-1.2,0.2c-0.5,0-1-0.1-1.4-0.3s-0.8-0.4-1.1-0.6l0.3-0.5c0-0.1,0.1-0.1,0.1-0.1   c0.1,0,0.1-0.1,0.2-0.1c0.1,0,0.2,0,0.3,0.1c0.1,0.1,0.2,0.1,0.4,0.2c0.1,0.1,0.3,0.2,0.5,0.2c0.2,0.1,0.4,0.1,0.7,0.1   c0.3,0,0.5,0,0.7-0.1c0.2-0.1,0.3-0.2,0.5-0.3c0.1-0.1,0.2-0.2,0.3-0.4c0.1-0.1,0.1-0.3,0.1-0.5c0-0.2-0.1-0.4-0.2-0.5   c-0.1-0.1-0.3-0.2-0.4-0.3s-0.4-0.2-0.6-0.2c-0.2-0.1-0.5-0.1-0.7-0.2c-0.2-0.1-0.5-0.2-0.7-0.3s-0.4-0.2-0.6-0.4   c-0.2-0.2-0.3-0.3-0.4-0.6c-0.1-0.2-0.2-0.5-0.2-0.8c0-0.3,0.1-0.6,0.2-0.8s0.3-0.5,0.5-0.7c0.2-0.2,0.5-0.4,0.8-0.5   c0.3-0.1,0.7-0.2,1.1-0.2c0.5,0,0.9,0.1,1.3,0.2c0.4,0.2,0.7,0.4,1,0.6L192.4,64.4z"></path>
</g>
<polygon class="st0" points="3.5,300.2 3.5,162.6 100.3,162.6 100.3,264.8 64.9,300.2 "></polygon>
<path class="st1" d="M98.8,164.1v100.1l-34.5,34.5H5V164.1H98.8 M101.8,161.1H2v140.7h63.5l36.3-36.3V161.1z"></path>
<polygon class="st2" points="65.5,301.8 65.5,265.5 101.8,265.5 "></polygon>
<g class="st4">
	<path class="st5" d="M35.7,204.8l-2.4,7.4h-1c-0.1,0-0.2-0.1-0.3-0.2l-1.6-5c0-0.1-0.1-0.2-0.1-0.3s0-0.2-0.1-0.3   c0,0.1,0,0.2-0.1,0.3c0,0.1-0.1,0.2-0.1,0.3l-1.7,5c0,0.2-0.1,0.2-0.3,0.2h-1l-2.4-7.4h1c0.1,0,0.2,0,0.3,0.1   c0.1,0.1,0.1,0.1,0.1,0.2l1.4,4.8c0.1,0.4,0.1,0.7,0.2,1c0-0.2,0.1-0.3,0.1-0.5c0-0.2,0.1-0.3,0.1-0.5l1.6-4.8   c0-0.1,0.1-0.1,0.1-0.2s0.1-0.1,0.2-0.1h0.6c0.1,0,0.2,0,0.2,0.1c0.1,0,0.1,0.1,0.1,0.2l1.5,4.8c0.1,0.2,0.1,0.3,0.1,0.5   c0,0.2,0.1,0.3,0.1,0.5c0-0.2,0.1-0.3,0.1-0.5c0-0.2,0.1-0.3,0.1-0.5l1.4-4.8c0-0.1,0.1-0.1,0.1-0.2c0.1-0.1,0.1-0.1,0.2-0.1H35.7z   "></path>
	<path class="st5" d="M42.9,211.1c-0.2,0.2-0.4,0.4-0.6,0.5s-0.5,0.3-0.7,0.4c-0.3,0.1-0.5,0.2-0.8,0.2c-0.3,0-0.5,0.1-0.8,0.1   c-0.5,0-1-0.1-1.4-0.3c-0.4-0.2-0.8-0.4-1.1-0.8s-0.6-0.7-0.7-1.2c-0.2-0.5-0.3-1.1-0.3-1.7c0-0.5,0.1-1,0.2-1.4   c0.2-0.4,0.4-0.8,0.7-1.2s0.7-0.6,1.1-0.8s0.9-0.3,1.4-0.3c0.4,0,0.9,0.1,1.2,0.2c0.4,0.1,0.7,0.4,1,0.6c0.3,0.3,0.5,0.6,0.6,1   c0.2,0.4,0.2,0.9,0.2,1.4c0,0.2,0,0.3-0.1,0.4c0,0.1-0.1,0.1-0.2,0.1h-4.9c0,0.5,0.1,0.9,0.2,1.2c0.1,0.3,0.3,0.6,0.5,0.9   s0.4,0.4,0.7,0.5c0.3,0.1,0.6,0.2,0.9,0.2c0.3,0,0.6,0,0.8-0.1c0.2-0.1,0.4-0.2,0.6-0.2c0.2-0.1,0.3-0.2,0.4-0.2   c0.1-0.1,0.2-0.1,0.3-0.1c0.1,0,0.2,0,0.2,0.1L42.9,211.1z M41.8,207.6c0-0.3,0-0.6-0.1-0.8s-0.2-0.5-0.4-0.6   c-0.2-0.2-0.4-0.3-0.6-0.4c-0.2-0.1-0.5-0.1-0.8-0.1c-0.6,0-1.1,0.2-1.5,0.5c-0.4,0.4-0.6,0.9-0.7,1.5H41.8z"></path>
	<path class="st5" d="M50.7,201.4v10.7h-0.8c-0.2,0-0.3-0.1-0.4-0.3l-0.1-0.9c-0.3,0.4-0.7,0.7-1.1,0.9c-0.4,0.2-0.9,0.4-1.4,0.4   c-0.4,0-0.8-0.1-1.2-0.2c-0.3-0.2-0.6-0.4-0.9-0.7c-0.2-0.3-0.4-0.7-0.6-1.2s-0.2-1-0.2-1.6c0-0.5,0.1-1.1,0.2-1.5   c0.1-0.5,0.4-0.9,0.6-1.2c0.3-0.3,0.6-0.6,1-0.8c0.4-0.2,0.8-0.3,1.3-0.3c0.5,0,0.8,0.1,1.2,0.2c0.3,0.2,0.6,0.4,0.9,0.6v-4.1H50.7   z M49.4,206.5c-0.2-0.3-0.5-0.6-0.8-0.7c-0.3-0.1-0.6-0.2-0.9-0.2c-0.7,0-1.2,0.2-1.6,0.7c-0.4,0.5-0.6,1.2-0.6,2.1   c0,0.5,0,0.9,0.1,1.2c0.1,0.3,0.2,0.6,0.4,0.8c0.2,0.2,0.4,0.4,0.6,0.5c0.2,0.1,0.5,0.2,0.8,0.2c0.4,0,0.8-0.1,1.1-0.3   s0.6-0.5,0.9-0.8V206.5z"></path>
	<path class="st5" d="M58.9,201.4v10.7h-0.8c-0.2,0-0.3-0.1-0.4-0.3l-0.1-0.9c-0.3,0.4-0.7,0.7-1.1,0.9c-0.4,0.2-0.9,0.4-1.4,0.4   c-0.4,0-0.8-0.1-1.2-0.2c-0.3-0.2-0.6-0.4-0.9-0.7c-0.2-0.3-0.4-0.7-0.6-1.2s-0.2-1-0.2-1.6c0-0.5,0.1-1.1,0.2-1.5   c0.1-0.5,0.4-0.9,0.6-1.2c0.3-0.3,0.6-0.6,1-0.8c0.4-0.2,0.8-0.3,1.3-0.3c0.5,0,0.8,0.1,1.2,0.2c0.3,0.2,0.6,0.4,0.9,0.6v-4.1H58.9   z M57.6,206.5c-0.2-0.3-0.5-0.6-0.8-0.7c-0.3-0.1-0.6-0.2-0.9-0.2c-0.7,0-1.2,0.2-1.6,0.7c-0.4,0.5-0.6,1.2-0.6,2.1   c0,0.5,0,0.9,0.1,1.2c0.1,0.3,0.2,0.6,0.4,0.8c0.2,0.2,0.4,0.4,0.6,0.5c0.2,0.1,0.5,0.2,0.8,0.2c0.4,0,0.8-0.1,1.1-0.3   s0.6-0.5,0.9-0.8V206.5z"></path>
	<path class="st5" d="M62.6,202.4c0,0.1,0,0.2-0.1,0.4c-0.1,0.1-0.1,0.2-0.2,0.3c-0.1,0.1-0.2,0.2-0.3,0.2s-0.2,0.1-0.4,0.1   s-0.2,0-0.4-0.1s-0.2-0.1-0.3-0.2c-0.1-0.1-0.1-0.2-0.2-0.3c0-0.1-0.1-0.2-0.1-0.4c0-0.1,0-0.2,0.1-0.4c0-0.1,0.1-0.2,0.2-0.3   c0.1-0.1,0.2-0.2,0.3-0.2c0.1,0,0.2-0.1,0.4-0.1s0.2,0,0.4,0.1c0.1,0,0.2,0.1,0.3,0.2c0.1,0.1,0.2,0.2,0.2,0.3   C62.5,202.2,62.6,202.3,62.6,202.4z M62.3,204.8v7.4H61v-7.4H62.3z"></path>
	<path class="st5" d="M65.6,205.8c0.2-0.2,0.3-0.3,0.5-0.5c0.2-0.1,0.4-0.3,0.6-0.4s0.4-0.2,0.6-0.2c0.2-0.1,0.5-0.1,0.7-0.1   c0.4,0,0.8,0.1,1.1,0.2s0.6,0.3,0.8,0.6c0.2,0.2,0.4,0.5,0.5,0.9c0.1,0.3,0.2,0.7,0.2,1.1v4.7h-1.3v-4.7c0-0.6-0.1-1-0.4-1.3   c-0.3-0.3-0.6-0.5-1.2-0.5c-0.4,0-0.7,0.1-1.1,0.3s-0.6,0.4-0.9,0.8v5.4h-1.3v-7.4h0.8c0.2,0,0.3,0.1,0.3,0.3L65.6,205.8z"></path>
	<path class="st5" d="M78.8,205v0.5c0,0.2-0.1,0.3-0.3,0.3l-0.8,0.1c0.2,0.3,0.2,0.7,0.2,1.1c0,0.4-0.1,0.7-0.2,1   c-0.1,0.3-0.3,0.5-0.6,0.8s-0.5,0.4-0.9,0.5c-0.3,0.1-0.7,0.2-1.1,0.2c-0.3,0-0.7,0-1-0.1c-0.2,0.1-0.3,0.2-0.4,0.3   s-0.1,0.2-0.1,0.3c0,0.2,0.1,0.3,0.2,0.4c0.1,0.1,0.3,0.2,0.6,0.2c0.2,0,0.5,0.1,0.8,0.1s0.6,0,0.9,0c0.3,0,0.6,0.1,0.9,0.1   c0.3,0.1,0.6,0.1,0.8,0.3s0.4,0.3,0.6,0.5c0.1,0.2,0.2,0.5,0.2,0.8c0,0.3-0.1,0.6-0.2,0.9c-0.2,0.3-0.4,0.6-0.7,0.8   c-0.3,0.2-0.7,0.4-1.1,0.6s-0.9,0.2-1.5,0.2c-0.5,0-1-0.1-1.4-0.2c-0.4-0.1-0.7-0.2-1-0.4c-0.3-0.2-0.5-0.4-0.6-0.6   c-0.1-0.2-0.2-0.5-0.2-0.7c0-0.4,0.1-0.7,0.3-0.9s0.5-0.5,0.9-0.6c-0.2-0.1-0.4-0.2-0.5-0.4c-0.1-0.2-0.2-0.4-0.2-0.7   c0-0.1,0-0.2,0.1-0.3c0-0.1,0.1-0.2,0.2-0.3c0.1-0.1,0.2-0.2,0.3-0.3c0.1-0.1,0.3-0.2,0.4-0.3c-0.4-0.2-0.6-0.5-0.9-0.8   s-0.3-0.7-0.3-1.2c0-0.4,0.1-0.7,0.2-1c0.1-0.3,0.3-0.5,0.6-0.8c0.2-0.2,0.5-0.4,0.9-0.5c0.3-0.1,0.7-0.2,1.1-0.2   c0.3,0,0.6,0,0.9,0.1c0.3,0.1,0.5,0.2,0.8,0.3H78.8z M77.5,212.5c0-0.2-0.1-0.3-0.2-0.4c-0.1-0.1-0.2-0.2-0.4-0.3   c-0.2-0.1-0.4-0.1-0.6-0.1s-0.5,0-0.7-0.1c-0.3,0-0.5,0-0.8,0c-0.3,0-0.5,0-0.8-0.1c-0.3,0.1-0.5,0.3-0.7,0.5   c-0.2,0.2-0.3,0.4-0.3,0.7c0,0.2,0,0.3,0.1,0.5c0.1,0.1,0.2,0.3,0.4,0.4c0.2,0.1,0.4,0.2,0.7,0.2c0.3,0.1,0.6,0.1,0.9,0.1   c0.4,0,0.7,0,0.9-0.1c0.3-0.1,0.5-0.2,0.7-0.3s0.3-0.3,0.4-0.4C77.4,212.9,77.5,212.7,77.5,212.5z M75.1,208.5c0.3,0,0.5,0,0.7-0.1   c0.2-0.1,0.4-0.2,0.5-0.3c0.1-0.1,0.2-0.3,0.3-0.5c0.1-0.2,0.1-0.4,0.1-0.6c0-0.5-0.1-0.8-0.4-1.1c-0.3-0.3-0.7-0.4-1.2-0.4   c-0.5,0-0.9,0.1-1.2,0.4c-0.3,0.3-0.4,0.6-0.4,1.1c0,0.2,0,0.4,0.1,0.6c0.1,0.2,0.2,0.3,0.3,0.5c0.1,0.1,0.3,0.2,0.5,0.3   S74.9,208.5,75.1,208.5z"></path>
</g>
<g class="st4">
	<path class="st5" d="M34.7,218.9v10.7h-0.8c-0.2,0-0.3-0.1-0.4-0.3l-0.1-0.9c-0.3,0.4-0.7,0.7-1.1,0.9c-0.4,0.2-0.9,0.4-1.4,0.4   c-0.4,0-0.8-0.1-1.2-0.2c-0.3-0.2-0.6-0.4-0.9-0.7c-0.2-0.3-0.4-0.7-0.6-1.2s-0.2-1-0.2-1.6c0-0.5,0.1-1.1,0.2-1.5   c0.1-0.5,0.4-0.9,0.6-1.2c0.3-0.3,0.6-0.6,1-0.8c0.4-0.2,0.8-0.3,1.3-0.3c0.5,0,0.8,0.1,1.2,0.2c0.3,0.2,0.6,0.4,0.9,0.6v-4.1H34.7   z M33.4,224c-0.2-0.3-0.5-0.6-0.8-0.7c-0.3-0.1-0.6-0.2-0.9-0.2c-0.7,0-1.2,0.2-1.6,0.7c-0.4,0.5-0.6,1.2-0.6,2.1   c0,0.5,0,0.9,0.1,1.2c0.1,0.3,0.2,0.6,0.4,0.8c0.2,0.2,0.4,0.4,0.6,0.5c0.2,0.1,0.5,0.2,0.8,0.2c0.4,0,0.8-0.1,1.1-0.3   s0.6-0.5,0.9-0.8V224z"></path>
	<path class="st5" d="M38,223.7c0.2-0.5,0.5-0.9,0.9-1.2s0.8-0.4,1.2-0.4c0.2,0,0.3,0,0.4,0.1c0.1,0,0.3,0.1,0.4,0.2l-0.1,1   c0,0.1-0.1,0.2-0.2,0.2c-0.1,0-0.2,0-0.3,0s-0.3,0-0.4,0c-0.2,0-0.4,0-0.6,0.1c-0.2,0.1-0.3,0.2-0.5,0.3c-0.1,0.1-0.3,0.3-0.4,0.5   c-0.1,0.2-0.2,0.4-0.3,0.7v4.7h-1.3v-7.4h0.7c0.1,0,0.2,0,0.3,0.1c0.1,0.1,0.1,0.1,0.1,0.3L38,223.7z"></path>
	<path class="st5" d="M47.8,228.6c-0.2,0.2-0.4,0.4-0.6,0.5s-0.5,0.3-0.7,0.4c-0.3,0.1-0.5,0.2-0.8,0.2c-0.3,0-0.5,0.1-0.8,0.1   c-0.5,0-1-0.1-1.4-0.3c-0.4-0.2-0.8-0.4-1.1-0.8s-0.6-0.7-0.7-1.2c-0.2-0.5-0.3-1.1-0.3-1.7c0-0.5,0.1-1,0.2-1.4   c0.2-0.4,0.4-0.8,0.7-1.2s0.7-0.6,1.1-0.8s0.9-0.3,1.4-0.3c0.4,0,0.9,0.1,1.2,0.2c0.4,0.1,0.7,0.4,1,0.6c0.3,0.3,0.5,0.6,0.6,1   c0.2,0.4,0.2,0.9,0.2,1.4c0,0.2,0,0.3-0.1,0.4c0,0.1-0.1,0.1-0.2,0.1h-4.9c0,0.5,0.1,0.9,0.2,1.2c0.1,0.3,0.3,0.6,0.5,0.9   s0.4,0.4,0.7,0.5c0.3,0.1,0.6,0.2,0.9,0.2c0.3,0,0.6,0,0.8-0.1c0.2-0.1,0.4-0.2,0.6-0.2c0.2-0.1,0.3-0.2,0.4-0.2   c0.1-0.1,0.2-0.1,0.3-0.1c0.1,0,0.2,0,0.2,0.1L47.8,228.6z M46.7,225.1c0-0.3,0-0.6-0.1-0.8s-0.2-0.5-0.4-0.6   c-0.2-0.2-0.4-0.3-0.6-0.4c-0.2-0.1-0.5-0.1-0.8-0.1c-0.6,0-1.1,0.2-1.5,0.5c-0.4,0.4-0.6,0.9-0.7,1.5H46.7z"></path>
	<path class="st5" d="M53.8,223.5c-0.1,0.1-0.1,0.2-0.3,0.2c-0.1,0-0.2,0-0.2-0.1s-0.2-0.1-0.3-0.2c-0.1-0.1-0.3-0.1-0.5-0.2   c-0.2-0.1-0.4-0.1-0.7-0.1c-0.2,0-0.4,0-0.6,0.1c-0.2,0.1-0.3,0.1-0.4,0.2c-0.1,0.1-0.2,0.2-0.3,0.3c-0.1,0.1-0.1,0.3-0.1,0.4   c0,0.2,0.1,0.3,0.2,0.5c0.1,0.1,0.3,0.2,0.4,0.3c0.2,0.1,0.4,0.2,0.6,0.2s0.5,0.1,0.7,0.2c0.2,0.1,0.5,0.2,0.7,0.3   c0.2,0.1,0.4,0.2,0.6,0.4c0.2,0.1,0.3,0.3,0.4,0.5c0.1,0.2,0.2,0.5,0.2,0.8c0,0.3-0.1,0.7-0.2,0.9c-0.1,0.3-0.3,0.5-0.5,0.8   c-0.2,0.2-0.5,0.4-0.9,0.5c-0.3,0.1-0.7,0.2-1.2,0.2c-0.5,0-1-0.1-1.4-0.3s-0.8-0.4-1.1-0.6l0.3-0.5c0-0.1,0.1-0.1,0.1-0.1   c0.1,0,0.1-0.1,0.2-0.1c0.1,0,0.2,0,0.3,0.1c0.1,0.1,0.2,0.1,0.4,0.2c0.1,0.1,0.3,0.2,0.5,0.2c0.2,0.1,0.4,0.1,0.7,0.1   c0.3,0,0.5,0,0.7-0.1c0.2-0.1,0.3-0.2,0.5-0.3c0.1-0.1,0.2-0.2,0.3-0.4c0.1-0.1,0.1-0.3,0.1-0.5c0-0.2-0.1-0.4-0.2-0.5   c-0.1-0.1-0.3-0.2-0.4-0.3s-0.4-0.2-0.6-0.2c-0.2-0.1-0.5-0.1-0.7-0.2c-0.2-0.1-0.5-0.2-0.7-0.3s-0.4-0.2-0.6-0.4   c-0.2-0.2-0.3-0.3-0.4-0.6c-0.1-0.2-0.2-0.5-0.2-0.8c0-0.3,0.1-0.6,0.2-0.8s0.3-0.5,0.5-0.7c0.2-0.2,0.5-0.4,0.8-0.5   c0.3-0.1,0.7-0.2,1.1-0.2c0.5,0,0.9,0.1,1.3,0.2c0.4,0.2,0.7,0.4,1,0.6L53.8,223.5z"></path>
	<path class="st5" d="M60.1,223.5c-0.1,0.1-0.1,0.2-0.3,0.2c-0.1,0-0.2,0-0.2-0.1s-0.2-0.1-0.3-0.2c-0.1-0.1-0.3-0.1-0.5-0.2   c-0.2-0.1-0.4-0.1-0.7-0.1c-0.2,0-0.4,0-0.6,0.1c-0.2,0.1-0.3,0.1-0.4,0.2c-0.1,0.1-0.2,0.2-0.3,0.3c-0.1,0.1-0.1,0.3-0.1,0.4   c0,0.2,0.1,0.3,0.2,0.5c0.1,0.1,0.3,0.2,0.4,0.3c0.2,0.1,0.4,0.2,0.6,0.2s0.5,0.1,0.7,0.2c0.2,0.1,0.5,0.2,0.7,0.3   c0.2,0.1,0.4,0.2,0.6,0.4c0.2,0.1,0.3,0.3,0.4,0.5c0.1,0.2,0.2,0.5,0.2,0.8c0,0.3-0.1,0.7-0.2,0.9c-0.1,0.3-0.3,0.5-0.5,0.8   c-0.2,0.2-0.5,0.4-0.9,0.5c-0.3,0.1-0.7,0.2-1.2,0.2c-0.5,0-1-0.1-1.4-0.3s-0.8-0.4-1.1-0.6l0.3-0.5c0-0.1,0.1-0.1,0.1-0.1   c0.1,0,0.1-0.1,0.2-0.1c0.1,0,0.2,0,0.3,0.1c0.1,0.1,0.2,0.1,0.4,0.2c0.1,0.1,0.3,0.2,0.5,0.2c0.2,0.1,0.4,0.1,0.7,0.1   c0.3,0,0.5,0,0.7-0.1c0.2-0.1,0.3-0.2,0.5-0.3c0.1-0.1,0.2-0.2,0.3-0.4c0.1-0.1,0.1-0.3,0.1-0.5c0-0.2-0.1-0.4-0.2-0.5   c-0.1-0.1-0.3-0.2-0.4-0.3s-0.4-0.2-0.6-0.2c-0.2-0.1-0.5-0.1-0.7-0.2c-0.2-0.1-0.5-0.2-0.7-0.3s-0.4-0.2-0.6-0.4   c-0.2-0.2-0.3-0.3-0.4-0.6c-0.1-0.2-0.2-0.5-0.2-0.8c0-0.3,0.1-0.6,0.2-0.8s0.3-0.5,0.5-0.7c0.2-0.2,0.5-0.4,0.8-0.5   c0.3-0.1,0.7-0.2,1.1-0.2c0.5,0,0.9,0.1,1.3,0.2c0.4,0.2,0.7,0.4,1,0.6L60.1,223.5z"></path>
	<path class="st5" d="M68.1,228.6c-0.2,0.2-0.4,0.4-0.6,0.5s-0.5,0.3-0.7,0.4c-0.3,0.1-0.5,0.2-0.8,0.2c-0.3,0-0.5,0.1-0.8,0.1   c-0.5,0-1-0.1-1.4-0.3c-0.4-0.2-0.8-0.4-1.1-0.8s-0.6-0.7-0.7-1.2c-0.2-0.5-0.3-1.1-0.3-1.7c0-0.5,0.1-1,0.2-1.4   c0.2-0.4,0.4-0.8,0.7-1.2s0.7-0.6,1.1-0.8s0.9-0.3,1.4-0.3c0.4,0,0.9,0.1,1.2,0.2c0.4,0.1,0.7,0.4,1,0.6c0.3,0.3,0.5,0.6,0.6,1   c0.2,0.4,0.2,0.9,0.2,1.4c0,0.2,0,0.3-0.1,0.4c0,0.1-0.1,0.1-0.2,0.1h-4.9c0,0.5,0.1,0.9,0.2,1.2c0.1,0.3,0.3,0.6,0.5,0.9   s0.4,0.4,0.7,0.5c0.3,0.1,0.6,0.2,0.9,0.2c0.3,0,0.6,0,0.8-0.1c0.2-0.1,0.4-0.2,0.6-0.2c0.2-0.1,0.3-0.2,0.4-0.2   c0.1-0.1,0.2-0.1,0.3-0.1c0.1,0,0.2,0,0.2,0.1L68.1,228.6z M67,225.1c0-0.3,0-0.6-0.1-0.8s-0.2-0.5-0.4-0.6   c-0.2-0.2-0.4-0.3-0.6-0.4c-0.2-0.1-0.5-0.1-0.8-0.1c-0.6,0-1.1,0.2-1.5,0.5c-0.4,0.4-0.6,0.9-0.7,1.5H67z"></path>
	<path class="st5" d="M74.1,223.5c-0.1,0.1-0.1,0.2-0.3,0.2c-0.1,0-0.2,0-0.2-0.1s-0.2-0.1-0.3-0.2c-0.1-0.1-0.3-0.1-0.5-0.2   c-0.2-0.1-0.4-0.1-0.7-0.1c-0.2,0-0.4,0-0.6,0.1c-0.2,0.1-0.3,0.1-0.4,0.2c-0.1,0.1-0.2,0.2-0.3,0.3c-0.1,0.1-0.1,0.3-0.1,0.4   c0,0.2,0.1,0.3,0.2,0.5c0.1,0.1,0.3,0.2,0.4,0.3c0.2,0.1,0.4,0.2,0.6,0.2s0.5,0.1,0.7,0.2c0.2,0.1,0.5,0.2,0.7,0.3   c0.2,0.1,0.4,0.2,0.6,0.4c0.2,0.1,0.3,0.3,0.4,0.5c0.1,0.2,0.2,0.5,0.2,0.8c0,0.3-0.1,0.7-0.2,0.9c-0.1,0.3-0.3,0.5-0.5,0.8   c-0.2,0.2-0.5,0.4-0.9,0.5c-0.3,0.1-0.7,0.2-1.2,0.2c-0.5,0-1-0.1-1.4-0.3s-0.8-0.4-1.1-0.6l0.3-0.5c0-0.1,0.1-0.1,0.1-0.1   c0.1,0,0.1-0.1,0.2-0.1c0.1,0,0.2,0,0.3,0.1c0.1,0.1,0.2,0.1,0.4,0.2c0.1,0.1,0.3,0.2,0.5,0.2c0.2,0.1,0.4,0.1,0.7,0.1   c0.3,0,0.5,0,0.7-0.1c0.2-0.1,0.3-0.2,0.5-0.3c0.1-0.1,0.2-0.2,0.3-0.4c0.1-0.1,0.1-0.3,0.1-0.5c0-0.2-0.1-0.4-0.2-0.5   c-0.1-0.1-0.3-0.2-0.4-0.3s-0.4-0.2-0.6-0.2c-0.2-0.1-0.5-0.1-0.7-0.2c-0.2-0.1-0.5-0.2-0.7-0.3s-0.4-0.2-0.6-0.4   c-0.2-0.2-0.3-0.3-0.4-0.6c-0.1-0.2-0.2-0.5-0.2-0.8c0-0.3,0.1-0.6,0.2-0.8s0.3-0.5,0.5-0.7c0.2-0.2,0.5-0.4,0.8-0.5   c0.3-0.1,0.7-0.2,1.1-0.2c0.5,0,0.9,0.1,1.3,0.2c0.4,0.2,0.7,0.4,1,0.6L74.1,223.5z"></path>
</g>
<polygon class="st0" points="121.8,300.2 121.8,162.6 218.7,162.6 218.7,264.8 183.2,300.2 "></polygon>
<path class="st1" d="M217.2,164.1v100.1l-34.6,34.5h-59.3V164.1H217.2 M220.2,161.1h-99.8v140.7h63.5l36.3-36.3V161.1z"></path>
<polygon class="st2" points="183.9,301.8 183.9,265.5 220.2,265.5 "></polygon>
<g class="st4">
	<path class="st5" d="M154.1,204.8l-2.4,7.4h-1c-0.1,0-0.2-0.1-0.3-0.2l-1.6-5c0-0.1-0.1-0.2-0.1-0.3s0-0.2-0.1-0.3   c0,0.1,0,0.2-0.1,0.3c0,0.1-0.1,0.2-0.1,0.3l-1.7,5c0,0.2-0.1,0.2-0.3,0.2h-1l-2.4-7.4h1c0.1,0,0.2,0,0.3,0.1   c0.1,0.1,0.1,0.1,0.1,0.2l1.4,4.8c0.1,0.4,0.1,0.7,0.2,1c0-0.2,0.1-0.3,0.1-0.5c0-0.2,0.1-0.3,0.1-0.5l1.6-4.8   c0-0.1,0.1-0.1,0.1-0.2s0.1-0.1,0.2-0.1h0.6c0.1,0,0.2,0,0.2,0.1c0.1,0,0.1,0.1,0.1,0.2l1.5,4.8c0.1,0.2,0.1,0.3,0.1,0.5   c0,0.2,0.1,0.3,0.1,0.5c0-0.2,0.1-0.3,0.1-0.5c0-0.2,0.1-0.3,0.1-0.5l1.4-4.8c0-0.1,0.1-0.1,0.1-0.2c0.1-0.1,0.1-0.1,0.2-0.1H154.1   z"></path>
	<path class="st5" d="M161.2,211.1c-0.2,0.2-0.4,0.4-0.6,0.5s-0.5,0.3-0.7,0.4c-0.3,0.1-0.5,0.2-0.8,0.2c-0.3,0-0.5,0.1-0.8,0.1   c-0.5,0-1-0.1-1.4-0.3c-0.4-0.2-0.8-0.4-1.1-0.8s-0.6-0.7-0.7-1.2c-0.2-0.5-0.3-1.1-0.3-1.7c0-0.5,0.1-1,0.2-1.4   c0.2-0.4,0.4-0.8,0.7-1.2s0.7-0.6,1.1-0.8s0.9-0.3,1.4-0.3c0.4,0,0.9,0.1,1.2,0.2c0.4,0.1,0.7,0.4,1,0.6c0.3,0.3,0.5,0.6,0.6,1   c0.2,0.4,0.2,0.9,0.2,1.4c0,0.2,0,0.3-0.1,0.4c0,0.1-0.1,0.1-0.2,0.1h-4.9c0,0.5,0.1,0.9,0.2,1.2c0.1,0.3,0.3,0.6,0.5,0.9   s0.4,0.4,0.7,0.5c0.3,0.1,0.6,0.2,0.9,0.2c0.3,0,0.6,0,0.8-0.1c0.2-0.1,0.4-0.2,0.6-0.2c0.2-0.1,0.3-0.2,0.4-0.2   c0.1-0.1,0.2-0.1,0.3-0.1c0.1,0,0.2,0,0.2,0.1L161.2,211.1z M160.2,207.6c0-0.3,0-0.6-0.1-0.8s-0.2-0.5-0.4-0.6   c-0.2-0.2-0.4-0.3-0.6-0.4c-0.2-0.1-0.5-0.1-0.8-0.1c-0.6,0-1.1,0.2-1.5,0.5c-0.4,0.4-0.6,0.9-0.7,1.5H160.2z"></path>
	<path class="st5" d="M169,201.4v10.7h-0.8c-0.2,0-0.3-0.1-0.4-0.3l-0.1-0.9c-0.3,0.4-0.7,0.7-1.1,0.9c-0.4,0.2-0.9,0.4-1.4,0.4   c-0.4,0-0.8-0.1-1.2-0.2c-0.3-0.2-0.6-0.4-0.9-0.7c-0.2-0.3-0.4-0.7-0.6-1.2s-0.2-1-0.2-1.6c0-0.5,0.1-1.1,0.2-1.5   c0.1-0.5,0.4-0.9,0.6-1.2c0.3-0.3,0.6-0.6,1-0.8c0.4-0.2,0.8-0.3,1.3-0.3c0.5,0,0.8,0.1,1.2,0.2c0.3,0.2,0.6,0.4,0.9,0.6v-4.1H169z    M167.7,206.5c-0.2-0.3-0.5-0.6-0.8-0.7c-0.3-0.1-0.6-0.2-0.9-0.2c-0.7,0-1.2,0.2-1.6,0.7c-0.4,0.5-0.6,1.2-0.6,2.1   c0,0.5,0,0.9,0.1,1.2c0.1,0.3,0.2,0.6,0.4,0.8c0.2,0.2,0.4,0.4,0.6,0.5c0.2,0.1,0.5,0.2,0.8,0.2c0.4,0,0.8-0.1,1.1-0.3   s0.6-0.5,0.9-0.8V206.5z"></path>
	<path class="st5" d="M177.2,201.4v10.7h-0.8c-0.2,0-0.3-0.1-0.4-0.3L176,211c-0.3,0.4-0.7,0.7-1.1,0.9c-0.4,0.2-0.9,0.4-1.4,0.4   c-0.4,0-0.8-0.1-1.2-0.2c-0.3-0.2-0.6-0.4-0.9-0.7c-0.2-0.3-0.4-0.7-0.6-1.2s-0.2-1-0.2-1.6c0-0.5,0.1-1.1,0.2-1.5   c0.1-0.5,0.4-0.9,0.6-1.2c0.3-0.3,0.6-0.6,1-0.8c0.4-0.2,0.8-0.3,1.3-0.3c0.5,0,0.8,0.1,1.2,0.2c0.3,0.2,0.6,0.4,0.9,0.6v-4.1   H177.2z M175.9,206.5c-0.2-0.3-0.5-0.6-0.8-0.7c-0.3-0.1-0.6-0.2-0.9-0.2c-0.7,0-1.2,0.2-1.6,0.7c-0.4,0.5-0.6,1.2-0.6,2.1   c0,0.5,0,0.9,0.1,1.2c0.1,0.3,0.2,0.6,0.4,0.8c0.2,0.2,0.4,0.4,0.6,0.5c0.2,0.1,0.5,0.2,0.8,0.2c0.4,0,0.8-0.1,1.1-0.3   s0.6-0.5,0.9-0.8V206.5z"></path>
	<path class="st5" d="M180.9,202.4c0,0.1,0,0.2-0.1,0.4c-0.1,0.1-0.1,0.2-0.2,0.3c-0.1,0.1-0.2,0.2-0.3,0.2s-0.2,0.1-0.4,0.1   s-0.2,0-0.4-0.1s-0.2-0.1-0.3-0.2c-0.1-0.1-0.1-0.2-0.2-0.3c0-0.1-0.1-0.2-0.1-0.4c0-0.1,0-0.2,0.1-0.4c0-0.1,0.1-0.2,0.2-0.3   c0.1-0.1,0.2-0.2,0.3-0.2c0.1,0,0.2-0.1,0.4-0.1s0.2,0,0.4,0.1c0.1,0,0.2,0.1,0.3,0.2c0.1,0.1,0.2,0.2,0.2,0.3   C180.9,202.2,180.9,202.3,180.9,202.4z M180.6,204.8v7.4h-1.3v-7.4H180.6z"></path>
	<path class="st5" d="M184,205.8c0.2-0.2,0.3-0.3,0.5-0.5c0.2-0.1,0.4-0.3,0.6-0.4s0.4-0.2,0.6-0.2c0.2-0.1,0.5-0.1,0.7-0.1   c0.4,0,0.8,0.1,1.1,0.2s0.6,0.3,0.8,0.6c0.2,0.2,0.4,0.5,0.5,0.9c0.1,0.3,0.2,0.7,0.2,1.1v4.7h-1.3v-4.7c0-0.6-0.1-1-0.4-1.3   c-0.3-0.3-0.6-0.5-1.2-0.5c-0.4,0-0.7,0.1-1.1,0.3s-0.6,0.4-0.9,0.8v5.4h-1.3v-7.4h0.8c0.2,0,0.3,0.1,0.3,0.3L184,205.8z"></path>
	<path class="st5" d="M197.1,205v0.5c0,0.2-0.1,0.3-0.3,0.3l-0.8,0.1c0.2,0.3,0.2,0.7,0.2,1.1c0,0.4-0.1,0.7-0.2,1   c-0.1,0.3-0.3,0.5-0.6,0.8s-0.5,0.4-0.9,0.5c-0.3,0.1-0.7,0.2-1.1,0.2c-0.3,0-0.7,0-1-0.1c-0.2,0.1-0.3,0.2-0.4,0.3   s-0.1,0.2-0.1,0.3c0,0.2,0.1,0.3,0.2,0.4c0.1,0.1,0.3,0.2,0.6,0.2c0.2,0,0.5,0.1,0.8,0.1s0.6,0,0.9,0c0.3,0,0.6,0.1,0.9,0.1   c0.3,0.1,0.6,0.1,0.8,0.3s0.4,0.3,0.6,0.5c0.1,0.2,0.2,0.5,0.2,0.8c0,0.3-0.1,0.6-0.2,0.9c-0.2,0.3-0.4,0.6-0.7,0.8   c-0.3,0.2-0.7,0.4-1.1,0.6s-0.9,0.2-1.5,0.2c-0.5,0-1-0.1-1.4-0.2c-0.4-0.1-0.7-0.2-1-0.4c-0.3-0.2-0.5-0.4-0.6-0.6   c-0.1-0.2-0.2-0.5-0.2-0.7c0-0.4,0.1-0.7,0.3-0.9s0.5-0.5,0.9-0.6c-0.2-0.1-0.4-0.2-0.5-0.4c-0.1-0.2-0.2-0.4-0.2-0.7   c0-0.1,0-0.2,0.1-0.3c0-0.1,0.1-0.2,0.2-0.3c0.1-0.1,0.2-0.2,0.3-0.3c0.1-0.1,0.3-0.2,0.4-0.3c-0.4-0.2-0.6-0.5-0.9-0.8   s-0.3-0.7-0.3-1.2c0-0.4,0.1-0.7,0.2-1c0.1-0.3,0.3-0.5,0.6-0.8c0.2-0.2,0.5-0.4,0.9-0.5c0.3-0.1,0.7-0.2,1.1-0.2   c0.3,0,0.6,0,0.9,0.1c0.3,0.1,0.5,0.2,0.8,0.3H197.1z M195.8,212.5c0-0.2-0.1-0.3-0.2-0.4c-0.1-0.1-0.2-0.2-0.4-0.3   c-0.2-0.1-0.4-0.1-0.6-0.1s-0.5,0-0.7-0.1c-0.3,0-0.5,0-0.8,0c-0.3,0-0.5,0-0.8-0.1c-0.3,0.1-0.5,0.3-0.7,0.5   c-0.2,0.2-0.3,0.4-0.3,0.7c0,0.2,0,0.3,0.1,0.5c0.1,0.1,0.2,0.3,0.4,0.4c0.2,0.1,0.4,0.2,0.7,0.2c0.3,0.1,0.6,0.1,0.9,0.1   c0.4,0,0.7,0,0.9-0.1c0.3-0.1,0.5-0.2,0.7-0.3s0.3-0.3,0.4-0.4C195.8,212.9,195.8,212.7,195.8,212.5z M193.5,208.5   c0.3,0,0.5,0,0.7-0.1c0.2-0.1,0.4-0.2,0.5-0.3c0.1-0.1,0.2-0.3,0.3-0.5c0.1-0.2,0.1-0.4,0.1-0.6c0-0.5-0.1-0.8-0.4-1.1   c-0.3-0.3-0.7-0.4-1.2-0.4c-0.5,0-0.9,0.1-1.2,0.4c-0.3,0.3-0.4,0.6-0.4,1.1c0,0.2,0,0.4,0.1,0.6c0.1,0.2,0.2,0.3,0.3,0.5   c0.1,0.1,0.3,0.2,0.5,0.3S193.2,208.5,193.5,208.5z"></path>
</g>
<g class="st4">
	<path class="st5" d="M156.7,222.5v0.5c0,0.2-0.1,0.3-0.3,0.3l-0.8,0.1c0.2,0.3,0.2,0.7,0.2,1.1c0,0.4-0.1,0.7-0.2,1   c-0.1,0.3-0.3,0.5-0.6,0.8s-0.5,0.4-0.9,0.5c-0.3,0.1-0.7,0.2-1.1,0.2c-0.3,0-0.7,0-1-0.1c-0.2,0.1-0.3,0.2-0.4,0.3   s-0.1,0.2-0.1,0.3c0,0.2,0.1,0.3,0.2,0.4c0.1,0.1,0.3,0.2,0.6,0.2c0.2,0,0.5,0.1,0.8,0.1s0.6,0,0.9,0c0.3,0,0.6,0.1,0.9,0.1   c0.3,0.1,0.6,0.1,0.8,0.3s0.4,0.3,0.6,0.5c0.1,0.2,0.2,0.5,0.2,0.8c0,0.3-0.1,0.6-0.2,0.9c-0.2,0.3-0.4,0.6-0.7,0.8   c-0.3,0.2-0.7,0.4-1.1,0.6s-0.9,0.2-1.5,0.2c-0.5,0-1-0.1-1.4-0.2c-0.4-0.1-0.7-0.2-1-0.4c-0.3-0.2-0.5-0.4-0.6-0.6   c-0.1-0.2-0.2-0.5-0.2-0.7c0-0.4,0.1-0.7,0.3-0.9s0.5-0.5,0.9-0.6c-0.2-0.1-0.4-0.2-0.5-0.4c-0.1-0.2-0.2-0.4-0.2-0.7   c0-0.1,0-0.2,0.1-0.3c0-0.1,0.1-0.2,0.2-0.3c0.1-0.1,0.2-0.2,0.3-0.3c0.1-0.1,0.3-0.2,0.4-0.3c-0.4-0.2-0.6-0.5-0.9-0.8   s-0.3-0.7-0.3-1.2c0-0.4,0.1-0.7,0.2-1c0.1-0.3,0.3-0.5,0.6-0.8c0.2-0.2,0.5-0.4,0.9-0.5c0.3-0.1,0.7-0.2,1.1-0.2   c0.3,0,0.6,0,0.9,0.1c0.3,0.1,0.5,0.2,0.8,0.3H156.7z M155.4,230c0-0.2-0.1-0.3-0.2-0.4c-0.1-0.1-0.2-0.2-0.4-0.3   c-0.2-0.1-0.4-0.1-0.6-0.1s-0.5,0-0.7-0.1c-0.3,0-0.5,0-0.8,0c-0.3,0-0.5,0-0.8-0.1c-0.3,0.1-0.5,0.3-0.7,0.5   c-0.2,0.2-0.3,0.4-0.3,0.7c0,0.2,0,0.3,0.1,0.5c0.1,0.1,0.2,0.3,0.4,0.4c0.2,0.1,0.4,0.2,0.7,0.2c0.3,0.1,0.6,0.1,0.9,0.1   c0.4,0,0.7,0,0.9-0.1c0.3-0.1,0.5-0.2,0.7-0.3s0.3-0.3,0.4-0.4C155.4,230.4,155.4,230.2,155.4,230z M153.1,226c0.3,0,0.5,0,0.7-0.1   c0.2-0.1,0.4-0.2,0.5-0.3c0.1-0.1,0.2-0.3,0.3-0.5c0.1-0.2,0.1-0.4,0.1-0.6c0-0.5-0.1-0.8-0.4-1.1c-0.3-0.3-0.7-0.4-1.2-0.4   c-0.5,0-0.9,0.1-1.2,0.4c-0.3,0.3-0.4,0.6-0.4,1.1c0,0.2,0,0.4,0.1,0.6c0.1,0.2,0.2,0.3,0.3,0.5c0.1,0.1,0.3,0.2,0.5,0.3   S152.8,226,153.1,226z"></path>
	<path class="st5" d="M161.1,222.1c0.5,0,1,0.1,1.5,0.3s0.8,0.4,1.1,0.8c0.3,0.3,0.5,0.7,0.7,1.2c0.2,0.5,0.2,1,0.2,1.6   c0,0.6-0.1,1.1-0.2,1.6c-0.2,0.5-0.4,0.9-0.7,1.2c-0.3,0.3-0.7,0.6-1.1,0.8s-0.9,0.3-1.5,0.3c-0.5,0-1-0.1-1.5-0.3   c-0.4-0.2-0.8-0.4-1.1-0.8s-0.5-0.7-0.7-1.2c-0.2-0.5-0.2-1-0.2-1.6c0-0.6,0.1-1.1,0.2-1.6c0.2-0.5,0.4-0.9,0.7-1.2   c0.3-0.3,0.7-0.6,1.1-0.8C160,222.2,160.5,222.1,161.1,222.1z M161.1,228.7c0.7,0,1.3-0.2,1.6-0.7c0.4-0.5,0.5-1.2,0.5-2   c0-0.9-0.2-1.6-0.5-2.1c-0.4-0.5-0.9-0.7-1.6-0.7c-0.4,0-0.7,0.1-1,0.2c-0.3,0.1-0.5,0.3-0.7,0.5c-0.2,0.2-0.3,0.5-0.4,0.9   c-0.1,0.3-0.1,0.7-0.1,1.2c0,0.9,0.2,1.6,0.5,2C159.8,228.5,160.3,228.7,161.1,228.7z"></path>
	<path class="st5" d="M176.3,222.2l-2.4,7.4h-1c-0.1,0-0.2-0.1-0.3-0.2l-1.6-5c0-0.1-0.1-0.2-0.1-0.3s0-0.2-0.1-0.3   c0,0.1,0,0.2-0.1,0.3c0,0.1-0.1,0.2-0.1,0.3l-1.7,5c0,0.2-0.1,0.2-0.3,0.2h-1l-2.4-7.4h1c0.1,0,0.2,0,0.3,0.1   c0.1,0.1,0.1,0.1,0.1,0.2l1.4,4.8c0.1,0.4,0.1,0.7,0.2,1c0-0.2,0.1-0.3,0.1-0.5c0-0.2,0.1-0.3,0.1-0.5l1.6-4.8   c0-0.1,0.1-0.1,0.1-0.2s0.1-0.1,0.2-0.1h0.6c0.1,0,0.2,0,0.2,0.1c0.1,0,0.1,0.1,0.1,0.2l1.5,4.8c0.1,0.2,0.1,0.3,0.1,0.5   c0,0.2,0.1,0.3,0.1,0.5c0-0.2,0.1-0.3,0.1-0.5c0-0.2,0.1-0.3,0.1-0.5l1.4-4.8c0-0.1,0.1-0.1,0.1-0.2c0.1-0.1,0.1-0.1,0.2-0.1H176.3   z"></path>
	<path class="st5" d="M178.8,223.3c0.2-0.2,0.3-0.3,0.5-0.5c0.2-0.1,0.4-0.3,0.6-0.4s0.4-0.2,0.6-0.2c0.2-0.1,0.5-0.1,0.7-0.1   c0.4,0,0.8,0.1,1.1,0.2s0.6,0.3,0.8,0.6c0.2,0.2,0.4,0.5,0.5,0.9c0.1,0.3,0.2,0.7,0.2,1.1v4.7h-1.3v-4.7c0-0.6-0.1-1-0.4-1.3   c-0.3-0.3-0.6-0.5-1.2-0.5c-0.4,0-0.7,0.1-1.1,0.3s-0.6,0.4-0.9,0.8v5.4h-1.3v-7.4h0.8c0.2,0,0.3,0.1,0.3,0.3L178.8,223.3z"></path>
	<path class="st5" d="M190,223.5c-0.1,0.1-0.1,0.2-0.3,0.2c-0.1,0-0.2,0-0.2-0.1s-0.2-0.1-0.3-0.2c-0.1-0.1-0.3-0.1-0.5-0.2   c-0.2-0.1-0.4-0.1-0.7-0.1c-0.2,0-0.4,0-0.6,0.1c-0.2,0.1-0.3,0.1-0.4,0.2c-0.1,0.1-0.2,0.2-0.3,0.3c-0.1,0.1-0.1,0.3-0.1,0.4   c0,0.2,0.1,0.3,0.2,0.5c0.1,0.1,0.3,0.2,0.4,0.3c0.2,0.1,0.4,0.2,0.6,0.2s0.5,0.1,0.7,0.2c0.2,0.1,0.5,0.2,0.7,0.3   c0.2,0.1,0.4,0.2,0.6,0.4c0.2,0.1,0.3,0.3,0.4,0.5c0.1,0.2,0.2,0.5,0.2,0.8c0,0.3-0.1,0.7-0.2,0.9c-0.1,0.3-0.3,0.5-0.5,0.8   c-0.2,0.2-0.5,0.4-0.9,0.5c-0.3,0.1-0.7,0.2-1.2,0.2c-0.5,0-1-0.1-1.4-0.3s-0.8-0.4-1.1-0.6l0.3-0.5c0-0.1,0.1-0.1,0.1-0.1   c0.1,0,0.1-0.1,0.2-0.1c0.1,0,0.2,0,0.3,0.1c0.1,0.1,0.2,0.1,0.4,0.2c0.1,0.1,0.3,0.2,0.5,0.2c0.2,0.1,0.4,0.1,0.7,0.1   c0.3,0,0.5,0,0.7-0.1c0.2-0.1,0.3-0.2,0.5-0.3c0.1-0.1,0.2-0.2,0.3-0.4c0.1-0.1,0.1-0.3,0.1-0.5c0-0.2-0.1-0.4-0.2-0.5   c-0.1-0.1-0.3-0.2-0.4-0.3s-0.4-0.2-0.6-0.2c-0.2-0.1-0.5-0.1-0.7-0.2c-0.2-0.1-0.5-0.2-0.7-0.3s-0.4-0.2-0.6-0.4   c-0.2-0.2-0.3-0.3-0.4-0.6c-0.1-0.2-0.2-0.5-0.2-0.8c0-0.3,0.1-0.6,0.2-0.8s0.3-0.5,0.5-0.7c0.2-0.2,0.5-0.4,0.8-0.5   c0.3-0.1,0.7-0.2,1.1-0.2c0.5,0,0.9,0.1,1.3,0.2c0.4,0.2,0.7,0.4,1,0.6L190,223.5z"></path>
</g>
<g class="st4">
	<path class="st5" d="M352,43.8l-3.3,10.5H347l-2.3-7.2c-0.1-0.2-0.1-0.4-0.2-0.6c0,0.1-0.1,0.2-0.1,0.3c0,0.1-0.1,0.2-0.1,0.3   l-2.3,7.2h-1.8L337,43.8h1.6c0.2,0,0.3,0,0.4,0.1s0.2,0.2,0.2,0.3l1.8,6.3c0,0.2,0.1,0.3,0.1,0.5c0,0.2,0.1,0.4,0.1,0.6   c0-0.2,0.1-0.4,0.1-0.6s0.1-0.3,0.1-0.5l2.1-6.3c0-0.1,0.1-0.2,0.2-0.3c0.1-0.1,0.3-0.1,0.4-0.1h0.6c0.2,0,0.3,0,0.4,0.1   c0.1,0.1,0.2,0.2,0.2,0.3l2.1,6.3c0.1,0.3,0.2,0.6,0.3,1c0.1-0.4,0.1-0.7,0.2-1l1.8-6.3c0-0.1,0.1-0.2,0.2-0.3s0.3-0.1,0.4-0.1H352   z"></path>
</g>
<g class="st4">
	<path class="st5" d="M354.1,50.8c0,0.4,0.1,0.7,0.2,1c0.1,0.3,0.2,0.5,0.4,0.7s0.4,0.3,0.6,0.4c0.2,0.1,0.5,0.1,0.8,0.1   s0.5,0,0.8-0.1c0.2-0.1,0.4-0.1,0.6-0.2c0.2-0.1,0.3-0.2,0.4-0.2s0.2-0.1,0.3-0.1c0.2,0,0.3,0.1,0.3,0.2l0.5,0.7   c-0.2,0.2-0.4,0.4-0.7,0.6c-0.2,0.2-0.5,0.3-0.8,0.4c-0.3,0.1-0.5,0.2-0.8,0.2s-0.6,0.1-0.8,0.1c-0.5,0-1-0.1-1.5-0.3   s-0.8-0.4-1.2-0.8c-0.3-0.3-0.6-0.8-0.8-1.3s-0.3-1.1-0.3-1.7c0-0.5,0.1-1,0.2-1.4s0.4-0.8,0.7-1.2c0.3-0.3,0.7-0.6,1.1-0.8   c0.4-0.2,0.9-0.3,1.5-0.3c0.5,0,0.9,0.1,1.3,0.2s0.7,0.4,1,0.7c0.3,0.3,0.5,0.6,0.7,1.1c0.2,0.4,0.2,0.9,0.2,1.4   c0,0.3,0,0.5-0.1,0.5s-0.2,0.1-0.3,0.1H354.1z M357.5,49.8c0-0.2,0-0.5-0.1-0.7c-0.1-0.2-0.2-0.4-0.3-0.5c-0.1-0.2-0.3-0.3-0.5-0.4   c-0.2-0.1-0.4-0.1-0.7-0.1c-0.5,0-0.9,0.1-1.2,0.4c-0.3,0.3-0.5,0.7-0.6,1.3H357.5z"></path>
	<path class="st5" d="M367,43.5v10.8h-1.1c-0.2,0-0.4-0.1-0.5-0.3l-0.2-0.7c-0.3,0.3-0.6,0.6-1,0.8c-0.4,0.2-0.8,0.3-1.4,0.3   c-0.4,0-0.8-0.1-1.1-0.3s-0.6-0.4-0.9-0.7c-0.2-0.3-0.4-0.7-0.6-1.2s-0.2-1-0.2-1.6c0-0.6,0.1-1.1,0.2-1.5c0.2-0.5,0.4-0.9,0.6-1.2   c0.3-0.3,0.6-0.6,1-0.8c0.4-0.2,0.8-0.3,1.3-0.3c0.4,0,0.8,0.1,1.1,0.2c0.3,0.1,0.6,0.3,0.8,0.5v-3.9H367z M365.2,48.8   c-0.2-0.2-0.4-0.4-0.7-0.5c-0.2-0.1-0.5-0.2-0.8-0.2c-0.3,0-0.5,0.1-0.7,0.2c-0.2,0.1-0.4,0.3-0.6,0.5c-0.2,0.2-0.3,0.5-0.4,0.8   c-0.1,0.3-0.1,0.7-0.1,1.1c0,0.4,0,0.8,0.1,1.1c0.1,0.3,0.2,0.6,0.3,0.7c0.1,0.2,0.3,0.3,0.5,0.4s0.4,0.1,0.6,0.1   c0.4,0,0.7-0.1,1-0.2c0.3-0.2,0.5-0.4,0.7-0.7V48.8z"></path>
	<path class="st5" d="M375.2,43.5v10.8h-1.1c-0.2,0-0.4-0.1-0.5-0.3l-0.2-0.7c-0.3,0.3-0.6,0.6-1,0.8c-0.4,0.2-0.8,0.3-1.4,0.3   c-0.4,0-0.8-0.1-1.1-0.3c-0.3-0.2-0.6-0.4-0.9-0.7s-0.4-0.7-0.6-1.2c-0.1-0.5-0.2-1-0.2-1.6c0-0.6,0.1-1.1,0.2-1.5   c0.2-0.5,0.4-0.9,0.6-1.2c0.3-0.3,0.6-0.6,1-0.8c0.4-0.2,0.8-0.3,1.3-0.3c0.4,0,0.8,0.1,1.1,0.2c0.3,0.1,0.6,0.3,0.8,0.5v-3.9   H375.2z M373.4,48.8c-0.2-0.2-0.4-0.4-0.7-0.5c-0.2-0.1-0.5-0.2-0.8-0.2c-0.3,0-0.5,0.1-0.7,0.2c-0.2,0.1-0.4,0.3-0.6,0.5   c-0.2,0.2-0.3,0.5-0.4,0.8c-0.1,0.3-0.1,0.7-0.1,1.1c0,0.4,0,0.8,0.1,1.1s0.2,0.6,0.3,0.7c0.1,0.2,0.3,0.3,0.5,0.4s0.4,0.1,0.6,0.1   c0.4,0,0.7-0.1,1-0.2s0.5-0.4,0.7-0.7V48.8z"></path>
	<path class="st5" d="M379.1,44.7c0,0.2,0,0.3-0.1,0.4c-0.1,0.1-0.1,0.3-0.3,0.4c-0.1,0.1-0.2,0.2-0.4,0.2c-0.1,0.1-0.3,0.1-0.5,0.1   c-0.2,0-0.3,0-0.4-0.1s-0.3-0.1-0.4-0.2c-0.1-0.1-0.2-0.2-0.2-0.4c-0.1-0.1-0.1-0.3-0.1-0.4c0-0.2,0-0.3,0.1-0.5   c0.1-0.1,0.1-0.3,0.2-0.4c0.1-0.1,0.2-0.2,0.4-0.2s0.3-0.1,0.4-0.1c0.2,0,0.3,0,0.5,0.1c0.1,0.1,0.3,0.1,0.4,0.2   c0.1,0.1,0.2,0.2,0.3,0.4C379.1,44.4,379.1,44.5,379.1,44.7z M378.9,46.9v7.5h-1.8v-7.5H378.9z"></path>
	<path class="st5" d="M382.4,47.8c0.2-0.2,0.3-0.3,0.5-0.4c0.2-0.1,0.3-0.2,0.5-0.3c0.2-0.1,0.4-0.2,0.6-0.2s0.4-0.1,0.7-0.1   c0.4,0,0.8,0.1,1.1,0.2c0.3,0.1,0.6,0.3,0.8,0.6c0.2,0.3,0.4,0.5,0.5,0.9s0.2,0.7,0.2,1.1v4.8h-1.8v-4.8c0-0.5-0.1-0.8-0.3-1.1   c-0.2-0.2-0.5-0.4-1-0.4c-0.3,0-0.6,0.1-0.9,0.2c-0.3,0.1-0.5,0.3-0.8,0.6v5.4h-1.8v-7.5h1.1c0.2,0,0.4,0.1,0.5,0.3L382.4,47.8z"></path>
	<path class="st5" d="M395.5,47.1v0.7c0,0.2-0.1,0.3-0.4,0.4l-0.7,0.1c0.1,0.3,0.2,0.5,0.2,0.8c0,0.4-0.1,0.7-0.2,1   s-0.4,0.6-0.6,0.8c-0.3,0.2-0.6,0.4-0.9,0.5c-0.4,0.1-0.7,0.2-1.2,0.2c-0.1,0-0.3,0-0.4,0c-0.1,0-0.3,0-0.4-0.1   c-0.2,0.1-0.4,0.3-0.4,0.5c0,0.2,0.1,0.3,0.2,0.3s0.3,0.1,0.6,0.1s0.5,0,0.8,0.1c0.3,0,0.6,0,0.9,0c0.3,0,0.6,0.1,0.9,0.1   c0.3,0.1,0.6,0.2,0.8,0.3s0.4,0.3,0.5,0.5c0.1,0.2,0.2,0.5,0.2,0.9c0,0.3-0.1,0.7-0.2,1c-0.2,0.3-0.4,0.6-0.7,0.8s-0.7,0.4-1.1,0.6   c-0.4,0.1-1,0.2-1.5,0.2c-0.6,0-1.1-0.1-1.5-0.2s-0.8-0.3-1-0.4c-0.3-0.2-0.5-0.4-0.6-0.6s-0.2-0.5-0.2-0.7c0-0.3,0.1-0.6,0.3-0.9   c0.2-0.2,0.5-0.4,0.9-0.6c-0.2-0.1-0.4-0.2-0.5-0.4c-0.1-0.2-0.2-0.4-0.2-0.7c0-0.1,0-0.2,0.1-0.3s0.1-0.2,0.2-0.4   c0.1-0.1,0.2-0.2,0.3-0.3c0.1-0.1,0.3-0.2,0.4-0.3c-0.4-0.2-0.7-0.5-0.9-0.8c-0.2-0.3-0.3-0.7-0.3-1.2c0-0.4,0.1-0.7,0.2-1   c0.1-0.3,0.4-0.6,0.6-0.8c0.3-0.2,0.6-0.4,0.9-0.5c0.4-0.1,0.8-0.2,1.2-0.2c0.3,0,0.6,0,0.9,0.1c0.3,0.1,0.5,0.2,0.8,0.3H395.5z    M393.7,54.7c0-0.1,0-0.3-0.1-0.4c-0.1-0.1-0.2-0.2-0.4-0.2c-0.2-0.1-0.3-0.1-0.5-0.1c-0.2,0-0.4,0-0.6-0.1c-0.2,0-0.5,0-0.7,0   s-0.5,0-0.7-0.1c-0.2,0.1-0.4,0.2-0.5,0.4c-0.1,0.2-0.2,0.3-0.2,0.5c0,0.1,0,0.3,0.1,0.4s0.2,0.2,0.3,0.3c0.1,0.1,0.3,0.1,0.6,0.2   s0.5,0.1,0.8,0.1c0.3,0,0.6,0,0.9-0.1c0.2-0.1,0.4-0.1,0.6-0.2c0.2-0.1,0.3-0.2,0.3-0.3S393.7,54.8,393.7,54.7z M391.7,50.4   c0.2,0,0.4,0,0.6-0.1c0.2-0.1,0.3-0.1,0.4-0.3c0.1-0.1,0.2-0.2,0.2-0.4c0.1-0.2,0.1-0.3,0.1-0.5c0-0.4-0.1-0.7-0.3-0.9   c-0.2-0.2-0.6-0.3-1-0.3s-0.8,0.1-1,0.3c-0.2,0.2-0.3,0.5-0.3,0.9c0,0.2,0,0.3,0.1,0.5c0.1,0.2,0.1,0.3,0.2,0.4s0.2,0.2,0.4,0.3   C391.3,50.4,391.5,50.4,391.7,50.4z"></path>
	<path class="st5" d="M409.2,49.1v4.3c-0.5,0.4-1.1,0.7-1.7,0.9c-0.6,0.2-1.3,0.3-1.9,0.3c-0.9,0-1.6-0.1-2.3-0.4s-1.3-0.6-1.8-1.1   s-0.9-1-1.1-1.7c-0.3-0.7-0.4-1.4-0.4-2.2c0-0.8,0.1-1.5,0.4-2.2c0.3-0.7,0.6-1.2,1.1-1.7s1-0.8,1.7-1.1c0.7-0.3,1.4-0.4,2.3-0.4   c0.4,0,0.8,0,1.2,0.1c0.4,0.1,0.7,0.2,1,0.3s0.6,0.3,0.9,0.4c0.3,0.2,0.5,0.4,0.7,0.6l-0.6,0.9c-0.1,0.1-0.2,0.2-0.3,0.3   c-0.1,0-0.3,0-0.5-0.1c-0.2-0.1-0.3-0.2-0.5-0.3s-0.3-0.2-0.5-0.2c-0.2-0.1-0.4-0.1-0.7-0.2s-0.5-0.1-0.8-0.1c-0.5,0-1,0.1-1.4,0.3   c-0.4,0.2-0.8,0.4-1.1,0.8c-0.3,0.3-0.5,0.7-0.7,1.2c-0.2,0.5-0.2,1-0.2,1.5c0,0.6,0.1,1.1,0.3,1.6c0.2,0.5,0.4,0.9,0.7,1.2   s0.7,0.6,1.1,0.8s0.9,0.3,1.5,0.3c0.4,0,0.7,0,1-0.1c0.3-0.1,0.6-0.2,0.9-0.3v-1.9h-1.3c-0.1,0-0.2,0-0.3-0.1s-0.1-0.2-0.1-0.3   v-1.1H409.2z"></path>
	<path class="st5" d="M414,46.8c0.6,0,1.1,0.1,1.5,0.3c0.5,0.2,0.8,0.4,1.2,0.8c0.3,0.3,0.6,0.7,0.7,1.2s0.3,1,0.3,1.6   c0,0.6-0.1,1.1-0.3,1.6s-0.4,0.9-0.7,1.2c-0.3,0.3-0.7,0.6-1.2,0.8c-0.5,0.2-1,0.3-1.5,0.3c-0.6,0-1.1-0.1-1.5-0.3   c-0.5-0.2-0.8-0.4-1.2-0.8c-0.3-0.3-0.6-0.7-0.8-1.2c-0.2-0.5-0.3-1-0.3-1.6c0-0.6,0.1-1.1,0.3-1.6c0.2-0.5,0.4-0.9,0.8-1.2   c0.3-0.3,0.7-0.6,1.2-0.8C412.9,46.8,413.4,46.8,414,46.8z M414,53.1c0.6,0,1.1-0.2,1.4-0.6s0.4-1,0.4-1.8c0-0.8-0.1-1.4-0.4-1.8   s-0.8-0.6-1.4-0.6c-0.6,0-1.1,0.2-1.4,0.6c-0.3,0.4-0.5,1-0.5,1.8c0,0.8,0.2,1.4,0.5,1.8C412.9,52.9,413.4,53.1,414,53.1z"></path>
	<path class="st5" d="M429.6,46.9l-2.4,7.5h-1.4c-0.2,0-0.3-0.1-0.3-0.3l-1.3-4.3c0-0.1-0.1-0.3-0.1-0.4s-0.1-0.3-0.1-0.4   c0,0.1-0.1,0.3-0.1,0.4s-0.1,0.3-0.1,0.4l-1.4,4.3c-0.1,0.2-0.2,0.3-0.4,0.3h-1.4l-2.4-7.5h1.4c0.1,0,0.2,0,0.3,0.1   c0.1,0.1,0.2,0.1,0.2,0.2l1.1,4c0.1,0.2,0.1,0.4,0.1,0.6s0.1,0.4,0.1,0.6c0.1-0.2,0.1-0.4,0.2-0.6s0.1-0.4,0.2-0.6l1.2-4   c0-0.1,0.1-0.2,0.2-0.2s0.2-0.1,0.3-0.1h0.8c0.1,0,0.2,0,0.3,0.1s0.1,0.1,0.2,0.2l1.2,4c0.1,0.2,0.1,0.4,0.2,0.6   c0.1,0.2,0.1,0.4,0.2,0.6c0.1-0.4,0.2-0.8,0.3-1.3l1.1-4c0-0.1,0.1-0.2,0.2-0.2c0.1-0.1,0.2-0.1,0.3-0.1H429.6z"></path>
	<path class="st5" d="M432.3,47.8c0.2-0.2,0.3-0.3,0.5-0.4c0.2-0.1,0.3-0.2,0.5-0.3c0.2-0.1,0.4-0.2,0.6-0.2s0.4-0.1,0.7-0.1   c0.4,0,0.8,0.1,1.1,0.2c0.3,0.1,0.6,0.3,0.8,0.6c0.2,0.3,0.4,0.5,0.5,0.9s0.2,0.7,0.2,1.1v4.8h-1.8v-4.8c0-0.5-0.1-0.8-0.3-1.1   c-0.2-0.2-0.5-0.4-1-0.4c-0.3,0-0.6,0.1-0.9,0.2c-0.3,0.1-0.5,0.3-0.8,0.6v5.4h-1.8v-7.5h1.1c0.2,0,0.4,0.1,0.5,0.3L432.3,47.8z"></path>
	<path class="st5" d="M443.4,48.3c0,0.1-0.1,0.1-0.2,0.2c-0.1,0-0.1,0-0.2,0c-0.1,0-0.2,0-0.3-0.1s-0.2-0.1-0.3-0.2   c-0.1-0.1-0.3-0.1-0.4-0.2c-0.2,0-0.4-0.1-0.6-0.1c-0.4,0-0.6,0.1-0.8,0.2c-0.2,0.2-0.3,0.3-0.3,0.6c0,0.2,0.1,0.3,0.2,0.4   s0.2,0.2,0.4,0.3c0.2,0.1,0.4,0.2,0.6,0.2s0.4,0.1,0.7,0.2c0.2,0.1,0.4,0.2,0.7,0.3s0.4,0.2,0.6,0.4c0.2,0.2,0.3,0.3,0.4,0.6   s0.2,0.5,0.2,0.8c0,0.4-0.1,0.7-0.2,1s-0.3,0.6-0.6,0.8c-0.3,0.2-0.6,0.4-0.9,0.5c-0.4,0.1-0.8,0.2-1.3,0.2c-0.3,0-0.5,0-0.8-0.1   c-0.2,0-0.5-0.1-0.7-0.2c-0.2-0.1-0.4-0.2-0.6-0.3c-0.2-0.1-0.4-0.2-0.5-0.4l0.4-0.7c0.1-0.1,0.1-0.1,0.2-0.2s0.2-0.1,0.3-0.1   c0.1,0,0.2,0,0.3,0.1c0.1,0.1,0.2,0.1,0.3,0.2s0.3,0.1,0.5,0.2s0.4,0.1,0.7,0.1c0.2,0,0.4,0,0.5-0.1c0.2-0.1,0.3-0.1,0.4-0.2   c0.1-0.1,0.2-0.2,0.2-0.3c0-0.1,0.1-0.2,0.1-0.3c0-0.2-0.1-0.3-0.2-0.4c-0.1-0.1-0.2-0.2-0.4-0.3c-0.2-0.1-0.4-0.2-0.6-0.2   c-0.2-0.1-0.4-0.1-0.7-0.2c-0.2-0.1-0.5-0.2-0.7-0.3c-0.2-0.1-0.4-0.2-0.6-0.4c-0.2-0.2-0.3-0.4-0.4-0.6s-0.2-0.5-0.2-0.8   c0-0.3,0.1-0.6,0.2-0.9c0.1-0.3,0.3-0.5,0.5-0.7c0.2-0.2,0.5-0.4,0.9-0.5s0.8-0.2,1.2-0.2c0.5,0,1,0.1,1.4,0.3s0.8,0.4,1.1,0.7   L443.4,48.3z"></path>
</g>
<g class="st4">
	<path class="st5" d="M348.1,122c0,0.8-0.1,1.5-0.4,2.1c-0.3,0.7-0.6,1.2-1.1,1.7c-0.5,0.5-1,0.9-1.7,1.1c-0.7,0.3-1.4,0.4-2.2,0.4   c-0.8,0-1.5-0.1-2.2-0.4s-1.2-0.6-1.7-1.1c-0.5-0.5-0.8-1.1-1.1-1.7c-0.3-0.7-0.4-1.4-0.4-2.1s0.1-1.5,0.4-2.1   c0.3-0.7,0.6-1.2,1.1-1.7c0.5-0.5,1-0.9,1.7-1.1c0.7-0.3,1.4-0.4,2.2-0.4c0.5,0,1,0.1,1.5,0.2c0.5,0.1,0.9,0.3,1.3,0.5   s0.7,0.5,1.1,0.8s0.6,0.7,0.8,1.1c0.2,0.4,0.4,0.8,0.5,1.3S348.1,121.5,348.1,122z M346.1,122c0-0.6-0.1-1.1-0.2-1.6   c-0.2-0.5-0.4-0.8-0.7-1.2c-0.3-0.3-0.6-0.6-1-0.7c-0.4-0.2-0.9-0.3-1.4-0.3c-0.5,0-1,0.1-1.4,0.3c-0.4,0.2-0.8,0.4-1,0.7   c-0.3,0.3-0.5,0.7-0.7,1.2s-0.2,1-0.2,1.6s0.1,1.1,0.2,1.6c0.2,0.5,0.4,0.8,0.7,1.2s0.6,0.6,1,0.7c0.4,0.2,0.9,0.3,1.4,0.3   c0.5,0,1-0.1,1.4-0.3c0.4-0.2,0.8-0.4,1-0.7c0.3-0.3,0.5-0.7,0.7-1.2C346,123.1,346.1,122.6,346.1,122z"></path>
	<path class="st5" d="M355.9,119.8v7.5h-1.1c-0.2,0-0.4-0.1-0.5-0.3l-0.1-0.6c-0.3,0.3-0.6,0.6-1,0.8c-0.4,0.2-0.8,0.3-1.3,0.3   c-0.4,0-0.8-0.1-1.1-0.2s-0.6-0.3-0.8-0.6s-0.4-0.6-0.5-0.9s-0.2-0.7-0.2-1.1v-4.8h1.8v4.8c0,0.5,0.1,0.8,0.3,1.1   c0.2,0.3,0.5,0.4,1,0.4c0.3,0,0.6-0.1,0.9-0.2c0.3-0.1,0.5-0.3,0.8-0.6v-5.4H355.9z"></path>
	<path class="st5" d="M359.3,121.1c0.2-0.4,0.5-0.8,0.8-1.1c0.3-0.3,0.7-0.4,1.1-0.4c0.3,0,0.6,0.1,0.8,0.2l-0.1,1.3   c0,0.1-0.1,0.1-0.1,0.2s-0.1,0.1-0.2,0.1c-0.1,0-0.2,0-0.3,0c-0.1,0-0.3,0-0.4,0c-0.2,0-0.4,0-0.5,0.1c-0.2,0.1-0.3,0.1-0.4,0.3   s-0.2,0.2-0.3,0.4c-0.1,0.2-0.2,0.3-0.3,0.5v4.6h-1.8v-7.5h1.1c0.2,0,0.3,0,0.4,0.1s0.1,0.2,0.1,0.4L359.3,121.1z"></path>
	<path class="st5" d="M370.2,116.7c0.7,0,1.3,0.1,1.8,0.2c0.5,0.1,0.9,0.3,1.2,0.6s0.5,0.5,0.7,0.9c0.1,0.3,0.2,0.7,0.2,1.2   c0,0.2,0,0.5-0.1,0.7c-0.1,0.2-0.2,0.4-0.3,0.6c-0.2,0.2-0.3,0.4-0.6,0.5c-0.2,0.2-0.5,0.3-0.8,0.4c1.4,0.3,2.2,1.1,2.2,2.3   c0,0.4-0.1,0.9-0.3,1.2c-0.2,0.4-0.4,0.7-0.7,1c-0.3,0.3-0.7,0.5-1.2,0.6s-1,0.2-1.6,0.2h-4v-10.5H370.2z M368.6,118.2v3h1.6   c0.7,0,1.2-0.1,1.5-0.4c0.3-0.2,0.5-0.6,0.5-1.2c0-0.5-0.2-0.9-0.5-1.2c-0.3-0.2-0.8-0.4-1.5-0.4H368.6z M370.5,125.7   c0.4,0,0.7,0,0.9-0.1s0.4-0.2,0.6-0.3c0.1-0.1,0.3-0.3,0.3-0.5s0.1-0.4,0.1-0.6c0-0.2,0-0.4-0.1-0.6c-0.1-0.2-0.2-0.3-0.3-0.5   s-0.4-0.2-0.6-0.3c-0.2-0.1-0.5-0.1-0.9-0.1h-2v3.1H370.5z"></path>
	<path class="st5" d="M377.5,121.1c0.2-0.4,0.5-0.8,0.8-1.1c0.3-0.3,0.7-0.4,1.1-0.4c0.3,0,0.6,0.1,0.8,0.2l-0.1,1.3   c0,0.1-0.1,0.1-0.1,0.2c0,0-0.1,0.1-0.2,0.1c-0.1,0-0.2,0-0.3,0s-0.3,0-0.4,0c-0.2,0-0.4,0-0.5,0.1s-0.3,0.1-0.4,0.3   s-0.2,0.2-0.3,0.4c-0.1,0.2-0.2,0.3-0.3,0.5v4.6h-1.8v-7.5h1.1c0.2,0,0.3,0,0.4,0.1c0.1,0.1,0.1,0.2,0.1,0.4L377.5,121.1z"></path>
	<path class="st5" d="M383.3,117.6c0,0.2,0,0.3-0.1,0.4c-0.1,0.1-0.1,0.3-0.3,0.4c-0.1,0.1-0.2,0.2-0.4,0.2   c-0.1,0.1-0.3,0.1-0.5,0.1c-0.2,0-0.3,0-0.4-0.1s-0.3-0.1-0.4-0.2c-0.1-0.1-0.2-0.2-0.2-0.4s-0.1-0.3-0.1-0.4c0-0.2,0-0.3,0.1-0.5   c0.1-0.1,0.1-0.3,0.2-0.4c0.1-0.1,0.2-0.2,0.4-0.2s0.3-0.1,0.4-0.1c0.2,0,0.3,0,0.5,0.1c0.1,0.1,0.3,0.1,0.4,0.2   c0.1,0.1,0.2,0.2,0.3,0.4C383.3,117.3,383.3,117.4,383.3,117.6z M383.1,119.8v7.5h-1.8v-7.5H383.1z"></path>
	<path class="st5" d="M391.4,116.4v10.8h-1.1c-0.2,0-0.4-0.1-0.5-0.3l-0.2-0.7c-0.3,0.3-0.6,0.6-1,0.8c-0.4,0.2-0.8,0.3-1.4,0.3   c-0.4,0-0.8-0.1-1.1-0.3s-0.6-0.4-0.9-0.7c-0.2-0.3-0.4-0.7-0.6-1.2s-0.2-1-0.2-1.6c0-0.6,0.1-1.1,0.2-1.5c0.2-0.5,0.4-0.9,0.6-1.2   c0.3-0.3,0.6-0.6,1-0.8c0.4-0.2,0.8-0.3,1.3-0.3c0.4,0,0.8,0.1,1.1,0.2c0.3,0.1,0.6,0.3,0.8,0.5v-3.9H391.4z M389.6,121.7   c-0.2-0.2-0.4-0.4-0.7-0.5c-0.2-0.1-0.5-0.2-0.8-0.2c-0.3,0-0.5,0.1-0.7,0.2c-0.2,0.1-0.4,0.3-0.6,0.5c-0.2,0.2-0.3,0.5-0.4,0.8   c-0.1,0.3-0.1,0.7-0.1,1.1c0,0.4,0,0.8,0.1,1.1c0.1,0.3,0.2,0.6,0.3,0.7c0.1,0.2,0.3,0.3,0.5,0.4s0.4,0.1,0.6,0.1   c0.4,0,0.7-0.1,1-0.2c0.3-0.2,0.5-0.4,0.7-0.7V121.7z"></path>
	<path class="st5" d="M393,120.8c0.9-0.8,1.9-1.2,3.1-1.2c0.4,0,0.8,0.1,1.2,0.2c0.3,0.1,0.6,0.3,0.9,0.6c0.2,0.3,0.4,0.6,0.5,0.9   c0.1,0.4,0.2,0.7,0.2,1.2v4.7h-0.8c-0.2,0-0.3,0-0.4-0.1c-0.1-0.1-0.2-0.2-0.2-0.3l-0.2-0.5c-0.2,0.2-0.4,0.3-0.6,0.4   s-0.4,0.2-0.6,0.3c-0.2,0.1-0.4,0.2-0.6,0.2c-0.2,0-0.5,0.1-0.7,0.1c-0.3,0-0.6,0-0.9-0.1c-0.3-0.1-0.5-0.2-0.7-0.4   s-0.3-0.4-0.5-0.6c-0.1-0.3-0.2-0.5-0.2-0.9c0-0.2,0-0.4,0.1-0.6c0.1-0.2,0.2-0.4,0.3-0.5s0.3-0.3,0.6-0.5c0.2-0.2,0.5-0.3,0.8-0.4   c0.3-0.1,0.7-0.2,1.2-0.3s0.9-0.1,1.5-0.1v-0.4c0-0.5-0.1-0.9-0.3-1.1c-0.2-0.2-0.5-0.4-0.9-0.4c-0.3,0-0.5,0-0.7,0.1   c-0.2,0.1-0.4,0.1-0.5,0.2c-0.1,0.1-0.3,0.2-0.4,0.2c-0.1,0.1-0.3,0.1-0.4,0.1c-0.1,0-0.2,0-0.3-0.1c-0.1-0.1-0.2-0.1-0.2-0.2   L393,120.8z M397.1,124.1c-0.5,0-1,0.1-1.3,0.1c-0.4,0.1-0.6,0.1-0.9,0.3c-0.2,0.1-0.4,0.2-0.5,0.4c-0.1,0.1-0.1,0.3-0.1,0.4   c0,0.3,0.1,0.5,0.3,0.7c0.2,0.1,0.4,0.2,0.7,0.2c0.4,0,0.7-0.1,1-0.2s0.5-0.3,0.8-0.6V124.1z"></path>
	<path class="st5" d="M402.4,116.4v10.8h-1.8v-10.8H402.4z"></path>
	<path class="st5" d="M417.4,122c0,0.8-0.1,1.5-0.4,2.1s-0.6,1.2-1.1,1.7c-0.5,0.5-1,0.8-1.7,1.1c-0.7,0.3-1.4,0.4-2.2,0.4h-4v-10.5   h4c0.8,0,1.5,0.1,2.2,0.4s1.2,0.6,1.7,1.1c0.5,0.5,0.8,1,1.1,1.7S417.4,121.2,417.4,122z M415.4,122c0-0.6-0.1-1.1-0.2-1.6   s-0.4-0.8-0.7-1.2s-0.6-0.6-1-0.7c-0.4-0.2-0.9-0.3-1.4-0.3h-2v7.4h2c0.5,0,1-0.1,1.4-0.3c0.4-0.2,0.8-0.4,1-0.7s0.5-0.7,0.7-1.2   C415.3,123.1,415.4,122.6,415.4,122z"></path>
	<path class="st5" d="M420.4,121.1c0.2-0.4,0.5-0.8,0.8-1.1c0.3-0.3,0.7-0.4,1.1-0.4c0.3,0,0.6,0.1,0.8,0.2l-0.1,1.3   c0,0.1-0.1,0.1-0.1,0.2c0,0-0.1,0.1-0.2,0.1c-0.1,0-0.2,0-0.3,0s-0.3,0-0.4,0c-0.2,0-0.4,0-0.5,0.1s-0.3,0.1-0.4,0.3   s-0.2,0.2-0.3,0.4c-0.1,0.2-0.2,0.3-0.3,0.5v4.6h-1.8v-7.5h1.1c0.2,0,0.3,0,0.4,0.1c0.1,0.1,0.1,0.2,0.1,0.4L420.4,121.1z"></path>
	<path class="st5" d="M425.3,123.7c0,0.4,0.1,0.7,0.2,1c0.1,0.3,0.2,0.5,0.4,0.7s0.4,0.3,0.6,0.4c0.2,0.1,0.5,0.1,0.8,0.1   s0.5,0,0.8-0.1c0.2-0.1,0.4-0.1,0.6-0.2c0.2-0.1,0.3-0.2,0.4-0.2s0.2-0.1,0.3-0.1c0.2,0,0.3,0.1,0.3,0.2l0.5,0.7   c-0.2,0.2-0.4,0.4-0.7,0.6c-0.2,0.2-0.5,0.3-0.8,0.4c-0.3,0.1-0.5,0.2-0.8,0.2s-0.6,0.1-0.8,0.1c-0.5,0-1-0.1-1.5-0.3   s-0.8-0.4-1.2-0.8c-0.3-0.3-0.6-0.8-0.8-1.3s-0.3-1.1-0.3-1.7c0-0.5,0.1-1,0.2-1.4s0.4-0.8,0.7-1.2c0.3-0.3,0.7-0.6,1.1-0.8   c0.4-0.2,0.9-0.3,1.5-0.3c0.5,0,0.9,0.1,1.3,0.2s0.7,0.4,1,0.7c0.3,0.3,0.5,0.6,0.7,1.1c0.2,0.4,0.2,0.9,0.2,1.4   c0,0.3,0,0.5-0.1,0.5s-0.2,0.1-0.3,0.1H425.3z M428.8,122.7c0-0.2,0-0.5-0.1-0.7c-0.1-0.2-0.2-0.4-0.3-0.5   c-0.1-0.2-0.3-0.3-0.5-0.4c-0.2-0.1-0.4-0.1-0.7-0.1c-0.5,0-0.9,0.1-1.2,0.4c-0.3,0.3-0.5,0.7-0.6,1.3H428.8z"></path>
	<path class="st5" d="M436.3,121.2c0,0.1-0.1,0.1-0.2,0.2c-0.1,0-0.1,0-0.2,0c-0.1,0-0.2,0-0.3-0.1s-0.2-0.1-0.3-0.2   c-0.1-0.1-0.3-0.1-0.4-0.2c-0.2,0-0.4-0.1-0.6-0.1c-0.4,0-0.6,0.1-0.8,0.2c-0.2,0.2-0.3,0.3-0.3,0.6c0,0.2,0.1,0.3,0.2,0.4   s0.2,0.2,0.4,0.3c0.2,0.1,0.4,0.2,0.6,0.2s0.4,0.1,0.7,0.2c0.2,0.1,0.4,0.2,0.7,0.3s0.4,0.2,0.6,0.4c0.2,0.2,0.3,0.3,0.4,0.6   s0.2,0.5,0.2,0.8c0,0.4-0.1,0.7-0.2,1s-0.3,0.6-0.6,0.8c-0.3,0.2-0.6,0.4-0.9,0.5c-0.4,0.1-0.8,0.2-1.3,0.2c-0.3,0-0.5,0-0.8-0.1   c-0.2,0-0.5-0.1-0.7-0.2c-0.2-0.1-0.4-0.2-0.6-0.3c-0.2-0.1-0.4-0.2-0.5-0.4l0.4-0.7c0.1-0.1,0.1-0.1,0.2-0.2s0.2-0.1,0.3-0.1   c0.1,0,0.2,0,0.3,0.1c0.1,0.1,0.2,0.1,0.3,0.2s0.3,0.1,0.5,0.2s0.4,0.1,0.7,0.1c0.2,0,0.4,0,0.5-0.1c0.2-0.1,0.3-0.1,0.4-0.2   c0.1-0.1,0.2-0.2,0.2-0.3c0-0.1,0.1-0.2,0.1-0.3c0-0.2-0.1-0.3-0.2-0.4c-0.1-0.1-0.2-0.2-0.4-0.3c-0.2-0.1-0.4-0.2-0.6-0.2   c-0.2-0.1-0.4-0.1-0.7-0.2c-0.2-0.1-0.5-0.2-0.7-0.3c-0.2-0.1-0.4-0.2-0.6-0.4c-0.2-0.2-0.3-0.4-0.4-0.6s-0.2-0.5-0.2-0.8   c0-0.3,0.1-0.6,0.2-0.9c0.1-0.3,0.3-0.5,0.5-0.7c0.2-0.2,0.5-0.4,0.9-0.5s0.8-0.2,1.2-0.2c0.5,0,1,0.1,1.4,0.3s0.8,0.4,1.1,0.7   L436.3,121.2z"></path>
	<path class="st5" d="M442.7,121.2c0,0.1-0.1,0.1-0.2,0.2s-0.1,0-0.2,0c-0.1,0-0.2,0-0.3-0.1s-0.2-0.1-0.3-0.2   c-0.1-0.1-0.3-0.1-0.4-0.2s-0.4-0.1-0.6-0.1c-0.4,0-0.6,0.1-0.8,0.2c-0.2,0.2-0.3,0.3-0.3,0.6c0,0.2,0.1,0.3,0.2,0.4   s0.2,0.2,0.4,0.3c0.2,0.1,0.4,0.2,0.6,0.2s0.4,0.1,0.7,0.2c0.2,0.1,0.4,0.2,0.7,0.3s0.4,0.2,0.6,0.4s0.3,0.3,0.4,0.6   s0.2,0.5,0.2,0.8c0,0.4-0.1,0.7-0.2,1s-0.3,0.6-0.6,0.8c-0.3,0.2-0.6,0.4-0.9,0.5s-0.8,0.2-1.3,0.2c-0.3,0-0.5,0-0.8-0.1   c-0.2,0-0.5-0.1-0.7-0.2c-0.2-0.1-0.4-0.2-0.6-0.3c-0.2-0.1-0.4-0.2-0.5-0.4l0.4-0.7c0.1-0.1,0.1-0.1,0.2-0.2   c0.1,0,0.2-0.1,0.3-0.1c0.1,0,0.2,0,0.3,0.1s0.2,0.1,0.3,0.2c0.1,0.1,0.3,0.1,0.5,0.2c0.2,0.1,0.4,0.1,0.7,0.1c0.2,0,0.4,0,0.6-0.1   c0.2-0.1,0.3-0.1,0.4-0.2c0.1-0.1,0.2-0.2,0.2-0.3s0.1-0.2,0.1-0.3c0-0.2-0.1-0.3-0.2-0.4c-0.1-0.1-0.2-0.2-0.4-0.3   c-0.2-0.1-0.4-0.2-0.6-0.2c-0.2-0.1-0.4-0.1-0.7-0.2c-0.2-0.1-0.5-0.2-0.7-0.3c-0.2-0.1-0.4-0.2-0.6-0.4c-0.2-0.2-0.3-0.4-0.4-0.6   s-0.2-0.5-0.2-0.8c0-0.3,0.1-0.6,0.2-0.9c0.1-0.3,0.3-0.5,0.5-0.7c0.2-0.2,0.5-0.4,0.9-0.5c0.4-0.1,0.8-0.2,1.2-0.2   c0.5,0,1,0.1,1.4,0.3s0.8,0.4,1.1,0.7L442.7,121.2z"></path>
	<path class="st5" d="M445.9,123.7c0,0.4,0.1,0.7,0.2,1c0.1,0.3,0.2,0.5,0.4,0.7s0.4,0.3,0.6,0.4s0.5,0.1,0.8,0.1   c0.3,0,0.5,0,0.8-0.1c0.2-0.1,0.4-0.1,0.6-0.2c0.2-0.1,0.3-0.2,0.4-0.2s0.2-0.1,0.3-0.1c0.2,0,0.3,0.1,0.3,0.2l0.5,0.7   c-0.2,0.2-0.4,0.4-0.7,0.6s-0.5,0.3-0.8,0.4s-0.5,0.2-0.8,0.2c-0.3,0-0.6,0.1-0.8,0.1c-0.5,0-1-0.1-1.5-0.3s-0.8-0.4-1.2-0.8   c-0.3-0.3-0.6-0.8-0.8-1.3c-0.2-0.5-0.3-1.1-0.3-1.7c0-0.5,0.1-1,0.2-1.4s0.4-0.8,0.7-1.2s0.7-0.6,1.1-0.8c0.4-0.2,0.9-0.3,1.5-0.3   c0.5,0,0.9,0.1,1.3,0.2s0.7,0.4,1,0.7c0.3,0.3,0.5,0.6,0.7,1.1c0.2,0.4,0.2,0.9,0.2,1.4c0,0.3,0,0.5-0.1,0.5   c-0.1,0.1-0.2,0.1-0.3,0.1H445.9z M449.4,122.7c0-0.2,0-0.5-0.1-0.7c-0.1-0.2-0.2-0.4-0.3-0.5c-0.1-0.2-0.3-0.3-0.5-0.4   c-0.2-0.1-0.4-0.1-0.7-0.1c-0.5,0-0.9,0.1-1.2,0.4c-0.3,0.3-0.5,0.7-0.6,1.3H449.4z"></path>
	<path class="st5" d="M456.9,121.2c0,0.1-0.1,0.1-0.2,0.2s-0.1,0-0.2,0c-0.1,0-0.2,0-0.3-0.1s-0.2-0.1-0.3-0.2   c-0.1-0.1-0.3-0.1-0.4-0.2s-0.4-0.1-0.6-0.1c-0.4,0-0.6,0.1-0.8,0.2c-0.2,0.2-0.3,0.3-0.3,0.6c0,0.2,0.1,0.3,0.2,0.4   s0.2,0.2,0.4,0.3c0.2,0.1,0.4,0.2,0.6,0.2s0.4,0.1,0.7,0.2c0.2,0.1,0.4,0.2,0.7,0.3s0.4,0.2,0.6,0.4s0.3,0.3,0.4,0.6   s0.2,0.5,0.2,0.8c0,0.4-0.1,0.7-0.2,1s-0.3,0.6-0.6,0.8c-0.3,0.2-0.6,0.4-0.9,0.5s-0.8,0.2-1.3,0.2c-0.3,0-0.5,0-0.8-0.1   c-0.2,0-0.5-0.1-0.7-0.2c-0.2-0.1-0.4-0.2-0.6-0.3c-0.2-0.1-0.4-0.2-0.5-0.4l0.4-0.7c0.1-0.1,0.1-0.1,0.2-0.2   c0.1,0,0.2-0.1,0.3-0.1c0.1,0,0.2,0,0.3,0.1s0.2,0.1,0.3,0.2c0.1,0.1,0.3,0.1,0.5,0.2c0.2,0.1,0.4,0.1,0.7,0.1c0.2,0,0.4,0,0.6-0.1   c0.2-0.1,0.3-0.1,0.4-0.2c0.1-0.1,0.2-0.2,0.2-0.3s0.1-0.2,0.1-0.3c0-0.2-0.1-0.3-0.2-0.4c-0.1-0.1-0.2-0.2-0.4-0.3   c-0.2-0.1-0.4-0.2-0.6-0.2c-0.2-0.1-0.4-0.1-0.7-0.2c-0.2-0.1-0.5-0.2-0.7-0.3c-0.2-0.1-0.4-0.2-0.6-0.4c-0.2-0.2-0.3-0.4-0.4-0.6   s-0.2-0.5-0.2-0.8c0-0.3,0.1-0.6,0.2-0.9c0.1-0.3,0.3-0.5,0.5-0.7c0.2-0.2,0.5-0.4,0.9-0.5c0.4-0.1,0.8-0.2,1.2-0.2   c0.5,0,1,0.1,1.4,0.3s0.8,0.4,1.1,0.7L456.9,121.2z"></path>
</g>
<line class="st3" x1="337.9" y1="68.9" x2="449.5" y2="68.9"></line>
<line class="st3" x1="337.9" y1="74.9" x2="463.6" y2="74.9"></line>
<line class="st3" x1="337.9" y1="80.9" x2="463.6" y2="80.9"></line>
<line class="st3" x1="337.9" y1="86.9" x2="449.5" y2="86.9"></line>
<line class="st3" x1="337.9" y1="135.8" x2="463.6" y2="135.8"></line>
<line class="st3" x1="337.9" y1="141.8" x2="449.5" y2="141.8"></line>
<line class="st3" x1="337.9" y1="147.8" x2="463.6" y2="147.8"></line>
<line class="st3" x1="337.9" y1="153.8" x2="463.6" y2="153.8"></line>
<line class="st3" x1="337.9" y1="159.8" x2="449.5" y2="159.8"></line>
<line class="st3" x1="337.9" y1="93.3" x2="463.6" y2="93.3"></line>
<line class="st3" x1="337.9" y1="99.3" x2="449.5" y2="99.3"></line>
<line class="st3" x1="337.9" y1="165.8" x2="463.6" y2="165.8"></line>
<line class="st3" x1="337.9" y1="171.8" x2="449.5" y2="171.8"></line>
<polygon class="st6" points="110.9,164.2 72.3,202.7 59.8,190.2 98.3,151.6 59.8,113.2 72.3,100.6 110.9,139.1 149.4,100.6   161.9,113.2 123.4,151.6 161.9,190.2 149.4,202.7 "></polygon>
<path class="st0" d="M149.4,103.4l9.7,9.8l-38.5,38.5l38.5,38.5l-9.7,9.7l-38.5-38.5l-38.5,38.5l-9.7-9.7l38.5-38.5l-38.5-38.4  l9.7-9.8l38.5,38.5L149.4,103.4 M149.4,97.8l-2.8,2.8l-35.7,35.7l-35.7-35.7l-2.8-2.8l-2.8,2.8l-9.7,9.8l-2.8,2.8l2.8,2.8l35.7,35.6  l-35.7,35.7l-2.8,2.8l2.8,2.8l9.7,9.7l2.8,2.8l2.8-2.8l35.7-35.7l35.7,35.7l2.8,2.8l2.8-2.8l9.7-9.7l2.8-2.8l-2.8-2.8l-35.7-35.7  l35.7-35.6l2.8-2.8l-2.8-2.8l-9.7-9.8L149.4,97.8L149.4,97.8z"></path>
<polygon class="st7" points="430.7,165.4 443.2,152.9 468,177.6 520.3,125.3 532.8,137.9 468,202.7 "></polygon>
<path class="st0" d="M520.3,128.1l9.7,9.7l-62,62l-34.5-34.5l9.7-9.7l24.7,24.8L520.3,128.1 M520.3,122.5l-2.8,2.8L468,174.8  l-21.9-21.9l-2.8-2.8l-2.8,2.8l-9.7,9.7l-2.8,2.8l2.8,2.8l34.5,34.5l2.8,2.8l2.8-2.8l62-62l2.8-2.8l-2.8-2.9l-9.7-9.7L520.3,122.5  L520.3,122.5z"></path>
</svg>
