<?xml version="1.0" encoding="UTF-8"?>
<svg xmlns="http://www.w3.org/2000/svg" id="Layer_1" data-name="Layer 1" viewBox="0 0 531 258">
  <defs>
    <style>.cls-1{fill:#b1b8b9;}.cls-2{fill:#4dbdeb;}.cls-3{fill:#0075a8;}.cls-4{fill:#05415b;}.cls-5{fill:#272733;}.cls-6{fill:#72797b;}.cls-7{fill:#565e66;}.cls-8,.cls-9{fill:none;stroke-linecap:round;}.cls-8{stroke:#72797b;stroke-linejoin:round;stroke-width:0.98px;}.cls-9{stroke:#565e66;stroke-miterlimit:10;stroke-width:3px;}</style>
  </defs>
  <title>BGSEO_Combined_File</title>
  <rect class="cls-1" x="104.4" y="125.41" width="171.79" height="68.33" rx="3.42"></rect>
  <path class="cls-2" d="M96.7,89.79l6-8.43.93,1.81a.82.82,0,0,1,.09.43.86.86,0,0,1-.19.46l-2.75,3.83a2.86,2.86,0,0,1-.39.47c-.14.15-.3.3-.47.45a5.19,5.19,0,0,1,.64-.13,4,4,0,0,1,.6-.05h4.72a.89.89,0,0,1,.49.12.72.72,0,0,1,.3.32l.93,1.81-10.33-.07Z"></path>
  <path class="cls-2" d="M117.24,88.67a1.93,1.93,0,0,1,0,.54,2,2,0,0,1-.18.46,1.57,1.57,0,0,1-.3.38,1.84,1.84,0,0,1-.37.27l-1.07.55-1.89-18.44a1.62,1.62,0,0,1,.16-.92,1.54,1.54,0,0,1,.67-.64l1.08-.56Z"></path>
  <path class="cls-2" d="M128.15,80.3l-.93-1.81a.82.82,0,0,1-.09-.43.92.92,0,0,1,.19-.47l2.74-3.84a5.53,5.53,0,0,1,.86-.91c-.22,0-.43.1-.64.13a3,3,0,0,1-.6,0H125a.91.91,0,0,1-.49-.12.75.75,0,0,1-.29-.32l-.93-1.81,10.32.06.53,1Z"></path>
  <path class="cls-3" d="M140.11,86.42a1.42,1.42,0,0,0-.25-.87.92.92,0,0,0-.8-.34V84a.94.94,0,0,0,.8-.34,1.43,1.43,0,0,0,.25-.88,5.66,5.66,0,0,0-.06-.82c0-.27-.08-.54-.13-.82s-.09-.55-.13-.83a6,6,0,0,1-.06-.85,3.57,3.57,0,0,1,.2-1.21,2.46,2.46,0,0,1,.59-.95,2.81,2.81,0,0,1,1-.61,4.46,4.46,0,0,1,1.44-.21h.46v1a.33.33,0,0,1-.05.2.41.41,0,0,1-.12.14l-.15.08-.14,0h-.08a1.15,1.15,0,0,0-.94.39,1.58,1.58,0,0,0-.33,1.06c0,.32,0,.63,0,.93s.08.58.11.86.08.55.11.82a5.55,5.55,0,0,1,.06.82,1.89,1.89,0,0,1-.1.63,1.71,1.71,0,0,1-.27.54,2.19,2.19,0,0,1-.43.43,1.71,1.71,0,0,1-.56.27,1.71,1.71,0,0,1,.56.27,2.19,2.19,0,0,1,.43.43,1.88,1.88,0,0,1,.27.55,1.83,1.83,0,0,1,.1.62,5.66,5.66,0,0,1-.06.82c0,.27-.07.54-.11.82s-.07.56-.11.86a9,9,0,0,0,0,.93,1.57,1.57,0,0,0,.33,1,1.15,1.15,0,0,0,.94.39H143a.39.39,0,0,1,.14,0l.15.08a.41.41,0,0,1,.12.14.35.35,0,0,1,.05.2v1H143a4.46,4.46,0,0,1-1.44-.21,2.81,2.81,0,0,1-1-.61,2.35,2.35,0,0,1-.59-.94,3.63,3.63,0,0,1-.2-1.22,5.83,5.83,0,0,1,.06-.84c0-.28.08-.56.13-.83s.1-.55.13-.83A5.79,5.79,0,0,0,140.11,86.42Z"></path>
  <path class="cls-3" d="M161.6,86.42a7.7,7.7,0,0,0,.05.83c0,.28.09.55.14.83s.09.55.13.83a5.83,5.83,0,0,1,.06.84,3.63,3.63,0,0,1-.2,1.22,2.35,2.35,0,0,1-.59.94,2.81,2.81,0,0,1-1,.61,4.46,4.46,0,0,1-1.44.21h-.46v-1a.35.35,0,0,1,.05-.2.41.41,0,0,1,.12-.14l.15-.08a.36.36,0,0,1,.14,0h.08a1.16,1.16,0,0,0,.94-.39,1.57,1.57,0,0,0,.33-1A6.81,6.81,0,0,0,160,89c0-.3-.07-.58-.11-.86s-.07-.55-.11-.82a7.52,7.52,0,0,1-.05-.82,2.11,2.11,0,0,1,.09-.62,2.16,2.16,0,0,1,.27-.55,2.19,2.19,0,0,1,.43-.43,1.87,1.87,0,0,1,.57-.27,1.87,1.87,0,0,1-.57-.27,2.19,2.19,0,0,1-.43-.43,2,2,0,0,1-.27-.54,2.18,2.18,0,0,1-.09-.63,7.37,7.37,0,0,1,.05-.82c0-.27.08-.54.11-.82s.08-.57.11-.86a7,7,0,0,0,.06-.93,1.58,1.58,0,0,0-.33-1.06,1.16,1.16,0,0,0-.94-.39h-.08l-.14,0-.15-.08a.41.41,0,0,1-.12-.14.33.33,0,0,1-.05-.2v-1h.46a4.46,4.46,0,0,1,1.44.21,2.81,2.81,0,0,1,1,.61,2.46,2.46,0,0,1,.59.95,3.57,3.57,0,0,1,.2,1.21,6,6,0,0,1-.06.85c0,.28-.08.56-.13.83s-.1.55-.14.82a7.52,7.52,0,0,0-.05.82,1.43,1.43,0,0,0,.25.88.93.93,0,0,0,.8.34v1.25a.91.91,0,0,0-.8.34A1.42,1.42,0,0,0,161.6,86.42Z"></path>
  <path class="cls-4" d="M192.07,75.74a2.09,2.09,0,0,1,1.3-.94,2.44,2.44,0,0,1,.81,0,2.14,2.14,0,0,1,.79.31,2,2,0,0,1,.61.57,2.26,2.26,0,0,1,.33.73,2.44,2.44,0,0,1,0,.81,2.14,2.14,0,0,1-.3.78,2,2,0,0,1-.58.61,2.31,2.31,0,0,1-.72.32,2.15,2.15,0,0,1-.8,0,2.18,2.18,0,0,1-.78-.3,2.15,2.15,0,0,1-.62-.58,2.11,2.11,0,0,1-.34-.73,2,2,0,0,1,0-.8A2,2,0,0,1,192.07,75.74ZM187,84a1.65,1.65,0,0,1,.51-.54,1.78,1.78,0,0,1,.66-.29,1.94,1.94,0,0,1,.76,0,2.19,2.19,0,0,1,.77.31,2,2,0,0,1,.67.65,1.71,1.71,0,0,1,.28.78,2,2,0,0,1-.07.84,3,3,0,0,1-.37.82,5.32,5.32,0,0,1-.91,1.09,7.79,7.79,0,0,1-1.28.93,9.45,9.45,0,0,1-1.58.7,8.53,8.53,0,0,1-1.78.39l-.22-.78a.63.63,0,0,1,.06-.57.58.58,0,0,1,.2-.17A1,1,0,0,1,185,88l.54-.15a6,6,0,0,0,.67-.23,6.78,6.78,0,0,0,.71-.36,3.17,3.17,0,0,0,.64-.52,1.94,1.94,0,0,1-.58-.56,1.66,1.66,0,0,1-.29-.7,1.94,1.94,0,0,1,0-.76A2.14,2.14,0,0,1,187,84Z"></path>
  <path class="cls-4" d="M129,62.77a2.48,2.48,0,0,1-.58-.78,2.29,2.29,0,0,1-.22-.91,2.52,2.52,0,0,1,.15-.93,2.57,2.57,0,0,1,.51-.85,2.61,2.61,0,0,1,.79-.57,2.3,2.3,0,0,1,1.83-.08,2.41,2.41,0,0,1,.84.5,2.6,2.6,0,0,1,.58.79,2.46,2.46,0,0,1,.21.9,2.24,2.24,0,0,1-.14.92,2.45,2.45,0,0,1-.51.83,2.42,2.42,0,0,1-1.7.83,2.42,2.42,0,0,1-.92-.13A2.5,2.5,0,0,1,129,62.77Zm8.53,7.8a2.65,2.65,0,0,1-.58-.79,2.21,2.21,0,0,1-.22-.9,2.52,2.52,0,0,1,.15-.93,2.2,2.2,0,0,1,.51-.85,2.38,2.38,0,0,1,.79-.58,2.48,2.48,0,0,1,.9-.22,2.51,2.51,0,0,1,.93.14,2.43,2.43,0,0,1,.83.5,2.52,2.52,0,0,1,.59.8,2.37,2.37,0,0,1,.21.9,2.3,2.3,0,0,1-.14.92,2.86,2.86,0,0,1-.51.83,2.68,2.68,0,0,1-.8.59,2.28,2.28,0,0,1-1.82.1A2.63,2.63,0,0,1,137.56,70.57Z"></path>
  <path class="cls-3" d="M149,64.51a14.71,14.71,0,0,0,.44,3.56,14.1,14.1,0,0,0,1.26,3.28,1.45,1.45,0,0,1,.08.21,1.41,1.41,0,0,1,0,.18.41.41,0,0,1-.09.28.6.6,0,0,1-.21.18l-1,.59a14.69,14.69,0,0,1-1.86-4.05,14.74,14.74,0,0,1-.42-2.08,16.88,16.88,0,0,1-.14-2.15,17.16,17.16,0,0,1,.14-2.16,14.74,14.74,0,0,1,.42-2.08,14.69,14.69,0,0,1,1.86-4.05l1,.58a.91.91,0,0,1,.21.18.45.45,0,0,1,.09.28,1.05,1.05,0,0,1-.11.4A14.44,14.44,0,0,0,149.45,61,14.65,14.65,0,0,0,149,64.51Z"></path>
  <path class="cls-3" d="M167.49,64.51a14.17,14.17,0,0,0-.44-3.56,14.9,14.9,0,0,0-1.24-3.29.93.93,0,0,1-.12-.4.45.45,0,0,1,.09-.28.91.91,0,0,1,.21-.18l1-.58a15.36,15.36,0,0,1,1.1,2,13.2,13.2,0,0,1,.75,2,14.77,14.77,0,0,1,.43,2.08,17.16,17.16,0,0,1,.13,2.16,16.89,16.89,0,0,1-.13,2.15,14.77,14.77,0,0,1-.43,2.08,13.2,13.2,0,0,1-.75,2,15.36,15.36,0,0,1-1.1,2l-1-.59a.6.6,0,0,1-.21-.18.41.41,0,0,1-.09-.28,1.41,1.41,0,0,1,0-.18,1.65,1.65,0,0,1,.09-.21,14.54,14.54,0,0,0,1.25-3.28A14.23,14.23,0,0,0,167.49,64.51Z"></path>
  <path class="cls-2" d="M179.71,84.33,178.63,90h-1.58a1,1,0,0,1-.72-.34,1.15,1.15,0,0,1-.31-.82.66.66,0,0,1,0-.14.69.69,0,0,1,0-.13l.82-4.27H174l-.81,4.44a1.39,1.39,0,0,1-.58,1,1.7,1.7,0,0,1-1,.3h-1.52l1.06-5.7h-1.61a1,1,0,0,1-.68-.22.92.92,0,0,1-.24-.72,4.14,4.14,0,0,1,0-.45l.19-1.1h2.65l.73-3.86h-3l.26-1.44a1.26,1.26,0,0,1,.44-.79,1.81,1.81,0,0,1,1.09-.25h1.55l.86-4.5a1.44,1.44,0,0,1,.52-.87,1.57,1.57,0,0,1,1-.31h1.56l-1.06,5.68h2.85l1.08-5.68h1.54a1.15,1.15,0,0,1,.79.28.92.92,0,0,1,.31.72,1.06,1.06,0,0,1,0,.21l-.86,4.47H184l-.26,1.44a1.21,1.21,0,0,1-.44.78,1.75,1.75,0,0,1-1.08.26h-1.4l-.71,3.86h2a.94.94,0,0,1,.68.22,1,1,0,0,1,.23.73,2.57,2.57,0,0,1,0,.45l-.17,1.09Zm-5.35-2.49h2.86l.71-3.86h-2.85Z"></path>
  <path class="cls-3" d="M103.16,75.05,95.4,60.72,98.56,59l.41.75a.54.54,0,0,1,0,.43.56.56,0,0,1-.29.34l-1.06.57L104.09,73l1.06-.58a.55.55,0,0,1,.45-.05.52.52,0,0,1,.32.26l.41.75Z"></path>
  <path class="cls-3" d="M119.41,66.24l-.4-.75a.51.51,0,0,1-.05-.42.57.57,0,0,1,.29-.34l1.07-.58L113.89,52.3l-1.06.57a.6.6,0,0,1-.45.06.55.55,0,0,1-.33-.27l-.4-.75,3.16-1.71,7.77,14.32Z"></path>
  <path class="cls-4" d="M150.53,48.44l9.33-2.67-.38,1.88a.7.7,0,0,1-.19.36.86.86,0,0,1-.41.24l-4.27,1.18a3.48,3.48,0,0,1-.56.12,5.86,5.86,0,0,1-.61,0,5.44,5.44,0,0,1,.54.29,3.08,3.08,0,0,1,.48.32L157.91,53a.9.9,0,0,1,.29.38.71.71,0,0,1,0,.41l-.39,1.87-7.52-6.13Z"></path>
  <path class="cls-4" d="M179.15,60l.38-1.87a.82.82,0,0,1,.19-.37.9.9,0,0,1,.41-.23l4.27-1.2a5.18,5.18,0,0,1,1.18-.16c-.2-.09-.38-.19-.55-.28a4,4,0,0,1-.47-.33l-3.46-2.77a1,1,0,0,1-.29-.37.81.81,0,0,1,0-.41l.38-1.88,7.53,6.13-.22,1.06Z"></path>
  <path class="cls-2" d="M130.76,44h12.11v2.5H130.76Zm0,4.81h12.11v2.52H130.76Z"></path>
  <path class="cls-2" d="M288,162.68l7.52-2.25-.3,1.52a.64.64,0,0,1-.14.3.74.74,0,0,1-.34.19l-3.44,1a3,3,0,0,1-.45.1l-.5,0,.45.22a3.62,3.62,0,0,1,.38.26l2.82,2.22a.67.67,0,0,1,.24.3.61.61,0,0,1,0,.33l-.3,1.52-6.14-4.89Z"></path>
  <path class="cls-2" d="M305.89,170.79l.29-1.52a.61.61,0,0,1,.15-.3.76.76,0,0,1,.33-.19l3.44-1a4.42,4.42,0,0,1,.95-.14c-.16-.07-.3-.15-.44-.22a3.77,3.77,0,0,1-.39-.26l-2.82-2.21a.58.58,0,0,1-.23-.3.62.62,0,0,1,0-.33l.29-1.52,6.15,4.88-.17.86Z"></path>
  <path class="cls-3" d="M314.26,189.56a1.44,1.44,0,0,0-.2-.88.91.91,0,0,0-.78-.39l.07-1.25a1,1,0,0,0,.82-.29,1.43,1.43,0,0,0,.3-.86,4.48,4.48,0,0,0,0-.82c0-.28,0-.55-.08-.83s-.06-.56-.08-.84a6,6,0,0,1,0-.85,3.77,3.77,0,0,1,.26-1.2,2.49,2.49,0,0,1,.65-.91,2.66,2.66,0,0,1,1-.55,4.4,4.4,0,0,1,1.45-.13l.47,0-.06,1a.34.34,0,0,1-.06.2.49.49,0,0,1-.13.12.37.37,0,0,1-.16.07.36.36,0,0,1-.14,0h-.08a1.12,1.12,0,0,0-1,.33,1.61,1.61,0,0,0-.39,1,7.21,7.21,0,0,0,0,.93q0,.45.06.87l.06.82a7.48,7.48,0,0,1,0,.82,2.61,2.61,0,0,1-.13.63,1.91,1.91,0,0,1-.3.52,2.21,2.21,0,0,1-.46.4,1.87,1.87,0,0,1-.58.24,2,2,0,0,1,.55.31,1.9,1.9,0,0,1,.4.45,1.86,1.86,0,0,1,.24.56,2.18,2.18,0,0,1,.06.63,7.46,7.46,0,0,1-.1.81c-.05.27-.1.54-.16.81s-.11.56-.16.86a8.58,8.58,0,0,0-.11.92,1.63,1.63,0,0,0,.27,1.07,1.13,1.13,0,0,0,.91.44h.08l.14,0,.15.09a.26.26,0,0,1,.11.14.36.36,0,0,1,0,.21l-.05,1-.47,0a4.2,4.2,0,0,1-1.42-.3,2.66,2.66,0,0,1-1-.67,2.43,2.43,0,0,1-.54-1,3.45,3.45,0,0,1-.12-1.22,6,6,0,0,1,.1-.85l.18-.82c.07-.27.13-.54.18-.82A5.58,5.58,0,0,0,314.26,189.56Z"></path>
  <path class="cls-3" d="M335.71,190.82a5.61,5.61,0,0,0,0,.82c0,.28,0,.56.08.84s.06.55.08.83a4.83,4.83,0,0,1,0,.85,3.77,3.77,0,0,1-.26,1.21,2.45,2.45,0,0,1-.65.9,2.79,2.79,0,0,1-1,.55,4.4,4.4,0,0,1-1.45.13l-.46,0,.05-1a.53.53,0,0,1,.06-.19.44.44,0,0,1,.13-.14l.16-.07.14,0h.08a1.18,1.18,0,0,0,1-.33,1.64,1.64,0,0,0,.39-1,7.06,7.06,0,0,0,0-.92q0-.45-.06-.87l-.06-.83a7.3,7.3,0,0,1,0-.81,2.44,2.44,0,0,1,.13-.62,1.73,1.73,0,0,1,.3-.53,1.77,1.77,0,0,1,.46-.4,1.87,1.87,0,0,1,.58-.24,1.74,1.74,0,0,1-.55-.31,2,2,0,0,1-.41-.45,1.78,1.78,0,0,1-.23-.55,2.28,2.28,0,0,1-.06-.64,6.89,6.89,0,0,1,.1-.81c.05-.27.1-.54.16-.82s.11-.56.16-.85a8.58,8.58,0,0,0,.11-.92,1.64,1.64,0,0,0-.27-1.08,1.13,1.13,0,0,0-.91-.44h-.08l-.14,0-.15-.09a.36.36,0,0,1-.11-.14.45.45,0,0,1,0-.2l.06-1,.46,0a4.2,4.2,0,0,1,1.42.3,2.66,2.66,0,0,1,1,.67,2.32,2.32,0,0,1,.54,1,3.53,3.53,0,0,1,.12,1.23,5.67,5.67,0,0,1-.1.84l-.18.82c-.07.28-.13.55-.18.82a5.63,5.63,0,0,0-.11.81,1.47,1.47,0,0,0,.2.89,1,1,0,0,0,.78.38l-.07,1.26a.92.92,0,0,0-.82.29A1.41,1.41,0,0,0,335.71,190.82Z"></path>
  <path class="cls-4" d="M340.69,186a1.36,1.36,0,0,1,.43-.92,1.76,1.76,0,0,1,.44-.26,1.39,1.39,0,0,1,.54-.07,1.29,1.29,0,0,1,.51.14,1.35,1.35,0,0,1,.4.3,1.28,1.28,0,0,1,.26.44,1.31,1.31,0,0,1,.07.52,1.29,1.29,0,0,1-.13.52,1.35,1.35,0,0,1-.31.4,1.31,1.31,0,0,1-.43.25,1.36,1.36,0,0,1-.53.07,1.53,1.53,0,0,1-.52-.13,1.55,1.55,0,0,1-.41-.3,1.2,1.2,0,0,1-.25-.44A1.29,1.29,0,0,1,340.69,186Zm-.3,6.11a1.16,1.16,0,0,1,.12-.45,1.09,1.09,0,0,1,.28-.36,1.08,1.08,0,0,1,.42-.23,1.26,1.26,0,0,1,.52-.07,1.41,1.41,0,0,1,.57.16,1.19,1.19,0,0,1,.4.34,1.43,1.43,0,0,1,.21.49,1.78,1.78,0,0,1,0,.57,3.63,3.63,0,0,1-.18.88,4,4,0,0,1-.43.91,5.79,5.79,0,0,1-.65.87,5.35,5.35,0,0,1-.88.75l-.35-.36a.39.39,0,0,1-.14-.33.29.29,0,0,1,.06-.16.79.79,0,0,1,.12-.15l.26-.24a3.45,3.45,0,0,0,.3-.34,3.27,3.27,0,0,0,.28-.41,1.74,1.74,0,0,0,.2-.49,1.11,1.11,0,0,1-.49-.13,1,1,0,0,1-.38-.3,1.22,1.22,0,0,1-.23-.42A1.54,1.54,0,0,1,340.39,192.15Z"></path>
  <path class="cls-4" d="M388.83,232.26a1.28,1.28,0,0,1,.3-.43,1.41,1.41,0,0,1,.43-.27,1.44,1.44,0,0,1,.51-.08,1.23,1.23,0,0,1,.52.12,1.22,1.22,0,0,1,.43.31,1.3,1.3,0,0,1,.27.43,1.17,1.17,0,0,1,.08.5,1.26,1.26,0,0,1-.11.51,1.4,1.4,0,0,1-.31.44,1.59,1.59,0,0,1-.43.26,1.2,1.2,0,0,1-.5.08,1.13,1.13,0,0,1-.51-.12,1.42,1.42,0,0,1-.72-.73,1.2,1.2,0,0,1-.08-.5A1.23,1.23,0,0,1,388.83,232.26ZM386.26,238a1.52,1.52,0,0,1,.31-.44,1.13,1.13,0,0,1,.43-.26,1.35,1.35,0,0,1,.5-.09,1.58,1.58,0,0,1,.52.12,1.35,1.35,0,0,1,.43.31,1.41,1.41,0,0,1,.27.43,1.39,1.39,0,0,1,.09.5,1.35,1.35,0,0,1-.43.95,1.3,1.3,0,0,1-.43.27,1.57,1.57,0,0,1-.49.08,1.37,1.37,0,0,1-.52-.13,1.23,1.23,0,0,1-.44-.3,1.3,1.3,0,0,1-.27-.43,1.2,1.2,0,0,1-.09-.5A1.58,1.58,0,0,1,386.26,238Z"></path>
  <path class="cls-3" d="M365.81,225.35a14.27,14.27,0,0,0-1.06,3.42,14.45,14.45,0,0,0-.2,3.52,1.48,1.48,0,0,1,0,.22c0,.07,0,.12-.05.17a.51.51,0,0,1-.2.23.77.77,0,0,1-.27.07l-1.12.15a16.7,16.7,0,0,1-.19-2.29,14.12,14.12,0,0,1,.16-2.17,14.72,14.72,0,0,1,.46-2.07,17.71,17.71,0,0,1,.76-2,16.46,16.46,0,0,1,1-1.91,13.28,13.28,0,0,1,1.24-1.73,13.87,13.87,0,0,1,1.52-1.55,14.59,14.59,0,0,1,1.83-1.38l.64.93a.58.58,0,0,1,.12.25.5.5,0,0,1,0,.29,1,1,0,0,1-.27.31,14.92,14.92,0,0,0-4.34,5.56Z"></path>
  <path class="cls-3" d="M382.66,232.92a14.21,14.21,0,0,0,1.06-3.43,14.35,14.35,0,0,0,.21-3.51,1.15,1.15,0,0,1,.06-.41.41.41,0,0,1,.2-.21.61.61,0,0,1,.26-.08l1.12-.13a16.43,16.43,0,0,1,.19,2.28,15.26,15.26,0,0,1-.15,2.16,14.57,14.57,0,0,1-.47,2.08,17.71,17.71,0,0,1-.76,2,16.46,16.46,0,0,1-1,1.91,13.88,13.88,0,0,1-1.24,1.72,14.79,14.79,0,0,1-1.51,1.56,15.48,15.48,0,0,1-1.84,1.38l-.64-.93a1.15,1.15,0,0,1-.12-.25.46.46,0,0,1,0-.3.6.6,0,0,1,.09-.15.81.81,0,0,1,.16-.16,14.42,14.42,0,0,0,4.35-5.55Z"></path>
  <path class="cls-2" d="M352.58,214.23l-1.45,3.34-1-.22a.63.63,0,0,1-.4-.3.8.8,0,0,1-.07-.55s0-.06,0-.08l0-.08,1.1-2.51-1.75-.4L348,216.05a.87.87,0,0,1-.48.51,1.11,1.11,0,0,1-.65,0l-.93-.21,1.44-3.35-1-.22a.63.63,0,0,1-.39-.23.6.6,0,0,1,0-.47,1.22,1.22,0,0,1,.09-.27l.26-.65,1.63.36,1-2.26-1.83-.41.36-.85a.74.74,0,0,1,.37-.42,1.11,1.11,0,0,1,.71,0l.95.21,1.15-2.63a.86.86,0,0,1,.44-.46,1,1,0,0,1,.63-.06l1,.22-1.44,3.33,1.75.39,1.44-3.33.95.22a.66.66,0,0,1,.44.28.58.58,0,0,1,.09.48.86.86,0,0,1,0,.13L354.67,209l1.74.39-.36.85a.76.76,0,0,1-.38.42,1.15,1.15,0,0,1-.7,0l-.85-.2-1,2.27,1.22.27a.62.62,0,0,1,.38.23.58.58,0,0,1,0,.48,1.14,1.14,0,0,1-.08.27l-.26.65ZM349.65,212l1.75.4,1-2.27-1.75-.4Z"></path>
  <path class="cls-3" d="M404,251.78V235.49h3.6v.85a.53.53,0,0,1-.16.39.57.57,0,0,1-.42.16h-1.21v13.49H407a.57.57,0,0,1,.42.16.53.53,0,0,1,.16.39v.85Z"></path>
  <path class="cls-3" d="M422.43,251.78v-.85a.53.53,0,0,1,.16-.39.57.57,0,0,1,.42-.16h1.21V236.89H423a.57.57,0,0,1-.42-.16.53.53,0,0,1-.16-.39v-.85H426v16.29Z"></path>
  <path class="cls-2" d="M481.11,246.93h7.79v1.61h-7.79Zm0,3.09h7.79v1.62h-7.79Z"></path>
  <path class="cls-1" d="M193.72,88.36H94.64s23.43,20.5,20.5,39.53h58.08C170.29,108.86,193.72,88.36,193.72,88.36Z"></path>
  <polygon class="cls-5" points="136.62 255.27 125.88 255.27 125.88 193.78 147.35 193.78 136.62 255.27"></polygon>
  <polygon class="cls-5" points="218.61 255.27 229.34 255.27 229.34 193.78 207.87 193.78 218.61 255.27"></polygon>
  <rect class="cls-1" x="68.29" y="150.79" width="29.28" height="17.57"></rect>
  <path class="cls-6" d="M92.2,142a3.42,3.42,0,0,0-3.41,3.42v28.31a3.41,3.41,0,0,0,3.41,3.41h12.2V142Z"></path>
  <circle class="cls-7" cx="60.72" cy="159.37" r="6.59"></circle>
  <path class="cls-5" d="M72.2,5.33S12.47,1,12,1h-.08a10.92,10.92,0,0,0,0,21.84L72.2,18.51h0a3.74,3.74,0,0,0,3.41-3.66V9A3.74,3.74,0,0,0,72.2,5.33Z"></path>
  <polygon class="cls-1" points="73.17 144.48 63.41 144.48 74.14 18.57 80 18.57 73.17 144.48"></polygon>
  <rect class="cls-6" x="60.48" y="143.71" width="15.62" height="31.72" rx="3.42"></rect>
  <rect class="cls-6" x="71.22" y="1.92" width="11.71" height="20.01" rx="3.42"></rect>
  <rect class="cls-6" x="94.64" y="88.36" width="99.07" height="2.93"></rect>
  <path class="cls-8" d="M115.12,125.29a17.81,17.81,0,0,0,8.79,4.31"></path>
  <path class="cls-8" d="M143.88,130.8s18.11,0,29.35-5.29"></path>
  <path class="cls-8" d="M129,130.42c1.56.18,3.21.3,4.94.38"></path>
  <rect class="cls-6" x="260.58" y="116.63" width="30.75" height="85.9" rx="3.42"></rect>
  <line class="cls-9" x1="2" y1="255.76" x2="529" y2="255.76"></line>
  <path class="cls-4" d="M438.5,244.59l7-3.63v1.55a.62.62,0,0,1-.09.32.81.81,0,0,1-.29.25l-3.19,1.63a2.77,2.77,0,0,1-.43.18,4.41,4.41,0,0,1-.47.14,4.49,4.49,0,0,1,.47.13,2.77,2.77,0,0,1,.43.18l3.19,1.65a.72.72,0,0,1,.29.25.57.57,0,0,1,.09.32v1.54l-7-3.63Z"></path>
  <path class="cls-4" d="M452.77,251a1.25,1.25,0,0,1-.2.36,1.12,1.12,0,0,1-.28.25,1.66,1.66,0,0,1-.33.15,1,1,0,0,1-.34.05h-.92l5.13-13.12a1.2,1.2,0,0,1,.43-.57,1.19,1.19,0,0,1,.68-.2h.92Z"></path>
  <path class="cls-4" d="M463.06,249.1v-1.54a.57.57,0,0,1,.09-.32.66.66,0,0,1,.29-.25l3.19-1.65a4.12,4.12,0,0,1,.9-.31l-.48-.14a2.65,2.65,0,0,1-.42-.18l-3.19-1.63a.73.73,0,0,1-.29-.25.62.62,0,0,1-.09-.32V241l7,3.63v.88Z"></path>
</svg>
